<svg xmlns="http://www.w3.org/2000/svg" width="800" height="140" viewBox="0 0 800 140" class="WaveDrom"><g transform="translate(0.5,0.5)" text-anchor="middle" font-size="14" font-family="sans-serif" font-weight="normal"><g transform="translate(4,91)"><g stroke="black" stroke-width="1" stroke-linecap="round"><line x2="791"/><line y2="31"/><line x2="791" y1="31" y2="31"/><line x1="791" x2="791" y2="31"/><line x1="766" x2="766" y2="3"/><line x1="766" x2="766" y1="31" y2="28"/><line x1="742" x2="742" y2="3"/><line x1="742" x2="742" y1="31" y2="28"/><line x1="717" x2="717" y2="3"/><line x1="717" x2="717" y1="31" y2="28"/><line x1="692" x2="692" y2="3"/><line x1="692" x2="692" y1="31" y2="28"/><line x1="667" x2="667" y2="3"/><line x1="667" x2="667" y1="31" y2="28"/><line x1="643" x2="643" y2="3"/><line x1="643" x2="643" y1="31" y2="28"/><line x1="618" x2="618" y2="3"/><line x1="618" x2="618" y1="31" y2="28"/><line x1="593" x2="593" y2="3"/><line x1="593" x2="593" y1="31" y2="28"/><line x1="569" x2="569" y2="3"/><line x1="569" x2="569" y1="31" y2="28"/><line x1="544" x2="544" y2="3"/><line x1="544" x2="544" y1="31" y2="28"/><line x1="519" x2="519" y2="3"/><line x1="519" x2="519" y1="31" y2="28"/><line x1="494" x2="494" y2="3"/><line x1="494" x2="494" y1="31" y2="28"/><line x1="470" x2="470" y2="3"/><line x1="470" x2="470" y1="31" y2="28"/><line x1="445" x2="445" y2="3"/><line x1="445" x2="445" y1="31" y2="28"/><line x1="420" x2="420" y2="3"/><line x1="420" x2="420" y1="31" y2="28"/><line x1="396" x2="396" y2="31"/><line x1="371" x2="371" y2="3"/><line x1="371" x2="371" y1="31" y2="28"/><line x1="346" x2="346" y2="3"/><line x1="346" x2="346" y1="31" y2="28"/><line x1="321" x2="321" y2="3"/><line x1="321" x2="321" y1="31" y2="28"/><line x1="297" x2="297" y2="3"/><line x1="297" x2="297" y1="31" y2="28"/><line x1="272" x2="272" y2="3"/><line x1="272" x2="272" y1="31" y2="28"/><line x1="247" x2="247" y2="3"/><line x1="247" x2="247" y1="31" y2="28"/><line x1="222" x2="222" y2="3"/><line x1="222" x2="222" y1="31" y2="28"/><line x1="198" x2="198" y2="3"/><line x1="198" x2="198" y1="31" y2="28"/><line x1="173" x2="173" y2="3"/><line x1="173" x2="173" y1="31" y2="28"/><line x1="148" x2="148" y2="3"/><line x1="148" x2="148" y1="31" y2="28"/><line x1="124" x2="124" y2="3"/><line x1="124" x2="124" y1="31" y2="28"/><line x1="99" x2="99" y2="3"/><line x1="99" x2="99" y1="31" y2="28"/><line x1="74" x2="74" y2="3"/><line x1="74" x2="74" y1="31" y2="28"/><line x1="49" x2="49" y2="3"/><line x1="49" x2="49" y1="31" y2="28"/><line x1="25" x2="25" y2="3"/><line x1="25" x2="25" y1="31" y2="28"/></g><g><g><rect x="396" width="396" height="31" field="wLength" style="fill-opacity:0.1;fill:#006aff"/><rect width="396" height="31" field="wIndex" style="fill-opacity:0.1;fill:#ffbf00"/></g><g transform="translate(12,-11)"><g transform="translate(766)"><text y="6">0</text></g><g transform="translate(396)"><text y="6">15</text></g><g transform="translate(371)"><text y="6">16</text></g><g transform="translate(0)"><text y="6">31</text></g></g><g transform="translate(12,15)"><g transform="translate(581)"><text y="6"><tspan>wLength</tspan></text></g><g transform="translate(185)"><text y="6"><tspan>wIndex</tspan></text></g></g><g transform="translate(12,39)"><g><g transform="translate(581)"><text y="6"><tspan>Number of bytes to transfer in DATA step</tspan></text></g></g><g><g transform="translate(185)"><text y="6"><tspan>Index of offset</tspan></text></g></g></g></g></g><g transform="translate(4,21)"><g stroke="black" stroke-width="1" stroke-linecap="round"><line x2="791"/><line y2="31"/><line x2="791" y1="31" y2="31"/><line x1="791" x2="791" y2="31"/><line x1="766" x2="766" y2="3"/><line x1="766" x2="766" y1="31" y2="28"/><line x1="742" x2="742" y2="3"/><line x1="742" x2="742" y1="31" y2="28"/><line x1="717" x2="717" y2="3"/><line x1="717" x2="717" y1="31" y2="28"/><line x1="692" x2="692" y2="3"/><line x1="692" x2="692" y1="31" y2="28"/><line x1="667" x2="667" y2="3"/><line x1="667" x2="667" y1="31" y2="28"/><line x1="643" x2="643" y2="3"/><line x1="643" x2="643" y1="31" y2="28"/><line x1="618" x2="618" y2="3"/><line x1="618" x2="618" y1="31" y2="28"/><line x1="593" x2="593" y2="3"/><line x1="593" x2="593" y1="31" y2="28"/><line x1="569" x2="569" y2="3"/><line x1="569" x2="569" y1="31" y2="28"/><line x1="544" x2="544" y2="3"/><line x1="544" x2="544" y1="31" y2="28"/><line x1="519" x2="519" y2="3"/><line x1="519" x2="519" y1="31" y2="28"/><line x1="494" x2="494" y2="3"/><line x1="494" x2="494" y1="31" y2="28"/><line x1="470" x2="470" y2="3"/><line x1="470" x2="470" y1="31" y2="28"/><line x1="445" x2="445" y2="3"/><line x1="445" x2="445" y1="31" y2="28"/><line x1="420" x2="420" y2="3"/><line x1="420" x2="420" y1="31" y2="28"/><line x1="396" x2="396" y2="31"/><line x1="371" x2="371" y2="3"/><line x1="371" x2="371" y1="31" y2="28"/><line x1="346" x2="346" y2="3"/><line x1="346" x2="346" y1="31" y2="28"/><line x1="321" x2="321" y2="3"/><line x1="321" x2="321" y1="31" y2="28"/><line x1="297" x2="297" y2="3"/><line x1="297" x2="297" y1="31" y2="28"/><line x1="272" x2="272" y2="3"/><line x1="272" x2="272" y1="31" y2="28"/><line x1="247" x2="247" y2="3"/><line x1="247" x2="247" y1="31" y2="28"/><line x1="222" x2="222" y2="3"/><line x1="222" x2="222" y1="31" y2="28"/><line x1="198" x2="198" y2="31"/><line x1="173" x2="173" y2="3"/><line x1="173" x2="173" y1="31" y2="28"/><line x1="148" x2="148" y2="3"/><line x1="148" x2="148" y1="31" y2="28"/><line x1="124" x2="124" y2="3"/><line x1="124" x2="124" y1="31" y2="28"/><line x1="99" x2="99" y2="3"/><line x1="99" x2="99" y1="31" y2="28"/><line x1="74" x2="74" y2="3"/><line x1="74" x2="74" y1="31" y2="28"/><line x1="49" x2="49" y2="3"/><line x1="49" x2="49" y1="31" y2="28"/><line x1="25" x2="25" y2="3"/><line x1="25" x2="25" y1="31" y2="28"/></g><g><g><rect x="396" width="396" height="31" field="wValue" style="fill-opacity:0.1;fill:#ffbf00"/><rect x="198" width="198" height="31" field="bRequest" style="fill-opacity:0.1;fill:#aaff00"/><rect width="198" height="31" field="bmRequestType" style="fill-opacity:0.1;fill:#aaff00"/></g><g transform="translate(12,-11)"><g transform="translate(766)"><text y="6">32</text></g><g transform="translate(396)"><text y="6">47</text></g><g transform="translate(371)"><text y="6">48</text></g><g transform="translate(198)"><text y="6">55</text></g><g transform="translate(173)"><text y="6">56</text></g><g transform="translate(0)"><text y="6">63</text></g></g><g transform="translate(12,15)"><g transform="translate(581)"><text y="6"><tspan>wValue</tspan></text></g><g transform="translate(284)"><text y="6"><tspan>bRequest</tspan></text></g><g transform="translate(87)"><text y="6"><tspan>bmRequestType</tspan></text></g></g><g transform="translate(12,39)"><g><g transform="translate(581)"><text y="6"><tspan>Value</tspan></text></g></g><g><g transform="translate(284)"><text y="6"><tspan>Specific to request</tspan></text></g></g></g></g></g></g></svg>