<?xml version="1.0" encoding="UTF-8" standalone="no"?>
<!-- Created with Inkscape (http://www.inkscape.org/) -->

<svg
   width="74.348mm"
   height="39.158mm"
   version="1.1"
   viewBox="0 0 74.348 39.158"
   id="svg107"
   sodipodi:docname="pi-pico-w.svg"
   inkscape:version="1.3 (0e150ed, 2023-07-21)"
   xmlns:inkscape="http://www.inkscape.org/namespaces/inkscape"
   xmlns:sodipodi="http://sodipodi.sourceforge.net/DTD/sodipodi-0.dtd"
   xmlns="http://www.w3.org/2000/svg"
   xmlns:svg="http://www.w3.org/2000/svg">
  <sodipodi:namedview
     id="namedview107"
     pagecolor="#ffffff"
     bordercolor="#666666"
     borderopacity="1.0"
     inkscape:showpageshadow="2"
     inkscape:pageopacity="0.0"
     inkscape:pagecheckerboard="0"
     inkscape:deskcolor="#d1d1d1"
     inkscape:document-units="mm"
     inkscape:zoom="1.5946081"
     inkscape:cx="140.78694"
     inkscape:cy="73.999372"
     inkscape:window-width="1312"
     inkscape:window-height="431"
     inkscape:window-x="0"
     inkscape:window-y="25"
     inkscape:window-maximized="0"
     inkscape:current-layer="svg107" />
  <defs
     id="defs1">
    <filter
       id="ledFilter"
       x="-0.46153848"
       y="-0.46153848"
       width="1.923077"
       height="1.923077">
      <feGaussianBlur
         stdDeviation="0.5"
         id="feGaussianBlur1" />
    </filter>
  </defs>
  <g
     transform="translate(-4.2667 -65.609)"
     id="g107"
     style="stroke:none">
    <rect
       x="4.399"
       y="65.741"
       width="74.083"
       height="38.894"
       rx=".030434"
       stroke="#9d9d9d"
       stroke-width=".26458"
       style="paint-order:stroke markers fill;stroke:none"
       id="rect1" />
    <g
       transform="matrix(0 -1.1799 1.1799 0 -69.116 115.1)"
       id="g106"
       style="stroke:none">
      <g
         stroke-width=".0254"
         id="g2"
         style="stroke:none">
        <path
           d="m19.655 72.134c0.49002 0 0.88867-0.39865 0.88867-0.889 0-0.49037-0.39865-0.88864-0.88867-0.88864-0.48999 0-0.88865 0.39863-0.88865 0.88864 0 0.48999 0.39865 0.889 0.88865 0.889zm11.39 46.901c0.49002 0 0.88864-0.39863 0.88864-0.88901 0-0.49034-0.39863-0.889-0.88864-0.889-0.49037 0-0.889 0.39863-0.889 0.889 0 0.49038 0.39863 0.88901 0.889 0.88901zm0-46.901c0.49002 0 0.88864-0.39865 0.88864-0.889 0-0.49037-0.39863-0.88864-0.88864-0.88864-0.49037 0-0.889 0.39863-0.889 0.88864 0 0.48999 0.39863 0.889 0.889 0.889z"
           fill="none"
           id="path1"
           style="stroke:none" />
        <circle
           cx="19.655"
           cy="118.15"
           r=".88865"
           fill="none"
           id="circle1"
           style="stroke:none" />
        <path
           d="m35.85 72.677v-1.687c-0.06952 0-0.13266-0.02083-0.19086-0.05045v1.7875c0.05819-0.02964 0.12134-0.05009 0.19086-0.05009zm0 2.54v-1.687c-0.06952 0-0.13266-0.02083-0.19086-0.05044v1.7875c0.05819-0.02929 0.12134-0.05009 0.19086-0.05009zm0 2.54v-1.6866c-0.06952 0-0.13266-0.02083-0.19086-0.05044v1.7872c0.05819-0.02964 0.12134-0.05009 0.19086-0.05009zm0 2.5396v-1.6863c-0.06952 0-0.13266-0.02083-0.19086-0.05044v1.7868c0.05819-0.02962 0.12134-0.05009 0.19086-0.05009zm0 2.54v-1.6866c-0.06952 0-0.13266-0.02083-0.19086-0.05044v1.7872c0.05819-0.02962 0.12134-0.05009 0.19086-0.05009zm0 2.54v-1.6866c-0.06952 0-0.13266-0.02083-0.19086-0.05044v1.7872c0.05819-0.02962 0.12134-0.05009 0.19086-0.05009zm0 2.54v-1.6866c-0.06952 0-0.13266-0.02083-0.19086-0.05044v1.7872c0.05819-0.02962 0.12134-0.05009 0.19086-0.05009zm0 2.54v-1.6866c-0.06952 0-0.13266-0.02083-0.19086-0.05044v1.7872c0.05819-0.02962 0.12134-0.05009 0.19086-0.05009zm0 2.54v-1.6866c-0.06952 0-0.13266-0.0208-0.19086-0.05044v1.7872c0.05819-0.02962 0.12134-0.05009 0.19086-0.05009zm0 2.54v-1.6866c-0.06952 0-0.13266-0.0208-0.19086-0.05044v1.7872c0.05819-0.02962 0.12134-0.05009 0.19086-0.05009zm0 2.54v-1.6866c-0.06952 0-0.13266-0.02083-0.19086-0.05047v1.7872c0.05819-0.02962 0.12134-0.05009 0.19086-0.05009zm0 2.54v-1.6866c-0.06952 0-0.13266-0.0208-0.19086-0.05044v1.7872c0.05819-0.0296 0.12134-0.0501 0.19086-0.0501zm0 2.54v-1.6866c-0.06952 0-0.13266-0.0208-0.19086-0.0505v1.7872c0.05819-0.0296 0.12134-0.0501 0.19086-0.0501zm0 2.54v-1.6866c-0.06952 0-0.13266-0.0208-0.19086-0.0505v1.7872c0.05819-0.0297 0.12134-0.0501 0.19086-0.0501zm0 2.54v-1.6866c-0.06952 0-0.13266-0.0208-0.19086-0.0505v1.7872c0.05819-0.0296 0.12134-0.0501 0.19086-0.0501zm0 2.54v-1.6866c-0.06952 0-0.13266-0.0208-0.19086-0.0505v1.7872c0.05819-0.0296 0.12134-0.0501 0.19086-0.0501zm0 2.54v-1.6866c-0.06952 0-0.13266-0.0208-0.19086-0.0505v1.7872c0.05819-0.0296 0.12134-0.0501 0.19086-0.0501zm0 2.54v-1.6866c-0.06952 0-0.13266-0.0208-0.19086-0.0504v1.7872c0.05819-0.0296 0.12134-0.0501 0.19086-0.0501zm0 2.5396v-1.6863c-0.06952 0-0.13266-0.0208-0.19086-0.0504v1.7868c0.05819-0.0296 0.12134-0.0501 0.19086-0.0501zm0 0.85339c-0.06952 0-0.13266-0.0208-0.19086-0.0504v0.55634c0 0.13792-0.11184 0.25011-0.25014 0.25011-1.0672-7e-3 -7.2482-0.40028-7.0919 0.19086h7.1332c0.22085 0 0.40005-0.17922 0.40005-0.40005v-0.54681zm-0.11714-49.937-0.14709 0.14676a0.24928 0.24928 0 0 1 0.07338 0.17673v0.54966c0.05819-0.02964 0.12134-0.05047 0.19086-0.05047v-0.53975a0.39822 0.39822 0 0 0-0.11714-0.28293zm-20.442 50.692a0.24755 0.24755 0 0 1-0.17673-0.0734l-0.14712 0.14676a0.39914 0.39914 0 0 0 0.28296 0.11709h14.055c-0.2574-0.61257-12.857-0.19045-14.014-0.19045z"
           fill="#004e29"
           id="path2"
           style="stroke:none" />
      </g>
      <path
         d="m15.291 69.387c-0.13828 0-0.25012 0.1122-0.25012 0.25012v0.54985c0.13828 0.07054 0.23617 0.21038 0.23617 0.37622 0 0.16579-0.09789 0.30616-0.23617 0.37673v1.7881c0.13828 0.07056 0.23617 0.2104 0.23617 0.37622 0 0.16579-0.09789 0.30566-0.23617 0.37622v1.7876c0.13828 0.07057 0.23617 0.21092 0.23617 0.37673 0 0.16579-0.09789 0.30566-0.23617 0.37622v1.7876c0.13828 0.07059 0.23617 0.21042 0.23617 0.37622 0 0.16582-0.09789 0.30566-0.23617 0.37622v1.787c0.13828 0.07056 0.23617 0.21092 0.23617 0.37673 0 0.16579-0.09789 0.30566-0.23617 0.37622v1.787c0.13828 0.07056 0.23617 0.21092 0.23617 0.37673 0 0.16579-0.09789 0.30566-0.23617 0.37622v1.7876c0.13828 0.07056 0.23617 0.2104 0.23617 0.37622 0 0.16579-0.09789 0.30566-0.23617 0.37622v1.7876c0.13828 0.07056 0.23617 0.2104 0.23617 0.37622 0 0.16579-0.09789 0.30616-0.23617 0.37673v1.787c0.13828 0.07057 0.23617 0.2104 0.23617 0.37622 0 0.16579-0.09789 0.30613-0.23617 0.37673v1.787c0.13828 0.07056 0.23617 0.21092 0.23617 0.37673 0 0.16579-0.09789 0.30563-0.23617 0.37622v1.787c0.13828 0.07056 0.23617 0.21092 0.23617 0.37673 0 0.16579-0.09789 0.30563-0.23617 0.37622v1.787c0.13828 0.07056 0.23617 0.21092 0.23617 0.37673 0 0.16582-0.09789 0.30563-0.23617 0.37622v1.7876c0.13828 0.0706 0.23617 0.2104 0.23617 0.37622s-0.09789 0.30614-0.23617 0.37673v1.787c0.13828 0.0706 0.23617 0.2104 0.23617 0.37622s-0.09789 0.30613-0.23617 0.37673v1.787c0.13828 0.0706 0.23617 0.21091 0.23617 0.37672 0 0.16582-0.09789 0.30566-0.23617 0.37623v1.787c0.13828 0.0706 0.23617 0.21091 0.23617 0.37672 0 0.16582-0.09789 0.30566-0.23617 0.37623v1.787c0.13828 0.0706 0.23617 0.21091 0.23617 0.37672 0 0.16583-0.09789 0.30566-0.23617 0.37623v1.7876c0.13828 0.0706 0.23617 0.2104 0.23617 0.37622s-0.09789 0.30616-0.23617 0.37673v1.787c0.13828 0.0706 0.23617 0.21041 0.23617 0.37623s-0.09789 0.30616-0.23617 0.37672v1.7865c0.13828 0.0705 0.23617 0.21089 0.23617 0.37673 0 0.16579-0.09789 0.30563-0.23617 0.37622v0.55657c0 0.13793 0.11184 0.25013 0.25012 0.25013 7.4038 4e-3 12.679 0.018 20.119 0 0.13793 0 0.25012-0.11182 0.25012-0.25013v-0.55657c-0.13831-0.0706-0.23617-0.2104-0.23617-0.37622s0.09786-0.30616 0.23617-0.37673v-1.7865c-0.13831-0.0705-0.23617-0.21089-0.23617-0.37672 0-0.16579 0.09786-0.30566 0.23617-0.37623v-1.7876c-0.13831-0.0705-0.23617-0.21038-0.23617-0.37623 0-0.16579 0.09786-0.30565 0.23617-0.37622v-1.7876c-0.13831-0.0705-0.23617-0.21037-0.23617-0.37622 0-0.16579 0.09786-0.30614 0.23617-0.37673v-1.787c-0.13831-0.0706-0.23617-0.2104-0.23617-0.37622s0.09786-0.30616 0.23617-0.37673v-1.787c-0.13831-0.0706-0.23617-0.2104-0.23617-0.37622s0.09786-0.30616 0.23617-0.37673v-1.787c-0.13831-0.0706-0.23617-0.21092-0.23617-0.37672 0-0.16582 0.09786-0.30566 0.23617-0.37623v-1.787c-0.13831-0.0706-0.23617-0.21091-0.23617-0.37672 0-0.16582 0.09786-0.30566 0.23617-0.37623v-1.7876c-0.13831-0.07059-0.23617-0.2104-0.23617-0.37622 0-0.16582 0.09786-0.30616 0.23617-0.37673v-1.787c-0.13831-0.07059-0.23617-0.21042-0.23617-0.37622 0-0.16582 0.09786-0.30616 0.23617-0.37673v-1.787c-0.13831-0.07059-0.23617-0.21042-0.23617-0.37622 0-0.16582 0.09786-0.30616 0.23617-0.37673v-1.787c-0.13831-0.07059-0.23617-0.21094-0.23617-0.37673 0-0.16582 0.09786-0.30566 0.23617-0.37622v-1.787c-0.13831-0.07057-0.23617-0.21092-0.23617-0.37673 0-0.16579 0.09786-0.30566 0.23617-0.37622v-1.7876c-0.13831-0.07056-0.23617-0.2104-0.23617-0.37622 0-0.16579 0.09786-0.30566 0.23617-0.37622v-1.7876c-0.13831-0.07056-0.23617-0.2104-0.23617-0.37622 0-0.16579 0.09786-0.30616 0.23617-0.37673v-1.787c-0.13831-0.07056-0.23617-0.2104-0.23617-0.37622 0-0.16579 0.09786-0.30616 0.23617-0.37673v-1.787c-0.13831-0.07056-0.23617-0.2104-0.23617-0.37622 0-0.16579 0.09786-0.30563 0.23617-0.37622v-1.7876c-0.13831-0.07056-0.23617-0.2104-0.23617-0.37622 0-0.16579 0.09786-0.30613 0.23617-0.37673v-1.7876c-0.13831-0.07056-0.23617-0.2104-0.23617-0.37622 0-0.16579 0.09786-0.30566 0.23617-0.37622v-1.7881c-0.13831-0.07056-0.23617-0.2104-0.23617-0.37622 0-0.16579 0.09786-0.30566 0.23617-0.37622v-0.55038c0-0.13793-0.11181-0.25012-0.25012-0.25012h-20.119zm1.1695 0.75398c0.23285 0 0.42221 0.18936 0.42221 0.42221 0 0.23282-0.18936 0.42274-0.42221 0.42274s-0.42221-0.1899-0.42221-0.42274c0-0.23285 0.18936-0.42221 0.42221-0.42221zm17.78 0c0.23285 0 0.42221 0.18936 0.42221 0.42221 0 0.23282-0.18936 0.42274-0.42221 0.42274-0.23282 0-0.42221-0.1899-0.42221-0.42274 0-0.23285 0.18939-0.42221 0.42221-0.42221zm-14.585 0.21602c0.49002 0 0.88834 0.39882 0.88834 0.88887 0 0.49-0.39832 0.88887-0.88834 0.88887-0.49 0-0.88887-0.3985-0.88887-0.88887 0-0.4904 0.39885-0.88887 0.88887-0.88887zm11.39 0c0.49002 0 0.88887 0.39882 0.88887 0.88887 0 0.49-0.39882 0.88887-0.88887 0.88887-0.49042 0-0.88887-0.3985-0.88887-0.88887 0-0.4904 0.39848-0.88887 0.88887-0.88887zm-14.585 2.3245c0.23285 0 0.42221 0.18972 0.42221 0.42221 0 0.23283-0.18936 0.42221-0.42221 0.42221s-0.42221-0.18939-0.42221-0.42221c0-0.23285 0.18936-0.42221 0.42221-0.42221zm17.78 0c0.23285 0 0.42221 0.18936 0.42221 0.42221 0 0.23283-0.18936 0.42221-0.42221 0.42221-0.23282 0-0.42221-0.18939-0.42221-0.42221 0-0.23285 0.18939-0.42221 0.42221-0.42221zm-17.78 2.5405c0.23285 0 0.42221 0.18939 0.42221 0.42221 0 0.23285-0.18936 0.42221-0.42221 0.42221s-0.42221-0.18936-0.42221-0.42221c0-0.23282 0.18936-0.42221 0.42221-0.42221zm17.78 0c0.23285 0 0.42221 0.18939 0.42221 0.42221 0 0.23285-0.18936 0.42221-0.42221 0.42221-0.23282 0-0.42221-0.18936-0.42221-0.42221 0-0.23282 0.18939-0.42221 0.42221-0.42221zm-17.78 2.54c0.23285 0 0.42221 0.18936 0.42221 0.42221 0 0.23282-0.18936 0.42221-0.42221 0.42221s-0.42221-0.18939-0.42221-0.42221c0-0.23285 0.18936-0.42221 0.42221-0.42221zm17.78 0c0.23285 0 0.42221 0.18936 0.42221 0.42221 0 0.23282-0.18936 0.42221-0.42221 0.42221-0.23282 0-0.42221-0.18939-0.42221-0.42221 0-0.23285 0.18939-0.42221 0.42221-0.42221zm-17.78 2.5395c0.23285 0 0.42221 0.18972 0.42221 0.42221 0 0.23283-0.18936 0.42221-0.42221 0.42221s-0.42221-0.18939-0.42221-0.42221c0-0.23285 0.18936-0.42221 0.42221-0.42221zm17.78 0c0.23285 0 0.42221 0.18936 0.42221 0.42221 0 0.23283-0.18936 0.42221-0.42221 0.42221-0.23282 0-0.42221-0.18939-0.42221-0.42221 0-0.23285 0.18939-0.42221 0.42221-0.42221zm-17.78 2.54c0.23285 0 0.42221 0.18936 0.42221 0.42221 0 0.23282-0.18936 0.42274-0.42221 0.42274s-0.42221-0.1899-0.42221-0.42274c0-0.23285 0.18936-0.42221 0.42221-0.42221zm17.78 0c0.23285 0 0.42221 0.18936 0.42221 0.42221 0 0.23282-0.18936 0.42274-0.42221 0.42274-0.23282 0-0.42221-0.1899-0.42221-0.42274 0-0.23285 0.18939-0.42221 0.42221-0.42221zm-17.78 2.54c0.23285 0 0.42221 0.18988 0.42221 0.42274 0 0.23283-0.18936 0.42221-0.42221 0.42221s-0.42221-0.18939-0.42221-0.42221c0-0.23285 0.18936-0.42274 0.42221-0.42274zm17.78 0c0.23285 0 0.42221 0.18988 0.42221 0.42274 0 0.23283-0.18936 0.42221-0.42221 0.42221-0.23282 0-0.42221-0.18939-0.42221-0.42221 0-0.23285 0.18939-0.42274 0.42221-0.42274zm-17.78 2.5405c0.23285 0 0.42221 0.18936 0.42221 0.42221 0 0.23282-0.18936 0.42221-0.42221 0.42221s-0.42221-0.18939-0.42221-0.42221c0-0.23285 0.18936-0.42221 0.42221-0.42221zm17.78 0c0.23285 0 0.42221 0.18936 0.42221 0.42221 0 0.23282-0.18936 0.42221-0.42221 0.42221-0.23282 0-0.42221-0.18939-0.42221-0.42221 0-0.23285 0.18939-0.42221 0.42221-0.42221zm-17.78 2.54c0.23285 0 0.42221 0.18972 0.42221 0.42221 0 0.23285-0.18936 0.42221-0.42221 0.42221s-0.42221-0.18936-0.42221-0.42221c0-0.23285 0.18936-0.42221 0.42221-0.42221zm17.78 0c0.23285 0 0.42221 0.18936 0.42221 0.42221 0 0.23285-0.18936 0.42221-0.42221 0.42221-0.23282 0-0.42221-0.18936-0.42221-0.42221 0-0.23285 0.18939-0.42221 0.42221-0.42221zm-17.78 2.54c0.23285 0 0.42221 0.18972 0.42221 0.42221 0 0.23285-0.18936 0.42221-0.42221 0.42221s-0.42221-0.18936-0.42221-0.42221 0.18936-0.42221 0.42221-0.42221zm17.78 0c0.23285 0 0.42221 0.18936 0.42221 0.42221s-0.18936 0.42221-0.42221 0.42221c-0.23282 0-0.42221-0.18936-0.42221-0.42221s0.18939-0.42221 0.42221-0.42221zm-17.78 2.54c0.23285 0 0.42221 0.18936 0.42221 0.42221s-0.18936 0.42274-0.42221 0.42274-0.42221-0.18988-0.42221-0.42274c0-0.23286 0.18936-0.42221 0.42221-0.42221zm17.78 0c0.23285 0 0.42221 0.18936 0.42221 0.42221s-0.18936 0.42274-0.42221 0.42274c-0.23282 0-0.42221-0.18988-0.42221-0.42274 0-0.23286 0.18939-0.42221 0.42221-0.42221zm-17.78 2.54c0.23285 0 0.42221 0.18988 0.42221 0.42271 0 0.23284-0.18936 0.42221-0.42221 0.42221s-0.42221-0.18936-0.42221-0.42221c0-0.23285 0.18936-0.42271 0.42221-0.42271zm17.78 0c0.23285 0 0.42221 0.18988 0.42221 0.42271 0 0.23284-0.18936 0.42221-0.42221 0.42221-0.23282 0-0.42221-0.18936-0.42221-0.42221 0-0.23285 0.18939-0.42271 0.42221-0.42271zm-5.9224 1.3245a0.50003 0.50003 0 0 1 0.50024 0.50024 0.50003 0.50003 0 0 1-0.50024 0.49973 0.50003 0.50003 0 0 1-0.49974-0.49973 0.50003 0.50003 0 0 1 0.49974-0.50024zm-2.6314 0.01704a0.50003 0.50003 0 0 1 0.49974 0.50024 0.50003 0.50003 0 0 1-0.49974 0.50024 0.50003 0.50003 0 0 1-0.50024-0.50024 0.50003 0.50003 0 0 1 0.50024-0.50024zm5.1016 0.01963a0.50003 0.50003 0 0 1 0.49974 0.50024 0.50003 0.50003 0 0 1-0.49974 0.49974 0.50003 0.50003 0 0 1-0.50024-0.49974 0.50003 0.50003 0 0 1 0.50024-0.50024zm-14.328 1.1793c0.23285 0 0.42221 0.18936 0.42221 0.42221s-0.18936 0.42221-0.42221 0.42221c-0.23285 0-0.42221-0.18936-0.42221-0.42221s0.18936-0.42221 0.42221-0.42221zm17.78 0c0.23285 0 0.42221 0.18936 0.42221 0.42221s-0.18936 0.42221-0.42221 0.42221c-0.23282 0-0.42221-0.18936-0.42221-0.42221s0.18939-0.42221 0.42221-0.42221zm-17.78 2.54c0.23285 0 0.42221 0.18972 0.42221 0.42221 0 0.23285-0.18936 0.42221-0.42221 0.42221-0.23285 0-0.42221-0.18936-0.42221-0.42221s0.18936-0.42221 0.42221-0.42221zm17.78 0c0.23285 0 0.42221 0.18936 0.42221 0.42221s-0.18936 0.42221-0.42221 0.42221c-0.23282 0-0.42221-0.18936-0.42221-0.42221s0.18939-0.42221 0.42221-0.42221zm-17.78 2.54c0.23285 0 0.42221 0.18971 0.42221 0.42221 0 0.23285-0.18936 0.42221-0.42221 0.42221-0.23285 0-0.42221-0.18936-0.42221-0.42221s0.18936-0.42221 0.42221-0.42221zm17.78 0c0.23285 0 0.42221 0.18936 0.42221 0.42221s-0.18936 0.42221-0.42221 0.42221c-0.23282 0-0.42221-0.18936-0.42221-0.42221s0.18939-0.42221 0.42221-0.42221zm-17.78 2.54c0.23285 0 0.42221 0.18936 0.42221 0.42221 0 0.23282-0.18936 0.42221-0.42221 0.42221-0.23285 0-0.42221-0.18936-0.42221-0.42221s0.18936-0.42221 0.42221-0.42221zm17.78 0c0.23285 0 0.42221 0.18936 0.42221 0.42221s-0.18936 0.42221-0.42221 0.42221c-0.23282 0-0.42221-0.18936-0.42221-0.42221s0.18939-0.42221 0.42221-0.42221zm-17.78 2.54c0.23285 0 0.42221 0.18987 0.42221 0.42271 0 0.23283-0.18936 0.42221-0.42221 0.42221-0.23285 0-0.42221-0.18936-0.42221-0.42221s0.18936-0.42271 0.42221-0.42271zm17.78 0c0.23285 0 0.42221 0.18987 0.42221 0.42271s-0.18936 0.42221-0.42221 0.42221c-0.23282 0-0.42221-0.18936-0.42221-0.42221s0.18939-0.42271 0.42221-0.42271zm-17.78 2.5405c0.23285 0 0.42221 0.18936 0.42221 0.42221 0 0.23282-0.18936 0.42221-0.42221 0.42221-0.23285 0-0.42221-0.18936-0.42221-0.42221s0.18936-0.42221 0.42221-0.42221zm17.78 0c0.23285 0 0.42221 0.18936 0.42221 0.42221s-0.18936 0.42221-0.42221 0.42221c-0.23282 0-0.42221-0.18936-0.42221-0.42221s0.18939-0.42221 0.42221-0.42221zm-17.78 2.54c0.23285 0 0.42221 0.18936 0.42221 0.42221 0 0.23282-0.18936 0.42221-0.42221 0.42221-0.23285 0-0.42221-0.18936-0.42221-0.42221s0.18936-0.42221 0.42221-0.42221zm17.78 0c0.23285 0 0.42221 0.18936 0.42221 0.42221s-0.18936 0.42221-0.42221 0.42221c-0.23282 0-0.42221-0.18936-0.42221-0.42221s0.18939-0.42221 0.42221-0.42221zm-14.585 1.3974c0.49002 0 0.88834 0.39848 0.88834 0.88887 0 0.4904-0.39832 0.88887-0.88834 0.88887-0.49 0-0.88887-0.39847-0.88887-0.88887 0-0.49037 0.39885-0.88887 0.88887-0.88887zm11.39 0c0.49002 0 0.88887 0.3985 0.88887 0.88887 0 0.4904-0.39882 0.88887-0.88887 0.88887-0.49042 0-0.88887-0.39847-0.88887-0.88887 0-0.49037 0.39848-0.88887 0.88887-0.88887zm-14.585 1.1421c0.23285 0 0.42221 0.18938 0.42221 0.42221 0 0.23285-0.18936 0.42271-0.42221 0.42271-0.23285 0-0.42221-0.18988-0.42221-0.42271s0.18936-0.42221 0.42221-0.42221zm17.78 0c0.23285 0 0.42221 0.18938 0.42221 0.42221 0 0.23285-0.18936 0.42271-0.42221 0.42271-0.23282 0-0.42221-0.18988-0.42221-0.42271 0-0.23284 0.18939-0.42221 0.42221-0.42221z"
         fill="#005a00"
         stroke="#dcdcdc"
         stroke-width=".11018"
         id="path3"
         style="stroke:none" />
      <path
         d="m35.45 69.196h-20.2c-0.22088 0-0.40008 0.17922-0.40008 0.40005v0.54046c0.06949 0 0.13264 0.02083 0.19086 0.05044v-0.54999c0-0.13792 0.11184-0.25012 0.25011-0.25012h20.118a0.24783 0.24783 0 0 1 0.17673 0.07338l0.14709-0.14676c-0.07264-0.07267-0.17249-0.11748-0.28293-0.11748zm-20.6 4.3342v1.687c0.06949 0 0.13264 0.02083 0.19086 0.05044v-1.7875c-0.05822 0.02929-0.12136 0.05009-0.19086 0.05009zm0 2.54v1.6866c0.06949 0 0.13264 0.02083 0.19086 0.05044v-1.7872c-0.05822 0.02964-0.12136 0.05009-0.19086 0.05009zm0 2.54v1.6863c0.06949 0 0.13264 0.02078 0.19086 0.05042v-1.7868c-0.05822 0.02929-0.12136 0.05009-0.19086 0.05009zm0 2.5396v1.6866c0.06949 0 0.13264 0.02083 0.19086 0.05044v-1.7871c-0.05822 0.02923-0.12136 0.05004-0.19086 0.05004zm0 2.54v1.6866c0.06949 0 0.13264 0.02083 0.19086 0.05045v-1.7871c-0.05822 0.02923-0.12136 0.05004-0.19086 0.05004zm0 2.54v1.6866c0.06949 0 0.13264 0.02083 0.19086 0.05044v-1.7871c-0.05822 0.02923-0.12136 0.05004-0.19086 0.05004zm0 2.54v1.6866c0.06949 0 0.13264 0.02083 0.19086 0.05044v-1.7871c-0.05822 0.02923-0.12136 0.05004-0.19086 0.05004zm0 2.54v1.6866c0.06949 0 0.13264 0.02083 0.19086 0.05044v-1.7871c-0.05822 0.02923-0.12136 0.05004-0.19086 0.05004zm0 2.54v1.6866c0.06949 0 0.13264 0.02083 0.19086 0.05045v-1.7871c-0.05822 0.02926-0.12136 0.05006-0.19086 0.05006zm0 2.54v1.6866c0.06949 0 0.13264 0.02083 0.19086 0.05044v-1.7871c-0.05822 0.02926-0.12136 0.05006-0.19086 0.05006zm0 2.54v1.6866c0.06949 0 0.13264 0.0208 0.19086 0.0504v-1.7871c-0.05822 0.02926-0.12136 0.05006-0.19086 0.05006zm0 2.54v1.6866c0.06949 0 0.13264 0.0208 0.19086 0.0505v-1.7872c-0.05822 0.0293-0.12136 0.0501-0.19086 0.0501zm0 2.54v1.6866c0.06949 0 0.13264 0.0208 0.19086 0.0504v-1.7872c-0.05822 0.0293-0.12136 0.0501-0.19086 0.0501zm0 2.54v1.6866c0.06949 0 0.13264 0.0208 0.19086 0.0505v-1.7872c-0.05822 0.0293-0.12136 0.0501-0.19086 0.0501zm0 2.54v1.6866c0.06949 0 0.13264 0.0208 0.19086 0.0505v-1.7872c-0.05822 0.0293-0.12136 0.0501-0.19086 0.0501zm0 2.54v1.6866c0.06949 0 0.13264 0.0208 0.19086 0.0505v-1.7872c-0.05822 0.0293-0.12136 0.0501-0.19086 0.0501zm0 2.54v1.6866c0.06949 0 0.13264 0.0208 0.19086 0.0505v-1.7872c-0.05822 0.0293-0.12136 0.0501-0.19086 0.0501zm0 2.54v1.6863c0.06949 0 0.13264 0.0208 0.19086 0.0504v-1.7868c-0.05822 0.0293-0.12136 0.0501-0.19086 0.0501zm0-45.72v1.687c0.06949 0 0.13264 0.02083 0.19086 0.05044v-1.7879c-0.05822 0.02964-0.12136 0.05044-0.19086 0.05044zm0.11712 49.089 0.14712-0.14674a0.24928 0.24928 0 0 1-0.07341-0.17673v-0.55601c-0.05817 0.0296-0.12134 0.0505-0.19083 0.0505v0.54681c0 0.10971 0.04481 0.20991 0.11712 0.2822z"
         fill="#33865f"
         stroke-width=".0254"
         id="path4"
         style="stroke:none" />
      <g
         transform="matrix(.0254 0 0 .0254 14.85 67.196)"
         fill="none"
         stroke="#fcee21"
         stroke-width="27.778"
         id="g7"
         style="stroke:none">
        <circle
           cx="189.18"
           cy="2005.9"
           r="48.875"
           id="circle4"
           style="stroke:none" />
        <circle
           cx="637.59"
           cy="2005.9"
           r="48.875"
           id="circle5"
           style="stroke:none" />
        <circle
           cx="189.18"
           cy="159.42"
           r="48.875"
           id="circle6"
           style="stroke:none" />
        <circle
           cx="637.59"
           cy="159.42"
           r="48.875"
           id="circle7"
           style="stroke:none" />
      </g>
      <g
         stroke-width=".0254"
         id="g15"
         style="stroke:none">
        <path
           d="m22.189 88.645h7.0465v7.0465h-7.0465z"
           fill="#30312e"
           id="path7"
           style="stroke:none" />
        <path
           d="m28.65 73.197h-6.6002a0.2001 0.2001 0 0 1-0.20002-0.20002v-4.9163a0.2001 0.2001 0 0 1 0.20002-0.20003h6.6002a0.2001 0.2001 0 0 1 0.20002 0.20003v4.9163a0.2001 0.2001 0 0 1-0.20002 0.20002z"
           fill="#363a44"
           id="path8"
           style="stroke:none" />
        <path
           d="m22.351 67.196a0.20048 0.20048 0 0 0-0.19152 0.14216l-0.10973 0.36337-0.20002 0.20002v5.0948a0.2001 0.2001 0 0 0 0.20002 0.20002h1.2206a0.099746 0.099746 0 0 0 0.09985-0.09982v-0.2921a0.19959 0.19959 0 0 0-0.10406-0.17534l-0.67945-0.37112a0.19959 0.19959 0 0 1-0.10409-0.17534v-0.29174h0.44382v-0.33691h0.6858v0.3362h0.40358v0.69533a0.2001 0.2001 0 0 0 0.20002 0.20002h0.32456v-0.36053h1.6189v0.36053h0.32456a0.2001 0.2001 0 0 0 0.20003-0.20002v-0.69533h0.40358v-0.33614h0.6858v0.3362h0.44379v0.29174a0.19959 0.19959 0 0 1-0.10406 0.17534l-0.67945 0.37148a0.19959 0.19959 0 0 0-0.10406 0.17534v0.2921c0 0.05537 0.04481 0.09982 0.09982 0.09982h1.2206a0.2001 0.2001 0 0 0 0.20002-0.20003v-5.0945l-0.20002-0.2-0.10973-0.36337a0.20048 0.20048 0 0 0-0.19152-0.14216z"
           fill="#ccc"
           id="path9"
           style="stroke:none" />
        <path
           d="m22.069 68.213c-0.08786-0.11712-0.17712-0.23531-0.2572-0.37043-0.08184-0.13371-0.1411-0.29314-0.16967-0.44237l-7.11e-4 -0.0046a0.11935 0.11935 0 0 1 0.09489-0.14008c0.06032-0.01163 0.11887 0.02469 0.13691 0.08184 0.07899 0.25507 0.26035 0.43746 0.46282 0.64453 0.06881 0.06916 0.06845 0.18136-6.86e-4 0.25014-0.06916 0.06878-0.18136 0.06843-0.25014 0-0.0053-0.0053-0.01163-0.0127-0.01623-0.01836zm6.2946-0.23109c0.20284-0.20706 0.38382-0.38946 0.46284-0.64453a0.11966 0.11966 0 0 1 0.14994-0.07866 0.12029 0.12029 0 0 1 0.08219 0.13652l-1e-3 5e-3c-0.02896 0.14884-0.08786 0.30866-0.1697 0.44237-0.08009 0.13513-0.16934 0.25332-0.25718 0.37043-0.05857 0.07798-0.16934 0.09383-0.24765 0.03528a0.17704 0.17704 0 0 1-0.03528-0.24765c0.0042-6e-3 0.01059-0.01341 0.01588-0.01872zm-4.0665 36.601h-2.6a0.2001 0.2001 0 0 1-0.20003-0.20002v-1.5998a0.2001 0.2001 0 0 1 0.20003-0.20003h2.6a0.2001 0.2001 0 0 1 0.20003 0.20003v1.5998a0.2001 0.2001 0 0 1-0.20003 0.20002z"
           fill="#ccc"
           id="path10"
           style="stroke:none" />
        <path
           d="m20.565 89.352c-3.8103-14.77-1.9051-7.3853 0 0zm8.8633-10.919v2.5002h-2.5002v-2.5002zm2.6076-4.3259v2.5002h-1.5v-2.5002z"
           fill="#2a2d2e"
           id="path11"
           style="stroke:none" />
        <path
           d="m20.527 78.78h2.6a0.2001 0.2001 0 0 1 0.20003 0.20002v3.6001a0.2001 0.2001 0 0 1-0.20003 0.20003h-2.6a0.2001 0.2001 0 0 1-0.20002-0.20003v-3.6001a0.2001 0.2001 0 0 1 0.20002-0.20002z"
           fill="#ccc"
           id="path12"
           style="stroke:none" />
        <path
           d="m21.827 79.03c0.69037 0 1.2499 0.55951 1.2499 1.2499v1.0001c0 0.6904-0.55951 1.2499-1.2499 1.2499s-1.2499-0.55951-1.2499-1.2499v-1.0001c0-0.69037 0.55951-1.2499 1.2499-1.2499zm-1.5-0.05009v0.37569c0 0.17816 0.21554 0.26741 0.34148 0.14148l0.37572-0.37572c0.12596-0.12593 0.0367-0.34148-0.14148-0.34148h-0.37569a0.2001 0.2001 0 0 0-0.20003 0.20003zm2.8001-0.20003h-0.37574c-0.17816 0-0.26741 0.21554-0.14148 0.34148l0.37572 0.37572c0.12593 0.12593 0.3415 0.03668 0.3415-0.14148v-0.37569a0.2001 0.2001 0 0 0-0.20003-0.20003z"
           fill="#fff"
           id="path13"
           style="stroke:none" />
        <path
           d="m23.327 82.569v-0.37569c0-0.17816-0.21557-0.26741-0.3415-0.14148l-0.37572 0.37572c-0.12593 0.12593-0.03668 0.34148 0.14148 0.34148h0.37572a0.2001 0.2001 0 0 0 0.20003-0.20002zm-2.8 0.20002h0.37572c0.17816 0 0.26741-0.21554 0.14148-0.34148l-0.37574-0.37572c-0.12593-0.12593-0.34148-0.03668-0.34148 0.14148v0.37569a0.2001 0.2001 0 0 0 0.20002 0.20002z"
           fill="#fff"
           id="path14"
           style="stroke:none" />
        <path
           d="m30.286 80.733v-2.1001a0.2001 0.2001 0 0 1 0.20003-0.20002h1.5998a0.2001 0.2001 0 0 1 0.20002 0.20002v2.1001a0.2001 0.2001 0 0 1-0.20002 0.20005h-1.5998a0.2001 0.2001 0 0 1-0.20003-0.20002z"
           fill="#2a2d2e"
           id="path15"
           style="stroke:none" />
      </g>
      <g
         transform="matrix(.508 0 0 .508 18.914 73.495)"
         fill="#eee"
         id="g16"
         style="stroke:none">
        <rect
           width="2.6"
           height="1.2"
           fill="#c6c6c6"
           id="rect15"
           style="stroke:none" />
        <rect
           x=".6"
           y="-.1"
           width="1.35"
           height="1.4"
           stroke="#aaa"
           stroke-width=".05"
           id="rect16"
           style="stroke:none" />
        <circle
           cx="1.3"
           cy=".55"
           r="1.3"
           fill="#90ff00"
           filter="url(#ledFilter)"
           opacity="0"
           id="circle16"
           style="stroke:none" />
      </g>
      <path
         d="m14.85 116.42h21v1.1903h-21z"
         fill="none"
         stroke-width=".0254"
         id="path16"
         style="stroke:none" />
      <text
         transform="rotate(-90)"
         x="-67.196205"
         y="14.850195"
         fill="#ffffff"
         font-size=".98778px"
         stroke-width=".35278"
         id="text22"
         style="stroke:none"><tspan
           x="-83.897797"
           y="19.625402"
           id="tspan16"
           style="stroke:none">B</tspan><tspan
           x="-83.007401"
           y="19.625402"
           id="tspan17"
           style="stroke:none">O</tspan><tspan
           x="-81.967522"
           y="19.625402"
           id="tspan18"
           style="stroke:none">O</tspan><tspan
           x="-80.9645"
           y="19.625402"
           id="tspan19"
           style="stroke:none">T</tspan><tspan
           x="-80.212257"
           y="19.625402"
           id="tspan20"
           style="stroke:none">S</tspan><tspan
           x="-79.447945"
           y="19.625402"
           id="tspan21"
           style="stroke:none">E</tspan><tspan
           x="-78.67263"
           y="19.625402"
           id="tspan22"
           style="stroke:none">L</tspan></text>
      <text
         x="14.850195"
         y="67.196205"
         fill="#ffffff"
         font-size=".98778px"
         stroke-width=".35278"
         id="text32"
         style="stroke:none"><tspan
           x="18.41062"
           y="75.357162"
           id="tspan23"
           style="stroke:none">L</tspan><tspan
           x="19.140669"
           y="75.357162"
           id="tspan24"
           style="stroke:none">E</tspan><tspan
           x="19.915953"
           y="75.357162"
           id="tspan25"
           style="stroke:none">D</tspan><tspan
           x="17.301655"
           y="70.985435"
           id="tspan26"
           style="stroke:none">1</tspan><tspan
           x="17.301655"
           y="73.525848"
           id="tspan27"
           style="stroke:none">2</tspan><tspan
           x="31.935329"
           y="73.525848"
           id="tspan28"
           style="stroke:none">3</tspan><tspan
           x="32.738911"
           y="73.525848"
           id="tspan29"
           style="stroke:none">9</tspan><tspan
           x="24.0301"
           y="75.357162"
           id="tspan30"
           style="stroke:none">U</tspan><tspan
           x="25.015747"
           y="75.357162"
           id="tspan31"
           style="stroke:none">S</tspan><tspan
           x="25.780212"
           y="75.357162"
           id="tspan32"
           style="stroke:none">B</tspan></text>
      <path
         d="m17.788 84.278h2.2119v31.57h-2.2119z"
         fill="none"
         stroke-width=".0254"
         id="path32"
         style="stroke:none" />
      <text
         x="15.211543"
         y="64.667702"
         fill="#3d3f38"
         font-size=".6209px"
         stroke-width=".35278"
         id="text55"
         style="stroke:none"><tspan
           x="22.772093"
           y="94.309547"
           id="tspan33"
           style="stroke:none">R</tspan><tspan
           x="23.261654"
           y="94.309547"
           id="tspan34"
           style="stroke:none">P</tspan><tspan
           x="23.7693"
           y="94.309547"
           id="tspan35"
           style="stroke:none">2</tspan><tspan
           x="24.230057"
           y="94.309547"
           id="tspan36"
           style="stroke:none">-</tspan><tspan
           x="24.50016"
           y="94.309547"
           id="tspan37"
           style="stroke:none">8</tspan><tspan
           x="24.960943"
           y="94.309547"
           id="tspan38"
           style="stroke:none">0</tspan><tspan
           x="26.443213"
           y="94.309547"
           id="tspan39"
           style="stroke:none">2</tspan><tspan
           x="26.903816"
           y="94.309547"
           id="tspan40"
           style="stroke:none">0</tspan><tspan
           x="27.364597"
           y="94.309547"
           id="tspan41"
           style="stroke:none">/</tspan><tspan
           x="27.729774"
           y="94.309547"
           id="tspan42"
           style="stroke:none">2</tspan><tspan
           x="28.190582"
           y="94.309547"
           id="tspan43"
           style="stroke:none">1</tspan><tspan
           x="22.761757"
           y="95.173149"
           id="tspan44"
           style="stroke:none">P</tspan><tspan
           x="23.269579"
           y="95.173149"
           id="tspan45"
           style="stroke:none">6</tspan><tspan
           x="23.730183"
           y="95.173149"
           id="tspan46"
           style="stroke:none">4</tspan><tspan
           x="24.190966"
           y="95.173149"
           id="tspan47"
           style="stroke:none">M</tspan><tspan
           x="24.854668"
           y="95.173149"
           id="tspan48"
           style="stroke:none">1</tspan><tspan
           x="25.315451"
           y="95.173149"
           id="tspan49"
           style="stroke:none">5</tspan><tspan
           x="25.776054"
           y="95.173149"
           id="tspan50"
           style="stroke:none">.</tspan><tspan
           x="26.058046"
           y="95.173149"
           id="tspan51"
           style="stroke:none">0</tspan><tspan
           x="26.51865"
           y="95.173149"
           id="tspan52"
           style="stroke:none">0</tspan><tspan
           x="27.219717"
           y="95.173149"
           id="tspan53"
           style="stroke:none">T</tspan><tspan
           x="27.707218"
           y="95.173149"
           id="tspan54"
           style="stroke:none">T</tspan><tspan
           x="28.194874"
           y="95.173149"
           id="tspan55"
           style="stroke:none">T</tspan></text>
      <path
         d="m26.948 91.421-0.02962-0.04409c0-0.33902-0.15489-0.47168-0.33904-0.57503 0.05151-0.01481 0.11044-0.02964 0.12525-0.09596 0.09596-0.02223 0.11041-0.06632 0.12522-0.11041 0.02225-0.01481 0.11044-0.06632 0.09596-0.14006 0.04412-0.02964 0.07374-0.07374 0.05893-0.13264 0.05151-0.05151 0.06632-0.09596 0.04409-0.14006 0.05893-0.07374 0.03668-0.11041 0.0074-0.15486 0.0441-0.08115 0.0074-0.16967-0.11786-0.15486-0.05149-0.07374-0.15486-0.05893-0.17673-0.05893-0.02222-0.02222-0.04409-0.04409-0.11783-0.03668-0.05149-0.04409-0.103-0.0367-0.16226-0.01483-0.06634-0.05149-0.11044-0.0074-0.16231 0.0074-0.08113-0.02964-0.103 0.0074-0.14003 0.02222-0.08854-0.02222-0.11786 0.02223-0.16231 0.06632h-0.05149c-0.13264 0.08115-0.19896 0.23602-0.2286 0.31679-0.02222-0.08113-0.08854-0.24308-0.2286-0.31679h-0.05151c-0.0441-0.04409-0.06632-0.08113-0.16228-0.06632-0.03668-0.01481-0.05893-0.05151-0.14006-0.02222-0.03668-0.0074-0.06629-0.02964-0.103-0.02964-0.02223 0-0.0367 0.0074-0.06632 0.02223-0.05893-0.02223-0.11044-0.02962-0.16231 0.01483-0.07371-0.0074-0.103 0.0074-0.1178 0.03668-0.01483 0-0.12522-0.01481-0.17676 0.05893-0.12522-0.01483-0.16226 0.07371-0.11781 0.15486-0.02222 0.03668-0.05151 0.07371 0.0074 0.15486-0.02222 0.04409-0.0074 0.08855 0.04409 0.14006-0.01481 0.05893 0.01483 0.09596 0.05893 0.13264-0.0074 0.08113 0.07374 0.12522 0.09596 0.14006 0.0074 0.04409 0.02962 0.08854 0.12522 0.11041 0.01481 0.06632 0.07374 0.08115 0.12522 0.09596-0.18415 0.10302-0.33901 0.24308-0.33901 0.57503l-0.02962 0.04409c-0.20638 0.12522-0.39794 0.52316-0.10302 0.85479 0.02222 0.103 0.05151 0.17673 0.08115 0.25789 0.04409 0.32418 0.32421 0.47904 0.39792 0.5013 0.11044 0.08113 0.22121 0.15486 0.37572 0.21377 0.14747 0.14747 0.30234 0.20638 0.46426 0.20638h0.0074c0.16228 0 0.31679-0.05893 0.46424-0.20638 0.15489-0.05149 0.27272-0.13264 0.37572-0.21377 0.07374-0.01483 0.35382-0.16967 0.39794-0.5013 0.02964-0.08115 0.05893-0.15489 0.08113-0.25789 0.32492-0.33162 0.14077-0.72954-0.07302-0.85479zm-0.15451-0.05893c-0.0074 0.13266-0.71509-0.47165-0.5969-0.49388 0.33127-0.05151 0.60396 0.14006 0.5969 0.49388zm-0.31714 0.67064c-0.17673 0.11786-0.43498 0.04409-0.56762-0.16228-0.14006-0.20638-0.10302-0.46424 0.07371-0.58207 0.17676-0.11786 0.43498-0.04409 0.56764 0.16228 0.14006 0.21377 0.10338 0.47165-0.07374 0.58207zm-0.48649-2.0856c0.0074 0.02962 0.01481 0.05149 0.02222 0.05149 0.03668-0.0441 0.07374-0.08855 0.11783-0.12522 0 0.0222-0.01481 0.05149 0.01481 0.06629 0.02964-0.03668 0.06632-0.06629 0.11044-0.09594-0.02222 0.03668-0.0074 0.05151 0.0074 0.06629 0.0367-0.02962 0.07374-0.06629 0.14006-0.08852-0.02222 0.02223-0.04409 0.04409-0.01481 0.07374 0.03668-0.02222 0.07374-0.04412 0.16967-0.06634-0.02222 0.02223-0.06629 0.04412-0.03668 0.06634 0.05151-0.01483 0.103-0.02964 0.16228-0.0367-0.02964 0.02222-0.05151 0.04409-0.02964 0.06632 0.05151-0.01481 0.12522-0.03668 0.19157-0.02222l-0.04409 0.04409c-0.0074 0.0074 0.103 0.0074 0.16967 0.0074-0.02222 0.03668-0.05149 0.07374-0.06629 0.13264 0.0074 0.0074 0.04407 0 0.07371 0-0.03668 0.07374-0.09596 0.08854-0.10302 0.11783 0.02222 0.01481 0.05151 0.01481 0.08115 0-0.02222 0.05151-0.07374 0.08115-0.11786 0.12522 0.0074 0.0074 0.02967 0.01483 0.07376 0.0074-0.0367 0.0367-0.08115 0.07374-0.13266 0.11044 0.0074 0.0074 0.04412 0.0074 0.07374 0.01481-0.05151 0.04409-0.11041 0.07374-0.16967 0.103 0.02962 0.02222 0.05149 0.01483 0.07371 0.01483-0.04409 0.03668-0.11041 0.05151-0.17673 0.07374 0.01481 0.02222 0.02223 0.02222 0.05151 0.02962-0.06632 0.0367-0.16967 0.02223-0.19896 0.0367 0.0074 0.02223 0.02222 0.02962 0.05149 0.04409-0.11041 0.0074-0.41275-0.0074-0.47168-0.23602 0.11044-0.12522 0.32423-0.2727 0.67805-0.44943-0.28009 0.09594-0.53058 0.21377-0.73696 0.39052-0.25857-0.11712-0.08926-0.40462 0.03599-0.52248zm-0.25047 0.83287c0.17673 0 0.39053 0.12525 0.39053 0.2505 0 0.11041-0.15486 0.19896-0.39053 0.19157-0.23602 0-0.39053-0.11044-0.39053-0.21379 0-0.08854 0.19154-0.23566 0.39053-0.22824zm-0.89182-0.09594c0.02962-0.0074 0.03668-0.0074 0.05149-0.02964-0.06629-0.02222-0.13264-0.03668-0.17673-0.07371 0.02223 0 0.04409 0.0074 0.07374-0.01483-0.05893-0.02962-0.11786-0.05893-0.16967-0.103 0.02962 0 0.06629 0 0.07371-0.01483-0.05151-0.02962-0.09596-0.06629-0.13264-0.11041 0.04409 0.0074 0.05893 0 0.07374-0.0074-0.0367-0.04409-0.08857-0.07371-0.11786-0.12522 0.02964 0.0074 0.05893 0.01481 0.08115 0-0.01481-0.02964-0.07374-0.05151-0.103-0.11783 0.02962 0 0.06629 0.0074 0.07371 0-0.01481-0.05893-0.0441-0.09596-0.0663-0.13264 0.07371 0 0.17673 0 0.16967-0.0074l-0.04409-0.04409c0.06629-0.01481 0.14006 0 0.19154 0.02222 0.02222-0.01481 0-0.03668-0.02962-0.06632 0.05893 0.0074 0.11041 0.02222 0.16228 0.03668 0.02223-0.02223-0.01483-0.04409-0.0367-0.06629 0.08854 0.01481 0.13264 0.04407 0.16967 0.06629 0.02964-0.02962 0-0.05149-0.01481-0.07371 0.06635 0.02223 0.10302 0.05893 0.14006 0.08855 0.01483-0.01483 0.02964-0.02964 0.0074-0.06632 0.05151 0.02962 0.08854 0.05893 0.11041 0.09594 0.02964-0.02222 0.01483-0.04409 0.01483-0.06629 0.05148 0.03668 0.08113 0.08113 0.1178 0.12522 0.0074-0.0074 0.01483-0.02223 0.02222-0.05151 0.11786 0.11783 0.28753 0.40533 0.04412 0.51577-0.20638-0.16967-0.45687-0.29494-0.73696-0.39052 0.35382 0.18415 0.56762 0.32418 0.67803 0.44943-0.05893 0.2286-0.36124 0.24308-0.47168 0.23602 0.02225-0.0074 0.04412-0.02223 0.05151-0.04409-0.03739-0.0078-0.13335 0.0067-0.20706-0.02997zm0.43498 0.17673c0.12522 0.02222-0.58209 0.62654-0.5969 0.4939-0.0074-0.35382 0.26528-0.54539 0.5969-0.4939zm-0.74437 1.349c-0.16967-0.13264-0.2286-0.53056 0.08854-0.71506 0.19157-0.04409 0.06596 0.78844-0.08854 0.71506zm0.65583 0.71476c-0.09596 0.0589-0.33162 0.03668-0.50132-0.19898-0.11041-0.19896-0.09594-0.39794-0.02222-0.45685 0.11786-0.07374 0.30234 0.02223 0.44239 0.18415 0.12522 0.14006 0.18451 0.39794 0.08115 0.47168zm-0.19157-0.86962c-0.17676-0.11783-0.20638-0.37569-0.07374-0.58207 0.14006-0.20638 0.39052-0.28011 0.56762-0.16231 0.17711 0.11786 0.20638 0.37572 0.07374 0.58209-0.133 0.20638-0.39088 0.28011-0.56762 0.16231zm0.73696 1.275c-0.21379 0.0074-0.42017-0.16967-0.42017-0.23602 0-0.08854 0.25789-0.16228 0.42758-0.16228 0.16967-0.0074 0.40533 0.05151 0.40533 0.14006 0.0074 0.08148-0.20638 0.25824-0.41275 0.25824zm0.42756-0.90665c0 0.21379-0.19154 0.39053-0.42756 0.39053s-0.42758-0.16967-0.42758-0.39053v-0.0074c0-0.21379 0.19157-0.39053 0.42758-0.39053 0.23602 0.0074 0.42756 0.17709 0.42756 0.39792zm0.5969 0.30975c-0.18415 0.25044-0.42756 0.25789-0.52316 0.19154-0.09596-0.08854-0.02222-0.36863 0.11041-0.52316 0.15489-0.16967 0.31682-0.28011 0.42758-0.19157 0.07374 0.07341 0.11783 0.35349-0.01483 0.52319zm0.16231-0.53061c-0.15489 0.06634-0.28014-0.75916-0.08857-0.71506 0.31679 0.18415 0.2653 0.58242 0.08854 0.71509z"
         fill="#3d3f38"
         stroke-width=".0254"
         id="path55"
         style="stroke:none" />
      <path
         d="m17.157 73.103c0-0.38418-0.31257-0.69675-0.69672-0.69675h-1.6101v0.27023c0.23531 0 0.42687 0.19121 0.42687 0.42652 0 0.23528-0.19157 0.42685-0.42687 0.42685v0.27023h1.6101c0.38415-3.56e-4 0.69672-0.31293 0.69672-0.69708zm-0.69672 0.42228c-0.23287 0-0.4223-0.18946-0.4223-0.42228 0-0.23284 0.18943-0.42228 0.42228-0.42228s0.42228 0.18943 0.42228 0.42228c0 0.23282-0.18943 0.42228-0.42228 0.42228zm0.69672 1.4213h-2.3068v0.27023c0.23531 0 0.42687 0.19121 0.42687 0.42649 0 0.2353-0.19157 0.42652-0.42687 0.42652v0.27023h2.3068zm-0.69672 1.119c-0.23287 0-0.4223-0.18943-0.4223-0.42228 0-0.23282 0.18943-0.42228 0.42228-0.42228s0.42228 0.18946 0.42228 0.42228c0 0.23284-0.18943 0.42228-0.42228 0.42228zm0.69672 2.1174c0-0.38418-0.31257-0.69675-0.69672-0.69675h-1.6101v0.27023c0.23531 0 0.42687 0.19121 0.42687 0.42652 0 0.23528-0.19157 0.42685-0.42687 0.42685v0.27023h1.6101c0.38415-3.56e-4 0.69672-0.31293 0.69672-0.69708zm-0.69672 0.42228c-0.23287 0-0.4223-0.18946-0.4223-0.42228 0-0.23284 0.18943-0.42228 0.42228-0.42228s0.42228 0.18943 0.42228 0.42228c0 0.23282-0.18943 0.42228-0.42228 0.42228zm0.69672 2.1174c0-0.38418-0.31257-0.69672-0.69672-0.69672h-1.6101v0.2702c0.23531 0 0.42687 0.19121 0.42687 0.42652s-0.19157 0.42685-0.42687 0.42685v0.27026h1.6101c0.38415-3.81e-4 0.69672-0.31293 0.69672-0.6971zm-0.69672 0.42225c-0.23287 0-0.4223-0.18946-0.4223-0.42228 0-0.23284 0.18943-0.42228 0.42228-0.42228s0.42228 0.18943 0.42228 0.42228c0 0.23282-0.18943 0.42228-0.42228 0.42228zm0.69672 2.1178c0-0.38418-0.31257-0.69672-0.69672-0.69672h-1.6101v0.2702c0.23531 0 0.42687 0.19121 0.42687 0.42652s-0.19157 0.42685-0.42687 0.42685v0.27026h1.6101c0.38415-3.81e-4 0.69672-0.31293 0.69672-0.6971zm-0.69672 0.42225c-0.23287 0-0.4223-0.18946-0.4223-0.42228 0-0.23284 0.18943-0.42228 0.42228-0.42228s0.42228 0.18943 0.42228 0.42228c0 0.23282-0.18943 0.42228-0.42228 0.42228zm0.69672 2.1178c0-0.38418-0.31257-0.69672-0.69672-0.69672h-1.6101v0.2702c0.23531 0 0.42687 0.19121 0.42687 0.42652s-0.19157 0.42685-0.42687 0.42685v0.27026h1.6101c0.38415-3.81e-4 0.69672-0.31293 0.69672-0.6971zm-0.69672 0.42225c-0.23287 0-0.4223-0.18946-0.4223-0.42228 0-0.23284 0.18943-0.42228 0.42228-0.42228s0.42228 0.18943 0.42228 0.42228c0 0.23282-0.18943 0.42228-0.42228 0.42228zm0.69672 1.421h-2.3068v0.27026c0.23531 0 0.42687 0.19119 0.42687 0.42647 0 0.23533-0.19157 0.42687-0.42687 0.42687v0.27026h2.3068zm-0.69672 1.119c-0.23287 0-0.4223-0.18946-0.4223-0.42228 0-0.23284 0.18943-0.42228 0.42228-0.42228s0.42228 0.18943 0.42228 0.42228c0 0.23282-0.18943 0.42228-0.42228 0.42228zm0.69672 2.1177c0-0.38418-0.31257-0.69672-0.69672-0.69672h-1.6101v0.2702c0.23531 0 0.42687 0.19121 0.42687 0.42652s-0.19157 0.42685-0.42687 0.42685v0.27026h1.6101c0.38415-3.81e-4 0.69672-0.31293 0.69672-0.6971zm-0.69672 0.42225c-0.23287 0-0.4223-0.18943-0.4223-0.42228s0.18943-0.42228 0.42228-0.42228 0.42228 0.18943 0.42228 0.42228-0.18943 0.42228-0.42228 0.42228zm0.69672 2.1178c0-0.38418-0.31257-0.69672-0.69672-0.69672h-1.6101v0.2702c0.23531 0 0.42687 0.19121 0.42687 0.42652s-0.19157 0.42685-0.42687 0.42685v0.27026h1.6101c0.38415-3.81e-4 0.69672-0.31293 0.69672-0.6971zm-0.69672 0.42228c-0.23287 0-0.4223-0.18943-0.4223-0.42228s0.18943-0.42228 0.42228-0.42228 0.42228 0.18943 0.42228 0.42228-0.18943 0.42228-0.42228 0.42228zm0.69672 2.1177c0-0.38418-0.31257-0.69672-0.69672-0.69672h-1.6101v0.2702c0.23531 0 0.42687 0.19121 0.42687 0.42652s-0.19157 0.42687-0.42687 0.42687v0.2702h1.6101c0.38415-3.55e-4 0.69672-0.31293 0.69672-0.69708zm-0.69672 0.42228c-0.23287 0-0.4223-0.18943-0.4223-0.42228s0.18943-0.42228 0.42228-0.42228 0.42228 0.18943 0.42228 0.42228-0.18943 0.42228-0.42228 0.42228zm0.69672 2.1177c0-0.38418-0.31257-0.69672-0.69672-0.69672h-1.6101v0.2702c0.23531 0 0.42687 0.19121 0.42687 0.42652s-0.19157 0.42685-0.42687 0.42685v0.27026h1.6101c0.38415-3.81e-4 0.69672-0.31293 0.69672-0.6971zm-0.69672 0.42228c-0.23287 0-0.4223-0.18943-0.4223-0.42228s0.18943-0.42228 0.42228-0.42228 0.42228 0.18943 0.42228 0.42228-0.18943 0.42228-0.42228 0.42228zm0.69672 1.421h-2.3068v0.27026c0.23531 0 0.42687 0.19119 0.42687 0.42647 0 0.23533-0.19157 0.42687-0.42687 0.42687v0.27026h2.3068zm-0.69672 1.119c-0.23287 0-0.4223-0.18944-0.4223-0.42228s0.18943-0.42227 0.42228-0.42227 0.42228 0.18943 0.42228 0.42227-0.18943 0.42228-0.42228 0.42228zm0.69672 2.1177c0-0.38418-0.31257-0.69673-0.69672-0.69673h-1.6101v0.27021c0.23531 0 0.42687 0.19121 0.42687 0.42652 0 0.2353-0.19157 0.42651-0.42687 0.42651v0.27023h1.6101c0.38415 0 0.69672-0.31257 0.69672-0.69674zm-0.69672 0.42227c-0.23287 0-0.4223-0.18943-0.4223-0.42227 0-0.23285 0.18943-0.42228 0.42228-0.42228s0.42228 0.18943 0.42228 0.42228c0 0.23284-0.18943 0.42227-0.42228 0.42227zm0.69672 2.1177c0-0.38418-0.31257-0.69672-0.69672-0.69672h-1.6101v0.2702c0.23531 0 0.42687 0.19121 0.42687 0.42652s-0.19157 0.42652-0.42687 0.42652v0.27023h1.6101c0.38415 0 0.69672-0.31257 0.69672-0.69675zm-0.69672 0.42228c-0.23287 0-0.4223-0.18944-0.4223-0.42228s0.18943-0.42228 0.42228-0.42228 0.42228 0.18944 0.42228 0.42228-0.18943 0.42228-0.42228 0.42228zm0.69672 2.1177c0-0.38417-0.31257-0.69672-0.69672-0.69672h-1.6101v0.27021c0.23531 0 0.42687 0.19121 0.42687 0.42651 0 0.23531-0.19157 0.42652-0.42687 0.42652v0.27023h1.6101c0.38415 0 0.69672-0.31257 0.69672-0.69672zm-0.69672 0.42228c-0.23287 0-0.4223-0.18943-0.4223-0.42228 0-0.23284 0.18943-0.42227 0.42228-0.42227s0.42228 0.18943 0.42228 0.42227c0 0.23285-0.18943 0.42228-0.42228 0.42228zm0.69672 2.1177c0-0.38418-0.31257-0.69673-0.69672-0.69673h-1.6101v0.27021c0.23531 0 0.42687 0.19121 0.42687 0.42652 0 0.2353-0.19157 0.42652-0.42687 0.42652v0.27023h1.6101c0.38415 0 0.69672-0.31258 0.69672-0.69673zm-0.69672 0.42227c-0.23287 0-0.4223-0.18943-0.4223-0.42227s0.18943-0.42228 0.42228-0.42228 0.42228 0.18944 0.42228 0.42228-0.18943 0.42227-0.42228 0.42227zm0.69672 1.421h-2.3068v0.27023c0.23531 0 0.42687 0.19119 0.42687 0.42649 0 0.23531-0.19157 0.42652-0.42687 0.42652v0.27023h2.3068zm-0.69672 1.119c-0.23287 0-0.4223-0.18944-0.4223-0.42228s0.18943-0.42227 0.42228-0.42227 0.42228 0.18943 0.42228 0.42227-0.18943 0.42228-0.42228 0.42228zm0.69672 2.1177c0-0.38418-0.31257-0.69673-0.69672-0.69673h-1.6101v0.27021c0.23531 0 0.42687 0.19121 0.42687 0.42652 0 0.2353-0.19157 0.42651-0.42687 0.42651v0.27023h1.6101c0.38415 0 0.69672-0.31257 0.69672-0.69672zm-0.69672 0.42227c-0.23287 0-0.4223-0.18943-0.4223-0.42227 0-0.23285 0.18943-0.42228 0.42228-0.42228s0.42228 0.18943 0.42228 0.42228c0 0.23284-0.18943 0.42227-0.42228 0.42227zm0.69672 2.1174c0-0.38417-0.31257-0.69672-0.69672-0.69672h-1.6101v0.27023c0.23531 0 0.42687 0.19119 0.42687 0.42649 0 0.23531-0.19157 0.42652-0.42687 0.42652v0.27023h1.6101c0.38415 0 0.69672-0.31257 0.69672-0.69672zm-0.69672 0.42228c-0.23287 0-0.4223-0.18943-0.4223-0.42228 0-0.23281 0.18943-0.42227 0.42228-0.42227s0.42228 0.18946 0.42228 0.42227c0 0.23285-0.18943 0.42228-0.42228 0.42228zm17.78-45.446h1.6101v-0.27023c-0.23531 0-0.42687-0.19121-0.42687-0.42649 0-0.23531 0.19157-0.42652 0.42687-0.42652v-0.27023h-1.6101c-0.38418 0-0.69672 0.31257-0.69672 0.69672 0 0.3842 0.31255 0.69675 0.69672 0.69675zm-0.42228-0.69672c0-0.23284 0.18946-0.42228 0.42228-0.42228 0.23284 0 0.42228 0.18943 0.42228 0.42228 0 0.23282-0.18943 0.42228-0.42228 0.42228-0.23282 0-0.42228-0.18946-0.42228-0.42228zm-0.27445 3.237h2.3068v-0.27023c-0.23531 0-0.42687-0.19121-0.42687-0.42652 0-0.23528 0.19157-0.42649 0.42685-0.42649v-0.27026h-2.3068zm0.27445-0.69672c0-0.23284 0.18946-0.4223 0.42228-0.4223 0.23284 0 0.42228 0.18946 0.42228 0.42228 0 0.23284-0.18943 0.42228-0.42228 0.42228-0.23282 0-0.42228-0.18943-0.42228-0.42228zm0.42228 3.2365h1.6101v-0.27023c-0.23531 0-0.42687-0.19121-0.42687-0.42649 0-0.23531 0.19157-0.42652 0.42687-0.42652v-0.27023h-1.6101c-0.38418 0-0.69672 0.31257-0.69672 0.69672 0 0.3842 0.31255 0.69675 0.69672 0.69675zm-0.42228-0.69672c0-0.23284 0.18946-0.42228 0.42228-0.42228 0.23284 0 0.42228 0.18943 0.42228 0.42228 0 0.23282-0.18943 0.42228-0.42228 0.42228-0.23282 0-0.42228-0.18946-0.42228-0.42228zm0.42228 3.2365h1.6101v-0.27023c-0.23531 0-0.42687-0.19119-0.42687-0.42649s0.19157-0.42652 0.42687-0.42652v-0.27023h-1.6101c-0.38418 0-0.69672 0.31257-0.69672 0.69672 0 0.3842 0.31255 0.69675 0.69672 0.69675zm-0.42228-0.69672c0-0.23284 0.18946-0.42228 0.42228-0.42228 0.23284 0 0.42228 0.18943 0.42228 0.42228 0 0.23282-0.18943 0.42228-0.42228 0.42228-0.23282 0-0.42228-0.18946-0.42228-0.42228zm0.42228 3.2367h1.6101v-0.27023c-0.23531 0-0.42687-0.19119-0.42687-0.42649s0.19157-0.42652 0.42687-0.42652v-0.27023h-1.6101c-0.38418 0-0.69672 0.31257-0.69672 0.69672 0 0.3842 0.31255 0.69675 0.69672 0.69675zm-0.42228-0.69672c0-0.23284 0.18946-0.42228 0.42228-0.42228 0.23284 0 0.42228 0.18943 0.42228 0.42228 0 0.23282-0.18943 0.42228-0.42228 0.42228-0.23282 0-0.42228-0.18946-0.42228-0.42228zm0.42228 3.2367h1.6101v-0.27023c-0.23531 0-0.42687-0.19119-0.42687-0.42649s0.19157-0.42652 0.42687-0.42652v-0.27023h-1.6101c-0.38418 0-0.69672 0.31257-0.69672 0.69672 0 0.3842 0.31255 0.69675 0.69672 0.69675zm-0.42228-0.69672c0-0.23284 0.18946-0.42228 0.42228-0.42228 0.23284 0 0.42228 0.18943 0.42228 0.42228 0 0.23282-0.18943 0.42228-0.42228 0.42228-0.23282 0-0.42228-0.18946-0.42228-0.42228zm-0.27445 3.2367h2.3068v-0.27023c-0.23531 0-0.42687-0.19119-0.42687-0.42649s0.19157-0.42652 0.42685-0.42652v-0.27023h-2.3068zm0.27445-0.69672c0-0.23284 0.18946-0.42228 0.42228-0.42228 0.23284 0 0.42228 0.18943 0.42228 0.42228 0 0.23282-0.18943 0.42228-0.42228 0.42228-0.23282 0-0.42228-0.18946-0.42228-0.42228zm0.42228 3.2367h1.6101v-0.2702c-0.23531 0-0.42687-0.19121-0.42687-0.42652s0.19157-0.42652 0.42687-0.42652v-0.27023h-1.6101c-0.38418 0-0.69672 0.31257-0.69672 0.69672 0 0.3842 0.31255 0.69675 0.69672 0.69675zm-0.42228-0.69672c0-0.23284 0.18946-0.42228 0.42228-0.42228 0.23284 0 0.42228 0.18943 0.42228 0.42228s-0.18943 0.42228-0.42228 0.42228c-0.23282 0-0.42228-0.18943-0.42228-0.42228zm0.42228 3.2367h1.6101v-0.2702c-0.23531 0-0.42687-0.19121-0.42687-0.42652s0.19157-0.42652 0.42687-0.42652v-0.27023h-1.6101c-0.38418 0-0.69672 0.31257-0.69672 0.69672 0 0.3842 0.31255 0.69675 0.69672 0.69675zm-0.42228-0.69672c0-0.23284 0.18946-0.42228 0.42228-0.42228 0.23284 0 0.42228 0.18943 0.42228 0.42228s-0.18943 0.42228-0.42228 0.42228c-0.23282 0-0.42228-0.18943-0.42228-0.42228zm0.42228 3.2367h1.6101v-0.27023c-0.23531 0-0.42687-0.19119-0.42687-0.42649s0.19157-0.42652 0.42687-0.42652v-0.27023h-1.6101c-0.38418 0-0.69672 0.31257-0.69672 0.69672 0 0.3842 0.31255 0.69675 0.69672 0.69675zm-0.42228-0.69672c0-0.23284 0.18946-0.42228 0.42228-0.42228 0.23284 0 0.42228 0.18943 0.42228 0.42228s-0.18943 0.42228-0.42228 0.42228c-0.23282 0-0.42228-0.18943-0.42228-0.42228zm0.42228 3.2367h1.6101v-0.2702c-0.23531 0-0.42687-0.19121-0.42687-0.42652s0.19157-0.42652 0.42687-0.42652v-0.27023h-1.6101c-0.38418 0-0.69672 0.31257-0.69672 0.69675s0.31255 0.69672 0.69672 0.69672zm-0.42228-0.69672c0-0.23284 0.18946-0.42228 0.42228-0.42228 0.23284 0 0.42228 0.18943 0.42228 0.42228s-0.18943 0.42228-0.42228 0.42228c-0.23282 0-0.42228-0.18943-0.42228-0.42228zm-0.27445 3.2367h2.3068v-0.27021c-0.23531 0-0.42687-0.19121-0.42687-0.42651 0-0.23531 0.19157-0.42652 0.42685-0.42652v-0.27023h-2.3068zm0.27445-0.69672c0-0.23285 0.18946-0.42228 0.42228-0.42228 0.23284 0 0.42228 0.18943 0.42228 0.42228 0 0.23284-0.18943 0.42227-0.42228 0.42227-0.23282 0-0.42228-0.18943-0.42228-0.42227zm0.42228 3.2367h1.6101v-0.2702c-0.23531 0-0.42687-0.19121-0.42687-0.42652s0.19157-0.42652 0.42687-0.42652v-0.27023h-1.6101c-0.38418 0-0.69672 0.31257-0.69672 0.69675 0 0.38417 0.31255 0.69672 0.69672 0.69672zm-0.42228-0.69672c0-0.23284 0.18946-0.42228 0.42228-0.42228 0.23284 0 0.42228 0.18944 0.42228 0.42228s-0.18943 0.42227-0.42228 0.42227c-0.23282 0-0.42228-0.18943-0.42228-0.42227zm0.42228 3.2367h1.6101v-0.27026c-0.23531 0-0.42687-0.19119-0.42687-0.42649 0-0.23531 0.19157-0.42652 0.42687-0.42652v-0.27021h-1.6101c-0.38418 0-0.69672 0.31255-0.69672 0.69673 0 0.38417 0.31255 0.69672 0.69672 0.69672zm-0.42228-0.69675c0-0.23284 0.18946-0.42228 0.42228-0.42228 0.23284 0 0.42228 0.18944 0.42228 0.42228s-0.18943 0.42227-0.42228 0.42227c-0.23282 0-0.42228-0.18943-0.42228-0.42227zm0.42228 3.2367h1.6101v-0.27025c-0.23531 0-0.42687-0.19119-0.42687-0.42647 0-0.23533 0.19157-0.42654 0.42687-0.42654v-0.27021h-1.6101c-0.38418 0-0.69672 0.31255-0.69672 0.69673 0 0.38417 0.31255 0.69672 0.69672 0.69672zm-0.42228-0.69672c0-0.23287 0.18946-0.4223 0.42228-0.4223 0.23284 0 0.42228 0.18943 0.42228 0.42228 0 0.23284-0.18943 0.42227-0.42228 0.42227-0.23282 0-0.42228-0.18943-0.42228-0.42227zm0.42228 3.2367h1.6101v-0.27026c-0.23531 0-0.42687-0.19118-0.42687-0.42646 0-0.23534 0.19157-0.42655 0.42687-0.42655v-0.2702h-1.6101c-0.38418 0-0.69672 0.31254-0.69672 0.69672s0.31255 0.69672 0.69672 0.69672zm-0.42228-0.69672c0-0.23287 0.18946-0.42231 0.42228-0.42231 0.23284 0 0.42228 0.18944 0.42228 0.42228s-0.18943 0.42228-0.42228 0.42228c-0.23282 0-0.42228-0.18944-0.42228-0.42228zm-0.27445 3.2367h2.3068v-0.27025c-0.23531 0-0.42687-0.19119-0.42687-0.42647 0-0.23533 0.19157-0.42654 0.42685-0.42654v-0.27021h-2.3068zm0.27445-0.69672c0-0.23287 0.18946-0.4223 0.42228-0.4223 0.23284 0 0.42228 0.18943 0.42228 0.42227 0 0.23285-0.18943 0.42228-0.42228 0.42228-0.23282 0-0.42228-0.18943-0.42228-0.42228zm0.42228 3.2367h1.6101v-0.27026c-0.23531 0-0.42687-0.19119-0.42687-0.42647 0-0.23533 0.19157-0.42654 0.42687-0.42654v-0.2702h-1.6101c-0.38418 0-0.69672 0.31254-0.69672 0.69672 0 0.38417 0.31255 0.69672 0.69672 0.69672zm-0.42228-0.69673c0-0.23286 0.18946-0.4223 0.42228-0.4223 0.23284 0 0.42228 0.18944 0.42228 0.42228s-0.18943 0.42227-0.42228 0.42227c-0.23282 0-0.42228-0.18943-0.42228-0.42227zm0.42228 3.2365h1.6101v-0.27026c-0.23531 0-0.42687-0.19119-0.42687-0.42647 0-0.23533 0.19157-0.42651 0.42687-0.42651v-0.27026h-1.6101c-0.38418 0-0.69672 0.31257-0.69672 0.69675 0 0.38417 0.31255 0.69672 0.69672 0.69672zm-0.42228-0.69673c0-0.23284 0.18946-0.4223 0.42228-0.4223 0.23284 0 0.42228 0.18946 0.42228 0.42228 0 0.23284-0.18943 0.42227-0.42228 0.42227-0.23282 0-0.42228-0.18943-0.42228-0.42227zm0.42228-47.564h1.6101v-0.27023c-0.23531 0-0.42687-0.19121-0.42687-0.42649 0-0.23531 0.19157-0.42652 0.42687-0.42652v-0.27023h-1.6101c-0.38418 0-0.69672 0.31257-0.69672 0.69672 0 0.3842 0.31255 0.69675 0.69672 0.69675zm-0.42228-0.69672c0-0.23284 0.18946-0.42228 0.42228-0.42228 0.23284 0 0.42228 0.18943 0.42228 0.42228 0 0.23282-0.18943 0.42228-0.42228 0.42228-0.23282 0-0.42228-0.18946-0.42228-0.42228zm-16.661 0c0-0.38418-0.31257-0.69675-0.69672-0.69675h-1.6101v0.27023c0.23531 0 0.42687 0.19121 0.42687 0.42652 0 0.23528-0.19157 0.42685-0.42687 0.42685v0.27023h1.6101c0.38415-3.55e-4 0.69672-0.31293 0.69672-0.69708zm-0.69672 0.42225c-0.23287 0-0.4223-0.18946-0.4223-0.42228 0-0.23284 0.18943-0.42228 0.42228-0.42228s0.42228 0.18943 0.42228 0.42228c0 0.23282-0.18943 0.42228-0.42228 0.42228z"
         fill="#958863"
         stroke-width=".0254"
         id="path56"
         style="stroke:none" />
      <g
         transform="matrix(.0254 0 0 .0254 14.85 67.196)"
         fill="none"
         id="g98"
         style="stroke:none">
        <circle
           cx="63.438"
           cy="132.56"
           r="16"
           id="circle56"
           style="stroke:none" />
        <circle
           cx="63.438"
           cy="232.62"
           r="16"
           id="circle57"
           style="stroke:none" />
        <circle
           cx="63.438"
           cy="332.62"
           r="16"
           id="circle58"
           style="stroke:none" />
        <circle
           cx="63.438"
           cy="432.62"
           r="16"
           id="circle59"
           style="stroke:none" />
        <circle
           cx="63.438"
           cy="532.62"
           r="16"
           id="circle60"
           style="stroke:none" />
        <circle
           cx="63.438"
           cy="632.62"
           r="16"
           id="circle61"
           style="stroke:none" />
        <circle
           cx="63.438"
           cy="732.62"
           r="16"
           id="circle62"
           style="stroke:none" />
        <circle
           cx="63.438"
           cy="832.62"
           r="16"
           id="circle63"
           style="stroke:none" />
        <circle
           cx="63"
           cy="932.62"
           r="16"
           id="circle64"
           style="stroke:none" />
        <circle
           cx="63"
           cy="1032.6"
           r="16"
           id="circle65"
           style="stroke:none" />
        <circle
           cx="63"
           cy="1132.6"
           r="16"
           id="circle66"
           style="stroke:none" />
        <circle
           cx="63"
           cy="1232.6"
           r="16"
           id="circle67"
           style="stroke:none" />
        <circle
           cx="63"
           cy="1332.6"
           r="16"
           id="circle68"
           style="stroke:none" />
        <circle
           cx="63"
           cy="1432.6"
           r="16"
           id="circle69"
           style="stroke:none" />
        <circle
           cx="63"
           cy="1532.6"
           r="16"
           id="circle70"
           style="stroke:none" />
        <circle
           cx="63"
           cy="1632.6"
           r="16"
           id="circle71"
           style="stroke:none" />
        <circle
           cx="63"
           cy="1732.6"
           r="16"
           id="circle72"
           style="stroke:none" />
        <circle
           cx="63"
           cy="1832.6"
           r="16"
           id="circle73"
           style="stroke:none" />
        <circle
           cx="63"
           cy="1932.6"
           r="16"
           id="circle74"
           style="stroke:none" />
        <circle
           cx="63"
           cy="2032.6"
           r="16"
           id="circle75"
           style="stroke:none" />
        <circle
           cx="763"
           cy="2032.6"
           r="16"
           id="circle76"
           style="stroke:none" />
        <circle
           cx="763"
           cy="1932.6"
           r="16"
           id="circle77"
           style="stroke:none" />
        <circle
           cx="763"
           cy="1832.6"
           r="16"
           id="circle78"
           style="stroke:none" />
        <circle
           cx="763"
           cy="1732.6"
           r="16"
           id="circle79"
           style="stroke:none" />
        <circle
           cx="763"
           cy="1632.6"
           r="16"
           id="circle80"
           style="stroke:none" />
        <circle
           cx="763"
           cy="1532.6"
           r="16"
           id="circle81"
           style="stroke:none" />
        <circle
           cx="763"
           cy="1432.6"
           r="16"
           id="circle82"
           style="stroke:none" />
        <circle
           cx="790.84"
           cy="1297.8"
           r="16"
           id="circle83"
           style="stroke:none" />
        <circle
           cx="800.03"
           cy="1293.1"
           r="16"
           id="circle84"
           style="stroke:none" />
        <circle
           cx="763"
           cy="1132.6"
           r="16"
           id="circle85"
           style="stroke:none" />
        <circle
           cx="763"
           cy="1032.6"
           r="16"
           id="circle86"
           style="stroke:none" />
        <circle
           cx="763"
           cy="932.62"
           r="16"
           id="circle87"
           style="stroke:none" />
        <circle
           cx="763"
           cy="832.62"
           r="16"
           id="circle88"
           style="stroke:none" />
        <circle
           cx="763"
           cy="732.62"
           r="16"
           id="circle89"
           style="stroke:none" />
        <circle
           cx="763"
           cy="632.62"
           r="16"
           id="circle90"
           style="stroke:none" />
        <circle
           cx="763"
           cy="532.62"
           r="16"
           id="circle91"
           style="stroke:none" />
        <circle
           cx="763"
           cy="432.62"
           r="16"
           id="circle92"
           style="stroke:none" />
        <circle
           cx="763"
           cy="332.62"
           r="16"
           id="circle93"
           style="stroke:none" />
        <circle
           cx="763"
           cy="232.62"
           r="16"
           id="circle94"
           style="stroke:none" />
        <circle
           cx="763"
           cy="132.62"
           r="16"
           id="circle95"
           style="stroke:none" />
        <circle
           cx="313"
           cy="2032.6"
           r="16"
           id="circle96"
           style="stroke:none" />
        <circle
           cx="413"
           cy="2032.6"
           r="16"
           id="circle97"
           style="stroke:none" />
        <circle
           cx="513"
           cy="2032.6"
           r="16"
           id="circle98"
           style="stroke:none" />
      </g>
      <rect
         x="20.325"
         y="101.91"
         width="11.022"
         height="10.035"
         rx=".2"
         fill="#b3b3b3"
         stroke="#8e8e8e"
         stroke-linecap="round"
         stroke-linejoin="round"
         stroke-width=".1"
         id="rect98"
         style="stroke:none" />
      <rect
         x="24.365"
         y="98.824"
         width="7.5723"
         height="2.2304"
         fill="none"
         stroke="#a0a0a0"
         stroke-linecap="round"
         stroke-linejoin="round"
         stroke-width=".10653"
         id="rect99"
         style="stroke:none" />
      <g
         transform="matrix(.0254 0 0 .0254 14.85 67.196)"
         fill="#be8936"
         id="g101"
         style="stroke:none">
        <path
           transform="scale(10.417)"
           d="m38.328 121.26v4.9297h5.2988v-4.9297zm2.6289 0.53906a1.8898 1.8898 0 0 1 1.8887 1.8906 1.8898 1.8898 0 0 1-1.8887 1.8906 1.8898 1.8898 0 0 1-1.8906-1.8906 1.8898 1.8898 0 0 1 1.8906-1.8906z"
           id="path99"
           style="stroke:none" />
        <path
           transform="scale(10.417)"
           d="m50.85 121a2.6457 2.6457 0 0 0-2.6445 2.6445 2.6457 2.6457 0 0 0 2.6445 2.6465 2.6457 2.6457 0 0 0 2.6465-2.6465 2.6457 2.6457 0 0 0-2.6465-2.6445zm0.05273 0.73438a1.8898 1.8898 0 0 1 1.8906 1.8906 1.8898 1.8898 0 0 1-1.8906 1.8887 1.8898 1.8898 0 0 1-1.8887-1.8887 1.8898 1.8898 0 0 1 1.8887-1.8906z"
           id="path100"
           style="stroke:none" />
        <path
           transform="scale(10.417)"
           d="m60.256 121.14a2.6457 2.6457 0 0 0-2.6445 2.6465 2.6457 2.6457 0 0 0 2.6445 2.6445 2.6457 2.6457 0 0 0 2.6465-2.6445 2.6457 2.6457 0 0 0-2.6465-2.6465zm-0.01758 0.73633a1.8898 1.8898 0 0 1 1.8887 1.8906 1.8898 1.8898 0 0 1-1.8887 1.8887 1.8898 1.8898 0 0 1-1.8906-1.8887 1.8898 1.8898 0 0 1 1.8906-1.8906z"
           id="path101"
           style="stroke:none" />
      </g>
      <g
         transform="matrix(.0254 0 0 .0254 14.85 67.196)"
         id="g105"
         style="stroke:none">
        <rect
           x="220.23"
           y="1241"
           width="114.37"
           height="85.351"
           rx="7.874"
           fill="#f2f2f2"
           id="rect101"
           style="stroke:none" />
        <g
           font-family="sans-serif"
           id="g104"
           style="stroke:none">
          <text
             transform="rotate(-89.567)"
             x="-1874.2069"
             y="188.18607"
             fill="#ffffff"
             font-size="60.891px"
             stroke-width="1.5223"
             style="line-height:1.25;stroke:none"
             xml:space="preserve"
             id="text101"><tspan
               x="-1874.2069"
               y="188.18607"
               fill="#ffffff"
               stroke-width="1.5223"
               id="tspan101"
               style="stroke:none">Raspberry Pi Pico W 2022</tspan></text>
          <text
             x="449.39603"
             y="1216.5018"
             fill="#ffffff"
             font-size="50.238px"
             stroke-width="1.256"
             style="line-height:1.25;stroke:none"
             xml:space="preserve"
             id="text102"><tspan
               x="449.39603"
               y="1216.5018"
               fill="#ffffff"
               stroke-width="1.256"
               id="tspan102"
               style="stroke:none">DEBUG</tspan></text>
          <text
             x="357.93973"
             y="1583.9539"
             fill="#000000"
             font-size="416.67px"
             stroke-width="10.417"
             style="line-height:1.25;stroke:none"
             xml:space="preserve"
             id="text103"><tspan
               stroke-width="10.417"
               id="tspan103"
               style="stroke:none" /></text>
          <text
             x="269.25177"
             y="1616.2849"
             fill="#4d4d4d"
             font-size="125.76px"
             stroke-width="3.1439"
             style="line-height:1.25;stroke:none"
             xml:space="preserve"
             id="text104"><tspan
               x="269.25177"
               y="1616.2849"
               fill="#4d4d4d"
               stroke-width="3.1439"
               id="tspan104"
               style="stroke:none">Wi-Fi</tspan></text>
        </g>
      </g>
    </g>
  </g>
</svg>
