<?xml version="1.0" encoding="utf-8"?>
<!-- Generator: Adobe Illustrator 25.0.1, SVG Export Plug-In . SVG Version: 6.00 Build 0)  -->
<svg version="1.1" id="katman_1" xmlns="http://www.w3.org/2000/svg" xmlns:xlink="http://www.w3.org/1999/xlink" x="0px" y="0px"
	 viewBox="0 0 3485 2500" style="enable-background:new 0 0 3485 2500;" xml:space="preserve">
<path d="M2975.4,1219.4l-105-65c-0.9-10.2-1.9-20.4-3-30.6l90.2-84.1c9.2-8.5,13.3-21.2,10.8-33.5c-2.4-12.3-11-22.4-22.8-26.8
	l-115.3-43.1c-2.9-10-5.9-19.9-9-29.8l71.9-99.9c11.7-16.2,8-38.7-8.2-50.4c-4.6-3.3-9.8-5.5-15.3-6.4l-121.6-19.8
	c-4.7-9.2-9.6-18.3-14.6-27.3l51.1-112.1c5.2-11.4,4.2-24.7-2.8-35.1c-6.9-10.4-18.8-16.5-31.3-16l-123.4,4.3
	c-6.4-8-12.9-15.9-19.5-23.6L2636,400c2.9-12.2-0.8-25-9.6-33.8c-8.8-8.9-21.6-12.5-33.8-9.6l-120.2,28.3
	c-7.8-6.6-15.7-13.1-23.7-19.5L2453,242c0.5-12.5-5.6-24.4-16-31.3c-10.4-7-23.7-8-35.1-2.8L2289.9,259c-9-5-18.1-9.9-27.3-14.6
	l-19.8-121.6c-3.2-19.7-21.8-33.1-41.5-29.8c-5.5,0.9-10.7,3.1-15.3,6.3l-100,71.9c-9.8-3.1-19.7-6.1-29.7-9l-43.1-115.3
	c-4.4-11.7-14.5-20.4-26.8-22.8c-12.3-2.4-24.9,1.7-33.4,10.8l-84.1,90.3c-10.2-1.1-20.4-2.1-30.6-3l-65-105
	c-10.5-17-32.8-22.2-49.7-11.7c-4.8,2.9-8.8,6.9-11.7,11.7l-65,105c-10.2,0.9-20.4,1.8-30.6,3l-84.2-90.3
	c-13.6-14.6-36.4-15.4-51-1.8c-4.1,3.8-7.3,8.6-9.2,13.9l-43.1,115.3c-10,2.9-19.9,5.9-29.7,9l-99.9-71.9c-10.2-7.3-23.4-8.9-35-4.1
	c-11.5,4.8-19.8,15.2-21.8,27.6l-19.8,121.6c-9.2,4.8-18.3,9.6-27.3,14.6l-112.1-51.1c-11.4-5.2-24.6-4.1-35,2.8
	c-10.4,6.9-16.5,18.8-16,31.3l4.3,123.4c-8,6.4-15.9,12.9-23.7,19.5l-120.2-28.3c-12.2-2.9-25,0.8-33.8,9.6
	c-8.9,8.8-12.5,21.7-9.6,33.8l28.3,120.2c-6.6,7.8-13.1,15.7-19.4,23.6l-123.4-4.3c-12.5-0.4-24.3,5.7-31.3,16
	c-7,10.4-8,23.7-2.8,35.1l51.1,112.1c-5,9-9.9,18.1-14.6,27.3l-121.6,19.8c-19.7,3.2-33.1,21.8-29.8,41.5c0.9,5.5,3.1,10.8,6.3,15.3
	l71.9,99.9c-3.1,9.9-6.2,19.8-9,29.8l-115.3,43.1c-18.7,7-28.2,27.9-21.1,46.6c2,5.2,5.1,9.9,9.2,13.7l90.2,84.1
	c-1.1,10.2-2.1,20.4-3,30.6l-105,65c-10.6,6.6-17.1,18.2-17.1,30.7c0,12.5,6.5,24.2,17.1,30.7l105,65c0.9,10.2,1.9,20.4,3,30.6
	l-90.2,84.2c-14.6,13.6-15.4,36.4-1.8,51c3.8,4.1,8.5,7.3,13.8,9.2l115.3,43.1c2.9,10,5.9,19.9,9,29.8l-71.9,99.9
	c-11.7,16.2-8,38.7,8.1,50.4c4.6,3.3,9.8,5.5,15.4,6.4l121.6,19.8c4.8,9.2,9.6,18.3,14.6,27.3l-51.1,112.1
	c-5.2,11.4-4.1,24.7,2.8,35.1c6.9,10.4,18.8,16.5,31.3,16l123.3-4.3c6.4,8,12.9,15.9,19.5,23.7L849,2100.1
	c-2.9,12.2,0.8,25,9.6,33.8c8.8,8.9,21.7,12.5,33.8,9.6l120.2-28.3c7.8,6.6,15.7,13.1,23.7,19.4l-4.3,123.4
	c-0.7,19.9,14.8,36.6,34.8,37.4c5.6,0.2,11.2-0.9,16.3-3.2l112.1-51.1c9,5,18.1,9.9,27.3,14.6l19.8,121.5
	c2,12.4,10.3,22.8,21.8,27.6c11.6,4.8,24.8,3.3,35-4l99.9-72c9.9,3.1,19.8,6.2,29.8,9.1l43.1,115.3c4.4,11.7,14.5,20.4,26.8,22.8
	c12.3,2.5,24.9-1.6,33.4-10.8l84.2-90.2c10.2,1.2,20.4,2.1,30.6,3.1l65,105c6.6,10.6,18.2,17.1,30.7,17.1c12.5,0,24.1-6.5,30.7-17.1
	l65-105c10.2-0.9,20.4-1.9,30.6-3.1l84.1,90.2c8.5,9.2,21.2,13.3,33.4,10.8c12.3-2.4,22.4-11,26.8-22.8l43.1-115.3
	c10-2.9,19.9-5.9,29.8-9.1l99.9,72c16.2,11.6,38.8,8,50.4-8.2c3.3-4.5,5.4-9.8,6.3-15.3l19.8-121.5c9.2-4.8,18.2-9.7,27.3-14.6
	l112.1,51.1c18.1,8.3,39.5,0.4,47.8-17.7c2.4-5.1,3.5-10.7,3.3-16.4l-4.3-123.4c8-6.4,15.9-12.8,23.7-19.4l120.2,28.3
	c12.2,2.9,25-0.7,33.8-9.6c8.9-8.8,12.5-21.6,9.6-33.8l-28.3-120.2c6.6-7.8,13.1-15.7,19.4-23.7l123.4,4.3
	c12.5,0.5,24.4-5.6,31.3-16c7-10.4,8.1-23.7,2.8-35.1l-51.1-112.1c5-9.1,9.9-18.1,14.6-27.3l121.6-19.8c12.4-2,22.8-10.3,27.6-21.8
	c4.8-11.6,3.3-24.8-4.1-34.9l-71.9-99.9c3.1-9.9,6.1-19.8,9-29.8l115.3-43.1c11.7-4.4,20.4-14.5,22.8-26.8
	c2.5-12.3-1.6-24.9-10.8-33.4l-90.2-84.2c1.1-10.2,2.1-20.4,3-30.6l105-65c10.6-6.6,17.1-18.2,17.1-30.7
	C2992.5,1237.6,2986,1225.9,2975.4,1219.4L2975.4,1219.4z M2272.9,2090c-40.1-8.6-65.6-48.1-57-88.3c8.6-40.2,48-65.7,88.1-57.1
	c40.1,8.6,65.6,48.2,57,88.3C2352.5,2073,2313,2098.6,2272.9,2090L2272.9,2090z M2237.3,1848.8c-36.5-7.8-72.5,15.4-80.4,52
	c0,0,0,0.1,0,0.1l-37.3,173.9c-115,52.2-242.7,81.2-377.2,81.2c-137.6,0-268-30.4-385.1-84.8l-37.2-173.9
	c-7.8-36.6-43.8-59.9-80.4-52.1l-153.5,33c-28.5-29.4-55-60.6-79.4-93.6h747c8.4,0,14.1-1.5,14.1-9.2v-264.2c0-7.7-5.6-9.2-14.1-9.2
	h-218.4v-167.5h236.3c21.6,0,115.3,6.2,145.3,126c9.4,36.9,30,156.7,44.1,195.1c14,43,71.2,129,132.2,129h372.2
	c4.2,0,8.7-0.5,13.5-1.3c-25.8,35.1-54.1,68.3-84.7,99.3L2237.3,1848.8L2237.3,1848.8z M1204.2,2086.4
	c-40.1,8.7-79.6-16.9-88.2-57.1c-8.6-40.2,16.9-79.7,57-88.3c40.1-8.6,79.6,17,88.2,57.1C1269.7,2038.2,1244.2,2077.8,1204.2,2086.4
	L1204.2,2086.4z M920.8,937.4c16.6,37.5-0.3,81.5-37.8,98.1c-37.5,16.7-81.3-0.3-97.9-37.8c-16.6-37.5,0.3-81.4,37.8-98.1
	C860.3,882.9,904.2,899.8,920.8,937.4C920.8,937.3,920.8,937.3,920.8,937.4L920.8,937.4z M833.7,1143.8l159.9-71.1
	c34.2-15.2,49.6-55.2,34.4-89.4l-32.9-74.5h129.5v583.9H863.3c-23.2-81.6-34.9-165.9-34.8-250.7
	C828.5,1208.8,830.3,1176,833.7,1143.8L833.7,1143.8z M1535.5,1087.1V915h308.5c15.9,0,112.5,18.4,112.5,90.6
	c0,60-74.1,81.4-135,81.4L1535.5,1087.1L1535.5,1087.1L1535.5,1087.1z M2656.5,1242c0,22.8-0.8,45.4-2.5,67.9h-93.8
	c-9.4,0-13.2,6.2-13.2,15.4v43.1c0,101.4-57.2,123.4-107.2,129c-47.7,5.4-100.6-20-107.1-49.2c-28.1-158.3-75-192.1-149.1-250.5
	c91.9-58.3,187.5-144.4,187.5-259.7c0-124.4-85.3-202.8-143.4-241.2c-81.6-53.8-171.9-64.6-196.2-64.6h-969.8
	c131.5-146.8,309.8-250.8,511.3-288.6l114.3,119.9c25.8,27,68.6,28.1,95.6,2.3c0,0,0.1-0.1,0.1-0.1l127.9-122.3
	c268,49.9,494.9,216.7,625.7,445.6L2449,986.9c-15.1,34.2,0.3,74.3,34.4,89.4l168.6,74.9C2655,1181.1,2656.5,1211.3,2656.5,1242
	L2656.5,1242z M1687.3,241.7c29.6-28.4,76.6-27.2,105,2.4c28.3,29.7,27.2,76.8-2.5,105.1c-29.6,28.4-76.6,27.3-105-2.4
	C1656.6,317,1657.7,270,1687.3,241.7L1687.3,241.7z M2556.3,941c16.6-37.5,60.3-54.4,97.8-37.9c0,0,0.1,0,0.1,0.1
	c37.5,16.6,54.4,60.6,37.8,98.1c-16.5,37.5-60.3,54.4-97.8,37.9c0,0-0.1,0-0.1-0.1C2556.6,1022.5,2539.7,978.5,2556.3,941
	L2556.3,941z"/>
</svg>
