<svg xmlns="http://www.w3.org/2000/svg" width="690" height="84" viewBox="0 0 690 84" class="WaveDrom"><g transform="translate(0.5,0.5)" text-anchor="middle" font-size="14" font-family="sans-serif" font-weight="normal"><g transform="translate(4,21)"><g stroke="black" stroke-width="1" stroke-linecap="round"><line x2="681"/><line y2="31"/><line x2="681" y1="31" y2="31"/><line x1="681" x2="681" y2="31"/><line x1="662" x2="662" y2="3"/><line x1="662" x2="662" y1="31" y2="28"/><line x1="642" x2="642" y2="3"/><line x1="642" x2="642" y1="31" y2="28"/><line x1="623" x2="623" y2="31"/><line x1="603" x2="603" y2="3"/><line x1="603" x2="603" y1="31" y2="28"/><line x1="584" x2="584" y2="3"/><line x1="584" x2="584" y1="31" y2="28"/><line x1="564" x2="564" y2="3"/><line x1="564" x2="564" y1="31" y2="28"/><line x1="545" x2="545" y2="3"/><line x1="545" x2="545" y1="31" y2="28"/><line x1="525" x2="525" y2="31"/><line x1="506" x2="506" y2="3"/><line x1="506" x2="506" y1="31" y2="28"/><line x1="486" x2="486" y2="3"/><line x1="486" x2="486" y1="31" y2="28"/><line x1="467" x2="467" y2="3"/><line x1="467" x2="467" y1="31" y2="28"/><line x1="448" x2="448" y2="31"/><line x1="428" x2="428" y2="3"/><line x1="428" x2="428" y1="31" y2="28"/><line x1="409" x2="409" y2="3"/><line x1="409" x2="409" y1="31" y2="28"/><line x1="389" x2="389" y2="3"/><line x1="389" x2="389" y1="31" y2="28"/><line x1="370" x2="370" y2="3"/><line x1="370" x2="370" y1="31" y2="28"/><line x1="350" x2="350" y2="3"/><line x1="350" x2="350" y1="31" y2="28"/><line x1="331" x2="331" y2="3"/><line x1="331" x2="331" y1="31" y2="28"/><line x1="311" x2="311" y2="31"/><line x1="292" x2="292" y2="3"/><line x1="292" x2="292" y1="31" y2="28"/><line x1="272" x2="272" y2="3"/><line x1="272" x2="272" y1="31" y2="28"/><line x1="253" x2="253" y2="3"/><line x1="253" x2="253" y1="31" y2="28"/><line x1="233" x2="233" y2="31"/><line x1="214" x2="214" y2="3"/><line x1="214" x2="214" y1="31" y2="28"/><line x1="195" x2="195" y2="3"/><line x1="195" x2="195" y1="31" y2="28"/><line x1="175" x2="175" y2="3"/><line x1="175" x2="175" y1="31" y2="28"/><line x1="156" x2="156" y2="31"/><line x1="136" x2="136" y2="3"/><line x1="136" x2="136" y1="31" y2="28"/><line x1="117" x2="117" y2="3"/><line x1="117" x2="117" y1="31" y2="28"/><line x1="97" x2="97" y2="3"/><line x1="97" x2="97" y1="31" y2="28"/><line x1="78" x2="78" y2="3"/><line x1="78" x2="78" y1="31" y2="28"/><line x1="58" x2="58" y2="3"/><line x1="58" x2="58" y1="31" y2="28"/><line x1="39" x2="39" y2="3"/><line x1="39" x2="39" y1="31" y2="28"/><line x1="19" x2="19" y2="3"/><line x1="19" x2="19" y1="31" y2="28"/></g><g><g><rect x="623" width="58" height="31" field="00J" style="fill-opacity:0.1"/><rect x="525" width="97" height="31" field="CRC" style="fill-opacity:0.1;fill:#006aff"/><rect x="448" width="78" height="31" field="ENDP" style="fill-opacity:0.1;fill:#00ff19"/><rect x="311" width="136" height="31" field="ADDR" style="fill-opacity:0.1;fill:#ffbf00"/><rect x="233" width="78" height="31" field="PID" style="fill-opacity:0.1;fill:#aaff00"/><rect x="156" width="78" height="31" field="!PID" style="fill-opacity:0.1;fill:#aaff00"/><rect width="156" height="31" field="1" style="fill-opacity:0.1"/></g><g transform="translate(10,-11)"><g transform="translate(662)"><text y="6">0</text></g><g transform="translate(623)"><text y="6">2</text></g><g transform="translate(603)"><text y="6">3</text></g><g transform="translate(525)"><text y="6">7</text></g><g transform="translate(506)"><text y="6">8</text></g><g transform="translate(448)"><text y="6">11</text></g><g transform="translate(428)"><text y="6">12</text></g><g transform="translate(311)"><text y="6">18</text></g><g transform="translate(292)"><text y="6">19</text></g><g transform="translate(233)"><text y="6">22</text></g><g transform="translate(214)"><text y="6">23</text></g><g transform="translate(156)"><text y="6">26</text></g><g transform="translate(136)"><text y="6">27</text></g><g transform="translate(0)"><text y="6">34</text></g></g><g transform="translate(10,15)"><g transform="translate(642)"><text y="6"><tspan>00J</tspan></text></g><g transform="translate(564)"><text y="6"><tspan>CRC</tspan></text></g><g transform="translate(477)"><text y="6"><tspan>ENDP</tspan></text></g><g transform="translate(370)"><text y="6"><tspan>ADDR</tspan></text></g><g transform="translate(263)"><text y="6"><tspan>PID</tspan></text></g><g transform="translate(185)"><text y="6"><tspan>!PID</tspan></text></g><g><g transform="translate(136)"><text y="6">1</text></g><g transform="translate(117)"><text y="6">0</text></g><g transform="translate(97)"><text y="6">0</text></g><g transform="translate(78)"><text y="6">0</text></g><g transform="translate(58)"><text y="6">0</text></g><g transform="translate(39)"><text y="6">0</text></g><g transform="translate(19)"><text y="6">0</text></g><g transform="translate(0)"><text y="6">0</text></g></g></g><g transform="translate(10,39)"><g><g transform="translate(642)"><text y="6"><tspan>EOP</tspan></text></g></g><g><g transform="translate(564)"><text y="6"><tspan>Endpoint</tspan></text></g></g><g><g transform="translate(477)"><text y="6"><tspan>Endpoint</tspan></text></g></g><g><g transform="translate(370)"><text y="6"><tspan>Address</tspan></text></g></g><g><g transform="translate(263)"><text y="6"><tspan>Packet ID</tspan></text></g></g><g><g transform="translate(185)"><text y="6"><tspan>Inverted</tspan></text></g><g transform="translate(185,14)"><text y="6"><tspan>Packet ID</tspan></text></g></g><g><g transform="translate(68)"><text y="6"><tspan>SYNC</tspan></text></g></g></g></g></g></g></svg>