<svg xmlns="http://www.w3.org/2000/svg" width="950" height="126" viewBox="0 0 950 126" class="WaveDrom"><g transform="translate(0.5,0.5)" text-anchor="middle" font-size="14" font-family="sans-serif" font-weight="normal"><g transform="translate(4,21)"><g stroke="black" stroke-width="1" stroke-linecap="round"><line x2="941"/><line y2="31"/><line x2="941" y1="31" y2="31"/><line x1="941" x2="941" y2="31"/><line x1="823" x2="823" y2="3"/><line x1="823" x2="823" y1="31" y2="28"/><line x1="706" x2="706" y2="3"/><line x1="706" x2="706" y1="31" y2="28"/><line x1="588" x2="588" y2="3"/><line x1="588" x2="588" y1="31" y2="28"/><line x1="471" x2="471" y2="3"/><line x1="471" x2="471" y1="31" y2="28"/><line x1="353" x2="353" y2="31"/><line x1="235" x2="235" y2="3"/><line x1="235" x2="235" y1="31" y2="28"/><line x1="118" x2="118" y2="31"/></g><g><g><rect x="353" width="588" height="31" field="Recipient" style="fill-opacity:0.1;fill:#006aff"/><rect x="118" width="235" height="31" field="Type" style="fill-opacity:0.1;fill:#ffbf00"/><rect width="118" height="31" field="Direction" style="fill-opacity:0.1;fill:#aaff00"/></g><g transform="translate(59,-11)"><g transform="translate(823)"><text y="6">0</text></g><g transform="translate(353)"><text y="6">4</text></g><g transform="translate(235)"><text y="6">5</text></g><g transform="translate(118)"><text y="6">6</text></g><g transform="translate(0)"><text y="6">7</text></g></g><g transform="translate(59,15)"><g transform="translate(588)"><text y="6"><tspan>Recipient</tspan></text></g><g transform="translate(176)"><text y="6"><tspan>Type</tspan></text></g><g transform="translate(0)"><text y="6"><tspan>Direction</tspan></text></g></g><g transform="translate(59,39)"><g><g transform="translate(588)"><text y="6"><tspan>00000 - Device</tspan></text></g><g transform="translate(588,14)"><text y="6"><tspan>00001 - Interface</tspan></text></g><g transform="translate(588,28)"><text y="6"><tspan>00010 - Endpoint</tspan></text></g><g transform="translate(588,42)"><text y="6"><tspan>00011 - Other</tspan></text></g><g transform="translate(588,56)"><text y="6"><tspan>00100 - 11111 - Reserved</tspan></text></g></g><g><g transform="translate(176)"><text y="6"><tspan>00 - Standard</tspan></text></g><g transform="translate(176,14)"><text y="6"><tspan>01 - Class</tspan></text></g><g transform="translate(176,28)"><text y="6"><tspan>10 - Vendor</tspan></text></g><g transform="translate(176,42)"><text y="6"><tspan>11 - Reserved</tspan></text></g></g><g><g transform="translate(0)"><text y="6"><tspan>0 - Host to Device</tspan></text></g><g transform="translate(0,14)"><text y="6"><tspan>1 - Device to Host</tspan></text></g></g></g></g></g></g></svg>