<svg xmlns="http://www.w3.org/2000/svg" width="350" height="84" viewBox="0 0 350 84" class="WaveDrom"><g transform="translate(0.5,0.5)" text-anchor="middle" font-size="14" font-family="sans-serif" font-weight="normal"><g transform="translate(4,21)"><g stroke="black" stroke-width="1" stroke-linecap="round"><line x2="341"/><line y2="31"/><line x2="341" y1="31" y2="31"/><line x1="341" x2="341" y2="31"/><line x1="323" x2="323" y2="3"/><line x1="323" x2="323" y1="31" y2="28"/><line x1="305" x2="305" y2="3"/><line x1="305" x2="305" y1="31" y2="28"/><line x1="287" x2="287" y2="31"/><line x1="269" x2="269" y2="3"/><line x1="269" x2="269" y1="31" y2="28"/><line x1="251" x2="251" y2="3"/><line x1="251" x2="251" y1="31" y2="28"/><line x1="233" x2="233" y2="3"/><line x1="233" x2="233" y1="31" y2="28"/><line x1="215" x2="215" y2="31"/><line x1="197" x2="197" y2="3"/><line x1="197" x2="197" y1="31" y2="28"/><line x1="179" x2="179" y2="3"/><line x1="179" x2="179" y1="31" y2="28"/><line x1="162" x2="162" y2="3"/><line x1="162" x2="162" y1="31" y2="28"/><line x1="144" x2="144" y2="31"/><line x1="126" x2="126" y2="3"/><line x1="126" x2="126" y1="31" y2="28"/><line x1="108" x2="108" y2="3"/><line x1="108" x2="108" y1="31" y2="28"/><line x1="90" x2="90" y2="3"/><line x1="90" x2="90" y1="31" y2="28"/><line x1="72" x2="72" y2="3"/><line x1="72" x2="72" y1="31" y2="28"/><line x1="54" x2="54" y2="3"/><line x1="54" x2="54" y1="31" y2="28"/><line x1="36" x2="36" y2="3"/><line x1="36" x2="36" y1="31" y2="28"/><line x1="18" x2="18" y2="3"/><line x1="18" x2="18" y1="31" y2="28"/></g><g><g><rect x="287" width="54" height="31" field="00J" style="fill-opacity:0.1"/><rect x="215" width="72" height="31" field="PID" style="fill-opacity:0.1;fill:#aaff00"/><rect x="144" width="72" height="31" field="!PID" style="fill-opacity:0.1;fill:#aaff00"/><rect width="144" height="31" field="1" style="fill-opacity:0.1"/></g><g transform="translate(9,-11)"><g transform="translate(323)"><text y="6">0</text></g><g transform="translate(287)"><text y="6">2</text></g><g transform="translate(269)"><text y="6">3</text></g><g transform="translate(215)"><text y="6">6</text></g><g transform="translate(197)"><text y="6">7</text></g><g transform="translate(144)"><text y="6">10</text></g><g transform="translate(126)"><text y="6">11</text></g><g transform="translate(0)"><text y="6">18</text></g></g><g transform="translate(9,15)"><g transform="translate(305)"><text y="6"><tspan>00J</tspan></text></g><g transform="translate(242)"><text y="6"><tspan>PID</tspan></text></g><g transform="translate(171)"><text y="6"><tspan>!PID</tspan></text></g><g><g transform="translate(126)"><text y="6">1</text></g><g transform="translate(108)"><text y="6">0</text></g><g transform="translate(90)"><text y="6">0</text></g><g transform="translate(72)"><text y="6">0</text></g><g transform="translate(54)"><text y="6">0</text></g><g transform="translate(36)"><text y="6">0</text></g><g transform="translate(18)"><text y="6">0</text></g><g transform="translate(0)"><text y="6">0</text></g></g></g><g transform="translate(9,39)"><g><g transform="translate(305)"><text y="6"><tspan>EOP</tspan></text></g></g><g><g transform="translate(242)"><text y="6"><tspan>Packet ID</tspan></text></g></g><g><g transform="translate(171)"><text y="6"><tspan>Inverted</tspan></text></g><g transform="translate(171,14)"><text y="6"><tspan>Packet ID</tspan></text></g></g><g><g transform="translate(63)"><text y="6"><tspan>SYNC</tspan></text></g></g></g></g></g></g></svg>