<?xml version="1.0" encoding="UTF-8" standalone="no"?>
<!-- Generator: Adobe Illustrator 16.0.0, SVG Export Plug-In . SVG Version: 6.00 Build 0)  -->

<svg
   version="1.1"
   id="Layer_1"
   x="0px"
   y="0px"
   width="200"
   height="200"
   viewBox="0 0 200 200"
   enable-background="new 0 0 127.5 117"
   xml:space="preserve"
   sodipodi:docname="pm_fils_logo.svg"
   inkscape:export-filename="pm_fils_logo.png"
   inkscape:export-xdpi="150"
   inkscape:export-ydpi="150"
   inkscape:version="1.2.1 (9c6d41e, 2022-07-14)"
   xmlns:inkscape="http://www.inkscape.org/namespaces/inkscape"
   xmlns:sodipodi="http://sodipodi.sourceforge.net/DTD/sodipodi-0.dtd"
   xmlns:xlink="http://www.w3.org/1999/xlink"
   xmlns="http://www.w3.org/2000/svg"
   xmlns:svg="http://www.w3.org/2000/svg"><defs
   id="defs1621"><color-profile
     name="AAA"
     xlink:href="file:///Library/ColorSync/Profiles/Displays/AAA-A478FC37-36A0-4AB9-82A5-B5CF26D6D98D.icc"
     id="color-profile2208" /></defs><sodipodi:namedview
   id="namedview1619"
   pagecolor="#ffffff"
   bordercolor="#000000"
   borderopacity="0.25"
   inkscape:showpageshadow="2"
   inkscape:pageopacity="0.0"
   inkscape:pagecheckerboard="0"
   inkscape:deskcolor="#d1d1d1"
   showgrid="false"
   inkscape:zoom="3.1537761"
   inkscape:cx="28.37868"
   inkscape:cy="78.001734"
   inkscape:window-width="1845"
   inkscape:window-height="1024"
   inkscape:window-x="0"
   inkscape:window-y="25"
   inkscape:window-maximized="0"
   inkscape:current-layer="Layer_1" />
<g
   id="g1616"
   transform="matrix(1.5536067,0,0,1.5536067,1.2875122,7.3255006)">
	<path
   fill="#0070c0"
   d="m 83.238,48.72 c -0.578,0.523 -0.303,1.187 -0.18,1.734 0.217,0.983 0.543,0.107 0.821,-0.017 0.222,0.22 0.386,0.492 0.474,0.792 0.351,0.957 0.666,1.917 0.367,2.955 -0.082,0.131 -0.203,0.231 -0.347,0.289 -0.705,0.599 -0.649,0.899 0.312,1.735 l 0.221,0.081 c 0.937,0.847 1.023,1.856 0.578,2.969 l -0.211,0.106 c -0.867,0.913 -0.399,1.64 0.334,2.313 0.158,-0.094 0.355,-0.083 0.5,0.028 0.65,1.038 1.063,2.079 0.069,3.15 -0.474,1.383 -0.37,1.635 0.613,1.473 0.155,0.152 0.28,0.336 0.367,0.538 0.335,0.952 0.893,1.87 0.471,2.948 -0.093,0.117 -0.224,0.199 -0.37,0.23 -0.789,0.92 -0.396,1.65 0.373,2.313 l 0.237,0.103 c 1.11,1.229 1.19,1.976 0.327,3.085 -0.67,0.367 -0.307,0.922 -0.217,1.395 0.357,1.91 0.307,1.998 -1.518,2.442 -0.54,0.134 -1.156,0.152 -1.445,0.783 L 84.921,80.4 c -1.19,1.054 -1.991,1.132 -3.106,0.289 -0.777,-0.496 -1.482,-0.645 -1.945,0.396 -0.014,0.264 -0.16,0.5 -0.391,0.627 -0.961,0.479 -1.92,0.883 -2.828,-0.102 -0.877,-0.498 -1.985,-0.274 -2.602,0.522 -0.558,1.07 -1.211,1.263 -2.763,0.806 L 71.15,82.716 c -0.908,-0.69 -1.64,-0.323 -2.313,0.384 0.069,0.162 0.029,0.353 -0.102,0.474 -1.014,0.612 -2.022,1.062 -3.071,0.061 -0.916,-0.431 -1.69,-0.237 -2.34,0.526 -0.018,0.078 -0.038,0.156 -0.058,0.234 -0.722,1.096 -1.769,0.891 -2.812,0.705 -0.14,-0.084 -0.247,-0.211 -0.307,-0.361 -0.867,-0.549 -1.609,-0.336 -2.297,0.326 -0.601,1.274 -1.696,1.492 -2.89,0.578 -0.453,-0.271 -0.995,-0.354 -1.509,-0.229 -0.578,0.11 -0.514,0.438 -0.219,0.808 -0.163,0.166 -0.354,0.303 -0.563,0.401 -0.917,0.515 -1.87,0.776 -2.916,0.472 -0.136,-0.076 -0.239,-0.201 -0.289,-0.351 -0.893,-0.845 -1.581,-0.229 -2.277,0.323 -0.716,1.289 -1.792,1.498 -2.927,0.564 -0.676,-0.373 -1.373,-0.217 -2.075,-0.096 -1.665,0.289 -2.006,0 -2.251,-1.643 -0.041,-0.289 0.422,-1.104 -0.555,-0.82 -0.167,-0.164 -0.31,-0.35 -0.428,-0.551 -0.557,-0.867 -0.726,-1.931 -0.465,-2.928 0.082,-0.136 0.207,-0.236 0.355,-0.289 0.381,-0.83 0,-1.557 -0.315,-2.291 -1.271,-0.552 -1.511,-1.828 -0.595,-3.18 0.162,-1.197 0.066,-1.429 -0.601,-1.445 -0.167,-0.164 -0.298,-0.36 -0.384,-0.578 -0.454,-1.013 -0.78,-2.041 -0.471,-3.162 0.073,-0.142 0.194,-0.252 0.341,-0.311 0.408,-0.679 -0.052,-1.339 -0.043,-2.007 -0.153,-0.853 0.142,-1.901 -1.011,-2.313 -0.289,-0.217 -0.312,-0.578 -0.419,-0.867 -0.028,-0.125 -0.041,-0.254 -0.038,-0.381 0.607,-0.389 0.616,-0.994 0.578,-1.61 0.217,-0.32 -0.069,-0.647 0.017,-0.972 -0.078,0.32 0.173,0.646 -0.017,0.963 l -0.313,0.31 c -0.239,0.046 -0.482,-0.054 -0.621,-0.254 -0.483,-0.912 -0.684,-1.946 -0.578,-2.974 0.07,-0.227 0.205,-0.428 0.387,-0.577 0.399,-1.078 0.361,-1.203 -0.375,-1.182 -0.208,-0.206 -0.361,-0.462 -0.442,-0.743 -0.318,-0.882 -0.899,-1.735 -0.399,-2.726 0.096,-0.116 0.227,-0.197 0.373,-0.231 0.327,-0.783 -0.185,-1.55 -0.055,-2.33 -0.101,-1.082 -0.454,-2.116 -0.598,-3.18 -0.093,-0.495 -0.2,-0.989 -0.289,-1.486 -0.061,-0.402 -0.229,-0.457 -0.532,-0.214 -0.193,-0.137 -0.352,-0.315 -0.465,-0.523 -0.544,-0.89 -0.693,-1.965 -0.411,-2.969 0.077,-0.14 0.199,-0.249 0.347,-0.309 0.338,-0.659 -0.125,-1.31 -0.021,-1.972 0.234,-1.521 1.246,-2.27 2.601,-2.683 0.122,-0.087 0.269,-0.134 0.419,-0.133 0.627,0.252 1.277,0.48 1.416,1.275 -0.105,0.322 -0.354,0.577 -0.673,0.691 -1.647,0.867 -1.812,1.156 -1.494,2.937 1.277,7.199 2.662,14.38 3.939,21.579 1.058,5.967 2.248,11.911 3.317,17.875 0.373,2.079 0.783,2.265 2.85,1.894 10.981,-1.972 21.948,-4.033 32.926,-6.029 2.223,-0.405 4.451,-0.797 6.668,-1.235 1.9,-0.375 2.195,-0.8 1.826,-2.826 -0.771,-4.262 -1.552,-8.521 -2.342,-12.778 -1.537,-8.323 -3.138,-16.639 -4.568,-24.981 -0.118,-0.417 -0.203,-0.842 -0.254,-1.272 -0.023,-1.894 -1.248,-2.631 -2.844,-3.039 -0.375,-0.491 -0.136,-0.942 0.098,-1.394 0.211,-0.254 0.543,-0.376 0.867,-0.321 2.68,-0.043 2.683,-0.046 3.361,2.524 0.124,0.468 0.229,0.939 0.662,1.237 1.286,0.596 1.505,1.703 0.578,2.891 -0.436,1.446 -0.355,1.688 0.559,1.708 0.172,0.159 0.323,0.341 0.447,0.541 0.566,0.874 0.736,1.948 0.465,2.955 -0.076,0.14 -0.199,0.249 -0.35,0.306 -0.867,0.902 -0.35,1.604 0.324,2.287 1.243,0.535 1.471,1.79 0.549,2.921 z"
   id="path1368" />
	<path
   fill="#0070c0"
   d="m 85.848,61.738 -0.242,-0.026 c 0.112,-0.653 0.621,-0.782 1.156,-0.867 2.221,-0.405 4.461,-1.206 6.666,-1.124 3.559,0.133 6.858,-1.01 10.291,-1.409 1.047,-0.121 1.956,0.307 2.814,0.903 3.871,2.684 7.751,5.357 11.641,8.02 1.323,0.908 3.646,0.789 4.912,-0.223 1.266,-1.012 2.156,-1.006 3.214,-0.102 1.058,0.904 1.188,1.922 0.433,3.066 -0.754,1.146 -1.707,1.489 -3.094,0.774 -0.998,-0.512 -1.916,-0.233 -2.798,0.026 -1.696,0.494 -3.049,0.039 -4.437,-0.948 -3.676,-2.628 -7.436,-5.144 -11.129,-7.748 -0.887,-0.625 -1.733,-0.867 -2.805,-0.615 -1.686,0.394 -3.408,0.606 -5.102,0.966 -0.893,0.19 -1.971,0.059 -2.462,1.174 -0.069,0.155 -0.411,0.236 -0.642,0.271 -2.602,0.408 -5.164,1.128 -7.804,1.322 -0.358,-1.041 0.451,-1.238 1.113,-1.423 0.866,-0.243 1.78,-0.323 2.667,-0.504 0.535,-0.106 1.101,-0.32 1.015,-0.982 -0.103,-0.786 -0.76,-0.696 -1.347,-0.656 -1.355,0.079 -2.683,0.775 -4.06,0.105 z"
   id="path1370" />
	<path
   fill="#0070c0"
   d="m 81.848,40.292 c -0.017,-0.191 -0.037,-0.382 -0.058,-0.579 2.552,-0.474 5.095,-1.289 7.658,-1.364 7.294,-0.211 14.226,-2.486 21.384,-3.403 0.973,-0.065 1.843,-0.621 2.313,-1.475 0.904,-1.549 2.225,-2.836 2.438,-4.802 0.104,-0.943 0.954,-1.668 2.075,-1.683 1.102,-0.046 2.104,0.635 2.465,1.677 0.423,0.936 0.059,2.041 -0.838,2.541 -1.985,1.032 -2.803,2.975 -3.999,4.626 -0.603,0.927 -1.568,1.557 -2.659,1.734 -6.583,1.157 -13.15,2.4 -19.72,3.634 -0.702,0.13 -1.589,0 -1.861,1.023 -0.041,0.153 -0.39,0.274 -0.612,0.315 -2.414,0.445 -4.826,0.867 -7.242,1.298 -0.338,0.061 -0.683,0.089 -0.851,-0.324 l 0.093,-0.289 c 0.385,-0.89 1.28,-0.694 1.975,-0.893 0.693,-0.2 1.5,-0.289 2.225,-0.515 0.432,-0.139 0.801,-0.399 0.705,-0.925 -0.095,-0.526 -0.525,-0.668 -0.977,-0.633 -0.902,0.075 -1.789,0.26 -2.682,0.396 -0.621,0.095 -1.328,0.355 -1.832,-0.359 z"
   id="path1372" />
	<path
   fill="#0070c0"
   d="M 50.638,35.964 C 50.349,34.212 49.875,32.472 49.771,30.708 49.271,22.856 47.344,15.238 46.063,7.516 45.904,6.562 45.601,5.975 44.592,5.686 43.467,5.362 42.586,4.602 42.754,3.278 42.893,2.171 43.47,1.222 44.675,1.034 c 1.286,-0.202 2.156,0.495 2.815,1.576 1.659,2.732 1.601,5.892 2.228,8.87 0.965,4.608 1.734,9.251 2.601,13.877 0.104,0.558 0.093,1.177 0.786,1.417 0.451,0.156 0.451,0.595 0.515,0.959 0.462,2.553 0.91,5.108 1.361,7.662 -0.867,0.543 -1.083,-0.188 -1.306,-0.743 -0.338,-0.844 -0.419,-1.758 -0.592,-2.646 -0.127,-0.653 -0.24,-1.509 -1.13,-1.344 -0.89,0.165 -0.642,1.041 -0.555,1.671 0.11,0.801 0.335,1.587 0.422,2.394 0.088,0.574 -0.094,1.157 -0.495,1.579 -0.36,0.13 -0.557,-0.035 -0.687,-0.342 z"
   id="path1374" />
	<path
   fill="#0070c0"
   d="m 34.386,57.717 v 0.76 c -1.896,0.333 -3.786,0.694 -5.685,0.983 -1.156,0.179 -2.329,0.867 -3.54,-0.081 -0.289,-0.23 -1.02,0.053 -1.54,0.146 -2.413,0.435 -4.832,0.848 -7.225,1.352 -0.942,0.237 -1.942,0.023 -2.705,-0.578 -0.363,-0.234 -0.712,-0.49 -1.046,-0.767 -1.994,-1.931 -4.269,-2.327 -6.857,-1.399 -0.596,0.214 -1.116,0.37 -1.566,0.889 -0.896,1.025 -2,1.084 -3.089,0.289 -0.965,-0.704 -1.355,-1.613 -0.85,-2.768 0.538,-1.249 1.705,-1.874 2.924,-1.422 1.734,0.639 3.324,-0.136 4.936,-0.422 1.612,-0.286 3.098,-0.142 4.297,0.995 2.257,2.136 4.733,2.275 7.681,1.619 4.141,-0.919 8.091,-2.602 12.371,-2.946 0.535,-0.043 1.156,-0.451 1.445,0.411 l -0.093,-0.035 c -0.734,1.122 -1.982,1.023 -3.078,1.292 -0.757,0.185 -1.962,0.092 -1.76,1.203 0.202,1.11 1.326,0.523 2.075,0.491 1.097,-0.064 2.195,-0.874 3.305,-0.012 z"
   id="path1376" />
	<path
   fill="#0070c0"
   d="m 38.46,79.348 c -0.234,0.549 -0.766,0.516 -1.223,0.603 -1.939,0.366 -3.875,0.748 -5.823,1.069 -0.699,0.115 -1.33,0.363 -2.127,-0.25 -0.65,-0.496 -1.734,0.199 -2.633,0.252 -1.901,0.107 -3.245,0.97 -4.155,2.644 -0.48,0.885 -1.251,1.619 -1.673,2.522 -1.251,2.687 -3.488,3.617 -6.239,3.853 -1.477,0.124 -2.873,0.416 -4.046,1.599 C 9.59,92.607 8.449,92.06 7.588,91.246 6.663,90.379 6.573,89.303 7.224,88.229 c 0.578,-0.975 1.445,-1.711 2.627,-1.155 2.401,1.131 4.578,-0.224 6.849,-0.5 0.503,-0.062 0.723,-0.599 0.994,-0.992 1.231,-1.783 2.485,-3.554 3.673,-5.362 0.534,-0.814 1.205,-1.41 2.153,-1.55 4.334,-0.647 8.401,-2.582 12.805,-2.989 0.428,-0.039 0.867,-0.074 1.289,-0.109 0.289,0.818 -0.208,1.102 -0.867,1.296 -0.916,0.274 -1.861,0.416 -2.797,0.601 -0.578,0.116 -1.234,0.289 -1.124,1.033 0.11,0.742 0.806,0.723 1.375,0.605 0.751,-0.152 1.529,-0.123 2.269,-0.289 0.71,-0.184 1.465,0.017 1.99,0.53 z"
   id="path1378" />
	<path
   fill="#0070c0"
   d="m 84.686,56.219 c 0.072,-0.731 0.703,-0.723 1.186,-0.821 2.072,-0.414 4.154,-1.119 6.23,-1.107 5.719,0.04 11.121,-1.772 16.696,-2.519 0.968,-0.13 1.699,0.191 2.509,0.731 1.756,1.177 3.262,2.79 5.549,3.111 1.127,0.107 1.961,1.097 1.875,2.226 -0.063,1.156 -0.65,2.157 -1.916,2.402 -1.32,0.261 -2.258,-0.442 -2.814,-1.546 -1.186,-2.345 -4.471,-4.1 -7.043,-3.637 -3.828,0.686 -7.654,1.389 -11.479,2.108 -0.521,0.098 -1.199,0.014 -1.385,0.792 -0.093,0.39 -0.486,0.437 -0.81,0.497 -2.361,0.439 -4.726,0.868 -7.089,1.295 -0.401,0.072 -0.774,0.127 -0.937,-0.376 l 0.078,0.034 c 0.459,-0.867 1.289,-1.083 2.149,-1.231 0.613,-0.107 1.231,-0.173 1.836,-0.338 0.523,-0.145 1.113,-0.289 0.994,-0.986 -0.127,-0.746 -0.767,-0.772 -1.361,-0.691 -0.951,0.125 -1.881,0.353 -2.827,0.509 -0.578,0.096 -1.04,0.032 -1.37,-0.491 z"
   id="path1380" />
	<path
   fill="#0070c0"
   d="m 82.715,45.522 c 0.098,-0.399 0.416,-0.495 0.76,-0.556 2.313,-0.413 4.625,-1.098 6.965,-1.194 7.125,-0.289 13.951,-2.313 20.944,-3.359 1.997,-0.289 3.983,-0.691 5.962,-1.09 0.813,-0.162 1.42,-0.229 1.497,0.867 0.062,0.868 0.578,1.735 -0.942,1.998 -7.576,1.327 -15.143,2.755 -22.702,4.201 -1.156,0.223 -2.515,0.038 -3.312,1.35 -0.18,0.289 -0.888,0.289 -1.361,0.367 -2.313,0.402 -4.642,0.789 -6.965,1.182 -0.353,-1.035 0.451,-1.231 1.113,-1.422 0.867,-0.249 1.783,-0.306 2.659,-0.535 0.515,-0.136 1.092,-0.33 0.994,-1.003 -0.099,-0.673 -0.714,-0.662 -1.242,-0.656 -0.714,0.038 -1.422,0.156 -2.11,0.353 -0.789,0.236 -1.645,0.046 -2.26,-0.503 z"
   id="path1382" />
	<path
   fill="#0070c0"
   d="m 49.45,86.78 0.289,0.096 c 0.518,0.202 0.645,0.642 0.737,1.136 0.127,0.705 0.24,1.42 0.437,2.107 0.197,0.688 0.023,1.842 1.156,1.6 1.061,-0.229 0.495,-1.256 0.465,-1.963 -0.061,-0.668 -0.188,-1.328 -0.381,-1.969 -0.208,-0.559 0.004,-1.186 0.509,-1.501 l 0.561,-0.032 c 0.419,2.313 1.133,4.626 1.188,6.956 0.069,3.085 0.673,6.071 1.156,9.063 0.118,0.764 -0.176,1.408 -0.601,2.022 -1.483,2.136 -2.948,4.276 -4.433,6.407 -0.188,0.271 -0.405,0.615 -0.685,0.722 -1.965,0.75 -4.045,1.157 -5.829,2.447 -0.771,0.558 -1.884,-0.304 -2.505,-1.203 -0.676,-0.978 -0.269,-1.842 0.309,-2.651 0.578,-0.809 1.39,-1.101 2.404,-0.804 2.249,0.654 3.468,0.205 4.742,-1.68 0.459,-0.677 0.824,-1.464 1.416,-1.995 3.124,-2.821 2.312,-6.415 0.925,-9.275 -1.3,-2.676 -1.315,-5.445 -2.133,-8.097 -0.128,-0.436 -0.461,-1.059 0.273,-1.386 z"
   id="path1384" />
	<path
   fill="#0070c0"
   d="m 61.368,33.614 c -0.327,-1.989 -0.905,-3.972 -0.962,-5.97 -0.142,-5.389 -1.569,-10.564 -2.378,-15.84 -0.101,-0.771 0.107,-1.552 0.578,-2.171 0.684,-0.987 1.364,-1.977 2.04,-2.969 0.451,-0.665 0.833,-1.266 0.806,-2.209 -0.076,-1.221 0.792,-2.299 2,-2.486 1.249,-0.234 2.188,0.488 2.659,1.549 0.511,1.156 -0.016,2.197 -1.01,2.891 -1.819,1.24 -2.638,3.264 -3.88,4.938 -0.201,0.336 -0.249,0.742 -0.133,1.116 0.688,3.785 1.266,7.589 2.133,11.33 0.26,1.122 1.352,2.003 1.511,3.328 0.228,1.905 0.645,3.788 0.979,5.681 0.094,0.354 0.246,0.72 -0.202,0.957 -0.833,0 -0.987,-0.607 -1.136,-1.231 -0.217,-0.937 -0.367,-1.885 -0.604,-2.816 -0.136,-0.526 -0.324,-1.125 -0.991,-1.018 -0.771,0.125 -0.711,0.807 -0.627,1.385 0.107,0.76 0.344,1.506 0.393,2.267 0.046,0.68 0.347,1.445 -0.35,2.024 -0.687,0.198 -0.69,-0.351 -0.826,-0.756 z"
   id="path1386" />
	<path
   fill="#0070c0"
   d="m 35.29,64.773 0.335,0.099 c 0.089,0.769 -0.312,1.11 -1.015,1.295 -0.93,0.246 -1.898,0.289 -2.814,0.579 -0.512,0.17 -1.098,0.361 -0.925,1.049 0.173,0.688 0.774,0.615 1.312,0.547 0.951,-0.128 1.878,-0.379 2.838,-0.463 0.578,-0.049 1.049,0 1.407,0.479 -0.038,0.787 -0.711,0.691 -1.173,0.787 -2.022,0.407 -4.045,0.771 -6.095,1.137 -0.561,0.102 -1.127,0.246 -1.635,-0.223 -0.408,-0.377 -0.905,-0.215 -1.375,-0.127 -4.771,0.889 -9.541,1.777 -14.311,2.67 -1.584,0.289 -2.066,0.896 -2.104,2.504 C 9.709,76.37 8.801,77.602 7.686,77.709 6.601,77.862 5.544,77.285 5.085,76.29 4.464,75.05 5.03,73.977 6.044,73.289 6.796,72.782 7.427,72.114 7.891,71.335 8.469,70.372 9.408,70.048 10.42,69.86 c 4.482,-0.805 9.007,-1.498 13.455,-2.476 3.294,-0.718 6.458,-2.024 9.849,-2.368 0.523,-0.055 1.043,-0.162 1.566,-0.243 z"
   id="path1388" />
	<path
   fill="#0070c0"
   d="m 86.762,66.896 0.025,-0.547 7.375,-1.295 c 0.505,-0.09 0.971,-0.289 1.427,0.27 0.382,0.471 1.003,0.146 1.5,0.061 1.8,-0.307 3.595,-0.624 5.382,-0.994 0.996,-0.207 1.971,-0.136 2.776,0.416 4.354,2.979 8.67,6.014 13.005,9.026 0.289,1.338 -0.633,1.991 -1.497,2.683 l -12.799,-8.854 c -0.197,-0.136 -0.435,-0.356 -0.625,-0.333 -2.415,0.289 -4.854,0.5 -7.132,1.445 -0.324,0.134 -0.607,0.416 -0.994,0.488 -2.266,0.416 -4.531,0.84 -6.797,1.27 -0.488,0.093 -0.971,0.205 -1.156,-0.453 l 0.102,0.029 c 0.41,-0.659 1.131,-1.059 1.906,-1.054 0.813,-0.067 1.609,-0.263 2.361,-0.577 0.376,-0.148 0.691,-0.389 0.609,-0.852 -0.08,-0.462 -0.447,-0.578 -0.867,-0.605 -0.967,-0.051 -1.893,0.233 -2.828,0.403 -0.702,0.129 -1.326,0.124 -1.773,-0.527 z"
   id="path1390" />
	<path
   fill="#0070c0"
   d="m 58.169,85.176 c 0.702,0.182 0.578,0.827 0.673,1.305 0.422,2.121 0.723,4.272 1.223,6.377 0.234,0.982 -0.813,1.535 -0.494,2.545 0.401,1.273 0.381,2.687 0.803,3.951 0.934,2.816 0.465,5.248 -1.618,7.353 -1.292,1.304 -1.477,2.785 -0.942,4.487 0.145,0.549 0.458,1.039 0.896,1.401 1.263,1.028 1.468,1.942 0.777,3.113 -0.639,1.087 -1.552,1.56 -2.797,1.14 -1.245,-0.418 -1.85,-1.533 -1.583,-2.957 0.289,-1.479 -0.307,-2.849 -0.535,-4.259 -0.197,-1.204 -0.133,-2.187 0.777,-3.157 0.91,-0.972 1.514,-2.104 2.26,-3.181 0.246,-0.304 0.351,-0.696 0.289,-1.081 C 57.47,99.9 57.453,97.4 56.534,95.297 c -1.323,-3.023 -1.421,-6.209 -2.118,-9.309 0.824,-0.342 1.092,0.23 1.315,0.824 0.292,0.859 0.486,1.752 0.578,2.655 0.083,0.616 0.243,1.373 1.055,1.284 0.884,-0.1 0.708,-0.885 0.636,-1.488 -0.098,-0.805 -0.228,-1.611 -0.353,-2.412 -0.128,-0.611 0.069,-1.246 0.522,-1.675 z"
   id="path1392" />
	<path
   fill="#0070c0"
   d="m 85.01,80.193 c 0.749,0.063 0.715,0.703 0.809,1.184 0.418,2.12 0.81,4.248 1.177,6.383 0.078,0.439 0.251,0.868 -0.226,1.318 -0.77,0.718 -0.631,2.146 0.254,2.808 1.156,0.868 2.369,1.646 3.555,2.47 0.482,0.336 1.003,0.264 1.529,0.164 2.363,-0.441 4.725,-0.887 7.088,-1.32 0.809,-0.111 1.568,-0.448 2.193,-0.973 1.032,-0.903 2.084,-0.514 2.991,0.268 1.009,0.867 0.989,1.923 0.289,2.975 -0.653,0.985 -1.606,1.545 -2.702,0.917 -0.949,-0.547 -1.816,-0.42 -2.762,-0.237 -2.5,0.485 -5.005,0.945 -7.514,1.445 -0.76,0.151 -1.549,-0.021 -2.176,-0.479 -1.561,-1.038 -3.136,-2.053 -4.682,-3.111 -0.527,-0.348 -0.909,-0.879 -1.068,-1.492 -0.923,-3.578 -1.787,-7.169 -2.274,-10.841 -0.121,-0.289 -0.19,-0.624 0.217,-0.647 0.452,-0.055 0.876,0.229 0.997,0.668 0.223,0.738 0.37,1.492 0.525,2.244 0.064,0.429 0.162,0.853 0.289,1.267 0.143,0.385 0.383,0.698 0.838,0.653 0.541,-0.053 0.731,-0.47 0.688,-0.932 -0.075,-0.999 -0.213,-1.99 -0.409,-2.973 -0.143,-0.619 -0.261,-1.249 0.418,-1.671 z"
   id="path1394" />
	<path
   fill="#0070c0"
   d="m 79.561,81.386 0.303,-0.257 c 0.867,1.189 0.709,2.662 1.07,3.992 0.228,0.887 0.392,1.787 0.49,2.697 0.1,0.838 0.711,1.733 -0.266,2.518 -0.146,0.116 0,0.637 0.049,0.961 0.249,1.422 0.613,2.83 0.754,4.262 0.156,1.604 0.957,2.627 2.313,3.404 1.037,0.6 1.974,1.371 2.977,2.023 1.104,0.731 2.115,1.553 3.611,1.563 1.261,0 2.217,1.265 2.234,2.438 0.017,1.173 -0.974,2.475 -2.061,2.631 -1.248,0.119 -2.403,-0.668 -2.748,-1.873 -0.15,-0.543 -0.518,-0.998 -1.016,-1.262 -2.082,-1.387 -4.145,-2.803 -6.187,-4.246 -0.897,-0.586 -1.503,-1.525 -1.667,-2.586 -0.165,-1.092 -0.384,-2.18 -0.607,-3.26 -0.763,-3.735 -2.312,-7.285 -2.617,-11.123 -0.043,-0.515 -0.479,-1.18 0.437,-1.404 0.754,0.234 0.728,0.945 0.881,1.516 0.185,0.688 0.224,1.41 0.402,2.107 0.153,0.602 0.257,1.388 1.065,1.258 0.931,-0.15 0.713,-1.006 0.619,-1.637 -0.113,-0.754 -0.209,-1.512 -0.359,-2.262 -0.145,-0.508 -0.024,-1.057 0.323,-1.46 z"
   id="path1396" />
	<path
   fill="#0070c0"
   d="m 45.147,36.534 c -0.202,-1.235 -0.494,-2.46 -0.592,-3.701 -0.479,-5.276 -1.25,-10.521 -2.312,-15.71 -0.136,-0.905 -0.657,-1.706 -1.428,-2.197 -2.066,-1.405 -4.092,-2.868 -6.138,-4.308 -0.156,-1.287 0.384,-2.14 1.523,-2.411 2.716,1.463 5.112,3.414 7.672,5.117 0.624,0.416 0.824,1.156 0.957,1.876 0.682,3.693 1.366,7.382 2.052,11.067 0.119,0.627 0.043,1.324 0.919,1.616 0.468,0.153 0.393,0.827 0.482,1.287 0.417,2.171 0.818,4.336 1.226,6.522 0.133,0.385 0.193,0.755 -0.208,1.026 -0.137,0.055 -0.286,0.07 -0.431,0.043 -0.806,-0.425 -0.766,-1.269 -0.922,-1.986 -0.142,-0.648 -0.229,-1.315 -0.376,-1.966 -0.127,-0.561 -0.289,-1.257 -1.023,-1.127 -0.844,0.145 -0.702,0.905 -0.606,1.512 0.101,0.656 0.257,1.31 0.361,1.969 0.104,0.659 0.289,1.419 -0.199,2.067 -0.181,0.121 -0.41,0.143 -0.61,0.058 -0.283,-0.167 -0.153,-0.535 -0.347,-0.754 z"
   id="path1398" />
	<path
   fill="#0070c0"
   d="M 56.129,35.114 C 55.73,32.891 55.068,30.679 54.973,28.442 54.684,21.31 52.679,14.467 51.65,7.464 c -0.202,-1.37 0.335,-2.385 1.541,-2.946 1.127,-0.523 2.072,0.023 2.789,0.902 0.867,1.052 0.509,2.102 -0.269,2.995 -0.512,0.578 -0.78,1.125 -0.625,1.934 0.899,4.672 1.251,9.523 2.786,13.973 1.156,3.379 1.809,6.788 2.572,10.214 -0.139,0.173 -0.361,0.255 -0.578,0.214 -0.688,-0.315 -0.933,-0.885 -0.991,-1.604 -0.079,-0.857 -0.241,-1.704 -0.485,-2.53 -0.147,-0.526 -0.399,-1.061 -1.063,-0.931 -0.665,0.13 -0.682,0.708 -0.607,1.257 0.127,0.945 0.35,1.876 0.468,2.828 0.075,0.599 0.119,1.156 -0.482,1.509 -0.209,0.056 -0.431,-0.007 -0.577,-0.165 z"
   id="path1400" />
	<path
   fill="#0070c0"
   d="m 68.811,83.35 c 0.016,-0.067 0.024,-0.137 0.028,-0.205 0.8,0.127 0.711,0.826 0.815,1.351 0.361,1.838 0.666,3.688 1.008,5.532 0.146,0.798 0.417,1.559 -0.26,2.313 -0.289,0.308 -0.026,0.832 0.049,1.259 0.65,3.547 1.299,7.094 1.941,10.642 0.289,1.593 1.371,2.547 3.147,2.804 1.733,0.25 2.769,1.541 2.343,2.936 -0.289,0.988 -0.9,1.767 -1.945,1.914 -1.17,0.162 -2.021,-0.506 -2.601,-1.461 -0.271,-0.444 -0.384,-0.975 -0.907,-1.242 -1.943,-1 -2.668,-2.709 -2.982,-4.784 -0.521,-3.423 -0.893,-6.916 -1.922,-10.193 -0.832,-2.725 -1.508,-5.494 -2.023,-8.295 -0.124,-0.649 -0.367,-1.301 -0.156,-1.979 0.811,-0.254 1.139,0.186 1.271,0.888 0.197,1.028 0.385,2.063 0.63,3.081 0.118,0.486 0.315,0.979 0.919,0.896 0.705,-0.093 0.705,-0.671 0.65,-1.218 -0.101,-0.899 -0.244,-1.795 -0.434,-2.68 -0.116,-0.63 -0.069,-1.141 0.429,-1.559 z"
   id="path1402" />
	<path
   fill="#0070c0"
   d="m 84.374,54.484 0.075,-0.289 c 0.676,-1.104 1.873,-1.032 2.927,-1.264 0.817,-0.182 2.083,-0.086 1.901,-1.226 -0.199,-1.254 -1.414,-0.474 -2.182,-0.485 -1.061,-0.015 -2.111,0.818 -3.179,0.037 0,-0.269 -0.015,-0.535 -0.021,-0.804 10.045,-1.538 20.049,-3.307 30.035,-5.184 0.916,0.665 0.612,1.891 1.239,2.689 l -0.098,0.179 c -3.451,0.309 -6.814,1.156 -10.22,1.734 -3.502,0.602 -6.99,1.301 -10.483,1.955 -0.562,0.104 -1.188,0.083 -1.243,0.902 -0.025,0.414 -0.363,0.523 -0.711,0.578 -2.502,0.463 -5.005,0.931 -7.514,1.376 -0.162,0.037 -0.353,-0.117 -0.526,-0.198 z"
   id="path1404" />
	<path
   fill="#0070c0"
   d="m 35.279,63.182 0.289,0.288 c -0.246,0.439 -0.679,0.468 -1.112,0.556 -1.939,0.355 -3.87,0.77 -5.817,1.059 -0.74,0.109 -1.69,0.749 -2.202,-0.521 -0.13,-0.317 -0.615,-0.112 -0.939,-0.052 -4.335,0.798 -8.696,1.613 -13.05,2.382 -0.711,0.125 -1.049,0.578 -1.445,1.057 -0.93,1.104 -1.901,1.255 -3.049,0.537 -1.132,-0.657 -1.571,-2.073 -1.011,-3.258 0.604,-1.24 1.685,-1.734 2.974,-1.293 0.533,0.207 1.113,0.265 1.676,0.162 4.488,-0.836 9.028,-1.463 13.46,-2.523 3.205,-0.813 6.451,-1.447 9.725,-1.905 0,0.199 0,0.397 -0.023,0.599 -0.318,0.846 -1.156,0.764 -1.8,0.948 -0.826,0.231 -1.702,0.274 -2.505,0.603 -0.336,0.098 -0.562,0.412 -0.546,0.763 0.035,0.466 0.381,0.642 0.792,0.687 0.867,0.088 1.702,-0.218 2.549,-0.354 0.71,-0.132 1.415,-0.28 2.034,0.265 z"
   id="path1406" />
	<path
   fill="#0070c0"
   d="m 32.395,46.994 0.069,0.564 c -2.546,0.488 -5.08,1.226 -7.646,1.373 -1.488,0.087 -2.988,0.142 -4.482,0.289 -0.384,-0.021 -0.758,-0.127 -1.095,-0.312 -0.262,-0.121 -0.51,-0.271 -0.737,-0.448 -5.072,-3.611 -4.401,-2.18 -5.491,-8.208 -0.171,-0.94 -0.402,-1.77 -1.231,-2.48 -0.974,-0.839 -0.797,-1.992 -0.017,-2.978 0.693,-0.867 1.586,-1.29 2.659,-0.749 1.072,0.541 1.977,1.355 1.502,2.74 -0.763,2.224 0.234,4.256 0.665,6.32 0.257,1.231 4.234,3.18 5.393,2.929 0.287,-0.031 0.564,-0.122 0.815,-0.266 2.636,-2.064 5.866,-1.686 8.88,-2.174 0.061,0 0.142,0.119 0.211,0.182 -0.029,0.096 -0.061,0.191 -0.089,0.289 -0.399,0.83 -1.22,0.868 -1.962,0.992 -0.756,0.102 -1.505,0.257 -2.239,0.466 -0.385,0.127 -0.703,0.393 -0.647,0.847 0.066,0.543 0.506,0.694 0.962,0.65 0.812,-0.078 1.618,-0.217 2.421,-0.364 0.724,-0.125 1.437,-0.185 2.059,0.338 z"
   id="path1408" />
	<path
   fill="#0070c0"
   d="m 47.459,87.152 c 0.543,0.24 0.505,0.762 0.578,1.224 0.289,1.657 0.483,3.343 0.934,4.956 0.474,1.705 0.055,3.396 0.165,5.091 0.11,1.695 -2.89,4.839 -4.601,5.166 -1.32,0.251 -2.638,0.529 -3.968,0.726 -1.176,0.175 -2.147,0.523 -2.936,1.551 -0.789,1.025 -1.956,0.884 -2.953,0.121 -0.997,-0.764 -1.428,-1.834 -0.833,-3.051 0.518,-1.059 1.297,-1.855 2.627,-1.461 2.601,0.785 5.028,-0.318 7.456,-0.865 1.156,-0.262 1.63,-1.784 2.217,-2.875 0.073,-0.229 0.024,-0.481 -0.13,-0.668 -1.581,-1.041 -1.213,-2.795 -1.555,-4.264 -0.367,-1.584 -0.749,-3.181 -0.792,-4.826 0.812,-0.262 1.112,0.215 1.317,0.868 0.289,0.919 0.318,1.888 0.578,2.813 0.156,0.563 0.307,1.234 1.075,1.058 0.722,-0.165 0.67,-0.847 0.604,-1.425 -0.075,-0.666 -0.315,-1.309 -0.405,-1.969 -0.103,-0.793 -0.271,-1.638 0.622,-2.17 z"
   id="path1410" />
	<path
   fill="#0070c0"
   d="m 33.547,52.75 c -2.022,0.983 -4.28,0.937 -6.415,1.425 -0.937,0.211 -1.847,0.506 -2.89,-0.139 -0.719,-0.442 -1.809,0.046 -2.653,0.315 -3.028,0.963 -5.67,0.63 -8.091,-1.61 -1.102,-1.084 -2.48,-1.845 -3.985,-2.197 -1.06,-0.191 -1.784,-1.181 -1.647,-2.249 0.116,-1.157 0.725,-2.044 1.861,-2.313 1.076,-0.308 2.213,0.235 2.65,1.266 1.055,2.449 3.578,3.073 5.378,4.58 0.457,0.381 1.118,0 1.685,-0.026 2.794,-0.165 5.222,-1.749 7.973,-2.07 1.8,-0.208 3.528,-0.919 5.378,-0.777 0.069,0.867 -0.468,1.156 -1.188,1.313 -0.977,0.217 -1.968,0.373 -2.936,0.639 -0.439,0.122 -0.826,0.364 -0.76,0.891 0.078,0.622 0.578,0.702 1.078,0.659 0.998,-0.106 1.988,-0.267 2.968,-0.48 0.768,-0.172 1.288,0.03 1.594,0.773 z"
   id="path1412" />
	<path
   fill="#0070c0"
   d="m 37.345,73.834 c 0,0.188 -0.017,0.376 -0.023,0.578 -0.564,0.121 -1.134,0.211 -1.708,0.271 -2.601,0.137 -4.985,1.209 -7.802,0.75 -2.312,-0.384 -4.881,0.813 -7.358,1.117 -2.095,0.258 -3.092,1.379 -3.534,3.333 -0.266,1.188 -0.991,2.179 -2.373,2.119 -1.158,0.017 -2.163,-0.796 -2.393,-1.931 -0.289,-1.157 0.416,-2.356 1.734,-2.803 0.829,-0.289 1.249,-0.867 1.647,-1.512 0.551,-0.918 1.488,-1.537 2.549,-1.683 2.271,-0.405 4.569,-0.72 6.8,-1.29 3.549,-0.91 7.028,-2.102 10.692,-2.503 0.414,-0.046 0.838,-0.308 1.226,0.081 l -0.061,0.289 c -0.25,0.59 -0.821,0.979 -1.462,1 -0.811,0.096 -1.613,0.255 -2.399,0.477 -0.517,0.145 -1.101,0.348 -0.951,1.041 0.13,0.604 0.697,0.564 1.185,0.544 0.861,-0.081 1.716,-0.224 2.558,-0.425 0.676,-0.123 1.237,-0.012 1.673,0.547 z"
   id="path1414" />
	<path
   fill="#0070c0"
   d="m 60.148,84.783 c 0.095,0.029 0.191,0.056 0.289,0.074 0.717,0.414 0.795,1.156 0.948,1.858 0.133,0.611 0.255,1.224 0.367,1.839 0.113,0.631 0.266,1.379 1.101,1.2 0.835,-0.18 0.673,-0.95 0.561,-1.562 -0.133,-0.709 -0.202,-1.426 -0.347,-2.135 -0.177,-0.61 -0.054,-1.27 0.333,-1.774 l -0.064,-0.08 c 0.751,0.114 0.806,0.745 0.914,1.297 0.398,2.079 1.248,4.207 1.066,6.239 -0.518,5.589 1.595,10.734 2.166,16.141 0.143,1.331 -0.383,2.313 -1.517,2.828 -1.133,0.516 -2.208,-0.059 -2.907,-1.007 -0.74,-1.009 -0.665,-2.187 0.22,-3.033 0.797,-0.76 0.809,-1.494 0.618,-2.446 -0.578,-2.83 -0.806,-5.758 -1.662,-8.492 -0.952,-3.052 -1.696,-6.162 -2.228,-9.314 -0.094,-0.553 -0.366,-1.131 0.142,-1.633 z"
   id="path1416" />
	<path
   fill="#0070c0"
   d="m 39.946,38.294 c -0.289,-1.607 -0.578,-3.215 -0.867,-4.819 -0.682,-3.703 -0.482,-7.517 -1.445,-11.197 -0.497,-1.92 -0.85,-2.403 -2.87,-2.44 -1.3,-0.023 -2.21,-0.639 -2.601,-1.853 -0.356,-1.2 0.192,-2.484 1.306,-3.056 1.271,-0.607 2.251,0 3.022,0.942 0.422,0.518 0.749,1.125 1.364,1.445 1.653,0.841 2.364,2.218 2.575,4.024 0.208,1.761 0.601,3.501 0.945,5.245 0.176,0.899 0.067,1.928 1.156,2.443 0.226,0.104 0.254,0.685 0.327,1.058 0.479,2.442 0.954,4.889 1.421,7.34 l -0.147,0.145 c -0.942,0.116 -1.263,-0.497 -1.39,-1.255 -0.165,-0.995 -0.431,-1.963 -0.653,-2.943 -0.118,-0.512 -0.396,-0.919 -1.002,-0.769 -0.515,0.127 -0.602,0.578 -0.578,1.032 0.089,1.003 0.289,1.989 0.477,2.979 0.122,0.685 0.153,1.333 -0.457,1.83 -0.207,0.069 -0.435,0.01 -0.583,-0.151 z"
   id="path1418" />
	<path
   fill="#0070c0"
   d="m 66.82,32.802 c -0.354,-2.024 -0.924,-4.065 -1.014,-6.115 -0.17,-3.268 -0.59,-6.519 -1.255,-9.723 -0.034,-0.194 -0.014,-0.394 0.058,-0.578 0.867,-2.396 2.492,-4.42 3.361,-6.84 0.289,-0.833 1.416,-0.919 2.313,-0.543 0.945,0.396 1.615,1.052 1.708,2.134 0.114,1.094 -0.46,2.146 -1.445,2.636 -2.601,1.498 -3.127,2.602 -2.601,5.568 0.191,1.09 0.398,2.174 0.592,3.264 0.074,0.428 0.066,0.962 0.518,1.125 0.777,0.289 0.74,0.963 0.867,1.535 0.457,2.313 0.867,4.625 1.292,6.956 0.063,0.122 0.052,0.269 -0.028,0.379 -0.867,0.408 -1.097,-0.205 -1.299,-0.824 -0.289,-0.911 -0.406,-1.862 -0.627,-2.79 -0.142,-0.596 -0.234,-1.399 -1.046,-1.295 -0.956,0.124 -0.692,0.994 -0.647,1.625 0.093,1.272 0.627,2.498 0.432,3.811 -0.105,0.191 -0.288,0.329 -0.5,0.378 -0.554,0.057 -0.49,-0.446 -0.679,-0.703 z"
   id="path1420" />
	<path
   fill="#0070c0"
   d="m 38.827,81.334 c -0.037,0.088 -0.066,0.18 -0.089,0.271 -0.546,0.82 -1.445,0.885 -2.283,1 -0.668,0.063 -1.329,0.193 -1.971,0.394 -0.437,0.153 -0.786,0.428 -0.682,0.951 0.104,0.522 0.529,0.667 0.988,0.647 0.815,-0.041 1.601,-0.315 2.407,-0.394 0.723,-0.072 1.535,-0.449 2.127,0.353 0,0.186 0.026,0.366 0.041,0.553 -2.502,0.477 -5.02,1.385 -7.514,1.301 -2.242,-0.078 -2.89,1.199 -3.82,2.556 -0.815,1.191 -1.647,2.368 -2.456,3.562 -0.496,0.64 -0.804,1.402 -0.89,2.207 -0.084,1.142 -0.777,2.109 -2.063,2.261 -1.243,0.146 -2.162,-0.5 -2.621,-1.609 -0.471,-1.026 -0.034,-2.241 0.982,-2.731 1.338,-0.691 2.023,-1.848 2.809,-2.98 0.867,-1.267 1.78,-2.513 2.601,-3.805 0.746,-1.156 1.855,-1.778 2.95,-2.557 2.578,-1.836 5.604,-1.445 8.354,-2.271 0.405,-0.117 0.893,-0.302 1.13,0.291 z"
   id="path1422" />
	<path
   fill="#0070c0"
   d="m 102.566,26.41 c -1.588,2.686 -3.633,5.071 -5.125,7.82 -0.289,0.558 -0.979,0.74 -1.609,0.868 -1.132,0.205 -2.273,0.381 -3.398,0.627 -0.887,0.196 -1.965,0 -2.428,1.156 -0.068,0.17 -0.503,0.229 -0.779,0.289 -2.55,0.468 -5.102,0.922 -7.649,1.379 -0.321,-1.066 0.465,-1.272 1.188,-1.477 0.866,-0.246 1.789,-0.289 2.66,-0.538 0.521,-0.145 1.061,-0.405 0.939,-1.062 -0.122,-0.657 -0.711,-0.665 -1.258,-0.601 -0.866,0.098 -1.689,0.289 -2.539,0.434 -0.717,0.116 -1.315,0.046 -1.823,-0.495 0.009,-0.304 0.246,-0.553 0.549,-0.578 2.502,-0.468 5.005,-1.272 7.515,-1.289 1.65,-0.053 3.297,-0.197 4.933,-0.431 0.917,-0.099 1.733,-0.625 2.202,-1.42 1.402,-2.067 2.873,-4.088 4.312,-6.129 1.183,-0.175 1.911,0.374 2.31,1.447 z"
   id="path1424" />
	<path
   fill="#0070c0"
   d="M 34.744,39.205 C 34.657,39.17 34.573,39.139 34.484,39.11 L 33.201,31.723 C 33.112,31.22 32.993,30.809 33.438,30.278 34.016,29.604 33.484,27.815 32.666,27.193 31.9,26.615 31.097,26.086 30.302,25.542 29.657,25.1 29.126,24.834 28.25,25.357 c -1.104,0.657 -2.138,0.049 -2.89,-0.919 -0.777,-1.021 -0.67,-2.052 0.086,-3.044 0.757,-0.992 1.714,-1.333 2.774,-0.665 1.948,1.231 3.757,2.721 5.78,3.816 1.601,0.867 1.907,2.217 2.485,3.727 1.242,3.255 1.601,6.667 2.34,10.012 0.041,0.271 -0.115,0.401 -0.341,0.482 -0.142,0.017 -0.285,-0.004 -0.416,-0.061 -0.847,-0.844 -0.867,-1.992 -1.11,-3.056 -0.05,-0.429 -0.132,-0.854 -0.249,-1.27 -0.179,-0.462 -0.402,-0.934 -1.02,-0.774 -0.517,0.133 -0.578,0.578 -0.555,1.043 0.052,0.917 0.329,1.792 0.462,2.694 0.098,0.656 0.289,1.333 -0.243,1.914 -0.2,0.064 -0.419,0.045 -0.609,-0.051 z"
   id="path1426" />
	<path
   fill="#0070c0"
   d="m 74.335,82.238 c 0.746,0.121 0.624,0.787 0.716,1.252 0.426,2.115 0.717,4.262 1.223,6.359 0.199,0.827 -0.642,1.213 -0.515,1.815 0.364,1.733 0.075,3.644 1.589,5.071 0.998,0.938 0.867,2.152 -0.074,3.215 -0.803,0.88 -2.114,1.074 -3.14,0.468 C 72.895,99.672 72.528,98.664 73.153,97.362 74,95.6 73.41,93.77 72.725,92.373 71.692,90.27 71.649,88.058 71.098,85.914 70.93,85.265 70.84,84.597 70.702,83.936 c -0.107,-0.498 -0.18,-0.97 0.457,-1.156 l -0.043,0.093 c 1.107,0.719 1.109,1.914 1.324,3.026 0.149,0.795 0.025,2.084 1.179,1.891 1.154,-0.193 0.541,-1.396 0.487,-2.18 -0.079,-1.151 -0.893,-2.325 0.229,-3.372 z"
   id="path1428" />
	<path
   fill="#0070c0"
   d="M 76.646,31.356 76.044,31.669 75.85,31.62 c -0.494,-0.316 -0.793,-0.86 -0.799,-1.446 -0.137,-0.99 -0.346,-1.969 -0.627,-2.928 -0.098,-0.399 -0.338,-0.711 -0.8,-0.662 -0.526,0.052 -0.729,0.437 -0.72,0.908 0.021,1.052 0.289,2.073 0.459,3.105 0.113,0.674 0.195,1.33 -0.482,1.79 -0.21,0.055 -0.434,-0.014 -0.578,-0.176 -0.396,-2.22 -0.803,-4.441 -1.173,-6.67 -0.19,-0.835 -0.21,-1.701 -0.058,-2.544 0.254,-1.133 -0.289,-2.232 -0.848,-3.272 -0.682,-1.255 -0.363,-2.492 0.737,-3.328 1.1,-0.836 2.099,-0.471 3,0.309 0.901,0.781 1.032,1.792 0.396,2.845 -0.773,1.278 -0.887,2.443 0.515,3.397 0.36,0.246 0.289,0.685 0.37,1.055 0.472,2.448 0.94,4.899 1.404,7.353 z"
   id="path1430" />
	<path
   fill="#0070c0"
   d="m 87.628,72.389 c 0.063,-0.662 0.619,-0.671 1.065,-0.758 2.162,-0.419 4.336,-0.797 6.5,-1.22 0.885,-0.171 1.385,0.075 1.445,1.034 0.06,0.961 0.641,1.523 1.409,2.023 1.28,0.842 2.5,1.772 3.757,2.663 -0.115,1.281 -0.867,1.923 -2.093,2.099 -1.274,-0.85 -2.569,-1.668 -3.813,-2.556 -0.678,-0.541 -1.568,-0.733 -2.407,-0.521 -1.634,0.376 -3.294,0.615 -4.942,0.912 -0.289,-0.893 0.221,-1.241 0.965,-1.487 0.827,-0.289 1.705,-0.24 2.534,-0.463 0.578,-0.156 1.378,-0.267 1.24,-1.099 -0.14,-0.832 -0.89,-0.693 -1.517,-0.606 -0.899,0.127 -1.777,0.354 -2.688,0.437 -0.578,0.053 -1.046,0.022 -1.375,-0.507 z"
   id="path1432" />
	<path
   fill="#0070c0"
   d="m 85.053,80.264 c 0.289,1.603 0.482,3.225 0.867,4.799 0.314,1.278 -0.289,1.541 -1.338,1.799 -1.208,0.305 -1.667,-0.129 -1.826,-1.264 -0.17,-1.23 -0.425,-2.451 -0.665,-3.674 -0.063,-0.313 -0.13,-0.789 -0.577,-0.249 -0.234,-0.422 -0.166,-0.745 0.303,-0.942 z"
   id="path1434" />
	<path
   fill="#0070c0"
   d="m 38.46,79.348 c -1.62,0.061 -3.229,0.293 -4.8,0.693 -1.243,0.348 -1.575,-0.326 -1.844,-1.336 -0.289,-1.074 0,-1.633 1.11,-1.809 1.179,-0.187 2.347,-0.433 3.517,-0.656 0.462,-0.09 0.968,-0.119 1.182,-0.662 l 0.289,0.289 c -0.001,1.09 0.197,2.172 0.587,3.191 z"
   id="path1436" />
	<path
   fill="#0070c0"
   d="m 80.745,34.796 c 1.552,-0.257 3.108,-0.492 4.655,-0.781 1.014,-0.188 1.713,-0.133 1.947,1.157 0.211,1.179 0,1.824 -1.26,1.992 -1.038,0.139 -2.066,0.364 -3.095,0.578 -0.55,0.113 -1.156,0.142 -1.416,0.798 -0.113,-0.173 -0.224,-0.35 -0.333,-0.523 0.023,-0.995 -0.174,-1.982 -0.578,-2.891 0.026,-0.119 0.056,-0.226 0.08,-0.33 z"
   id="path1438" />
	<path
   fill="#0070c0"
   d="m 58.169,85.176 c 0.24,1.561 0.439,3.129 0.731,4.678 0.208,1.107 -0.093,1.684 -1.266,1.939 -1.173,0.258 -1.716,-0.084 -1.89,-1.236 -0.162,-1.09 -0.367,-2.172 -0.598,-3.246 -0.107,-0.498 -0.127,-1.08 -0.731,-1.313 l 0.543,-0.317 c 0.993,0.01 1.977,-0.188 2.89,-0.578 z"
   id="path1440" />
	<path
   fill="#0070c0"
   d="m 87.688,72.346 c 1.694,-0.289 3.396,-0.525 5.078,-0.867 1.075,-0.215 1.354,0.361 1.463,1.226 0.109,0.865 0.393,1.756 -0.939,1.935 -1.137,0.15 -2.26,0.362 -3.385,0.579 -0.549,0.109 -1.155,0.158 -1.375,0.845 l -0.346,-0.498 c 0.074,-1.104 -0.409,-2.13 -0.496,-3.22 z"
   id="path1442" />
	<path
   fill="#0070c0"
   d="m 82.715,45.522 c 1.699,0.058 3.314,-0.466 4.959,-0.746 1.361,-0.231 1.459,0.625 1.696,1.552 0.267,1.038 -0.021,1.498 -1.116,1.604 -1.092,0.133 -2.177,0.326 -3.248,0.579 -0.546,0.115 -1.173,0.133 -1.445,0.777 -0.106,-0.188 -0.213,-0.373 -0.324,-0.558 -0.049,-1 -0.135,-1.992 -0.563,-2.92 z"
   id="path1444" />
	<path
   fill="#0070c0"
   d="m 51.193,36.25 c 0.063,-1.604 -0.425,-3.128 -0.737,-4.672 -0.229,-1.136 0.122,-1.688 1.263,-1.94 1.142,-0.251 1.734,0.021 1.896,1.217 0.139,1.043 0.347,2.082 0.578,3.111 0.119,0.543 0.127,1.177 0.783,1.445 0.014,0.096 0.014,0.193 0,0.289 -0.164,0.28 -0.471,0.445 -0.794,0.428 -0.896,0.058 -1.717,0.579 -2.644,0.439 -0.149,-0.061 -0.271,-0.173 -0.345,-0.317 z"
   id="path1446" />
	<path
   fill="#0070c0"
   d="m 33.547,52.75 c -1.517,-0.428 -2.93,0.249 -4.369,0.485 -1.156,0.194 -2.052,0.454 -2.26,-1.156 -0.202,-1.573 -0.208,-1.567 1.734,-1.983 1.384,-0.289 2.89,-0.196 4.109,-1.136 l 0.249,0.321 c 0.577,0.845 0.785,1.889 0.578,2.891 -0.02,0.184 -0.029,0.378 -0.041,0.578 z"
   id="path1448" />
	<path
   fill="#0070c0"
   d="m 79.561,81.386 c 0.555,1.64 0.67,3.365 0.996,5.048 0.196,1.01 -0.453,1.221 -1.25,1.305 -0.798,0.084 -1.639,0.531 -1.865,-0.778 -0.289,-1.69 -0.717,-3.36 -0.817,-5.082 0.002,-0.071 0.01,-0.146 0.022,-0.217 z"
   id="path1450" />
	<path
   fill="#0070c0"
   d="m 47.459,87.152 c -0.289,1.715 0.419,3.309 0.702,4.94 0.271,1.56 -0.818,1.427 -1.67,1.718 C 45.413,94.177 45.15,93.57 45.012,92.695 44.83,91.562 44.607,90.433 44.385,89.306 44.284,88.799 44.276,88.23 43.68,87.98 l 0.578,-0.308 c 0.998,-0.014 1.984,-0.207 2.913,-0.569 0.095,0.012 0.19,0.027 0.288,0.049 z"
   id="path1452" />
	<path
   fill="#0070c0"
   d="m 85.848,61.738 c 1.604,-0.709 3.361,-0.709 5.037,-1.076 1.289,-0.289 1.174,0.926 1.396,1.709 0.222,0.783 0.068,1.295 -0.85,1.422 -1.091,0.15 -2.175,0.337 -3.252,0.559 -0.63,0.131 -1.375,0.082 -1.734,0.821 l -0.288,-0.289 z"
   id="path1454" />
	<path
   fill="#0070c0"
   d="m 74.335,82.238 c 0,1.445 0.442,2.84 0.708,4.25 0.214,1.139 0.289,2.037 -1.229,2.365 -1.615,0.347 -1.734,-0.688 -1.939,-1.752 -0.264,-1.412 -0.509,-2.828 -0.76,-4.242 l 2.931,-0.683 c 0.099,0.015 0.19,0.037 0.289,0.062 z"
   id="path1456" />
	<path
   fill="#0070c0"
   d="m 68.811,83.35 c 0.289,1.602 0.535,3.215 0.906,4.799 0.318,1.358 -0.517,1.445 -1.477,1.687 -1.084,0.254 -1.512,-0.178 -1.67,-1.157 -0.188,-1.183 -0.422,-2.357 -0.61,-3.537 -0.075,-0.483 -0.099,-0.967 -0.621,-1.209 l 0.326,-0.246 z"
   id="path1458" />
	<path
   fill="#0070c0"
   d="m 36.429,68.361 c -1.653,0.289 -3.317,0.506 -4.95,0.867 -1.532,0.344 -1.428,-0.787 -1.702,-1.656 -0.321,-1.023 0.289,-1.243 1.081,-1.389 1.13,-0.199 2.251,-0.451 3.378,-0.67 0.52,-0.103 1.052,-0.164 1.39,-0.65 0.092,0.289 0.188,0.578 0.289,0.85 0.901,0.607 0.693,1.495 0.578,2.355 z"
   id="path1460" />
	<path
   fill="#0070c0"
   d="m 36.218,8.208 c -0.38,0.876 -0.893,1.689 -1.52,2.411 -0.85,-0.072 -1.711,0.032 -2.451,-0.61 -0.901,-0.78 -1.263,-1.7 -0.867,-2.816 0.338,-0.959 1.008,-1.734 2.081,-1.734 1.148,-0.05 2.187,0.677 2.534,1.772 0.095,0.32 0.17,0.646 0.223,0.977 z"
   id="path1462" />
	<path
   fill="#0070c0"
   d="m 100.343,24.707 c -0.288,-2.29 0.98,-3.854 2.761,-3.374 1.095,0.289 1.982,0.957 1.971,2.153 -0.014,1.356 -0.76,2.313 -2.18,2.62 -0.924,-0.321 -1.517,-1.261 -2.552,-1.399 z"
   id="path1464" />
	<path
   fill="#0070c0"
   d="m 114.252,44.967 c 0.997,-1.402 1.954,-1.639 3.234,-0.795 1.17,0.769 1.479,1.955 0.812,3.088 -0.789,1.33 -1.795,1.602 -3.243,0.867 l 0.024,-0.119 c -0.2,-0.769 -0.647,-1.538 0,-2.29 0.007,-0.054 0.024,-0.105 0.049,-0.153 -0.399,-0.063 -0.795,-0.115 -0.876,-0.598 z"
   id="path1466" />
	<path
   fill="#0070c0"
   d="m 119.384,74.164 c 1.495,0.373 2.298,1.236 2.212,2.379 -0.088,1.143 -1.156,2.244 -2.212,2.342 -1.155,0.109 -2.276,-0.814 -2.586,-2.16 0.419,-0.346 0.634,-0.961 1.286,-1.006 0.289,0 0.451,-0.095 0.445,-0.412 0.061,-0.557 0.517,-0.802 0.855,-1.143 z"
   id="path1468" />
	<path
   fill="#0070c0"
   d="m 102.635,76.457 c 1.491,0.456 2.182,1.318 2.006,2.494 -0.177,1.177 -1.347,2.256 -2.445,2.206 -1.305,-0.056 -2.25,-1.099 -2.432,-2.683 0.629,-0.507 1.188,0.096 1.779,0.102 0.591,0.006 0.364,-0.414 0.32,-0.721 -0.052,-0.653 0.444,-0.988 0.772,-1.398 z"
   id="path1470" />
	<path
   fill="#0070c0"
   d="m 54.106,35.692 h 0.867 l 1.156,-0.578 h 0.578 c 0.917,-0.911 1.916,-1.249 3.089,-0.465 0.578,0.321 0.647,0.784 0.35,1.338 -2.065,1.11 -4.425,1.547 -6.75,1.252 -0.882,-1.02 0.537,-0.991 0.71,-1.547 z"
   id="path1472" />
	<path
   fill="#0070c0"
   d="m 102.635,76.457 c 0.313,0.559 0,0.988 -0.289,1.416 0.168,0.703 -0.412,1.012 -0.76,1.445 -0.708,-0.059 -1.257,-0.463 -1.818,-0.844 -0.031,-0.072 -0.055,-0.148 -0.068,-0.227 0.482,-0.887 1.209,-1.614 2.092,-2.1 z"
   id="path1474" />
	<path
   fill="#0070c0"
   d="m 115.659,45.812 c -0.515,0.65 -0.083,1.546 -0.577,2.203 -1.289,-0.535 -1.463,-1.543 -1.156,-2.75 l 0.338,-0.289 c 0.645,0.188 1.369,-0.231 1.969,0.275 0.016,0.293 -0.209,0.544 -0.502,0.562 -0.024,0 -0.047,0 -0.072,-0.001 z"
   id="path1476" />
	<path
   fill="#0070c0"
   d="m 119.384,74.164 -0.288,1.393 c -0.044,0.539 -0.408,0.625 -0.847,0.596 -0.451,0.289 -0.896,0.578 -1.46,0.578 -0.031,-0.065 -0.049,-0.137 -0.055,-0.211 0.043,-1.155 0.891,-1.85 1.496,-2.683 z"
   id="path1478" />
	<path
   fill="#0070c0"
   d="m 66.82,32.802 0.527,0.535 c 0.666,0.142 1.444,-0.026 1.875,0.74 -1.134,1.503 -2.723,1.287 -4.295,1.156 -0.633,-0.578 -0.162,-1.015 0.209,-1.446 l 0.213,-0.112 c 0.289,-0.206 0.321,-0.526 0.361,-0.841 0.377,0.37 0.75,0.708 1.11,-0.032 z"
   id="path1480" />
	<path
   fill="#0070c0"
   d="m 51.193,36.25 0.289,0.035 c 0.457,0.251 0.89,0.521 0.723,1.157 -0.988,0.939 -2.095,1.127 -3.326,0.529 -0.414,-0.578 -0.11,-0.986 0.318,-1.367 0.289,-0.243 0.274,-0.579 0.318,-0.917 0.289,0.491 0.578,0.85 1.13,0.271 z"
   id="path1482" />
	<path
   fill="#0070c0"
   d="m 45.147,36.534 0.269,0.618 c 0.596,0.394 1.613,0.064 1.844,1.082 -1.228,1.269 -2.737,1.304 -4.334,0.992 -0.688,-0.79 0.217,-1.061 0.5,-1.538 0.202,-0.226 0.609,0.029 0.766,-0.321 l 0.066,0.061 c 0.492,-0.003 0.889,-0.402 0.889,-0.894 z"
   id="path1484" />
	<path
   fill="#0070c0"
   d="m 59.868,35.692 c 0.118,-0.277 0.118,-0.59 0,-0.867 -0.069,-0.055 -0.092,-0.11 -0.063,-0.159 0.029,-0.049 0.052,-0.072 0.078,-0.072 l 0.558,-0.049 c 0.578,-0.038 0.841,-0.388 0.931,-0.919 0.202,0.289 0.381,0.622 0.821,0.578 l 0.216,0.061 c 0.411,0.364 1.338,0.338 0.974,1.292 -1.437,0.901 -2.564,0.942 -3.515,0.135 z"
   id="path1486" />
	<path
   fill="#0070c0"
   d="m 72.313,32.223 h 0.578 c 0.109,-0.108 0.274,-0.138 0.416,-0.075 0.358,0.373 1.021,0.546 0.838,1.274 -0.957,0.928 -2.092,0.986 -3.303,0.671 -0.357,-0.242 -0.537,-0.673 -0.459,-1.099 0.09,-0.407 0.555,-0.26 0.754,-0.509 l 0.078,-0.271 c 0.321,0.25 0.769,0.254 1.098,0.009 z"
   id="path1488" />
	<path
   fill="#0070c0"
   d="m 38.501,38.615 c 0.107,-0.11 0.217,-0.22 0.326,-0.327 h 1.119 l 0.529,-0.049 c 0.138,-0.082 0.311,-0.075 0.442,0.017 0.382,0.428 0.347,0.888 0.107,1.365 -0.896,0.578 -1.809,1.035 -2.861,0.353 -0.376,-0.575 -0.093,-0.986 0.338,-1.359 z"
   id="path1490" />
	<path
   fill="#0070c0"
   d="m 36.495,68.072 c -0.442,-0.727 -0.355,-1.581 -0.578,-2.355 0.231,-0.134 0.485,-0.818 0.688,-0.264 0.327,0.898 0.977,1.885 0.165,2.891 z"
   id="path1492" />
	<path
   fill="#0070c0"
   d="M 33.588,52.171 C 33.08,51.272 32.987,50.289 33.01,49.28 c 0.092,0 0.185,0 0.289,-0.021 0.896,0.934 1.052,2.003 0.598,3.18 z"
   id="path1494" />
	<path
   fill="#0070c0"
   d="m 100.343,24.707 c 0.364,-0.521 0.72,-0.743 1.212,-0.101 0.407,0.529 0.893,1.003 1.34,1.5 l -0.332,0.289 -2.312,-1.446 c 0.026,-0.082 0.058,-0.163 0.092,-0.242 z"
   id="path1496" />
	<path
   fill="#0070c0"
   d="m 84.762,56.182 c 1.698,-0.289 3.406,-0.555 5.092,-0.919 1.33,-0.289 1.223,0.703 1.414,1.445 0.207,0.798 0.289,1.509 -0.854,1.703 -1.7,0.289 -3.385,0.665 -5.075,1.005 -0.193,-1.081 -0.385,-2.159 -0.577,-3.234 z"
   id="path1498" />
	<path
   fill="#0070c0"
   d="m 39.324,84.551 c -1.65,0.289 -3.309,0.538 -4.938,0.902 -1.041,0.23 -1.364,-0.205 -1.517,-1.125 -0.153,-0.919 -0.289,-1.77 0.922,-2 1.638,-0.313 3.268,-0.693 4.947,-0.729 0.396,0.949 0.448,1.964 0.586,2.952 z"
   id="path1500" />
	<path
   fill="#0070c0"
   d="m 63.388,84.285 c 0.324,1.643 0.612,3.29 0.979,4.915 0.236,1.05 -0.289,1.353 -1.176,1.515 -0.887,0.162 -1.774,0.344 -1.974,-0.914 -0.266,-1.65 -0.749,-3.264 -0.792,-4.949 z"
   id="path1502" />
	<path
   fill="#0070c0"
   d="m 83.9,51.25 c 1.615,-0.645 3.346,-0.755 5.027,-1.099 0.609,-0.125 1.225,-0.113 1.248,0.714 0.023,0.827 0.85,1.922 -0.558,2.284 -1.702,0.439 -3.453,0.7 -5.17,1.046 C 84.1,53.252 83.913,52.255 83.9,51.25 Z"
   id="path1504" />
	<path
   fill="#0070c0"
   d="m 81.848,40.292 c 1.694,-0.29 3.396,-0.558 5.072,-0.925 1.032,-0.226 1.24,0.327 1.378,1.119 0.14,0.792 0.388,1.686 -0.786,1.931 -1.682,0.347 -3.341,0.836 -5.08,0.804 -0.387,-0.937 -0.422,-1.943 -0.584,-2.929 z"
   id="path1506" />
	<path
   fill="#0070c0"
   d="m 86.762,66.896 c 1.608,-0.256 3.229,-0.457 4.825,-0.777 1.211,-0.243 1.5,0.404 1.679,1.379 0.18,0.975 0.029,1.568 -1.092,1.734 -1.613,0.233 -3.213,0.578 -4.816,0.867 -0.206,-1.068 -0.404,-2.136 -0.596,-3.203 z"
   id="path1508" />
	<path
   fill="#0070c0"
   d="m 35.279,63.182 c -1.639,0.322 -3.28,0.652 -4.913,0.975 -1.341,0.26 -1.274,-0.774 -1.488,-1.592 -0.214,-0.813 -0.066,-1.357 0.931,-1.487 1.656,-0.214 3.26,-0.771 4.944,-0.818 0.402,0.918 0.582,1.92 0.526,2.922 z"
   id="path1510" />
	<path
   fill="#0070c0"
   d="m 34.386,57.717 c -1.541,0.338 -3.083,0.662 -4.624,1.015 -1.156,0.269 -1.636,-0.251 -1.847,-1.359 -0.211,-1.108 0.222,-1.616 1.26,-1.792 1.555,-0.269 3.104,-0.558 4.656,-0.838 0.187,0.984 0.372,1.975 0.555,2.974 z"
   id="path1512" />
	<path
   fill="#0070c0"
   d="m 52.661,86.286 c 0.289,1.649 0.529,3.313 0.898,4.946 0.237,1.059 -0.188,1.36 -1.133,1.475 -0.867,0.107 -1.849,0.438 -2.005,-0.867 -0.202,-1.666 -0.769,-3.277 -0.688,-4.979 0.946,-0.377 1.951,-0.427 2.928,-0.575 z"
   id="path1514" />
	<path
   fill="#0070c0"
   d="m 37.345,73.834 c -1.601,0.255 -3.21,0.48 -4.806,0.777 -1.035,0.197 -1.468,-0.17 -1.642,-1.205 -0.165,-0.988 -0.153,-1.688 1.052,-1.883 1.604,-0.254 3.199,-0.578 4.797,-0.867 0.326,1.032 0.527,2.099 0.599,3.178 z"
   id="path1516" />
	<path
   fill="#0070c0"
   d="m 32.395,46.994 c -1.688,0.318 -3.381,0.604 -5.06,0.96 -0.893,0.191 -1.243,-0.173 -1.303,-1.006 -0.055,-0.783 -0.691,-1.757 0.705,-2.044 1.671,-0.393 3.366,-0.676 5.075,-0.85 0.386,0.942 0.45,1.948 0.583,2.94 z"
   id="path1518" />
	<path
   fill="#0070c0"
   d="m 38.212,39.72 -2.023,0.311 c -0.624,-0.035 -1.032,-0.445 -1.445,-0.836 l 0.52,-0.078 c 1.038,-1.079 1.699,-1.203 2.948,-0.561 l 0.289,0.049 z"
   id="path1520" />
	<path
   fill="#0070c0"
   d="m 75.762,32.802 -1.716,0.289 C 73.567,33.1 73.171,32.72 73.162,32.241 v 0 c 0.77,-1.157 1.598,-1.335 2.921,-0.625 l -0.022,0.044 z"
   id="path1522" />
	<path
   fill="#0070c0"
   d="m 35.883,63.158 c -0.257,-0.896 -0.561,-1.784 -0.289,-2.76 0.329,0.889 0.867,1.75 0.289,2.768 z"
   id="path1524" />
	<path
   fill="#0070c0"
   d="m 37.94,73.126 c -0.364,-0.714 -0.699,-1.425 -0.445,-2.485 0.569,0.938 0.379,1.745 0.445,2.485 z"
   id="path1526" />
	<path
   fill="#0070c0"
   d="m 125.404,68.755 c -0.081,0.388 -0.289,0.624 -0.696,0.578 -0.319,0.004 -0.582,-0.251 -0.586,-0.569 -0.001,-0.035 0.002,-0.07 0.008,-0.104 0.022,-0.336 0.313,-0.591 0.649,-0.567 0.019,0.002 0.037,0.004 0.056,0.008 0.319,0 0.576,0.262 0.574,0.58 0,0.024 -0.002,0.049 -0.005,0.074 z"
   id="path1528" />
	<path
   fill="#0070c0"
   d="m 118.463,29.353 c -0.044,0.408 -0.211,0.691 -0.593,0.714 -0.321,0.063 -0.632,-0.147 -0.695,-0.468 -0.012,-0.066 -0.014,-0.133 -0.004,-0.199 0.019,-0.338 0.308,-0.597 0.646,-0.579 0.002,0 0.007,0 0.011,0 0.317,-0.033 0.601,0.198 0.634,0.516 0,0.005 0,0.01 10e-4,0.016 z"
   id="path1530" />
	<path
   fill="#0070c0"
   d="M 45.185,4.096 C 44.845,4.074 44.571,3.808 44.538,3.469 44.456,3.184 44.622,2.886 44.907,2.804 c 0.054,-0.015 0.11,-0.022 0.166,-0.021 0.445,-0.041 0.771,0.188 0.763,0.645 0.001,0.363 -0.288,0.66 -0.651,0.668 z"
   id="path1532" />
	<path
   fill="#0070c0"
   d="m 1.872,57.433 c 0.006,-0.357 0.301,-0.642 0.659,-0.636 0.003,0 0.006,0 0.009,0 0.294,-0.049 0.573,0.149 0.623,0.444 0.009,0.055 0.01,0.111 0.002,0.166 -0.008,0.353 -0.3,0.633 -0.653,0.625 -0.003,0 -0.006,0 -0.009,0 C 2.196,58.072 1.915,57.854 1.876,57.547 1.87,57.509 1.869,57.471 1.872,57.433 Z"
   id="path1534" />
	<path
   fill="#0070c0"
   d="M 9.967,89.405 C 9.959,89.736 9.684,90 9.352,89.993 9.321,89.992 9.289,89.989 9.259,89.982 8.88,89.957 8.591,89.75 8.603,89.355 8.584,89.01 8.847,88.715 9.191,88.698 c 0.015,-10e-4 0.03,-10e-4 0.044,-10e-4 0.388,-0.016 0.715,0.285 0.73,0.673 10e-4,0.012 0.002,0.025 0.002,0.035 z"
   id="path1536" />
	<path
   fill="#0070c0"
   d="m 116.982,57.896 c -0.041,0.353 -0.356,0.609 -0.711,0.578 -0.301,0.023 -0.565,-0.203 -0.588,-0.505 -0.006,-0.055 -0.002,-0.109 0.01,-0.163 -0.004,-0.319 0.252,-0.581 0.572,-0.585 0.032,0 0.066,0.002 0.1,0.007 0.348,0.006 0.625,0.292 0.619,0.641 0,0.009 0,0.018 -0.002,0.027 z"
   id="path1538" />
	<path
   fill="#0070c0"
   d="m 44.243,111.564 c -0.049,0.432 -0.269,0.656 -0.65,0.625 -0.34,0.014 -0.625,-0.252 -0.638,-0.592 0,-0.009 0,-0.017 0,-0.023 -0.047,-0.316 0.17,-0.609 0.486,-0.658 0.078,-0.011 0.157,-0.007 0.233,0.014 0.326,0.029 0.575,0.306 0.569,0.634 z"
   id="path1540" />
	<path
   fill="#0070c0"
   d="m 62.197,34.201 c -0.306,-1.651 -0.563,-3.313 -0.936,-4.949 -0.234,-1.029 0.199,-1.399 1.113,-1.55 0.913,-0.15 1.734,-0.2 1.974,1.012 0.318,1.647 0.674,3.287 1.012,4.915 l 0.029,0.055 c -0.859,0.813 -2.12,1.04 -3.208,0.578 z"
   id="path1542" />
	<path
   fill="#0070c0"
   d="M 64.466,4.354 C 64.444,4.748 64.244,4.996 63.845,4.987 63.528,5.025 63.241,4.798 63.203,4.481 63.199,4.443 63.198,4.406 63.201,4.368 63.182,4.025 63.444,3.732 63.787,3.713 63.8,3.712 63.813,3.712 63.826,3.712 c 0.394,0 0.582,0.271 0.64,0.642 z"
   id="path1544" />
	<path
   fill="#0070c0"
   d="M 7.308,76.008 C 6.88,75.942 6.588,75.719 6.6,75.266 c 0.001,-0.339 0.277,-0.61 0.616,-0.608 0.017,0 0.035,0 0.052,0.002 0.341,-0.05 0.657,0.188 0.706,0.53 0.008,0.06 0.008,0.119 0,0.179 -0.024,0.352 -0.312,0.629 -0.666,0.639 z"
   id="path1546" />
	<path
   fill="#0070c0"
   d="m 58.068,114.529 c 0.013,0.34 -0.239,0.634 -0.578,0.673 -0.31,0.073 -0.622,-0.117 -0.696,-0.429 -0.008,-0.031 -0.013,-0.064 -0.015,-0.099 -0.088,-0.327 0.107,-0.666 0.435,-0.754 0.062,-0.017 0.125,-0.022 0.189,-0.021 0.347,-0.02 0.645,0.246 0.664,0.595 0,0.013 10e-4,0.024 10e-4,0.035 z"
   id="path1548" />
	<path
   fill="#0070c0"
   d="m 103.398,94.182 c -0.049,0.373 -0.24,0.646 -0.631,0.662 -0.328,0.03 -0.617,-0.21 -0.647,-0.537 -0.003,-0.026 -0.003,-0.055 -0.002,-0.082 -0.038,-0.315 0.188,-0.604 0.506,-0.642 0.034,-0.004 0.067,-0.005 0.101,-0.003 0.342,-0.029 0.643,0.225 0.672,0.566 -0.001,0.012 10e-4,0.024 10e-4,0.036 z"
   id="path1550" />
	<path
   fill="#0070c0"
   d="m 90.639,104.563 c 0.381,0.049 0.639,0.246 0.633,0.646 -0.022,0.351 -0.326,0.615 -0.676,0.592 -0.318,-0.022 -0.57,-0.274 -0.593,-0.592 -0.003,-0.353 0.28,-0.642 0.634,-0.646 z"
   id="path1552" />
	<path
   fill="#0070c0"
   d="m 45.988,37.121 c -0.321,-1.688 -0.615,-3.382 -0.974,-5.062 -0.191,-0.888 0.162,-1.252 0.997,-1.318 0.792,-0.061 1.766,-0.685 2.052,0.706 0.347,1.685 0.734,3.362 0.841,5.085 -0.63,1.026 -1.699,1.242 -2.916,0.589 z"
   id="path1554" />
	<path
   fill="#0070c0"
   d="m 45.988,37.121 c 0.994,-0.089 1.994,-0.15 2.916,-0.578 l 0.289,0.078 c -0.101,0.37 -0.203,0.737 -0.307,1.104 l -1.734,0.289 c -0.74,0.038 -1.274,-0.344 -1.734,-0.867 z"
   id="path1556" />
	<path
   fill="#0070c0"
   d="m 59.886,34.583 c 0,0.078 0,0.156 0,0.231 l -3.179,0.301 c -0.289,-1.552 -0.534,-3.111 -0.852,-4.657 -0.194,-0.934 -0.127,-1.573 1.037,-1.717 1.055,-0.13 1.988,-0.37 2.165,1.182 0.175,1.552 0.54,3.107 0.829,4.66 z"
   id="path1558" />
	<path
   fill="#0070c0"
   d="m 54.644,6.782 c 0.014,0.336 -0.247,0.621 -0.583,0.636 -0.014,0 -0.027,0 -0.042,0 C 53.704,7.466 53.409,7.249 53.361,6.933 53.356,6.902 53.354,6.871 53.354,6.84 53.316,6.485 53.573,6.165 53.928,6.127 c 0.043,-0.004 0.087,-0.005 0.131,0 0.399,-0.022 0.57,0.262 0.585,0.655 z"
   id="path1560" />
	<path
   fill="#0070c0"
   d="m 76.223,109.396 c -0.062,0.416 -0.223,0.711 -0.621,0.727 -0.326,0.035 -0.619,-0.2 -0.653,-0.525 -0.003,-0.027 -0.005,-0.055 -0.003,-0.082 -0.043,-0.315 0.178,-0.607 0.494,-0.65 0.033,-0.004 0.064,-0.006 0.099,-0.006 0.333,-0.032 0.634,0.204 0.684,0.536 z"
   id="path1562" />
	<path
   fill="#0070c0"
   d="M 9.097,67.102 C 8.739,67.018 8.481,66.813 8.534,66.414 8.543,66.082 8.819,65.82 9.151,65.829 c 0.024,0.001 0.049,0.003 0.073,0.007 0.319,-0.005 0.582,0.249 0.587,0.569 0,0.036 -0.002,0.073 -0.009,0.108 -0.016,0.344 -0.307,0.608 -0.649,0.592 -0.019,0 -0.038,-0.001 -0.056,-0.003 z"
   id="path1564" />
	<path
   fill="#0070c0"
   d="m 14.281,36.271 c 0.022,0.336 -0.232,0.626 -0.568,0.649 -0.013,10e-4 -0.026,10e-4 -0.039,10e-4 -0.333,0.07 -0.659,-0.143 -0.729,-0.476 -0.012,-0.061 -0.016,-0.123 -0.01,-0.184 -0.012,-0.364 0.274,-0.668 0.638,-0.68 0.037,-0.001 0.074,10e-4 0.111,0.006 0.372,0.013 0.56,0.302 0.597,0.684 z"
   id="path1566" />
	<path
   fill="#0070c0"
   d="m 36.718,104.115 c 0.011,0.318 -0.238,0.588 -0.557,0.598 -0.027,0.002 -0.054,0 -0.082,-0.002 -0.351,-0.008 -0.63,-0.299 -0.623,-0.648 0.007,-0.353 0.298,-0.631 0.649,-0.623 0.015,0 0.031,0 0.046,0.002 0.336,0.021 0.591,0.313 0.568,0.648 0,0.008 0,0.015 -10e-4,0.025 z"
   id="path1568" />
	<path
   fill="#0070c0"
   d="M 10.311,48.939 C 9.963,48.954 9.669,48.684 9.654,48.336 9.64,48 9.894,47.711 10.229,47.682 c 0.338,-0.035 0.641,0.21 0.676,0.549 0.001,0.015 0.002,0.029 0.003,0.044 0.032,0.392 -0.222,0.598 -0.597,0.664 z"
   id="path1570" />
	<path
   fill="#0070c0"
   d="m 14.431,78.879 c 0.457,0.041 0.754,0.252 0.78,0.691 0.022,0.341 -0.235,0.635 -0.576,0.658 -0.01,0 -0.021,0 -0.03,0 -0.468,0.066 -0.706,-0.226 -0.737,-0.655 -0.031,-0.43 0.248,-0.579 0.563,-0.694 z"
   id="path1572" />
	<path
   fill="#0070c0"
   d="m 65.018,108.85 c -0.354,0.01 -0.647,-0.271 -0.656,-0.625 -0.002,-0.043 0.002,-0.086 0.01,-0.129 0.005,-0.343 0.288,-0.617 0.631,-0.611 0.012,0 0.023,0 0.036,0.002 0.372,0.003 0.672,0.305 0.671,0.677 0,0.028 -0.002,0.062 -0.006,0.09 -0.02,0.396 -0.296,0.582 -0.686,0.596 z"
   id="path1574" />
	<path
   fill="#0070c0"
   d="m 40.813,38.294 -0.315,-0.058 c -0.289,-1.645 -0.479,-3.313 -0.867,-4.915 -0.338,-1.388 0.497,-1.477 1.445,-1.694 1.032,-0.237 1.645,-0.066 1.774,1.133 0.129,1.199 0.401,2.35 0.613,3.524 0.086,0.486 0.21,0.945 0.771,1.096 l -0.532,0.335 c -0.901,0.539 -1.806,1.056 -2.889,0.579 z"
   id="path1576" />
	<path
   fill="#0070c0"
   d="m 34.455,18.025 c -0.319,-0.019 -0.562,-0.293 -0.543,-0.611 0.002,-0.028 0.006,-0.056 0.011,-0.083 -0.001,-0.308 0.248,-0.559 0.556,-0.56 0.045,0 0.091,0.005 0.134,0.016 0.319,-0.006 0.583,0.248 0.588,0.567 10e-4,0.041 -0.002,0.081 -0.01,0.121 -0.036,0.343 -0.342,0.592 -0.685,0.557 -0.017,-0.001 -0.034,-0.003 -0.051,-0.007 z"
   id="path1578" />
	<path
   fill="#0070c0"
   d="m 71.124,32.489 -0.546,0.313 c -0.916,0.76 -1.87,1.066 -2.922,0.263 -0.668,-1.561 -0.711,-3.255 -1.029,-4.889 -0.27,-1.382 0.85,-1.324 1.705,-1.555 0.941,-0.254 1.292,0.127 1.425,1.029 0.183,1.226 0.468,2.435 0.72,3.649 0.101,0.462 0.101,0.985 0.647,1.19 z"
   id="path1580" />
	<path
   fill="#0070c0"
   d="m 67.652,33.07 2.926,-0.269 c 0.089,0.289 0.182,0.578 0.273,0.867 -0.537,0.289 -1.127,0.289 -1.717,0.289 -0.679,0.021 -1.312,-0.087 -1.785,-0.645 z"
   id="path1582" />
	<path
   fill="#0070c0"
   d="m 70.208,11.408 c -0.017,0.477 -0.196,0.749 -0.592,0.775 -0.347,0.029 -0.652,-0.229 -0.681,-0.577 -0.029,-0.348 0.229,-0.652 0.576,-0.681 0.321,-0.037 0.619,0.17 0.697,0.483 z"
   id="path1584" />
	<path
   fill="#0070c0"
   d="m 22.217,95.277 c -0.347,-0.023 -0.612,-0.32 -0.596,-0.668 -0.017,-0.36 0.261,-0.668 0.622,-0.685 0.038,-0.002 0.075,0 0.113,0.005 0.363,0.035 0.629,0.359 0.593,0.725 -0.003,0.029 -0.008,0.061 -0.016,0.091 -0.037,0.388 -0.355,0.503 -0.716,0.532 z"
   id="path1586" />
	<path
   fill="#0070c0"
   d="m 38.212,38.566 -2.948,0.561 c -0.344,-1.642 -0.676,-3.284 -1.032,-4.915 -0.243,-1.119 0.434,-1.446 1.333,-1.596 0.898,-0.15 1.627,-0.191 1.8,1 0.243,1.652 0.558,3.3 0.847,4.95 z"
   id="path1588" />
	<path
   fill="#0070c0"
   d="m 28.025,23.117 c -0.052,0.399 -0.26,0.653 -0.65,0.653 -0.352,-0.024 -0.618,-0.329 -0.594,-0.681 0.021,-0.319 0.275,-0.573 0.594,-0.594 0.35,-0.005 0.639,0.272 0.65,0.622 z"
   id="path1590" />
	<path
   fill="#0070c0"
   d="m 75.352,97.693 c 0.354,0.096 0.633,0.271 0.578,0.686 -0.025,0.34 -0.32,0.594 -0.66,0.568 -0.015,0 -0.028,-0.002 -0.043,-0.004 -0.302,0.022 -0.565,-0.203 -0.588,-0.506 -0.005,-0.056 0,-0.109 0.012,-0.162 0,-0.328 0.266,-0.592 0.593,-0.592 0.035,10e-4 0.072,0.005 0.108,0.01 z"
   id="path1592" />
	<path
   fill="#0070c0"
   d="m 76.068,31.619 -2.922,0.625 -0.256,-0.021 c -0.289,-1.694 -0.521,-3.405 -0.885,-5.085 -0.338,-1.544 0.867,-1.281 1.637,-1.506 0.901,-0.266 1.422,0 1.561,1.049 0.207,1.657 0.576,3.293 0.865,4.938 z"
   id="path1594" />
	<path
   fill="#0070c0"
   d="m 72.266,19.075 c -0.394,-0.066 -0.66,-0.438 -0.598,-0.833 0.042,-0.331 0.346,-0.565 0.676,-0.522 0.016,0.002 0.031,0.005 0.047,0.008 0.34,0.007 0.609,0.289 0.603,0.629 0,0.008 0,0.017 -0.001,0.024 -0.006,0.39 -0.327,0.7 -0.717,0.694 -0.005,0 -0.006,0 -0.01,0 z"
   id="path1596" />
	<path
   fill="#0070c0"
   d="m 53.239,36.849 -1.156,0.289 C 51.734,37 51.505,36.663 51.505,36.288 l 2.601,-0.578 c 0.335,0.85 -0.514,0.812 -0.867,1.139 z"
   id="path1598" />
	<path
   fill="#0070c0"
   d="m 33.649,8.485 c -0.319,0.02 -0.593,-0.223 -0.612,-0.542 -0.002,-0.034 -10e-4,-0.067 0.002,-0.1 -0.021,-0.319 0.22,-0.594 0.538,-0.615 0.035,-0.002 0.069,-10e-4 0.104,0.002 0.346,-0.007 0.632,0.269 0.639,0.615 0,0.01 0,0.021 0,0.029 -0.009,0.397 -0.299,0.567 -0.671,0.611 z"
   id="path1600" />
	<path
   fill="#0070c0"
   d="m 102.635,24.339 c -0.363,-0.089 -0.627,-0.289 -0.621,-0.679 0,-0.471 0.323,-0.683 0.771,-0.604 0.318,0.015 0.566,0.285 0.551,0.604 -0.001,0.034 -0.006,0.068 -0.013,0.102 -0.024,0.344 -0.322,0.604 -0.666,0.58 -0.007,-10e-4 -0.014,-0.002 -0.022,-0.003 z"
   id="path1602" />
	<path
   fill="#0070c0"
   d="m 115.659,45.812 0.577,-0.579 c 0.38,0.338 0.892,0.625 0.535,1.264 -0.099,0.223 -0.336,0.35 -0.578,0.309 -0.58,-0.11 -0.534,-0.581 -0.534,-0.994 z"
   id="path1604" />
	<path
   fill="#0070c0"
   d="m 118.26,76.168 0.848,-0.596 c 0.353,0.289 0.867,0.494 0.676,1.102 -0.076,0.287 -0.342,0.485 -0.639,0.477 -0.622,-0.038 -0.663,-0.608 -0.885,-0.983 z"
   id="path1606" />
	<path
   fill="#0070c0"
   d="m 101.58,79.305 c -0.205,-0.723 0.148,-1.156 0.76,-1.445 0.333,0.269 0.665,0.562 0.445,1.041 -0.245,0.537 -0.745,0.447 -1.205,0.404 z"
   id="path1608" />
	<path
   fill="#0070c0"
   d="m 62.171,34.276 c 1.029,-0.413 2.14,-0.381 3.208,-0.578 -0.043,0.436 -0.25,0.839 -0.581,1.127 l -1.445,0.289 c -0.603,0 -1.089,-0.15 -1.182,-0.838 z"
   id="path1610" />
	<path
   fill="#0070c0"
   d="m 40.813,38.294 c 0.914,-0.387 1.897,-0.583 2.89,-0.578 -0.023,0.578 -0.459,0.853 -0.867,1.133 l -2.023,0.312 z"
   id="path1612" />
	<path
   fill="#0070c0"
   d="m 78.584,58.951 -1.593,-0.986 c -0.014,-0.156 -0.028,-0.31 -0.046,-0.464 l 1.37,-1.276 c 0.14,-0.129 0.202,-0.323 0.162,-0.508 -0.036,-0.187 -0.166,-0.34 -0.345,-0.407 l -1.748,-0.654 c -0.045,-0.151 -0.091,-0.302 -0.138,-0.452 l 1.09,-1.515 c 0.177,-0.246 0.122,-0.587 -0.123,-0.764 -0.071,-0.05 -0.15,-0.084 -0.232,-0.098 l -1.845,-0.301 c -0.071,-0.139 -0.145,-0.277 -0.221,-0.414 l 0.773,-1.701 c 0.08,-0.172 0.063,-0.375 -0.044,-0.532 -0.102,-0.158 -0.282,-0.251 -0.473,-0.243 l -1.872,0.065 C 73.202,48.579 73.105,48.46 73.003,48.344 l 0.432,-1.824 c 0.044,-0.185 -0.014,-0.38 -0.146,-0.512 -0.135,-0.135 -0.328,-0.19 -0.513,-0.146 l -1.823,0.429 c -0.119,-0.1 -0.238,-0.198 -0.358,-0.295 l 0.063,-1.872 c 0.01,-0.189 -0.083,-0.371 -0.24,-0.475 -0.158,-0.106 -0.36,-0.122 -0.533,-0.042 l -1.698,0.775 c -0.138,-0.076 -0.274,-0.15 -0.414,-0.221 l -0.302,-1.845 c -0.048,-0.298 -0.329,-0.502 -0.629,-0.452 -0.085,0.013 -0.163,0.046 -0.232,0.096 l -1.516,1.09 c -0.15,-0.047 -0.3,-0.093 -0.451,-0.137 l -0.654,-1.748 c -0.066,-0.177 -0.22,-0.31 -0.407,-0.346 -0.186,-0.036 -0.377,0.026 -0.507,0.164 L 61.8,42.352 C 61.645,42.336 61.492,42.32 61.336,42.308 l -0.985,-1.593 c -0.16,-0.257 -0.497,-0.336 -0.754,-0.177 -0.073,0.044 -0.134,0.105 -0.178,0.177 l -0.986,1.593 c -0.153,0.013 -0.309,0.027 -0.463,0.044 l -1.277,-1.369 c -0.207,-0.221 -0.551,-0.234 -0.774,-0.027 -0.063,0.057 -0.11,0.13 -0.139,0.211 l -0.653,1.749 c -0.152,0.044 -0.302,0.089 -0.451,0.136 l -1.516,-1.09 c -0.154,-0.111 -0.354,-0.136 -0.53,-0.062 -0.175,0.072 -0.3,0.23 -0.331,0.418 l -0.3,1.844 c -0.14,0.073 -0.277,0.146 -0.415,0.222 l -1.7,-0.775 c -0.173,-0.078 -0.373,-0.062 -0.531,0.042 -0.158,0.105 -0.25,0.285 -0.242,0.475 l 0.064,1.871 c -0.121,0.096 -0.24,0.196 -0.359,0.296 l -1.824,-0.429 c -0.184,-0.043 -0.378,0.012 -0.512,0.146 -0.134,0.133 -0.188,0.329 -0.145,0.513 l 0.429,1.822 c -0.1,0.119 -0.199,0.239 -0.294,0.358 l -1.872,-0.066 c -0.19,-0.005 -0.369,0.087 -0.474,0.244 -0.106,0.157 -0.122,0.359 -0.043,0.532 l 0.774,1.7 c -0.075,0.136 -0.149,0.274 -0.222,0.415 l -1.844,0.3 c -0.299,0.048 -0.502,0.331 -0.452,0.629 0.013,0.084 0.047,0.164 0.095,0.231 l 1.09,1.516 c -0.046,0.15 -0.094,0.3 -0.136,0.452 l -1.749,0.654 c -0.284,0.106 -0.428,0.422 -0.32,0.707 0.031,0.078 0.078,0.15 0.14,0.208 l 1.368,1.274 c -0.016,0.155 -0.032,0.309 -0.045,0.465 l -1.593,0.985 c -0.161,0.1 -0.259,0.277 -0.259,0.467 0,0.188 0.099,0.366 0.259,0.465 l 1.593,0.985 c 0.013,0.156 0.029,0.311 0.045,0.465 l -1.368,1.276 c -0.222,0.206 -0.234,0.553 -0.028,0.774 0.058,0.062 0.129,0.11 0.21,0.139 l 1.749,0.654 c 0.043,0.151 0.089,0.301 0.137,0.451 l -1.091,1.516 c -0.177,0.245 -0.121,0.589 0.123,0.766 0.07,0.05 0.15,0.082 0.234,0.096 l 1.844,0.301 c 0.073,0.14 0.146,0.277 0.222,0.413 l -0.775,1.701 c -0.079,0.173 -0.062,0.375 0.043,0.533 0.104,0.157 0.285,0.25 0.474,0.242 l 1.871,-0.065 c 0.097,0.122 0.195,0.241 0.295,0.36 l -0.434,1.817 c -0.044,0.186 0.012,0.38 0.146,0.513 0.134,0.136 0.33,0.19 0.513,0.146 l 1.823,-0.43 c 0.118,0.101 0.238,0.199 0.359,0.294 L 49.107,74.7 c -0.011,0.303 0.224,0.555 0.528,0.567 0.084,0.002 0.169,-0.014 0.247,-0.05 l 1.701,-0.773 c 0.137,0.076 0.275,0.15 0.414,0.221 l 0.301,1.844 c 0.03,0.188 0.156,0.346 0.331,0.417 0.176,0.074 0.377,0.05 0.53,-0.059 l 1.516,-1.092 c 0.15,0.046 0.3,0.094 0.453,0.137 l 0.653,1.749 c 0.067,0.178 0.22,0.31 0.407,0.345 0.186,0.039 0.377,-0.022 0.506,-0.162 l 1.277,-1.37 c 0.155,0.019 0.31,0.031 0.463,0.049 l 0.986,1.592 c 0.1,0.16 0.276,0.259 0.466,0.259 0.19,0 0.366,-0.099 0.466,-0.259 l 0.985,-1.592 c 0.156,-0.014 0.31,-0.03 0.464,-0.049 l 1.275,1.37 c 0.13,0.14 0.324,0.201 0.507,0.162 0.188,-0.035 0.341,-0.167 0.407,-0.345 l 0.654,-1.749 c 0.151,-0.043 0.301,-0.09 0.452,-0.137 l 1.515,1.092 c 0.246,0.175 0.59,0.121 0.766,-0.125 0.051,-0.068 0.081,-0.148 0.095,-0.232 l 0.301,-1.843 c 0.14,-0.072 0.276,-0.146 0.415,-0.222 l 1.699,0.774 c 0.276,0.127 0.6,0.007 0.725,-0.268 0.036,-0.078 0.053,-0.162 0.049,-0.249 l -0.063,-1.871 c 0.12,-0.098 0.239,-0.193 0.358,-0.295 l 1.823,0.429 c 0.185,0.044 0.378,-0.009 0.513,-0.145 0.133,-0.133 0.189,-0.327 0.146,-0.514 l -0.43,-1.821 c 0.1,-0.118 0.198,-0.239 0.294,-0.36 l 1.872,0.065 c 0.19,0.007 0.371,-0.084 0.475,-0.244 0.105,-0.157 0.124,-0.358 0.042,-0.53 l -0.773,-1.701 c 0.076,-0.139 0.149,-0.275 0.221,-0.414 l 1.845,-0.3 c 0.188,-0.031 0.345,-0.157 0.418,-0.331 0.073,-0.178 0.052,-0.376 -0.063,-0.53 l -1.09,-1.516 c 0.047,-0.15 0.093,-0.3 0.138,-0.451 l 1.748,-0.654 c 0.177,-0.065 0.309,-0.218 0.345,-0.407 0.04,-0.186 -0.022,-0.377 -0.162,-0.506 l -1.37,-1.276 c 0.018,-0.154 0.032,-0.309 0.046,-0.465 l 1.593,-0.985 c 0.161,-0.099 0.26,-0.276 0.26,-0.465 -0.003,-0.188 -0.102,-0.366 -0.263,-0.464 z M 67.929,72.155 c -0.607,-0.131 -0.995,-0.73 -0.865,-1.34 0.132,-0.611 0.729,-0.995 1.338,-0.866 0.606,0.131 0.995,0.731 0.864,1.34 -0.129,0.607 -0.728,0.996 -1.337,0.866 z M 67.39,68.497 c -0.554,-0.119 -1.1,0.233 -1.221,0.788 v 0.001 l -0.565,2.638 c -1.745,0.793 -3.681,1.233 -5.721,1.233 -2.088,0 -4.066,-0.462 -5.841,-1.287 l -0.565,-2.638 c -0.118,-0.555 -0.664,-0.909 -1.219,-0.791 l -2.328,0.501 c -0.432,-0.445 -0.835,-0.918 -1.205,-1.419 h 11.331 c 0.127,0 0.214,-0.025 0.214,-0.14 v -4.008 c 0,-0.116 -0.085,-0.141 -0.214,-0.141 h -3.312 v -2.541 h 3.583 c 0.327,0 1.749,0.095 2.203,1.912 0.143,0.561 0.455,2.377 0.67,2.96 0.212,0.652 1.079,1.957 2.006,1.957 h 5.646 c 0.063,0 0.132,-0.007 0.203,-0.02 -0.392,0.531 -0.82,1.035 -1.284,1.505 z m -15.67,3.604 c -0.609,0.133 -1.208,-0.256 -1.339,-0.867 -0.128,-0.608 0.256,-1.208 0.864,-1.338 0.609,-0.132 1.208,0.257 1.339,0.865 0.128,0.608 -0.259,1.209 -0.864,1.34 z M 47.421,54.672 c 0.251,0.569 -0.005,1.236 -0.574,1.487 -0.568,0.254 -1.233,-0.003 -1.484,-0.573 -0.253,-0.568 0.004,-1.234 0.573,-1.487 0.567,-0.253 1.233,0.004 1.485,0.573 0,-10e-4 0,-10e-4 0,0 z m -1.321,3.132 2.425,-1.08 c 0.518,-0.229 0.752,-0.837 0.521,-1.355 l -0.499,-1.13 h 1.963 v 8.857 h -3.962 c -0.352,-1.238 -0.529,-2.517 -0.528,-3.803 10e-4,-0.504 0.028,-1.001 0.08,-1.489 z m 10.644,-0.861 v -2.61 h 4.68 c 0.241,0 1.706,0.279 1.706,1.374 0,0.91 -1.123,1.235 -2.049,1.235 z m 17.003,2.35 c 0,0.345 -0.01,0.688 -0.038,1.029 h -1.422 c -0.143,0 -0.2,0.095 -0.2,0.233 v 0.653 c 0,1.537 -0.868,1.873 -1.626,1.958 -0.725,0.081 -1.527,-0.304 -1.626,-0.747 -0.425,-2.402 -1.138,-2.913 -2.261,-3.799 1.394,-0.884 2.844,-2.191 2.844,-3.939 0,-1.887 -1.293,-3.076 -2.174,-3.658 -1.239,-0.817 -2.608,-0.98 -2.978,-0.98 H 49.558 c 1.994,-2.227 4.698,-3.804 7.756,-4.377 l 1.733,1.819 c 0.391,0.41 1.041,0.426 1.45,0.035 l 10e-4,-0.001 1.94,-1.854 c 4.064,0.756 7.505,3.287 9.49,6.759 L 70.6,55.425 c -0.229,0.519 0.003,1.126 0.521,1.355 l 2.559,1.136 c 0.045,0.452 0.067,0.911 0.067,1.377 z m -14.7,-15.172 c 0.448,-0.431 1.161,-0.413 1.593,0.036 0.429,0.451 0.413,1.165 -0.038,1.596 -0.449,0.43 -1.161,0.413 -1.593,-0.037 -0.427,-0.453 -0.411,-1.166 0.038,-1.595 z m 13.181,10.607 c 0.252,-0.569 0.914,-0.825 1.483,-0.575 0,0 0.001,0 0.001,0.001 0.569,0.251 0.824,0.919 0.573,1.488 -0.251,0.569 -0.914,0.824 -1.482,0.574 0,0 -10e-4,0 -10e-4,-10e-4 -0.57,-0.252 -0.826,-0.919 -0.574,-1.487 z"
   id="path1614" />
</g>
<rect
   style="fill:none;stroke-width:0.755906"
   id="rect3117"
   width="182.52431"
   height="137.50436"
   x="-23.42667"
   y="-8.148407" /></svg>
