<svg width="1907" height="1242" xmlns="http://www.w3.org/2000/svg" xmlns:xlink="http://www.w3.org/1999/xlink" xml:space="preserve" overflow="hidden"><g transform="translate(-1773 -554)"><g><path d="M3559 1254 2092 1254 2092 1464 2825.5 1464 3559 1464 3559 1254Z" fill="#E7F6FF" fill-rule="evenodd" fill-opacity="1"/><text fill="#000000" fill-opacity="1" font-family="Arial,Arial_MSFontService,sans-serif" font-style="normal" font-variant="normal" font-weight="700" font-stretch="normal" font-size="100" text-anchor="start" direction="ltr" writing-mode="lr-tb" unicode-bidi="normal" text-decoration="none" transform="matrix(1 0 0 1 3065.46 1392)">Logic 0</text><path d="M3559 865 2092 865 2092 1075 2825.5 1075 3559 1075 3559 865Z" fill="#E7F6FF" fill-rule="evenodd" fill-opacity="1"/><text fill="#000000" fill-opacity="1" font-family="Arial,Arial_MSFontService,sans-serif" font-style="normal" font-variant="normal" font-weight="700" font-stretch="normal" font-size="100" text-anchor="start" direction="ltr" writing-mode="lr-tb" unicode-bidi="normal" text-decoration="none" transform="matrix(1 0 0 1 2172.62 1003)">Logic </text><text fill="#000000" fill-opacity="1" font-family="Arial,Arial_MSFontService,sans-serif" font-style="normal" font-variant="normal" font-weight="700" font-stretch="normal" font-size="100" text-anchor="start" direction="ltr" writing-mode="lr-tb" unicode-bidi="normal" text-decoration="none" transform="matrix(1 0 0 1 2465.38 1003)">1</text><path d="M3559 1075 2092 1075 2092 1254 2825.5 1254 3559 1254 3559 1075Z" fill="#FFCCCC" fill-rule="evenodd" fill-opacity="1"/><path d="M2092.5 1554.5 2092.5 776.5" stroke="#000000" stroke-width="1.14583" stroke-linecap="butt" stroke-linejoin="round" stroke-miterlimit="10" stroke-opacity="1" fill="none" fill-rule="evenodd"/><path d="M2091.5 726 2074 779 2109 779 2091.5 726Z" fill="#000000" fill-rule="evenodd" fill-opacity="1"/><path d="M2092.5 1554.5 3538.5 1555.5" stroke="#000000" stroke-width="1.14583" stroke-linecap="butt" stroke-linejoin="round" stroke-miterlimit="10" stroke-opacity="1" fill="none" fill-rule="evenodd"/><path d="M3536 1537 3536 1572 3589 1554.5 3536 1537Z" fill="#000000" fill-rule="evenodd" fill-opacity="1"/><text fill="#000000" fill-opacity="1" font-family="Arial,Arial_MSFontService,sans-serif" font-style="italic" font-variant="normal" font-weight="400" font-stretch="normal" font-size="133" text-anchor="start" direction="ltr" writing-mode="lr-tb" unicode-bidi="normal" text-decoration="none" transform="matrix(1 0 0 1 3558.65 1685)">t</text><text fill="#000000" fill-opacity="1" font-family="Arial,Arial_MSFontService,sans-serif" font-style="italic" font-variant="normal" font-weight="400" font-stretch="normal" font-size="133" text-anchor="start" direction="ltr" writing-mode="lr-tb" unicode-bidi="normal" text-decoration="none" transform="matrix(1 0 0 1 2008.45 724)">v</text><path d="M2092.5 865.5 3554.93 865.5" stroke="#0000CC" stroke-width="6.6148" stroke-linecap="square" stroke-linejoin="round" stroke-miterlimit="10" stroke-dasharray="19.8444 6.6148" stroke-opacity="1" fill="none" fill-rule="evenodd"/><path d="M2097.07 1464.5 3559.5 1464.5" stroke="#0000CC" stroke-width="6.6148" stroke-linecap="square" stroke-linejoin="round" stroke-miterlimit="10" stroke-dasharray="19.8444 6.6148" stroke-opacity="1" fill="none" fill-rule="evenodd"/><path d="M2096.5 1254.5 3559.5 1254.5" stroke="#009900" stroke-width="6.6148" stroke-linecap="square" stroke-linejoin="round" stroke-miterlimit="10" stroke-dasharray="19.8444 6.6148" stroke-opacity="1" fill="none" fill-rule="evenodd"/><path d="M2096.5 1075.5 3559.5 1075.5" stroke="#009900" stroke-width="6.6148" stroke-linecap="square" stroke-linejoin="round" stroke-miterlimit="10" stroke-dasharray="19.8444 6.6148" stroke-opacity="1" fill="none" fill-rule="evenodd"/><path d="M2092.5 1472.72 2095.68 1466.52 2098.47 1463.43 2100.9 1463 2103.01 1464.78 2107.89 1478.85 2110.33 1491.03 2111.43 1496.6 2112.5 1501.23 2113.6 1504.46 2114.75 1505.86 2116.01 1504.95 2120.78 1483.98 2122.85 1469.39 2124.97 1452.67 2126.89 1435.59 2128.83 1418.48 2131.02 1401.69 2133.66 1385.54 2136.99 1370.37 2141.02 1357.11 2147.65 1349.41 2150.45 1352.99 2153.02 1360.17 2155.46 1369.98 2157.87 1381.39 2160.33 1393.42 2162.95 1405.07 2165.81 1415.33 2169.01 1423.21 2178.32 1436.03 2187.05 1437.77 2196.32 1431.4 2207.27 1419.88 2215.4 1416.27 2231.58 1431.72 2238.99 1446.38 2245.52 1462.74 2253.1 1485.06 2257.64 1497.42 2262.46 1508.4 2267.41 1516.38 2272.3 1519.72 2276.98 1516.81 2281.28 1506.01 2283.72 1496.95 2286.75 1486.95 2290.21 1477.22 2293.93 1468.98 2297.74 1463.45 2301.46 1461.84 2304.92 1465.37 2307.95 1475.25 2310.39 1492.69 2312.7 1509.41 2315.51 1519.18 2318.72 1523.05 2322.25 1522.05 2326.01 1517.23 2329.92 1509.61 2333.89 1500.25 2337.83 1490.17 2341.66 1480.42 2345.3 1472.04 2348.64 1466.06 2357.49 1459.47 2365.64 1462.47 2373.19 1471.76 2380.24 1484.04 2386.9 1496.02 2393.87 1503.17 2400.96 1503.89 2408.39 1503.03 2416.38 1505.45 2425.15 1515.99 2431.73 1521.9 2438.72 1519.29 2452.2 1496.33 2457.83 1479.88 2462.16 1462.74 2465.71 1444.74 2469.11 1425.97 2472.66 1407.45 2476.7 1390.22 2481.55 1375.3 2487.53 1363.72 2493.1 1358.95 2498.01 1361.16 2505.87 1380.72 2508.89 1395.18 2511.32 1410.82 2513.2 1426.19 2514.55 1439.85 2517.16 1457.23 2521.11 1465.24 2525.99 1466.68 2531.36 1464.34 2536.8 1461.04 2541.87 1459.57 2546.16 1462.74 2550.55 1472.84 2554.61 1485.96 2558.58 1499.9 2562.69 1512.42 2567.17 1521.31 2572.25 1524.35 2578.17 1519.32 2585 1506.8 2591.05 1492.09 2596.52 1475.79 2601.61 1458.48 2606.52 1440.76 2611.44 1423.21 2615.07 1408.07 2618.14 1391.98 2620.79 1375.21 2623.17 1358.06 2625.42 1340.82 2627.66 1323.78 2630.28 1306.68 2633.12 1289.86 2636.13 1273.28 2639.24 1256.87 2642.39 1240.58 2645.54 1224.34 2648.73 1207.15 2651.79 1189.6 2654.94 1172.13 2658.41 1155.22 2662.41 1139.32 2667.16 1124.91 2672.02 1109.92 2675.72 1093.6 2678.75 1076.49 2681.6 1059.14 2684.78 1042.09 2688.78 1025.89 2693.38 1009.32 2697.68 992.22 2701.83 974.82 2705.94 957.349 2710.14 940.041 2714.56 923.126 2718.82 905.848 2722.99 888.086 2727.24 870.392 2731.78 853.323 2736.78 837.432 2742.42 823.275 2749.09 808.835 2755.43 793.874 2761.55 778.498 2767.52 762.81 2773.45 746.913 2779.43 730.913 2785.38 719.352 2791.04 715.5 2796.33 717.859 2805.59 735.224 2809.43 747.236 2812.65 759.473 2818.86 788.522 2822.55 806.941 2826.47 824.991 2830.84 841.966 2835.87 857.161 2841.8 869.872 2848.65 883.861 2855.51 899.009 2862.76 911.78 2870.81 918.639 2880.06 916.053 2890.54 909.481 2901.21 902.792 2910.87 891.188 2918.31 869.872 2922.84 850.225 2928.08 831.416 2934.27 814.485 2941.61 800.469 2950.33 790.407 2960.63 786.514 2970.08 790.147 2979.22 797.135 2988.58 803.305 2998.13 808.876 3007.56 815.422 3017.06 821.734 3026.84 826.603 3036.05 825.568 3044.02 816.725 3051.21 803.448 3058.08 789.113 3065.09 777.094 3071.42 771.739 3076.33 773.571 3080.23 780.882 3083.55 791.968 3086.69 805.12 3090.06 818.634 3094.09 830.801 3109.03 849.921 3128.08 863.378 3137.45 869.872 3142.61 871.187 3147.98 869.001 3153.34 865.352 3158.45 862.279 3170.07 876.891 3171.96 896.499 3172.88 913.229 3174.01 931.204 3175.55 949.172 3177.7 965.88 3180.66 980.078 3189.84 995.934 3195.54 994.159 3199.42 984.845 3201.94 970.029 3203.56 951.748 3204.76 932.041 3205.99 912.945 3207.72 896.499 3210.58 879.512 3213.97 863.231 3217.6 847.25 3221.15 831.164 3224.33 814.571 3226.85 797.064 3229.28 780.104 3231.77 769.064 3234.29 763.216 3236.83 761.834 3239.36 764.19 3244.34 777.207 3249.08 796.45 3251.31 806.589 3253.42 816.103 3257.2 830.348 3266.1 847.353 3275.71 856.559 3295.46 866.544 3313.96 872.524 3323.52 870.347 3339.19 855.034 3346.03 829.824 3348.25 815.767 3350.25 802.723 3352.44 792.179 3355.26 785.621 3359.13 784.535 3364.48 790.407 3369.68 801.875 3373.46 816.834 3376.23 834.196 3378.37 852.876 3380.29 871.786 3382.36 889.842 3383.82 906.684 3384.44 924.59 3384.86 942.68 3385.69 960.077 3387.56 975.902 3391.09 989.277 3392.78 995.121 3394.21 1003.29 3395.44 1013.01 3396.51 1023.49 3397.47 1033.94 3398.35 1043.57 3399.22 1051.6 3400.11 1057.25 3401.06 1059.72 3402.13 1058.23 3404.8 1040.23 3406.48 1022.14 3407.61 1005.42 3408.33 988.337 3408.97 971.231 3409.9 954.437 3411.45 938.29 3413.96 923.126 3416.17 909.834 3417.76 894.334 3419.11 878.083 3420.62 862.539 3422.67 849.16 3429.97 834.727 3436 836.588 3446.48 843.219 3456.17 845.013 3465.24 841.035 3473.84 830.348 3478.55 822.309 3483.69 814.082 3489.11 807.565 3494.67 804.657 3500.24 807.259 3505.68 817.269 3510.85 836.588 3517.76 852.665 3527.79 857.859 3538.92 854.082 3549.1 843.245 3559.5 836.588" stroke="#000000" stroke-width="13.23" stroke-linecap="butt" stroke-linejoin="round" stroke-miterlimit="10" stroke-opacity="1" fill="none" fill-rule="evenodd"/><text fill="#0000CC" fill-opacity="1" font-family="Arial,Arial_MSFontService,sans-serif" font-style="italic" font-variant="normal" font-weight="400" font-stretch="normal" font-size="133" text-anchor="start" direction="ltr" writing-mode="lr-tb" unicode-bidi="normal" text-decoration="none" transform="matrix(1 0 0 1 1857.76 888)">V</text><text fill="#0000CC" fill-opacity="1" font-family="Arial,Arial_MSFontService,sans-serif" font-style="italic" font-variant="normal" font-weight="400" font-stretch="normal" font-size="77" text-anchor="start" direction="ltr" writing-mode="lr-tb" unicode-bidi="normal" text-decoration="none" transform="matrix(1 0 0 1 1946.36 946)">O</text><text fill="#0000CC" fill-opacity="1" font-family="Arial,Arial_MSFontService,sans-serif" font-style="italic" font-variant="normal" font-weight="400" font-stretch="normal" font-size="77" text-anchor="start" direction="ltr" writing-mode="lr-tb" unicode-bidi="normal" text-decoration="none" transform="matrix(1 0 0 1 2005.72 946)">H</text><text fill="#0000CC" fill-opacity="1" font-family="Arial,Arial_MSFontService,sans-serif" font-style="italic" font-variant="normal" font-weight="400" font-stretch="normal" font-size="133" text-anchor="start" direction="ltr" writing-mode="lr-tb" unicode-bidi="normal" text-decoration="none" transform="matrix(1 0 0 1 1870.24 1487)">V</text><text fill="#009900" fill-opacity="1" font-family="Arial,Arial_MSFontService,sans-serif" font-style="italic" font-variant="normal" font-weight="400" font-stretch="normal" font-size="133" text-anchor="start" direction="ltr" writing-mode="lr-tb" unicode-bidi="normal" text-decoration="none" transform="matrix(1 0 0 1 1911.42 1283)">V</text><text fill="#009900" fill-opacity="1" font-family="Arial,Arial_MSFontService,sans-serif" font-style="italic" font-variant="normal" font-weight="400" font-stretch="normal" font-size="77" text-anchor="start" direction="ltr" writing-mode="lr-tb" unicode-bidi="normal" text-decoration="none" transform="matrix(1 0 0 1 2000.44 1341)">I</text><text fill="#009900" fill-opacity="1" font-family="Arial,Arial_MSFontService,sans-serif" font-style="italic" font-variant="normal" font-weight="400" font-stretch="normal" font-size="77" text-anchor="start" direction="ltr" writing-mode="lr-tb" unicode-bidi="normal" text-decoration="none" transform="matrix(1 0 0 1 2021.23 1341)">L</text><text fill="#009900" fill-opacity="1" font-family="Arial,Arial_MSFontService,sans-serif" font-style="italic" font-variant="normal" font-weight="400" font-stretch="normal" font-size="133" text-anchor="start" direction="ltr" writing-mode="lr-tb" unicode-bidi="normal" text-decoration="none" transform="matrix(1 0 0 1 1898.94 1103)">V</text><text fill="#009900" fill-opacity="1" font-family="Arial,Arial_MSFontService,sans-serif" font-style="italic" font-variant="normal" font-weight="400" font-stretch="normal" font-size="77" text-anchor="start" direction="ltr" writing-mode="lr-tb" unicode-bidi="normal" text-decoration="none" transform="matrix(1 0 0 1 1987.96 1161)">I</text><text fill="#009900" fill-opacity="1" font-family="Arial,Arial_MSFontService,sans-serif" font-style="italic" font-variant="normal" font-weight="400" font-stretch="normal" font-size="77" text-anchor="start" direction="ltr" writing-mode="lr-tb" unicode-bidi="normal" text-decoration="none" transform="matrix(1 0 0 1 2008.75 1161)">H</text><text fill="#0000CC" fill-opacity="1" font-family="Arial,Arial_MSFontService,sans-serif" font-style="italic" font-variant="normal" font-weight="400" font-stretch="normal" font-size="77" text-anchor="start" direction="ltr" writing-mode="lr-tb" unicode-bidi="normal" text-decoration="none" transform="matrix(1 0 0 1 1958.84 1545)">OL</text></g></g></svg>