<svg xmlns="http://www.w3.org/2000/svg" width="800" height="84" viewBox="0 0 800 84" class="WaveDrom"><g transform="translate(0.5,0.5)" text-anchor="middle" font-size="14" font-family="sans-serif" font-weight="normal"><g transform="translate(4,21)"><g stroke="black" stroke-width="1" stroke-linecap="round"><line x2="791"/><line y2="31"/><line x2="791" y1="31" y2="31"/><line x1="791" x2="791" y2="31"/><line x1="692" x2="692" y2="31"/><line x1="593" x2="593" y2="3"/><line x1="593" x2="593" y1="31" y2="28"/><line x1="494" x2="494" y2="3"/><line x1="494" x2="494" y1="31" y2="28"/><line x1="396" x2="396" y2="3"/><line x1="396" x2="396" y1="31" y2="28"/><line x1="297" x2="297" y2="3"/><line x1="297" x2="297" y1="31" y2="28"/><line x1="198" x2="198" y2="3"/><line x1="198" x2="198" y1="31" y2="28"/><line x1="99" x2="99" y2="3"/><line x1="99" x2="99" y1="31" y2="28"/></g><g><g><rect x="692" width="99" height="31" field="R/W" style="fill-opacity:0.1;fill:#aaff00"/><rect width="692" height="31" field="7 bit address" style="fill-opacity:0.1;fill:#ffbf00"/></g><g transform="translate(49,-11)"><g transform="translate(692)"><text y="6">0</text></g><g transform="translate(593)"><text y="6">1</text></g><g transform="translate(0)"><text y="6">7</text></g></g><g transform="translate(49,15)"><g transform="translate(692)"><text y="6"><tspan>R/W</tspan></text></g><g transform="translate(297)"><text y="6"><tspan>7 bit address</tspan></text></g></g><g transform="translate(49,39)"><g><g transform="translate(692)"><text y="6"><tspan>1 - Read</tspan></text></g><g transform="translate(692,14)"><text y="6"><tspan>0 - Write</tspan></text></g></g><g><g transform="translate(297)"><text y="6"><tspan>Address</tspan></text></g></g></g></g></g></g></svg>