<svg xmlns="http://www.w3.org/2000/svg" width="1200" height="168" viewBox="0 0 1200 168" class="WaveDrom"><g transform="translate(0.5,0.5)" text-anchor="middle" font-size="14" font-family="sans-serif" font-weight="normal"><g transform="translate(4,105)"><g stroke="black" stroke-width="1" stroke-linecap="round"><line x2="1191"/><line y2="31"/><line x2="1191" y1="31" y2="31"/><line x1="1191" x2="1191" y2="31"/><line x1="1117" x2="1117" y2="31"/><line x1="1042" x2="1042" y2="31"/><line x1="968" x2="968" y2="31"/><line x1="893" x2="893" y2="31"/><line x1="819" x2="819" y2="31"/><line x1="744" x2="744" y2="31"/><line x1="670" x2="670" y2="31"/><line x1="596" x2="596" y2="31"/><line x1="521" x2="521" y2="31"/><line x1="447" x2="447" y2="3"/><line x1="447" x2="447" y1="31" y2="28"/><line x1="372" x2="372" y2="3"/><line x1="372" x2="372" y1="31" y2="28"/><line x1="298" x2="298" y2="31"/><line x1="223" x2="223" y2="3"/><line x1="223" x2="223" y1="31" y2="28"/><line x1="149" x2="149" y2="3"/><line x1="149" x2="149" y1="31" y2="28"/><line x1="74" x2="74" y2="3"/><line x1="74" x2="74" y1="31" y2="28"/></g><g><g><rect x="1117" width="74" height="31" field="P" style="fill-opacity:0.1;fill:#00ff19"/><rect x="1042" width="74" height="31" field="R/W" style="fill-opacity:0.1;fill:#006aff"/><rect x="968" width="74" height="31" field="U/S" style="fill-opacity:0.1;fill:#006aff"/><rect x="893" width="74" height="31" field="PWT" style="fill-opacity:0.1;fill:#ff0000"/><rect x="819" width="74" height="31" field="PCD" style="fill-opacity:0.1;fill:#ff0000"/><rect x="744" width="74" height="31" field="A" style="fill-opacity:0.1;fill:#00ffd5"/><rect x="670" width="74" height="31" field="D" style="fill-opacity:0.1;fill:#00ffd5"/><rect x="596" width="74" height="31" field="PAT" style="fill-opacity:0.1;fill:#ff0000"/><rect x="521" width="74" height="31" field="G" style="fill-opacity:0.1;fill:#ff0000"/><rect x="298" width="223" height="31" field="AVL" style="fill-opacity:0.1;fill:#ffbf00"/><rect width="298" height="31" field="Frame Number" style="fill-opacity:0.1;fill:#aaff00"/></g><g transform="translate(37,-11)"><g transform="translate(1117)"><text y="6">0</text></g><g transform="translate(1042)"><text y="6">1</text></g><g transform="translate(968)"><text y="6">2</text></g><g transform="translate(893)"><text y="6">3</text></g><g transform="translate(819)"><text y="6">4</text></g><g transform="translate(744)"><text y="6">5</text></g><g transform="translate(670)"><text y="6">6</text></g><g transform="translate(596)"><text y="6">7</text></g><g transform="translate(521)"><text y="6">8</text></g><g transform="translate(447)"><text y="6">9</text></g><g transform="translate(298)"><text y="6">11</text></g><g transform="translate(223)"><text y="6">12</text></g><g transform="translate(0)"><text y="6">15</text></g></g><g transform="translate(37,15)"><g transform="translate(1117)"><text y="6"><tspan>P</tspan></text></g><g transform="translate(1042)"><text y="6"><tspan>R/W</tspan></text></g><g transform="translate(968)"><text y="6"><tspan>U/S</tspan></text></g><g transform="translate(893)"><text y="6"><tspan>PWT</tspan></text></g><g transform="translate(819)"><text y="6"><tspan>PCD</tspan></text></g><g transform="translate(744)"><text y="6"><tspan>A</tspan></text></g><g transform="translate(670)"><text y="6"><tspan>D</tspan></text></g><g transform="translate(596)"><text y="6"><tspan>PAT</tspan></text></g><g transform="translate(521)"><text y="6"><tspan>G</tspan></text></g><g transform="translate(372)"><text y="6"><tspan>AVL</tspan></text></g><g transform="translate(112)"><text y="6"><tspan>Frame Number</tspan></text></g></g><g transform="translate(37,39)"><g><g transform="translate(1117)"><text y="6"><tspan>0: Invalid</tspan></text></g><g transform="translate(1117,14)"><text y="6"><tspan>1: Valid</tspan></text></g></g><g><g transform="translate(1042)"><text y="6"><tspan>0 - R</tspan></text></g><g transform="translate(1042,14)"><text y="6"><tspan>1 - RW</tspan></text></g></g><g><g transform="translate(968)"><text y="6"><tspan>0: User</tspan></text></g><g transform="translate(968,14)"><text y="6"><tspan>1: Super</tspan></text></g></g><g><g transform="translate(893)"><text y="6"><tspan>0 - W Back</tspan></text></g><g transform="translate(893,14)"><text y="6"><tspan>1 - W Through</tspan></text></g></g><g><g transform="translate(819)"><text y="6"><tspan>Cache</tspan></text></g></g><g><g transform="translate(744)"><text y="6"><tspan>Accessed</tspan></text></g></g><g><g transform="translate(670)"><text y="6"><tspan>Dirty</tspan></text></g></g><g><g transform="translate(596)"><text y="6"><tspan>Attributes</tspan></text></g></g><g><g transform="translate(521)"><text y="6"><tspan>Global</tspan></text></g></g><g><g transform="translate(372)"><text y="6"><tspan>available for OS</tspan></text></g></g><g/></g></g></g><g transform="translate(4,21)"><g stroke="black" stroke-width="1" stroke-linecap="round"><line x2="1191"/><line y2="31"/><line x2="1191" y1="31" y2="31"/><line x1="1191" x2="1191" y2="31"/><line x1="1117" x2="1117" y2="3"/><line x1="1117" x2="1117" y1="31" y2="28"/><line x1="1042" x2="1042" y2="3"/><line x1="1042" x2="1042" y1="31" y2="28"/><line x1="968" x2="968" y2="3"/><line x1="968" x2="968" y1="31" y2="28"/><line x1="893" x2="893" y2="3"/><line x1="893" x2="893" y1="31" y2="28"/><line x1="819" x2="819" y2="3"/><line x1="819" x2="819" y1="31" y2="28"/><line x1="744" x2="744" y2="3"/><line x1="744" x2="744" y1="31" y2="28"/><line x1="670" x2="670" y2="3"/><line x1="670" x2="670" y1="31" y2="28"/><line x1="596" x2="596" y2="3"/><line x1="596" x2="596" y1="31" y2="28"/><line x1="521" x2="521" y2="3"/><line x1="521" x2="521" y1="31" y2="28"/><line x1="447" x2="447" y2="3"/><line x1="447" x2="447" y1="31" y2="28"/><line x1="372" x2="372" y2="3"/><line x1="372" x2="372" y1="31" y2="28"/><line x1="298" x2="298" y2="3"/><line x1="298" x2="298" y1="31" y2="28"/><line x1="223" x2="223" y2="3"/><line x1="223" x2="223" y1="31" y2="28"/><line x1="149" x2="149" y2="3"/><line x1="149" x2="149" y1="31" y2="28"/><line x1="74" x2="74" y2="3"/><line x1="74" x2="74" y1="31" y2="28"/></g><g><g><rect width="1191" height="31" field="Frame Number" style="fill-opacity:0.1;fill:#aaff00"/></g><g transform="translate(37,-11)"><g transform="translate(1117)"><text y="6">16</text></g><g transform="translate(0)"><text y="6">31</text></g></g><g transform="translate(37,15)"><g transform="translate(558)"><text y="6"><tspan>Frame Number</tspan></text></g></g><g transform="translate(37,39)"><g/></g></g></g></g></svg>