<?xml version="1.0" encoding="utf-8" standalone="no"?>
<!DOCTYPE svg PUBLIC "-//W3C//DTD SVG 1.1//EN"
  "http://www.w3.org/Graphics/SVG/1.1/DTD/svg11.dtd">
<svg xmlns:xlink="http://www.w3.org/1999/xlink" width="440.39952pt" height="332.39952pt" viewBox="0 0 440.39952 332.39952" xmlns="http://www.w3.org/2000/svg" version="1.1">
 <metadata>
  <rdf:RDF xmlns:dc="http://purl.org/dc/elements/1.1/" xmlns:cc="http://creativecommons.org/ns#" xmlns:rdf="http://www.w3.org/1999/02/22-rdf-syntax-ns#">
   <cc:Work>
    <dc:type rdf:resource="http://purl.org/dc/dcmitype/StillImage"/>
    <dc:date>2023-04-20T14:55:45.702838</dc:date>
    <dc:format>image/svg+xml</dc:format>
    <dc:creator>
     <cc:Agent>
      <dc:title>Matplotlib v3.5.2, https://matplotlib.org/</dc:title>
     </cc:Agent>
    </dc:creator>
   </cc:Work>
  </rdf:RDF>
 </metadata>
 <defs>
  <style type="text/css">*{stroke-linejoin: round; stroke-linecap: butt}</style>
 </defs>
 <g id="figure_1">
  <g id="patch_1">
   <path d="M 0 332.39952 
L 440.39952 332.39952 
L 440.39952 0 
L 0 0 
L 0 332.39952 
z
" style="fill: none"/>
  </g>
  <g id="axes_1">
   <g id="patch_2">
    <path d="M 41.145691 88.138275 
L 433.19952 88.138275 
L 433.19952 12.189765 
L 41.145691 12.189765 
L 41.145691 88.138275 
z
" style="fill: none"/>
   </g>
   <g id="matplotlib.axis_1">
    <g id="xtick_1">
     <g id="line2d_1">
      <path d="M 41.145691 88.138275 
L 41.145691 12.189765 
" clip-path="url(#p7a83abddff)" style="fill: none; stroke: #000000; stroke-opacity: 0.2; stroke-width: 0.5; stroke-linecap: round"/>
     </g>
     <g id="line2d_2">
      <defs>
       <path id="mcecbf8cdd3" d="M 0 0 
L 0 3.5 
" style="stroke: #000000; stroke-opacity: 0.2; stroke-width: 0.5"/>
      </defs>
      <g>
       <use xlink:href="#mcecbf8cdd3" x="41.145691" y="88.138275" style="fill-opacity: 0.2; stroke: #000000; stroke-opacity: 0.2; stroke-width: 0.5"/>
      </g>
     </g>
    </g>
    <g id="xtick_2">
     <g id="line2d_3">
      <path d="M 106.509784 88.138275 
L 106.509784 12.189765 
" clip-path="url(#p7a83abddff)" style="fill: none; stroke: #000000; stroke-opacity: 0.2; stroke-width: 0.5; stroke-linecap: round"/>
     </g>
     <g id="line2d_4">
      <g>
       <use xlink:href="#mcecbf8cdd3" x="106.509784" y="88.138275" style="fill-opacity: 0.2; stroke: #000000; stroke-opacity: 0.2; stroke-width: 0.5"/>
      </g>
     </g>
    </g>
    <g id="xtick_3">
     <g id="line2d_5">
      <path d="M 171.873877 88.138275 
L 171.873877 12.189765 
" clip-path="url(#p7a83abddff)" style="fill: none; stroke: #000000; stroke-opacity: 0.2; stroke-width: 0.5; stroke-linecap: round"/>
     </g>
     <g id="line2d_6">
      <g>
       <use xlink:href="#mcecbf8cdd3" x="171.873877" y="88.138275" style="fill-opacity: 0.2; stroke: #000000; stroke-opacity: 0.2; stroke-width: 0.5"/>
      </g>
     </g>
    </g>
    <g id="xtick_4">
     <g id="line2d_7">
      <path d="M 237.237969 88.138275 
L 237.237969 12.189765 
" clip-path="url(#p7a83abddff)" style="fill: none; stroke: #000000; stroke-opacity: 0.2; stroke-width: 0.5; stroke-linecap: round"/>
     </g>
     <g id="line2d_8">
      <g>
       <use xlink:href="#mcecbf8cdd3" x="237.237969" y="88.138275" style="fill-opacity: 0.2; stroke: #000000; stroke-opacity: 0.2; stroke-width: 0.5"/>
      </g>
     </g>
    </g>
    <g id="xtick_5">
     <g id="line2d_9">
      <path d="M 302.602062 88.138275 
L 302.602062 12.189765 
" clip-path="url(#p7a83abddff)" style="fill: none; stroke: #000000; stroke-opacity: 0.2; stroke-width: 0.5; stroke-linecap: round"/>
     </g>
     <g id="line2d_10">
      <g>
       <use xlink:href="#mcecbf8cdd3" x="302.602062" y="88.138275" style="fill-opacity: 0.2; stroke: #000000; stroke-opacity: 0.2; stroke-width: 0.5"/>
      </g>
     </g>
    </g>
    <g id="xtick_6">
     <g id="line2d_11">
      <path d="M 367.966155 88.138275 
L 367.966155 12.189765 
" clip-path="url(#p7a83abddff)" style="fill: none; stroke: #000000; stroke-opacity: 0.2; stroke-width: 0.5; stroke-linecap: round"/>
     </g>
     <g id="line2d_12">
      <g>
       <use xlink:href="#mcecbf8cdd3" x="367.966155" y="88.138275" style="fill-opacity: 0.2; stroke: #000000; stroke-opacity: 0.2; stroke-width: 0.5"/>
      </g>
     </g>
    </g>
   </g>
   <g id="matplotlib.axis_2">
    <g id="ytick_1">
     <g id="line2d_13">
      <path d="M 41.145691 88.138275 
L 433.19952 88.138275 
" clip-path="url(#p7a83abddff)" style="fill: none; stroke: #000000; stroke-opacity: 0.2; stroke-width: 0.5; stroke-linecap: round"/>
     </g>
     <g id="line2d_14">
      <defs>
       <path id="m47b065775d" d="M 0 0 
L -3.5 0 
" style="stroke: #000000; stroke-opacity: 0.2; stroke-width: 0.5"/>
      </defs>
      <g>
       <use xlink:href="#m47b065775d" x="41.145691" y="88.138275" style="fill-opacity: 0.2; stroke: #000000; stroke-opacity: 0.2; stroke-width: 0.5"/>
      </g>
     </g>
     <g id="text_1">
      <!-- $\mathdefault{−1}$ -->
      <g transform="translate(7.2 93.128039)scale(0.14 -0.14)">
       <defs>
        <path id="CMSY10-0" d="M 4218 1472 
C 4326 1472 4442 1472 4442 1600 
C 4442 1728 4326 1728 4218 1728 
L 755 1728 
C 646 1728 531 1728 531 1600 
C 531 1472 646 1472 755 1472 
L 4218 1472 
z
" transform="scale(0.015625)"/>
        <path id="URWPalladioL-Roma-31" d="M 429 3571 
L 493 3571 
L 1318 3942 
C 1325 3949 1331 3949 1338 3949 
C 1376 3949 1389 3891 1389 3737 
L 1389 633 
C 1389 300 1318 230 973 211 
L 614 192 
L 614 0 
C 1600 0 1600 0 1670 0 
C 1754 0 1894 0 2112 -7 
C 2189 6 2413 6 2675 0 
L 2675 192 
L 2342 211 
C 1990 229 1926 299 1926 628 
L 1926 4383 
L 1837 4416 
C 1421 4199 966 4009 384 3807 
L 429 3571 
z
" transform="scale(0.015625)"/>
       </defs>
       <use xlink:href="#CMSY10-0" transform="scale(1.038107)"/>
       <use xlink:href="#URWPalladioL-Roma-31" transform="translate(81.941696 0)scale(0.996264)"/>
      </g>
     </g>
    </g>
    <g id="ytick_2">
     <g id="line2d_15">
      <path d="M 41.145691 50.16402 
L 433.19952 50.16402 
" clip-path="url(#p7a83abddff)" style="fill: none; stroke: #000000; stroke-opacity: 0.2; stroke-width: 0.5; stroke-linecap: round"/>
     </g>
     <g id="line2d_16">
      <g>
       <use xlink:href="#m47b065775d" x="41.145691" y="50.16402" style="fill-opacity: 0.2; stroke: #000000; stroke-opacity: 0.2; stroke-width: 0.5"/>
      </g>
     </g>
     <g id="text_2">
      <!-- $\mathdefault{0}$ -->
      <g transform="translate(18.671843 55.153784)scale(0.14 -0.14)">
       <defs>
        <path id="URWPalladioL-Roma-30" d="M 1683 4416 
C 691 4416 186 3628 186 2076 
C 186 1326 320 679 544 365 
C 768 51 1126 -128 1523 -128 
C 2490 -128 2976 704 2976 2345 
C 2976 3749 2560 4416 1683 4416 
z
M 1568 4191 
C 2189 4191 2438 3563 2438 2025 
C 2438 660 2195 96 1606 96 
C 986 96 723 743 723 2307 
C 723 3660 960 4191 1568 4191 
z
" transform="scale(0.015625)"/>
       </defs>
       <use xlink:href="#URWPalladioL-Roma-30" transform="scale(0.996264)"/>
      </g>
     </g>
    </g>
    <g id="ytick_3">
     <g id="line2d_17">
      <path d="M 41.145691 12.189765 
L 433.19952 12.189765 
" clip-path="url(#p7a83abddff)" style="fill: none; stroke: #000000; stroke-opacity: 0.2; stroke-width: 0.5; stroke-linecap: round"/>
     </g>
     <g id="line2d_18">
      <g>
       <use xlink:href="#m47b065775d" x="41.145691" y="12.189765" style="fill-opacity: 0.2; stroke: #000000; stroke-opacity: 0.2; stroke-width: 0.5"/>
      </g>
     </g>
     <g id="text_3">
      <!-- $\mathdefault{1}$ -->
      <g transform="translate(18.671843 17.179529)scale(0.14 -0.14)">
       <use xlink:href="#URWPalladioL-Roma-31" transform="scale(0.996264)"/>
      </g>
     </g>
    </g>
   </g>
   <g id="line2d_19">
    <path d="M 41.145691 23.582041 
L 42.322244 23.70383 
L 43.498798 24.067646 
L 44.675352 24.668858 
L 45.982634 25.605896 
L 47.420644 26.946462 
L 48.989382 28.749726 
L 50.688848 31.058252 
L 52.649771 34.10205 
L 55.264335 38.6136 
L 63.238754 52.711354 
L 65.199677 55.593919 
L 66.899143 57.730066 
L 68.467882 59.351896 
L 69.905892 60.511348 
L 71.213173 61.274802 
L 72.389727 61.715154 
L 73.566281 61.916143 
L 74.742834 61.875527 
L 75.919388 61.594165 
L 77.095942 61.076002 
L 78.403224 60.23113 
L 79.710506 59.116441 
L 81.148516 57.60038 
L 82.847982 55.457 
L 84.808905 52.583845 
L 87.162012 48.711839 
L 91.345314 41.293567 
L 94.744247 35.470778 
L 96.966626 32.093699 
L 98.796821 29.702605 
L 100.365559 27.996232 
L 101.803569 26.746936 
L 103.110851 25.89443 
L 104.287404 25.370184 
L 105.463958 25.083827 
L 106.640512 25.039642 
L 107.817065 25.23883 
L 108.993619 25.679488 
L 110.170173 26.356642 
L 111.477455 27.376592 
L 112.915465 28.80607 
L 114.484203 30.702963 
L 116.183669 33.108233 
L 118.27532 36.478392 
L 121.020612 41.376819 
L 128.079934 54.217381 
L 130.171585 57.470285 
L 132.00178 59.91604 
L 133.570518 61.65651 
L 135.008528 62.929034 
L 136.31581 63.797881 
L 137.492364 64.334434 
L 138.668917 64.632196 
L 139.845471 64.688233 
L 141.022025 64.502709 
L 142.198578 64.078882 
L 143.375132 63.42306 
L 144.682414 62.43366 
L 146.120424 61.048057 
L 147.689162 59.213668 
L 149.519357 56.705293 
L 151.741736 53.239003 
L 154.879212 47.865791 
L 159.846883 39.349501 
L 162.069263 35.987387 
L 163.899457 33.594228 
L 165.468195 31.877107 
L 166.906205 30.611808 
L 168.213487 29.740575 
L 169.390041 29.196811 
L 170.566595 28.889092 
L 171.743148 28.822378 
L 172.919702 28.998552 
L 174.096256 29.416398 
L 175.272809 30.071614 
L 176.580091 31.069016 
L 178.018101 32.476908 
L 179.58684 34.355318 
L 181.286306 36.747945 
L 183.247229 39.893106 
L 185.861792 44.548308 
L 193.96694 59.36385 
L 196.058591 62.541934 
L 197.758057 64.743683 
L 199.326796 66.420968 
L 200.764806 67.627529 
L 202.072087 68.431197 
L 203.248641 68.905991 
L 204.425195 69.140104 
L 205.601748 69.131632 
L 206.778302 68.881769 
L 207.954856 68.394795 
L 209.13141 67.678018 
L 210.438691 66.624632 
L 211.876701 65.174634 
L 213.44544 63.278898 
L 215.275634 60.71297 
L 217.498013 57.200235 
L 220.896946 51.352116 
L 225.210976 44.012043 
L 227.433356 40.660432 
L 229.26355 38.27432 
L 230.832288 36.562088 
L 232.270298 35.300333 
L 233.57758 34.431546 
L 234.754134 33.889349 
L 235.930688 33.582598 
L 237.107241 33.516251 
L 238.283795 33.692191 
L 239.460349 34.109203 
L 240.636902 34.762985 
L 241.944184 35.75809 
L 243.382194 37.1626 
L 244.950932 39.036299 
L 246.650399 41.422621 
L 248.74205 44.780249 
L 251.356614 49.441265 
L 259.200305 63.740189 
L 261.291956 66.926429 
L 262.991422 69.1387 
L 264.56016 70.828097 
L 265.99817 72.047192 
L 267.305452 72.862955 
L 268.482006 73.348821 
L 269.65856 73.593836 
L 270.835113 73.595752 
L 272.011667 73.355423 
L 273.188221 72.876789 
L 274.364774 72.166827 
L 275.672056 71.118841 
L 277.110066 69.671666 
L 278.678804 67.774712 
L 280.508999 65.200954 
L 282.731378 61.668409 
L 285.999583 55.998025 
L 290.575069 48.102378 
L 292.797448 44.700648 
L 294.627643 42.271878 
L 296.196381 40.522094 
L 297.634391 39.225128 
L 298.941673 38.323679 
L 300.118227 37.75156 
L 301.294781 37.414393 
L 302.471334 37.31714 
L 303.647888 37.461689 
L 304.824442 37.846826 
L 306.000995 38.468257 
L 307.308277 39.426859 
L 308.746287 40.790547 
L 310.315025 42.618923 
L 312.014492 44.955227 
L 313.975415 48.03268 
L 316.589978 52.593108 
L 324.695126 67.082847 
L 326.656049 69.990526 
L 328.355515 72.144302 
L 329.924253 73.778992 
L 331.362263 74.947348 
L 332.669545 75.716504 
L 333.846099 76.160039 
L 335.022652 76.362362 
L 336.199206 76.321233 
L 337.37576 76.03751 
L 338.552313 75.515139 
L 339.859595 74.663424 
L 341.166877 73.539614 
L 342.604887 72.010889 
L 344.304354 69.848994 
L 346.265276 66.949702 
L 348.618384 63.039595 
L 352.670958 55.77135 
L 356.200619 49.626024 
L 358.422998 46.184087 
L 360.253192 43.73475 
L 361.821931 41.974998 
L 363.259941 40.673978 
L 364.567222 39.772141 
L 365.743776 39.201623 
L 366.92033 38.867225 
L 368.096883 38.773236 
L 369.273437 38.920863 
L 370.449991 39.30821 
L 371.626544 39.93031 
L 372.933826 40.887053 
L 374.371836 42.24454 
L 375.940575 44.059969 
L 377.640041 46.373559 
L 379.731692 49.626024 
L 382.476984 54.361921 
L 389.405578 66.53547 
L 391.497229 69.668257 
L 393.327423 72.010889 
L 394.896162 73.663755 
L 396.334172 74.856041 
L 397.641453 75.651534 
L 398.818007 76.12137 
L 399.994561 76.351417 
L 401.171114 76.33841 
L 402.347668 76.082182 
L 403.524222 75.585659 
L 404.700775 74.854828 
L 406.008057 73.778992 
L 407.446067 72.294082 
L 409.014806 70.34574 
L 410.845 67.696277 
L 413.067379 64.045857 
L 416.074128 58.629191 
L 421.564711 48.68861 
L 423.787091 45.14864 
L 425.617285 42.618923 
L 427.186023 40.790547 
L 428.624033 39.426859 
L 429.931315 38.468257 
L 431.238597 37.792259 
L 432.415151 37.433698 
L 433.19952 37.32836 
L 433.19952 37.32836 
" clip-path="url(#p7a83abddff)" style="fill: none; stroke: #0271ae; stroke-opacity: 0.5; stroke-width: 2; stroke-linecap: round"/>
   </g>
   <g id="line2d_20">
    <path d="M 41.145691 23.582041 
L 67.291328 23.582041 
L 67.291328 58.168684 
L 93.436965 58.168684 
L 93.436965 37.641256 
L 119.582602 37.641256 
L 119.582602 38.760267 
L 145.728239 38.760267 
L 145.728239 61.455404 
L 171.873877 61.455404 
L 171.873877 28.829954 
L 198.019514 28.829954 
L 198.019514 65.048044 
L 224.165151 65.048044 
L 224.165151 45.719808 
L 250.310788 45.719808 
L 250.310788 47.530405 
L 276.456425 47.530405 
L 276.456425 70.366069 
L 302.602062 70.366069 
L 302.602062 37.321256 
L 328.7477 37.321256 
L 328.7477 72.586443 
L 354.893337 72.586443 
L 354.893337 51.831638 
L 381.038974 51.831638 
L 381.038974 51.831638 
L 407.184611 51.831638 
L 407.184611 72.586443 
" clip-path="url(#p7a83abddff)" style="fill: none; stroke: #dc2830; stroke-width: 2; stroke-linecap: round"/>
    <defs>
     <path id="m4f31e11b86" d="M 0 3.5 
C 0.928211 3.5 1.81853 3.131218 2.474874 2.474874 
C 3.131218 1.81853 3.5 0.928211 3.5 0 
C 3.5 -0.928211 3.131218 -1.81853 2.474874 -2.474874 
C 1.81853 -3.131218 0.928211 -3.5 0 -3.5 
C -0.928211 -3.5 -1.81853 -3.131218 -2.474874 -2.474874 
C -3.131218 -1.81853 -3.5 -0.928211 -3.5 0 
C -3.5 0.928211 -3.131218 1.81853 -2.474874 2.474874 
C -1.81853 3.131218 -0.928211 3.5 0 3.5 
z
" style="stroke: #fefefa; stroke-width: 1.5"/>
    </defs>
    <g clip-path="url(#p7a83abddff)">
     <use xlink:href="#m4f31e11b86" x="41.145691" y="23.582041" style="fill: #dc2830; stroke: #fefefa; stroke-width: 1.5"/>
     <use xlink:href="#m4f31e11b86" x="67.291328" y="58.168684" style="fill: #dc2830; stroke: #fefefa; stroke-width: 1.5"/>
     <use xlink:href="#m4f31e11b86" x="93.436965" y="37.641256" style="fill: #dc2830; stroke: #fefefa; stroke-width: 1.5"/>
     <use xlink:href="#m4f31e11b86" x="119.582602" y="38.760267" style="fill: #dc2830; stroke: #fefefa; stroke-width: 1.5"/>
     <use xlink:href="#m4f31e11b86" x="145.728239" y="61.455404" style="fill: #dc2830; stroke: #fefefa; stroke-width: 1.5"/>
     <use xlink:href="#m4f31e11b86" x="171.873877" y="28.829954" style="fill: #dc2830; stroke: #fefefa; stroke-width: 1.5"/>
     <use xlink:href="#m4f31e11b86" x="198.019514" y="65.048044" style="fill: #dc2830; stroke: #fefefa; stroke-width: 1.5"/>
     <use xlink:href="#m4f31e11b86" x="224.165151" y="45.719808" style="fill: #dc2830; stroke: #fefefa; stroke-width: 1.5"/>
     <use xlink:href="#m4f31e11b86" x="250.310788" y="47.530405" style="fill: #dc2830; stroke: #fefefa; stroke-width: 1.5"/>
     <use xlink:href="#m4f31e11b86" x="276.456425" y="70.366069" style="fill: #dc2830; stroke: #fefefa; stroke-width: 1.5"/>
     <use xlink:href="#m4f31e11b86" x="302.602062" y="37.321256" style="fill: #dc2830; stroke: #fefefa; stroke-width: 1.5"/>
     <use xlink:href="#m4f31e11b86" x="328.7477" y="72.586443" style="fill: #dc2830; stroke: #fefefa; stroke-width: 1.5"/>
     <use xlink:href="#m4f31e11b86" x="354.893337" y="51.831638" style="fill: #dc2830; stroke: #fefefa; stroke-width: 1.5"/>
     <use xlink:href="#m4f31e11b86" x="381.038974" y="51.831638" style="fill: #dc2830; stroke: #fefefa; stroke-width: 1.5"/>
     <use xlink:href="#m4f31e11b86" x="407.184611" y="72.586443" style="fill: #dc2830; stroke: #fefefa; stroke-width: 1.5"/>
    </g>
   </g>
   <g id="legend_1">
    <g id="patch_3">
     <path d="M 291.326878 81.138275 
L 423.39952 81.138275 
Q 426.19952 81.138275 426.19952 78.338275 
L 426.19952 58.204793 
Q 426.19952 55.404793 423.39952 55.404793 
L 291.326878 55.404793 
Q 288.526878 55.404793 288.526878 58.204793 
L 288.526878 78.338275 
Q 288.526878 81.138275 291.326878 81.138275 
z
" style="fill: #ffffff; opacity: 0.95; stroke: #cccccc; stroke-width: 0.5; stroke-linejoin: miter"/>
    </g>
    <g id="line2d_21">
     <path d="M 294.126878 66.705102 
L 301.126878 66.705102 
L 308.126878 66.705102 
" style="fill: none; stroke: #0271ae; stroke-opacity: 0.5; stroke-width: 2; stroke-linecap: round"/>
    </g>
    <g id="text_4">
     <!-- $x(t)$ -->
     <g transform="translate(319.326878 71.605102)scale(0.14 -0.14)">
      <defs>
       <path id="URWPalladioL-Ital-78" d="M 134 567 
C 134 440 122 358 83 153 
C 70 76 64 57 58 12 
C 154 -39 256 -64 333 -64 
C 544 -64 794 121 992 421 
L 1478 1164 
L 1549 726 
C 1632 185 1779 -64 2010 -64 
C 2150 -64 2355 44 2560 230 
L 2874 510 
L 2816 631 
C 2586 440 2426 345 2323 345 
C 2227 345 2144 409 2080 536 
C 2022 656 1952 891 1920 1075 
L 1805 1716 
L 2029 2027 
C 2330 2439 2502 2585 2701 2585 
C 2803 2585 2880 2534 2912 2439 
L 3002 2465 
L 3098 3007 
C 3021 3052 2963 3072 2906 3072 
C 2650 3072 2394 2841 1997 2255 
L 1760 1906 
L 1722 2211 
C 1645 2841 1472 3072 1094 3072 
C 928 3072 787 3020 730 2937 
L 358 2408 
L 467 2344 
C 659 2560 787 2649 909 2649 
C 1120 2649 1261 2389 1370 1767 
L 1440 1373 
L 1184 980 
C 909 555 691 352 512 352 
C 416 352 346 377 333 409 
L 262 586 
L 134 567 
z
" transform="scale(0.015625)"/>
       <path id="CMR10-28" d="M 2118 -1536 
C 2118 -1517 2118 -1504 2010 -1396 
C 1210 -589 1005 620 1005 1600 
C 1005 2713 1248 3827 2035 4627 
C 2118 4704 2118 4716 2118 4736 
C 2118 4780 2093 4800 2054 4800 
C 1990 4800 1414 4365 1037 3552 
C 710 2848 634 2137 634 1600 
C 634 1100 704 326 1056 -397 
C 1440 -1184 1990 -1600 2054 -1600 
C 2093 -1600 2118 -1581 2118 -1536 
z
" transform="scale(0.015625)"/>
       <path id="URWPalladioL-Ital-74" d="M 800 2489 
L 442 678 
C 435 633 429 620 410 544 
C 371 364 358 268 358 192 
C 358 32 429 -64 550 -64 
C 774 -64 998 64 1498 467 
L 1594 544 
L 1696 627 
L 1632 742 
L 1344 544 
C 1158 416 1030 352 960 352 
C 902 352 870 403 870 480 
C 870 646 960 1164 1146 2092 
L 1229 2489 
L 1914 2489 
L 1984 2809 
C 1741 2784 1523 2771 1280 2771 
C 1382 3373 1453 3686 1568 4032 
L 1498 4128 
C 1370 4051 1197 3974 998 3897 
L 838 2809 
C 557 2675 390 2604 275 2572 
L 262 2489 
L 800 2489 
z
" transform="scale(0.015625)"/>
       <path id="CMR10-29" d="M 1850 1600 
C 1850 2099 1779 2873 1427 3597 
C 1043 4384 493 4800 429 4800 
C 390 4800 365 4774 365 4736 
C 365 4716 365 4704 486 4589 
C 1114 3955 1478 2937 1478 1600 
C 1478 505 1242 -621 448 -1428 
C 365 -1504 365 -1517 365 -1536 
C 365 -1575 390 -1600 429 -1600 
C 493 -1600 1069 -1165 1446 -352 
C 1773 352 1850 1062 1850 1600 
z
" transform="scale(0.015625)"/>
      </defs>
      <use xlink:href="#URWPalladioL-Ital-78" transform="scale(0.996264)"/>
      <use xlink:href="#CMR10-28" transform="translate(53.299136 0)scale(1.038107)"/>
      <use xlink:href="#URWPalladioL-Ital-74" transform="translate(96.038841 0)scale(0.996264)"/>
      <use xlink:href="#CMR10-29" transform="translate(131.704123 0)scale(1.038107)"/>
     </g>
    </g>
    <g id="line2d_22">
     <path d="M 371.417371 66.705102 
L 378.417371 66.705102 
L 378.417371 66.705102 
L 385.417371 66.705102 
L 385.417371 66.705102 
" style="fill: none; stroke: #dc2830; stroke-width: 2; stroke-linecap: round"/>
     <g>
      <use xlink:href="#m4f31e11b86" x="378.417371" y="66.705102" style="fill: #dc2830; stroke: #fefefa; stroke-width: 1.5"/>
     </g>
    </g>
    <g id="text_5">
     <!-- $x[n]$ -->
     <g transform="translate(396.617371 71.605102)scale(0.14 -0.14)">
      <defs>
       <path id="CMR10-5b" d="M 1632 -1601 
L 1632 -1344 
L 1011 -1344 
L 1011 4544 
L 1632 4544 
L 1632 4800 
L 755 4800 
L 755 -1601 
L 1632 -1601 
z
" transform="scale(0.015625)"/>
       <path id="URWPalladioL-Ital-6e" d="M 154 2471 
L 198 2343 
L 403 2477 
C 640 2624 659 2637 704 2637 
C 774 2637 819 2573 819 2477 
C 819 2152 557 919 294 6 
L 339 -64 
C 499 -20 646 19 787 44 
C 909 849 1043 1264 1338 1705 
C 1683 2241 2163 2637 2451 2637 
C 2522 2637 2560 2579 2560 2484 
C 2560 2369 2541 2235 2490 2030 
L 2157 677 
C 2099 440 2074 293 2074 191 
C 2074 32 2144 -64 2266 -64 
C 2432 -64 2662 70 3290 536 
L 3226 651 
L 3059 542 
C 2874 421 2733 351 2669 351 
C 2624 351 2586 408 2586 479 
C 2586 511 2592 581 2598 606 
L 3021 2369 
C 3066 2554 3091 2733 3091 2841 
C 3091 2988 3021 3072 2893 3072 
C 2624 3072 2182 2829 1805 2477 
C 1562 2254 1382 2037 1050 1571 
L 1293 2599 
C 1318 2714 1331 2790 1331 2860 
C 1331 2995 1280 3072 1184 3072 
C 1050 3072 800 2931 333 2599 
L 154 2471 
z
" transform="scale(0.015625)"/>
       <path id="CMR10-5d" d="M 1018 4800 
L 141 4800 
L 141 4544 
L 762 4544 
L 762 -1344 
L 141 -1344 
L 141 -1601 
L 1018 -1601 
L 1018 4800 
z
" transform="scale(0.015625)"/>
      </defs>
      <use xlink:href="#URWPalladioL-Ital-78" transform="scale(0.996264)"/>
      <use xlink:href="#CMR10-5b" transform="translate(53.299136 0)scale(1.038107)"/>
      <use xlink:href="#URWPalladioL-Ital-6e" transform="translate(84.581835 0)scale(0.996264)"/>
      <use xlink:href="#CMR10-5d" transform="translate(142.464796 0)scale(1.038107)"/>
     </g>
    </g>
   </g>
  </g>
  <g id="axes_2">
   <g id="patch_4">
    <path d="M 41.145691 183.999967 
L 433.19952 183.999967 
L 433.19952 108.051456 
L 41.145691 108.051456 
L 41.145691 183.999967 
z
" style="fill: none"/>
   </g>
   <g id="matplotlib.axis_3">
    <g id="xtick_7">
     <g id="line2d_23">
      <path d="M 41.145691 183.999967 
L 41.145691 108.051456 
" clip-path="url(#pd0e596fe8f)" style="fill: none; stroke: #000000; stroke-opacity: 0.2; stroke-width: 0.5; stroke-linecap: round"/>
     </g>
     <g id="line2d_24">
      <g>
       <use xlink:href="#mcecbf8cdd3" x="41.145691" y="183.999967" style="fill-opacity: 0.2; stroke: #000000; stroke-opacity: 0.2; stroke-width: 0.5"/>
      </g>
     </g>
    </g>
    <g id="xtick_8">
     <g id="line2d_25">
      <path d="M 106.509784 183.999967 
L 106.509784 108.051456 
" clip-path="url(#pd0e596fe8f)" style="fill: none; stroke: #000000; stroke-opacity: 0.2; stroke-width: 0.5; stroke-linecap: round"/>
     </g>
     <g id="line2d_26">
      <g>
       <use xlink:href="#mcecbf8cdd3" x="106.509784" y="183.999967" style="fill-opacity: 0.2; stroke: #000000; stroke-opacity: 0.2; stroke-width: 0.5"/>
      </g>
     </g>
    </g>
    <g id="xtick_9">
     <g id="line2d_27">
      <path d="M 171.873877 183.999967 
L 171.873877 108.051456 
" clip-path="url(#pd0e596fe8f)" style="fill: none; stroke: #000000; stroke-opacity: 0.2; stroke-width: 0.5; stroke-linecap: round"/>
     </g>
     <g id="line2d_28">
      <g>
       <use xlink:href="#mcecbf8cdd3" x="171.873877" y="183.999967" style="fill-opacity: 0.2; stroke: #000000; stroke-opacity: 0.2; stroke-width: 0.5"/>
      </g>
     </g>
    </g>
    <g id="xtick_10">
     <g id="line2d_29">
      <path d="M 237.237969 183.999967 
L 237.237969 108.051456 
" clip-path="url(#pd0e596fe8f)" style="fill: none; stroke: #000000; stroke-opacity: 0.2; stroke-width: 0.5; stroke-linecap: round"/>
     </g>
     <g id="line2d_30">
      <g>
       <use xlink:href="#mcecbf8cdd3" x="237.237969" y="183.999967" style="fill-opacity: 0.2; stroke: #000000; stroke-opacity: 0.2; stroke-width: 0.5"/>
      </g>
     </g>
    </g>
    <g id="xtick_11">
     <g id="line2d_31">
      <path d="M 302.602062 183.999967 
L 302.602062 108.051456 
" clip-path="url(#pd0e596fe8f)" style="fill: none; stroke: #000000; stroke-opacity: 0.2; stroke-width: 0.5; stroke-linecap: round"/>
     </g>
     <g id="line2d_32">
      <g>
       <use xlink:href="#mcecbf8cdd3" x="302.602062" y="183.999967" style="fill-opacity: 0.2; stroke: #000000; stroke-opacity: 0.2; stroke-width: 0.5"/>
      </g>
     </g>
    </g>
    <g id="xtick_12">
     <g id="line2d_33">
      <path d="M 367.966155 183.999967 
L 367.966155 108.051456 
" clip-path="url(#pd0e596fe8f)" style="fill: none; stroke: #000000; stroke-opacity: 0.2; stroke-width: 0.5; stroke-linecap: round"/>
     </g>
     <g id="line2d_34">
      <g>
       <use xlink:href="#mcecbf8cdd3" x="367.966155" y="183.999967" style="fill-opacity: 0.2; stroke: #000000; stroke-opacity: 0.2; stroke-width: 0.5"/>
      </g>
     </g>
    </g>
   </g>
   <g id="matplotlib.axis_4">
    <g id="ytick_4">
     <g id="line2d_35">
      <path d="M 41.145691 183.999967 
L 433.19952 183.999967 
" clip-path="url(#pd0e596fe8f)" style="fill: none; stroke: #000000; stroke-opacity: 0.2; stroke-width: 0.5; stroke-linecap: round"/>
     </g>
     <g id="line2d_36">
      <g>
       <use xlink:href="#m47b065775d" x="41.145691" y="183.999967" style="fill-opacity: 0.2; stroke: #000000; stroke-opacity: 0.2; stroke-width: 0.5"/>
      </g>
     </g>
     <g id="text_6">
      <!-- $\mathdefault{−1}$ -->
      <g transform="translate(7.2 188.989731)scale(0.14 -0.14)">
       <use xlink:href="#CMSY10-0" transform="scale(1.038107)"/>
       <use xlink:href="#URWPalladioL-Roma-31" transform="translate(81.941696 0)scale(0.996264)"/>
      </g>
     </g>
    </g>
    <g id="ytick_5">
     <g id="line2d_37">
      <path d="M 41.145691 146.025712 
L 433.19952 146.025712 
" clip-path="url(#pd0e596fe8f)" style="fill: none; stroke: #000000; stroke-opacity: 0.2; stroke-width: 0.5; stroke-linecap: round"/>
     </g>
     <g id="line2d_38">
      <g>
       <use xlink:href="#m47b065775d" x="41.145691" y="146.025712" style="fill-opacity: 0.2; stroke: #000000; stroke-opacity: 0.2; stroke-width: 0.5"/>
      </g>
     </g>
     <g id="text_7">
      <!-- $\mathdefault{0}$ -->
      <g transform="translate(18.671843 151.015476)scale(0.14 -0.14)">
       <use xlink:href="#URWPalladioL-Roma-30" transform="scale(0.996264)"/>
      </g>
     </g>
    </g>
    <g id="ytick_6">
     <g id="line2d_39">
      <path d="M 41.145691 108.051456 
L 433.19952 108.051456 
" clip-path="url(#pd0e596fe8f)" style="fill: none; stroke: #000000; stroke-opacity: 0.2; stroke-width: 0.5; stroke-linecap: round"/>
     </g>
     <g id="line2d_40">
      <g>
       <use xlink:href="#m47b065775d" x="41.145691" y="108.051456" style="fill-opacity: 0.2; stroke: #000000; stroke-opacity: 0.2; stroke-width: 0.5"/>
      </g>
     </g>
     <g id="text_8">
      <!-- $\mathdefault{1}$ -->
      <g transform="translate(18.671843 113.041221)scale(0.14 -0.14)">
       <use xlink:href="#URWPalladioL-Roma-31" transform="scale(0.996264)"/>
      </g>
     </g>
    </g>
   </g>
   <g id="line2d_41">
    <path d="M 41.145691 119.443733 
L 42.322244 119.565522 
L 43.498798 119.929337 
L 44.675352 120.53055 
L 45.982634 121.467587 
L 47.420644 122.808154 
L 48.989382 124.611418 
L 50.688848 126.919944 
L 52.649771 129.963742 
L 55.264335 134.475292 
L 63.238754 148.573046 
L 65.199677 151.455611 
L 66.899143 153.591757 
L 68.467882 155.213588 
L 69.905892 156.373039 
L 71.213173 157.136493 
L 72.389727 157.576846 
L 73.566281 157.777835 
L 74.742834 157.737219 
L 75.919388 157.455857 
L 77.095942 156.937694 
L 78.403224 156.092821 
L 79.710506 154.978132 
L 81.148516 153.462072 
L 82.847982 151.318692 
L 84.808905 148.445537 
L 87.162012 144.573531 
L 91.345314 137.155259 
L 94.744247 131.33247 
L 96.966626 127.955391 
L 98.796821 125.564297 
L 100.365559 123.857924 
L 101.803569 122.608628 
L 103.110851 121.756122 
L 104.287404 121.231876 
L 105.463958 120.945519 
L 106.640512 120.901334 
L 107.817065 121.100521 
L 108.993619 121.54118 
L 110.170173 122.218334 
L 111.477455 123.238284 
L 112.915465 124.667762 
L 114.484203 126.564655 
L 116.183669 128.969925 
L 118.27532 132.340084 
L 121.020612 137.238511 
L 128.079934 150.079073 
L 130.171585 153.331977 
L 132.00178 155.777732 
L 133.570518 157.518202 
L 135.008528 158.790726 
L 136.31581 159.659573 
L 137.492364 160.196126 
L 138.668917 160.493888 
L 139.845471 160.549925 
L 141.022025 160.364401 
L 142.198578 159.940574 
L 143.375132 159.284751 
L 144.682414 158.295352 
L 146.120424 156.909749 
L 147.689162 155.07536 
L 149.519357 152.566985 
L 151.741736 149.100695 
L 154.879212 143.727483 
L 159.846883 135.211193 
L 162.069263 131.849079 
L 163.899457 129.45592 
L 165.468195 127.738799 
L 166.906205 126.473499 
L 168.213487 125.602267 
L 169.390041 125.058503 
L 170.566595 124.750784 
L 171.743148 124.68407 
L 172.919702 124.860244 
L 174.096256 125.278089 
L 175.272809 125.933306 
L 176.580091 126.930708 
L 178.018101 128.3386 
L 179.58684 130.21701 
L 181.286306 132.609636 
L 183.247229 135.754798 
L 185.861792 140.41 
L 193.96694 155.225542 
L 196.058591 158.403626 
L 197.758057 160.605375 
L 199.326796 162.28266 
L 200.764806 163.489221 
L 202.072087 164.292889 
L 203.248641 164.767683 
L 204.425195 165.001796 
L 205.601748 164.993324 
L 206.778302 164.743461 
L 207.954856 164.256487 
L 209.13141 163.53971 
L 210.438691 162.486323 
L 211.876701 161.036326 
L 213.44544 159.14059 
L 215.275634 156.574662 
L 217.498013 153.061927 
L 220.896946 147.213808 
L 225.210976 139.873735 
L 227.433356 136.522123 
L 229.26355 134.136012 
L 230.832288 132.423779 
L 232.270298 131.162025 
L 233.57758 130.293238 
L 234.754134 129.751041 
L 235.930688 129.44429 
L 237.107241 129.377943 
L 238.283795 129.553883 
L 239.460349 129.970894 
L 240.636902 130.624677 
L 241.944184 131.619782 
L 243.382194 133.024291 
L 244.950932 134.89799 
L 246.650399 137.284313 
L 248.74205 140.641941 
L 251.356614 145.302956 
L 259.200305 159.601881 
L 261.291956 162.788121 
L 262.991422 165.000391 
L 264.56016 166.689789 
L 265.99817 167.908884 
L 267.305452 168.724647 
L 268.482006 169.210513 
L 269.65856 169.455528 
L 270.835113 169.457444 
L 272.011667 169.217115 
L 273.188221 168.738481 
L 274.364774 168.028519 
L 275.672056 166.980533 
L 277.110066 165.533358 
L 278.678804 163.636404 
L 280.508999 161.062645 
L 282.731378 157.530101 
L 285.999583 151.859716 
L 290.575069 143.96407 
L 292.797448 140.56234 
L 294.627643 138.133569 
L 296.196381 136.383786 
L 297.634391 135.086819 
L 298.941673 134.18537 
L 300.118227 133.613252 
L 301.294781 133.276085 
L 302.471334 133.178832 
L 303.647888 133.32338 
L 304.824442 133.708518 
L 306.000995 134.329949 
L 307.308277 135.288551 
L 308.746287 136.652239 
L 310.315025 138.480615 
L 312.014492 140.816919 
L 313.975415 143.894371 
L 316.589978 148.4548 
L 324.695126 162.944539 
L 326.656049 165.852218 
L 328.355515 168.005994 
L 329.924253 169.640683 
L 331.362263 170.80904 
L 332.669545 171.578196 
L 333.846099 172.021731 
L 335.022652 172.224054 
L 336.199206 172.182925 
L 337.37576 171.899202 
L 338.552313 171.37683 
L 339.859595 170.525116 
L 341.166877 169.401306 
L 342.604887 167.872581 
L 344.304354 165.710686 
L 346.265276 162.811394 
L 348.618384 158.901287 
L 352.670958 151.633042 
L 356.200619 145.487716 
L 358.422998 142.045779 
L 360.253192 139.596442 
L 361.821931 137.83669 
L 363.259941 136.53567 
L 364.567222 135.633833 
L 365.743776 135.063315 
L 366.92033 134.728917 
L 368.096883 134.634928 
L 369.273437 134.782555 
L 370.449991 135.169902 
L 371.626544 135.792002 
L 372.933826 136.748745 
L 374.371836 138.106232 
L 375.940575 139.921661 
L 377.640041 142.23525 
L 379.731692 145.487716 
L 382.476984 150.223612 
L 389.405578 162.397162 
L 391.497229 165.529949 
L 393.327423 167.872581 
L 394.896162 169.525447 
L 396.334172 170.717733 
L 397.641453 171.513226 
L 398.818007 171.983062 
L 399.994561 172.213109 
L 401.171114 172.200102 
L 402.347668 171.943874 
L 403.524222 171.447351 
L 404.700775 170.716519 
L 406.008057 169.640683 
L 407.446067 168.155773 
L 409.014806 166.207432 
L 410.845 163.557969 
L 413.067379 159.907548 
L 416.074128 154.490883 
L 421.564711 144.550302 
L 423.787091 141.010332 
L 425.617285 138.480615 
L 427.186023 136.652239 
L 428.624033 135.288551 
L 429.931315 134.329949 
L 431.238597 133.653951 
L 432.415151 133.29539 
L 433.19952 133.190052 
L 433.19952 133.190052 
" clip-path="url(#pd0e596fe8f)" style="fill: none; stroke: #0271ae; stroke-opacity: 0.75; stroke-width: 2; stroke-linecap: round"/>
   </g>
   <g id="line2d_42">
    <path d="M 41.145691 119.443733 
L 46.374818 119.443733 
L 46.374818 121.801906 
L 51.603946 121.801906 
L 51.603946 128.295395 
L 56.833073 128.295395 
L 56.833073 137.324837 
L 62.0622 137.324837 
L 62.0622 146.668184 
L 67.291328 146.668184 
L 67.291328 154.030376 
L 72.520455 154.030376 
L 72.520455 157.611066 
L 77.749583 157.611066 
L 77.749583 156.549953 
L 82.97871 156.549953 
L 82.97871 151.139538 
L 88.207838 151.139538 
L 88.207838 142.752696 
L 93.436965 142.752696 
L 93.436965 133.502948 
L 98.666092 133.502948 
L 98.666092 125.721515 
L 103.89522 125.721515 
L 103.89522 121.380492 
L 109.124347 121.380492 
L 109.124347 121.604861 
L 114.353475 121.604861 
L 114.353475 126.394054 
L 119.582602 126.394054 
L 119.582602 134.621958 
L 124.81173 134.621958 
L 124.81173 144.315351 
L 130.040857 144.315351 
L 130.040857 153.141891 
L 135.269985 153.141891 
L 135.269985 158.986945 
L 140.499112 158.986945 
L 140.499112 160.476541 
L 145.728239 160.476541 
L 145.728239 157.317096 
L 150.957367 157.317096 
L 150.957367 150.367847 
L 156.186494 150.367847 
L 156.186494 141.428096 
L 161.415622 141.428096 
L 161.415622 132.791886 
L 166.644749 132.791886 
L 166.644749 126.68027 
L 171.873877 126.68027 
L 171.873877 124.691646 
L 177.103004 124.691646 
L 177.103004 127.406113 
L 182.332131 127.406113 
L 182.332131 134.241737 
L 187.561259 134.241737 
L 187.561259 143.598295 
L 192.790386 143.598295 
L 192.790386 153.25291 
L 198.019514 153.25291 
L 198.019514 160.909736 
L 203.248641 160.909736 
L 203.248641 164.767683 
L 208.477769 164.767683 
L 208.477769 163.965748 
L 213.706896 163.965748 
L 213.706896 158.795779 
L 218.936023 158.795779 
L 218.936023 150.630041 
L 224.165151 150.630041 
L 224.165151 141.5815 
L 229.394278 141.5815 
L 229.394278 133.980866 
L 234.623406 133.980866 
L 234.623406 129.799778 
L 239.852533 129.799778 
L 239.852533 130.162814 
L 245.081661 130.162814 
L 245.081661 135.069057 
L 250.310788 135.069057 
L 250.310788 143.392097 
L 255.539915 143.392097 
L 255.539915 153.158471 
L 260.769043 153.158471 
L 260.769043 162.035654 
L 265.99817 162.035654 
L 265.99817 167.908884 
L 271.227298 167.908884 
L 271.227298 169.404119 
L 276.456425 169.404119 
L 276.456425 166.227761 
L 281.685553 166.227761 
L 281.685553 159.239089 
L 286.91468 159.239089 
L 286.91468 150.237507 
L 292.143807 150.237507 
L 292.143807 141.517212 
L 297.372935 141.517212 
L 297.372935 135.29947 
L 302.602062 135.29947 
L 302.602062 133.182948 
L 307.83119 133.182948 
L 307.83119 135.748066 
L 313.060317 135.748066 
L 313.060317 142.41327 
L 318.289445 142.41327 
L 318.289445 151.578764 
L 323.518572 151.578764 
L 323.518572 161.022157 
L 328.7477 161.022157 
L 328.7477 168.448134 
L 333.976827 168.448134 
L 333.976827 172.056191 
L 339.205954 172.056191 
L 339.205954 170.985953 
L 344.435082 170.985953 
L 344.435082 165.529949 
L 349.664209 165.529949 
L 349.664209 157.061164 
L 354.893337 157.061164 
L 354.893337 147.69333 
L 360.122464 147.69333 
L 360.122464 139.757965 
L 365.351592 139.757965 
L 365.351592 135.227552 
L 375.809846 135.227552 
L 375.809846 139.757965 
L 381.038974 139.757965 
L 381.038974 147.69333 
L 386.268101 147.69333 
L 386.268101 157.061164 
L 391.497229 157.061164 
L 391.497229 165.529949 
L 396.726356 165.529949 
L 396.726356 170.985953 
L 401.955484 170.985953 
L 401.955484 172.056191 
L 407.184611 172.056191 
L 407.184611 168.448134 
L 412.413738 168.448134 
L 412.413738 161.022157 
L 417.642866 161.022157 
L 417.642866 151.578764 
L 422.871993 151.578764 
L 422.871993 142.41327 
L 428.101121 142.41327 
L 428.101121 135.748066 
L 428.101121 135.748066 
" clip-path="url(#pd0e596fe8f)" style="fill: none; stroke: #dc2830; stroke-width: 2; stroke-linecap: round"/>
    <g clip-path="url(#pd0e596fe8f)">
     <use xlink:href="#m4f31e11b86" x="41.145691" y="119.443733" style="fill: #dc2830; stroke: #fefefa; stroke-width: 1.5"/>
     <use xlink:href="#m4f31e11b86" x="46.374818" y="121.801906" style="fill: #dc2830; stroke: #fefefa; stroke-width: 1.5"/>
     <use xlink:href="#m4f31e11b86" x="51.603946" y="128.295395" style="fill: #dc2830; stroke: #fefefa; stroke-width: 1.5"/>
     <use xlink:href="#m4f31e11b86" x="56.833073" y="137.324837" style="fill: #dc2830; stroke: #fefefa; stroke-width: 1.5"/>
     <use xlink:href="#m4f31e11b86" x="62.0622" y="146.668184" style="fill: #dc2830; stroke: #fefefa; stroke-width: 1.5"/>
     <use xlink:href="#m4f31e11b86" x="67.291328" y="154.030376" style="fill: #dc2830; stroke: #fefefa; stroke-width: 1.5"/>
     <use xlink:href="#m4f31e11b86" x="72.520455" y="157.611066" style="fill: #dc2830; stroke: #fefefa; stroke-width: 1.5"/>
     <use xlink:href="#m4f31e11b86" x="77.749583" y="156.549953" style="fill: #dc2830; stroke: #fefefa; stroke-width: 1.5"/>
     <use xlink:href="#m4f31e11b86" x="82.97871" y="151.139538" style="fill: #dc2830; stroke: #fefefa; stroke-width: 1.5"/>
     <use xlink:href="#m4f31e11b86" x="88.207838" y="142.752696" style="fill: #dc2830; stroke: #fefefa; stroke-width: 1.5"/>
     <use xlink:href="#m4f31e11b86" x="93.436965" y="133.502948" style="fill: #dc2830; stroke: #fefefa; stroke-width: 1.5"/>
     <use xlink:href="#m4f31e11b86" x="98.666092" y="125.721515" style="fill: #dc2830; stroke: #fefefa; stroke-width: 1.5"/>
     <use xlink:href="#m4f31e11b86" x="103.89522" y="121.380492" style="fill: #dc2830; stroke: #fefefa; stroke-width: 1.5"/>
     <use xlink:href="#m4f31e11b86" x="109.124347" y="121.604861" style="fill: #dc2830; stroke: #fefefa; stroke-width: 1.5"/>
     <use xlink:href="#m4f31e11b86" x="114.353475" y="126.394054" style="fill: #dc2830; stroke: #fefefa; stroke-width: 1.5"/>
     <use xlink:href="#m4f31e11b86" x="119.582602" y="134.621958" style="fill: #dc2830; stroke: #fefefa; stroke-width: 1.5"/>
     <use xlink:href="#m4f31e11b86" x="124.81173" y="144.315351" style="fill: #dc2830; stroke: #fefefa; stroke-width: 1.5"/>
     <use xlink:href="#m4f31e11b86" x="130.040857" y="153.141891" style="fill: #dc2830; stroke: #fefefa; stroke-width: 1.5"/>
     <use xlink:href="#m4f31e11b86" x="135.269985" y="158.986945" style="fill: #dc2830; stroke: #fefefa; stroke-width: 1.5"/>
     <use xlink:href="#m4f31e11b86" x="140.499112" y="160.476541" style="fill: #dc2830; stroke: #fefefa; stroke-width: 1.5"/>
     <use xlink:href="#m4f31e11b86" x="145.728239" y="157.317096" style="fill: #dc2830; stroke: #fefefa; stroke-width: 1.5"/>
     <use xlink:href="#m4f31e11b86" x="150.957367" y="150.367847" style="fill: #dc2830; stroke: #fefefa; stroke-width: 1.5"/>
     <use xlink:href="#m4f31e11b86" x="156.186494" y="141.428096" style="fill: #dc2830; stroke: #fefefa; stroke-width: 1.5"/>
     <use xlink:href="#m4f31e11b86" x="161.415622" y="132.791886" style="fill: #dc2830; stroke: #fefefa; stroke-width: 1.5"/>
     <use xlink:href="#m4f31e11b86" x="166.644749" y="126.68027" style="fill: #dc2830; stroke: #fefefa; stroke-width: 1.5"/>
     <use xlink:href="#m4f31e11b86" x="171.873877" y="124.691646" style="fill: #dc2830; stroke: #fefefa; stroke-width: 1.5"/>
     <use xlink:href="#m4f31e11b86" x="177.103004" y="127.406113" style="fill: #dc2830; stroke: #fefefa; stroke-width: 1.5"/>
     <use xlink:href="#m4f31e11b86" x="182.332131" y="134.241737" style="fill: #dc2830; stroke: #fefefa; stroke-width: 1.5"/>
     <use xlink:href="#m4f31e11b86" x="187.561259" y="143.598295" style="fill: #dc2830; stroke: #fefefa; stroke-width: 1.5"/>
     <use xlink:href="#m4f31e11b86" x="192.790386" y="153.25291" style="fill: #dc2830; stroke: #fefefa; stroke-width: 1.5"/>
     <use xlink:href="#m4f31e11b86" x="198.019514" y="160.909736" style="fill: #dc2830; stroke: #fefefa; stroke-width: 1.5"/>
     <use xlink:href="#m4f31e11b86" x="203.248641" y="164.767683" style="fill: #dc2830; stroke: #fefefa; stroke-width: 1.5"/>
     <use xlink:href="#m4f31e11b86" x="208.477769" y="163.965748" style="fill: #dc2830; stroke: #fefefa; stroke-width: 1.5"/>
     <use xlink:href="#m4f31e11b86" x="213.706896" y="158.795779" style="fill: #dc2830; stroke: #fefefa; stroke-width: 1.5"/>
     <use xlink:href="#m4f31e11b86" x="218.936023" y="150.630041" style="fill: #dc2830; stroke: #fefefa; stroke-width: 1.5"/>
     <use xlink:href="#m4f31e11b86" x="224.165151" y="141.5815" style="fill: #dc2830; stroke: #fefefa; stroke-width: 1.5"/>
     <use xlink:href="#m4f31e11b86" x="229.394278" y="133.980866" style="fill: #dc2830; stroke: #fefefa; stroke-width: 1.5"/>
     <use xlink:href="#m4f31e11b86" x="234.623406" y="129.799778" style="fill: #dc2830; stroke: #fefefa; stroke-width: 1.5"/>
     <use xlink:href="#m4f31e11b86" x="239.852533" y="130.162814" style="fill: #dc2830; stroke: #fefefa; stroke-width: 1.5"/>
     <use xlink:href="#m4f31e11b86" x="245.081661" y="135.069057" style="fill: #dc2830; stroke: #fefefa; stroke-width: 1.5"/>
     <use xlink:href="#m4f31e11b86" x="250.310788" y="143.392097" style="fill: #dc2830; stroke: #fefefa; stroke-width: 1.5"/>
     <use xlink:href="#m4f31e11b86" x="255.539915" y="153.158471" style="fill: #dc2830; stroke: #fefefa; stroke-width: 1.5"/>
     <use xlink:href="#m4f31e11b86" x="260.769043" y="162.035654" style="fill: #dc2830; stroke: #fefefa; stroke-width: 1.5"/>
     <use xlink:href="#m4f31e11b86" x="265.99817" y="167.908884" style="fill: #dc2830; stroke: #fefefa; stroke-width: 1.5"/>
     <use xlink:href="#m4f31e11b86" x="271.227298" y="169.404119" style="fill: #dc2830; stroke: #fefefa; stroke-width: 1.5"/>
     <use xlink:href="#m4f31e11b86" x="276.456425" y="166.227761" style="fill: #dc2830; stroke: #fefefa; stroke-width: 1.5"/>
     <use xlink:href="#m4f31e11b86" x="281.685553" y="159.239089" style="fill: #dc2830; stroke: #fefefa; stroke-width: 1.5"/>
     <use xlink:href="#m4f31e11b86" x="286.91468" y="150.237507" style="fill: #dc2830; stroke: #fefefa; stroke-width: 1.5"/>
     <use xlink:href="#m4f31e11b86" x="292.143807" y="141.517212" style="fill: #dc2830; stroke: #fefefa; stroke-width: 1.5"/>
     <use xlink:href="#m4f31e11b86" x="297.372935" y="135.29947" style="fill: #dc2830; stroke: #fefefa; stroke-width: 1.5"/>
     <use xlink:href="#m4f31e11b86" x="302.602062" y="133.182948" style="fill: #dc2830; stroke: #fefefa; stroke-width: 1.5"/>
     <use xlink:href="#m4f31e11b86" x="307.83119" y="135.748066" style="fill: #dc2830; stroke: #fefefa; stroke-width: 1.5"/>
     <use xlink:href="#m4f31e11b86" x="313.060317" y="142.41327" style="fill: #dc2830; stroke: #fefefa; stroke-width: 1.5"/>
     <use xlink:href="#m4f31e11b86" x="318.289445" y="151.578764" style="fill: #dc2830; stroke: #fefefa; stroke-width: 1.5"/>
     <use xlink:href="#m4f31e11b86" x="323.518572" y="161.022157" style="fill: #dc2830; stroke: #fefefa; stroke-width: 1.5"/>
     <use xlink:href="#m4f31e11b86" x="328.7477" y="168.448134" style="fill: #dc2830; stroke: #fefefa; stroke-width: 1.5"/>
     <use xlink:href="#m4f31e11b86" x="333.976827" y="172.056191" style="fill: #dc2830; stroke: #fefefa; stroke-width: 1.5"/>
     <use xlink:href="#m4f31e11b86" x="339.205954" y="170.985953" style="fill: #dc2830; stroke: #fefefa; stroke-width: 1.5"/>
     <use xlink:href="#m4f31e11b86" x="344.435082" y="165.529949" style="fill: #dc2830; stroke: #fefefa; stroke-width: 1.5"/>
     <use xlink:href="#m4f31e11b86" x="349.664209" y="157.061164" style="fill: #dc2830; stroke: #fefefa; stroke-width: 1.5"/>
     <use xlink:href="#m4f31e11b86" x="354.893337" y="147.69333" style="fill: #dc2830; stroke: #fefefa; stroke-width: 1.5"/>
     <use xlink:href="#m4f31e11b86" x="360.122464" y="139.757965" style="fill: #dc2830; stroke: #fefefa; stroke-width: 1.5"/>
     <use xlink:href="#m4f31e11b86" x="365.351592" y="135.227552" style="fill: #dc2830; stroke: #fefefa; stroke-width: 1.5"/>
     <use xlink:href="#m4f31e11b86" x="370.580719" y="135.227552" style="fill: #dc2830; stroke: #fefefa; stroke-width: 1.5"/>
     <use xlink:href="#m4f31e11b86" x="375.809846" y="139.757965" style="fill: #dc2830; stroke: #fefefa; stroke-width: 1.5"/>
     <use xlink:href="#m4f31e11b86" x="381.038974" y="147.69333" style="fill: #dc2830; stroke: #fefefa; stroke-width: 1.5"/>
     <use xlink:href="#m4f31e11b86" x="386.268101" y="157.061164" style="fill: #dc2830; stroke: #fefefa; stroke-width: 1.5"/>
     <use xlink:href="#m4f31e11b86" x="391.497229" y="165.529949" style="fill: #dc2830; stroke: #fefefa; stroke-width: 1.5"/>
     <use xlink:href="#m4f31e11b86" x="396.726356" y="170.985953" style="fill: #dc2830; stroke: #fefefa; stroke-width: 1.5"/>
     <use xlink:href="#m4f31e11b86" x="401.955484" y="172.056191" style="fill: #dc2830; stroke: #fefefa; stroke-width: 1.5"/>
     <use xlink:href="#m4f31e11b86" x="407.184611" y="168.448134" style="fill: #dc2830; stroke: #fefefa; stroke-width: 1.5"/>
     <use xlink:href="#m4f31e11b86" x="412.413738" y="161.022157" style="fill: #dc2830; stroke: #fefefa; stroke-width: 1.5"/>
     <use xlink:href="#m4f31e11b86" x="417.642866" y="151.578764" style="fill: #dc2830; stroke: #fefefa; stroke-width: 1.5"/>
     <use xlink:href="#m4f31e11b86" x="422.871993" y="142.41327" style="fill: #dc2830; stroke: #fefefa; stroke-width: 1.5"/>
     <use xlink:href="#m4f31e11b86" x="428.101121" y="135.748066" style="fill: #dc2830; stroke: #fefefa; stroke-width: 1.5"/>
    </g>
   </g>
   <g id="legend_2">
    <g id="patch_5">
     <path d="M 291.326878 176.999967 
L 423.39952 176.999967 
Q 426.19952 176.999967 426.19952 174.199967 
L 426.19952 154.066485 
Q 426.19952 151.266485 423.39952 151.266485 
L 291.326878 151.266485 
Q 288.526878 151.266485 288.526878 154.066485 
L 288.526878 174.199967 
Q 288.526878 176.999967 291.326878 176.999967 
z
" style="fill: #ffffff; opacity: 0.95; stroke: #cccccc; stroke-width: 0.5; stroke-linejoin: miter"/>
    </g>
    <g id="line2d_43">
     <path d="M 294.126878 162.566794 
L 301.126878 162.566794 
L 308.126878 162.566794 
" style="fill: none; stroke: #0271ae; stroke-opacity: 0.75; stroke-width: 2; stroke-linecap: round"/>
    </g>
    <g id="text_9">
     <!-- $x(t)$ -->
     <g transform="translate(319.326878 167.466794)scale(0.14 -0.14)">
      <use xlink:href="#URWPalladioL-Ital-78" transform="scale(0.996264)"/>
      <use xlink:href="#CMR10-28" transform="translate(53.299136 0)scale(1.038107)"/>
      <use xlink:href="#URWPalladioL-Ital-74" transform="translate(96.038841 0)scale(0.996264)"/>
      <use xlink:href="#CMR10-29" transform="translate(131.704123 0)scale(1.038107)"/>
     </g>
    </g>
    <g id="line2d_44">
     <path d="M 371.417371 162.566794 
L 378.417371 162.566794 
L 378.417371 162.566794 
L 385.417371 162.566794 
L 385.417371 162.566794 
" style="fill: none; stroke: #dc2830; stroke-width: 2; stroke-linecap: round"/>
     <g>
      <use xlink:href="#m4f31e11b86" x="378.417371" y="162.566794" style="fill: #dc2830; stroke: #fefefa; stroke-width: 1.5"/>
     </g>
    </g>
    <g id="text_10">
     <!-- $x[n]$ -->
     <g transform="translate(396.617371 167.466794)scale(0.14 -0.14)">
      <use xlink:href="#URWPalladioL-Ital-78" transform="scale(0.996264)"/>
      <use xlink:href="#CMR10-5b" transform="translate(53.299136 0)scale(1.038107)"/>
      <use xlink:href="#URWPalladioL-Ital-6e" transform="translate(84.581835 0)scale(0.996264)"/>
      <use xlink:href="#CMR10-5d" transform="translate(142.464796 0)scale(1.038107)"/>
     </g>
    </g>
   </g>
  </g>
  <g id="axes_3">
   <g id="patch_6">
    <path d="M 41.145691 279.861659 
L 433.19952 279.861659 
L 433.19952 203.913148 
L 41.145691 203.913148 
L 41.145691 279.861659 
z
" style="fill: none"/>
   </g>
   <g id="matplotlib.axis_5">
    <g id="xtick_13">
     <g id="line2d_45">
      <path d="M 41.145691 279.861659 
L 41.145691 203.913148 
" clip-path="url(#p934095f0bf)" style="fill: none; stroke: #000000; stroke-opacity: 0.2; stroke-width: 0.5; stroke-linecap: round"/>
     </g>
     <g id="line2d_46">
      <g>
       <use xlink:href="#mcecbf8cdd3" x="41.145691" y="279.861659" style="fill-opacity: 0.2; stroke: #000000; stroke-opacity: 0.2; stroke-width: 0.5"/>
      </g>
     </g>
     <g id="text_11">
      <!-- $\mathdefault{0.0}$ -->
      <g transform="translate(32.428381 305.341188)scale(0.14 -0.14)">
       <defs>
        <path id="URWPalladioL-Roma-2e" d="M 794 678 
C 602 678 429 499 429 307 
C 429 115 602 -64 787 -64 
C 992 -64 1171 108 1171 307 
C 1171 499 992 678 794 678 
z
" transform="scale(0.015625)"/>
       </defs>
       <use xlink:href="#URWPalladioL-Roma-30" transform="scale(0.996264)"/>
       <use xlink:href="#URWPalladioL-Roma-2e" transform="translate(49.8132 0)scale(0.996264)"/>
       <use xlink:href="#URWPalladioL-Roma-30" transform="translate(74.719801 0)scale(0.996264)"/>
      </g>
     </g>
    </g>
    <g id="xtick_14">
     <g id="line2d_47">
      <path d="M 106.509784 279.861659 
L 106.509784 203.913148 
" clip-path="url(#p934095f0bf)" style="fill: none; stroke: #000000; stroke-opacity: 0.2; stroke-width: 0.5; stroke-linecap: round"/>
     </g>
     <g id="line2d_48">
      <g>
       <use xlink:href="#mcecbf8cdd3" x="106.509784" y="279.861659" style="fill-opacity: 0.2; stroke: #000000; stroke-opacity: 0.2; stroke-width: 0.5"/>
      </g>
     </g>
     <g id="text_12">
      <!-- $\mathdefault{0.5}$ -->
      <g transform="translate(97.792474 305.341188)scale(0.14 -0.14)">
       <defs>
        <path id="URWPalladioL-Roma-35" d="M 813 3891 
C 1638 3865 1997 3859 2765 3859 
L 2797 3891 
C 2784 4006 2784 4057 2784 4140 
C 2784 4230 2784 4281 2797 4396 
L 2765 4428 
C 2285 4403 1997 4396 1651 4396 
C 1299 4396 1018 4403 538 4428 
L 506 4396 
C 512 4006 518 3724 518 3520 
C 518 2976 499 2360 480 2076 
L 608 2038 
C 909 2341 1082 2432 1395 2432 
C 2010 2432 2394 1992 2394 1295 
C 2394 579 1984 160 1286 160 
C 941 160 621 276 531 443 
L 237 973 
L 83 882 
C 230 514 307 308 397 25 
C 576 -71 832 -128 1107 -128 
C 1536 -128 1990 57 2342 366 
C 2733 715 2938 1153 2938 1631 
C 2938 2360 2419 2873 1690 2873 
C 1382 2873 1152 2790 755 2553 
L 813 3891 
z
" transform="scale(0.015625)"/>
       </defs>
       <use xlink:href="#URWPalladioL-Roma-30" transform="scale(0.996264)"/>
       <use xlink:href="#URWPalladioL-Roma-2e" transform="translate(49.8132 0)scale(0.996264)"/>
       <use xlink:href="#URWPalladioL-Roma-35" transform="translate(74.719801 0)scale(0.996264)"/>
      </g>
     </g>
    </g>
    <g id="xtick_15">
     <g id="line2d_49">
      <path d="M 171.873877 279.861659 
L 171.873877 203.913148 
" clip-path="url(#p934095f0bf)" style="fill: none; stroke: #000000; stroke-opacity: 0.2; stroke-width: 0.5; stroke-linecap: round"/>
     </g>
     <g id="line2d_50">
      <g>
       <use xlink:href="#mcecbf8cdd3" x="171.873877" y="279.861659" style="fill-opacity: 0.2; stroke: #000000; stroke-opacity: 0.2; stroke-width: 0.5"/>
      </g>
     </g>
     <g id="text_13">
      <!-- $\mathdefault{1.0}$ -->
      <g transform="translate(163.156566 305.341188)scale(0.14 -0.14)">
       <use xlink:href="#URWPalladioL-Roma-31" transform="scale(0.996264)"/>
       <use xlink:href="#URWPalladioL-Roma-2e" transform="translate(49.8132 0)scale(0.996264)"/>
       <use xlink:href="#URWPalladioL-Roma-30" transform="translate(74.719801 0)scale(0.996264)"/>
      </g>
     </g>
    </g>
    <g id="xtick_16">
     <g id="line2d_51">
      <path d="M 237.237969 279.861659 
L 237.237969 203.913148 
" clip-path="url(#p934095f0bf)" style="fill: none; stroke: #000000; stroke-opacity: 0.2; stroke-width: 0.5; stroke-linecap: round"/>
     </g>
     <g id="line2d_52">
      <g>
       <use xlink:href="#mcecbf8cdd3" x="237.237969" y="279.861659" style="fill-opacity: 0.2; stroke: #000000; stroke-opacity: 0.2; stroke-width: 0.5"/>
      </g>
     </g>
     <g id="text_14">
      <!-- $\mathdefault{1.5}$ -->
      <g transform="translate(228.520659 305.341188)scale(0.14 -0.14)">
       <use xlink:href="#URWPalladioL-Roma-31" transform="scale(0.996264)"/>
       <use xlink:href="#URWPalladioL-Roma-2e" transform="translate(49.8132 0)scale(0.996264)"/>
       <use xlink:href="#URWPalladioL-Roma-35" transform="translate(74.719801 0)scale(0.996264)"/>
      </g>
     </g>
    </g>
    <g id="xtick_17">
     <g id="line2d_53">
      <path d="M 302.602062 279.861659 
L 302.602062 203.913148 
" clip-path="url(#p934095f0bf)" style="fill: none; stroke: #000000; stroke-opacity: 0.2; stroke-width: 0.5; stroke-linecap: round"/>
     </g>
     <g id="line2d_54">
      <g>
       <use xlink:href="#mcecbf8cdd3" x="302.602062" y="279.861659" style="fill-opacity: 0.2; stroke: #000000; stroke-opacity: 0.2; stroke-width: 0.5"/>
      </g>
     </g>
     <g id="text_15">
      <!-- $\mathdefault{2.0}$ -->
      <g transform="translate(293.884752 305.341188)scale(0.14 -0.14)">
       <defs>
        <path id="URWPalladioL-Roma-32" d="M 102 166 
L 102 0 
C 1299 0 1299 0 1530 0 
C 1760 19 1760 19 2995 0 
C 2982 134 2982 198 2982 287 
C 2982 370 2982 434 2995 574 
C 2259 542 1965 536 781 510 
L 1946 1741 
C 2566 2398 2758 2749 2758 3228 
C 2758 3961 2259 4416 1446 4416 
C 986 4416 672 4287 358 3967 
L 250 3100 
L 435 3100 
L 518 3394 
C 621 3763 851 3923 1280 3923 
C 1830 3923 2182 3578 2182 3036 
C 2182 2558 1914 2086 1190 1320 
L 102 166 
z
" transform="scale(0.015625)"/>
       </defs>
       <use xlink:href="#URWPalladioL-Roma-32" transform="scale(0.996264)"/>
       <use xlink:href="#URWPalladioL-Roma-2e" transform="translate(49.8132 0)scale(0.996264)"/>
       <use xlink:href="#URWPalladioL-Roma-30" transform="translate(74.719801 0)scale(0.996264)"/>
      </g>
     </g>
    </g>
    <g id="xtick_18">
     <g id="line2d_55">
      <path d="M 367.966155 279.861659 
L 367.966155 203.913148 
" clip-path="url(#p934095f0bf)" style="fill: none; stroke: #000000; stroke-opacity: 0.2; stroke-width: 0.5; stroke-linecap: round"/>
     </g>
     <g id="line2d_56">
      <g>
       <use xlink:href="#mcecbf8cdd3" x="367.966155" y="279.861659" style="fill-opacity: 0.2; stroke: #000000; stroke-opacity: 0.2; stroke-width: 0.5"/>
      </g>
     </g>
     <g id="text_16">
      <!-- $\mathdefault{2.5}$ -->
      <g transform="translate(359.248845 305.341188)scale(0.14 -0.14)">
       <use xlink:href="#URWPalladioL-Roma-32" transform="scale(0.996264)"/>
       <use xlink:href="#URWPalladioL-Roma-2e" transform="translate(49.8132 0)scale(0.996264)"/>
       <use xlink:href="#URWPalladioL-Roma-35" transform="translate(74.719801 0)scale(0.996264)"/>
      </g>
     </g>
    </g>
    <g id="text_17">
     <!-- Time [seconds] -->
     <g transform="translate(197.499754 321.828236)scale(0.12 -0.12)">
      <defs>
       <path id="URWPalladioL-Roma-54" d="M 1632 4096 
C 1651 3880 1658 3734 1658 3462 
L 1658 781 
C 1658 280 1626 230 1331 211 
L 1024 192 
L 1024 0 
C 1402 -7 1626 0 1958 0 
C 2291 19 2522 12 2899 0 
L 2899 192 
L 2592 211 
C 2298 230 2266 280 2266 781 
L 2266 3462 
C 2266 3747 2272 3887 2291 4096 
L 3283 4096 
C 3462 4096 3533 4039 3539 3887 
L 3565 3386 
L 3763 3386 
C 3763 3801 3776 4051 3808 4416 
C 3347 4409 3136 4409 2957 4403 
C 2707 4390 2522 4390 2426 4390 
L 1414 4390 
C 1350 4390 1005 4396 550 4403 
L 115 4416 
C 147 4051 160 3801 160 3385 
L 358 3385 
L 384 3891 
C 390 4038 461 4096 640 4096 
L 1632 4096 
z
" transform="scale(0.015625)"/>
       <path id="URWPalladioL-Roma-69" d="M 1203 2982 
L 1146 3008 
C 819 2873 486 2784 147 2746 
L 147 2568 
L 384 2568 
C 640 2568 666 2523 666 2103 
L 666 669 
C 666 268 646 223 429 211 
L 134 192 
L 134 0 
C 774 0 774 0 934 0 
C 1094 19 1094 19 1734 0 
L 1734 192 
L 1440 211 
C 1222 224 1203 268 1203 671 
L 1203 2982 
z
M 909 4416 
C 717 4416 550 4249 550 4057 
C 550 3871 717 3705 902 3705 
C 1088 3705 1261 3871 1261 4057 
C 1261 4236 1088 4416 909 4416 
z
" transform="scale(0.015625)"/>
       <path id="URWPalladioL-Roma-6d" d="M 115 2579 
L 352 2579 
C 608 2579 634 2534 634 2112 
L 634 672 
C 634 268 614 224 397 211 
L 102 192 
L 102 0 
C 717 0 736 0 915 0 
C 1094 19 1261 12 1677 0 
L 1677 192 
L 1408 211 
C 1190 223 1171 268 1171 670 
L 1171 2023 
C 1171 2311 1594 2624 1978 2624 
C 2323 2624 2560 2298 2560 1813 
L 2560 670 
C 2560 268 2541 223 2323 211 
L 2029 192 
L 2029 0 
C 2669 0 2669 0 2829 0 
C 2989 19 2989 19 3629 0 
L 3629 192 
L 3334 211 
C 3117 223 3098 268 3098 670 
L 3098 2023 
C 3098 2311 3520 2624 3904 2624 
C 4250 2624 4486 2298 4486 1813 
L 4486 0 
C 4877 0 4883 0 4992 0 
C 5075 19 5075 19 5562 0 
L 5562 192 
L 5261 211 
C 5043 223 5024 268 5024 670 
L 5024 1985 
C 5024 2617 4653 3014 4064 3014 
C 3840 3014 3654 2956 3539 2854 
L 3053 2419 
C 2848 2841 2586 3014 2144 3014 
C 1907 3014 1728 2956 1613 2854 
L 1171 2445 
L 1171 2988 
L 1114 3008 
C 787 2873 454 2783 115 2745 
L 115 2579 
z
" transform="scale(0.015625)"/>
       <path id="URWPalladioL-Roma-65" d="M 2797 447 
L 2714 511 
C 2304 268 2157 211 1882 211 
C 1466 211 1120 396 941 710 
C 819 921 774 1100 762 1472 
L 1696 1472 
C 2138 1472 2413 1491 2854 1561 
C 2861 1651 2867 1708 2867 1786 
C 2867 2526 2394 3008 1677 3008 
C 1440 3008 1165 2924 902 2771 
C 378 2468 166 2069 166 1401 
C 166 998 262 652 435 409 
C 691 70 1120 -128 1600 -128 
C 1837 -128 2074 -77 2336 38 
C 2509 108 2643 192 2669 230 
L 2797 447 
z
M 2298 1708 
C 1965 1696 1811 1689 1581 1689 
C 1286 1689 1120 1696 774 1728 
C 774 2030 800 2172 883 2339 
C 1018 2623 1293 2796 1600 2796 
C 1811 2796 1978 2713 2093 2539 
C 2234 2326 2278 2140 2298 1708 
z
" transform="scale(0.015625)"/>
       <path id="URWPalladioL-Roma-5b" d="M 563 -1178 
C 1018 -1166 1030 -1166 1184 -1166 
C 1338 -1166 1370 -1166 1805 -1178 
L 1843 -1140 
L 1843 -974 
L 1818 -942 
L 1574 -942 
C 1402 -942 1261 -903 1184 -839 
C 1126 -782 1107 -692 1107 -481 
C 1107 -474 1107 -340 1101 -148 
L 1101 89 
L 1101 3379 
L 1101 3615 
C 1107 3795 1107 3935 1107 3942 
C 1107 4153 1126 4249 1184 4307 
C 1261 4371 1402 4409 1574 4409 
L 1818 4409 
L 1843 4441 
L 1843 4608 
L 1805 4646 
C 1357 4633 1338 4633 1184 4633 
C 1037 4633 1005 4633 563 4646 
L 506 4563 
C 544 4403 557 4191 557 3699 
C 557 3603 557 3526 563 3462 
L 563 3379 
L 563 89 
L 563 6 
C 557 -97 557 -103 557 -212 
L 557 -282 
C 557 -718 544 -897 506 -1095 
L 563 -1178 
z
" transform="scale(0.015625)"/>
       <path id="URWPalladioL-Roma-73" d="M 262 917 
C 262 474 243 282 192 25 
C 525 -84 774 -128 1069 -128 
C 1907 -128 2502 320 2502 949 
C 2502 1148 2445 1295 2323 1423 
C 2157 1584 1946 1661 1382 1770 
C 858 1872 685 2001 685 2296 
C 685 2617 909 2796 1299 2796 
C 1728 2796 2054 2572 2054 2270 
L 2054 2123 
L 2234 2123 
C 2240 2495 2246 2649 2266 2847 
C 1926 2963 1696 3008 1434 3008 
C 691 3008 237 2655 237 2078 
C 237 1770 378 1552 672 1417 
C 845 1340 1184 1237 1619 1141 
C 1907 1077 2029 942 2029 698 
C 2029 352 1709 108 1254 108 
C 787 108 454 333 454 654 
L 454 917 
L 262 917 
z
" transform="scale(0.015625)"/>
       <path id="URWPalladioL-Roma-63" d="M 2554 1995 
C 2554 2290 2586 2553 2643 2783 
C 2387 2937 2163 3008 1901 3008 
C 1594 3008 1235 2886 851 2643 
C 403 2360 166 1911 166 1347 
C 166 480 774 -128 1632 -128 
C 1965 -128 2445 -7 2509 89 
L 2643 294 
L 2579 390 
C 2342 262 2138 204 1907 204 
C 1197 204 730 756 730 1603 
C 730 2290 1050 2675 1626 2675 
C 1907 2675 2214 2547 2330 2386 
L 2374 1995 
L 2554 1995 
z
" transform="scale(0.015625)"/>
       <path id="URWPalladioL-Roma-6f" d="M 1786 3008 
C 851 3008 205 2347 205 1391 
C 205 487 774 -128 1600 -128 
C 2586 -128 3290 557 3290 1520 
C 3290 2386 2662 3008 1786 3008 
z
M 1670 2796 
C 2259 2796 2694 2155 2694 1282 
C 2694 545 2368 83 1850 83 
C 1222 83 800 699 800 1609 
C 800 2379 1107 2796 1670 2796 
z
" transform="scale(0.015625)"/>
       <path id="URWPalladioL-Roma-6e" d="M 2624 0 
C 3014 0 3021 0 3130 0 
C 3219 19 3219 19 3661 0 
L 3661 192 
L 3398 211 
C 3181 223 3162 262 3162 670 
L 3162 1902 
C 3162 2649 2810 3014 2093 3014 
C 1856 3014 1722 2969 1587 2854 
L 1101 2432 
L 1101 2988 
L 1043 3008 
C 717 2873 384 2784 45 2746 
L 45 2568 
L 282 2568 
C 538 2568 563 2523 563 2103 
L 563 669 
C 563 268 544 223 326 211 
L 38 192 
L 38 0 
C 474 -7 646 0 832 0 
C 1018 19 1190 12 1626 0 
L 1626 192 
L 1338 211 
C 1120 223 1101 268 1101 670 
L 1101 2023 
C 1101 2311 1523 2624 1914 2624 
C 2342 2624 2624 2304 2624 1813 
L 2624 0 
z
" transform="scale(0.015625)"/>
       <path id="URWPalladioL-Roma-64" d="M 2637 2803 
C 2278 2956 2099 3008 1875 3008 
C 1702 3008 1549 2969 1389 2886 
L 826 2592 
C 461 2400 224 1934 224 1392 
C 224 881 397 460 710 204 
C 928 19 1229 -64 1645 -64 
C 1773 -64 1920 -39 1952 -13 
L 2662 581 
L 2630 0 
C 2944 -7 3046 0 3123 0 
C 3174 0 3264 0 3398 -7 
C 3443 6 3571 6 3706 0 
L 3706 192 
L 3411 211 
C 3194 224 3174 268 3174 672 
L 3174 4614 
L 3117 4665 
C 2835 4557 2624 4505 2118 4429 
L 2118 4249 
L 2477 4249 
C 2592 4249 2637 4179 2637 3987 
L 2637 2803 
z
M 2637 1424 
C 2637 1009 2624 945 2541 798 
C 2362 498 2048 300 1747 300 
C 1184 300 781 843 781 1602 
C 781 2298 1126 2707 1702 2707 
C 1946 2707 2202 2624 2426 2470 
C 2560 2381 2637 2298 2637 2247 
L 2637 1424 
z
" transform="scale(0.015625)"/>
       <path id="URWPalladioL-Roma-5d" d="M 1568 4646 
C 1114 4633 1094 4633 947 4633 
C 794 4633 762 4633 326 4646 
L 288 4608 
L 288 4441 
L 314 4409 
L 557 4409 
C 730 4409 864 4371 941 4307 
C 1005 4249 1024 4159 1024 3942 
C 1024 3923 1024 3795 1030 3615 
L 1030 3379 
L 1030 89 
L 1030 -148 
C 1024 -334 1024 -449 1024 -468 
C 1024 -686 1005 -782 941 -839 
C 864 -903 730 -942 557 -942 
L 314 -942 
L 288 -974 
L 288 -1140 
L 326 -1178 
C 774 -1166 787 -1166 947 -1166 
C 1094 -1166 1126 -1166 1568 -1178 
L 1626 -1095 
C 1587 -942 1581 -743 1574 -250 
C 1574 -161 1574 -78 1568 6 
L 1568 89 
L 1568 3379 
L 1568 3462 
C 1574 3532 1574 3615 1574 3705 
C 1574 4198 1587 4409 1626 4563 
L 1568 4646 
z
" transform="scale(0.015625)"/>
      </defs>
      <use xlink:href="#URWPalladioL-Roma-54" transform="scale(0.996264)"/>
      <use xlink:href="#URWPalladioL-Roma-69" transform="translate(55.591109 0)scale(0.996264)"/>
      <use xlink:href="#URWPalladioL-Roma-6d" transform="translate(84.581471 0)scale(0.996264)"/>
      <use xlink:href="#URWPalladioL-Roma-65" transform="translate(172.551145 0)scale(0.996264)"/>
      <use xlink:href="#URWPalladioL-Roma-5b" transform="translate(245.17804 0)scale(0.996264)"/>
      <use xlink:href="#URWPalladioL-Roma-73" transform="translate(278.35327 0)scale(0.996264)"/>
      <use xlink:href="#URWPalladioL-Roma-65" transform="translate(320.594736 0)scale(0.996264)"/>
      <use xlink:href="#URWPalladioL-Roma-63" transform="translate(368.315031 0)scale(0.996264)"/>
      <use xlink:href="#URWPalladioL-Roma-6f" transform="translate(412.5486 0)scale(0.996264)"/>
      <use xlink:href="#URWPalladioL-Roma-6e" transform="translate(466.94418 0)scale(0.996264)"/>
      <use xlink:href="#URWPalladioL-Roma-64" transform="translate(524.926241 0)scale(0.996264)"/>
      <use xlink:href="#URWPalladioL-Roma-73" transform="translate(585.797872 0)scale(0.996264)"/>
      <use xlink:href="#URWPalladioL-Roma-5d" transform="translate(628.039338 0)scale(0.996264)"/>
     </g>
    </g>
   </g>
   <g id="matplotlib.axis_6">
    <g id="ytick_7">
     <g id="line2d_57">
      <path d="M 41.145691 279.861659 
L 433.19952 279.861659 
" clip-path="url(#p934095f0bf)" style="fill: none; stroke: #000000; stroke-opacity: 0.2; stroke-width: 0.5; stroke-linecap: round"/>
     </g>
     <g id="line2d_58">
      <g>
       <use xlink:href="#m47b065775d" x="41.145691" y="279.861659" style="fill-opacity: 0.2; stroke: #000000; stroke-opacity: 0.2; stroke-width: 0.5"/>
      </g>
     </g>
     <g id="text_18">
      <!-- $\mathdefault{−1}$ -->
      <g transform="translate(7.2 284.851423)scale(0.14 -0.14)">
       <use xlink:href="#CMSY10-0" transform="scale(1.038107)"/>
       <use xlink:href="#URWPalladioL-Roma-31" transform="translate(81.941696 0)scale(0.996264)"/>
      </g>
     </g>
    </g>
    <g id="ytick_8">
     <g id="line2d_59">
      <path d="M 41.145691 241.887403 
L 433.19952 241.887403 
" clip-path="url(#p934095f0bf)" style="fill: none; stroke: #000000; stroke-opacity: 0.2; stroke-width: 0.5; stroke-linecap: round"/>
     </g>
     <g id="line2d_60">
      <g>
       <use xlink:href="#m47b065775d" x="41.145691" y="241.887403" style="fill-opacity: 0.2; stroke: #000000; stroke-opacity: 0.2; stroke-width: 0.5"/>
      </g>
     </g>
     <g id="text_19">
      <!-- $\mathdefault{0}$ -->
      <g transform="translate(18.671843 246.877168)scale(0.14 -0.14)">
       <use xlink:href="#URWPalladioL-Roma-30" transform="scale(0.996264)"/>
      </g>
     </g>
    </g>
    <g id="ytick_9">
     <g id="line2d_61">
      <path d="M 41.145691 203.913148 
L 433.19952 203.913148 
" clip-path="url(#p934095f0bf)" style="fill: none; stroke: #000000; stroke-opacity: 0.2; stroke-width: 0.5; stroke-linecap: round"/>
     </g>
     <g id="line2d_62">
      <g>
       <use xlink:href="#m47b065775d" x="41.145691" y="203.913148" style="fill-opacity: 0.2; stroke: #000000; stroke-opacity: 0.2; stroke-width: 0.5"/>
      </g>
     </g>
     <g id="text_20">
      <!-- $\mathdefault{1}$ -->
      <g transform="translate(18.671843 208.902913)scale(0.14 -0.14)">
       <use xlink:href="#URWPalladioL-Roma-31" transform="scale(0.996264)"/>
      </g>
     </g>
    </g>
   </g>
   <g id="line2d_63">
    <path d="M 41.145691 215.305425 
L 42.322244 215.427213 
L 43.498798 215.791029 
L 44.675352 216.392242 
L 45.982634 217.329279 
L 47.420644 218.669846 
L 48.989382 220.47311 
L 50.688848 222.781636 
L 52.649771 225.825434 
L 55.264335 230.336984 
L 63.238754 244.434738 
L 65.199677 247.317302 
L 66.899143 249.453449 
L 68.467882 251.07528 
L 69.905892 252.234731 
L 71.213173 252.998185 
L 72.389727 253.438538 
L 73.566281 253.639526 
L 74.742834 253.598911 
L 75.919388 253.317549 
L 77.095942 252.799386 
L 78.403224 251.954513 
L 79.710506 250.839824 
L 81.148516 249.323764 
L 82.847982 247.180384 
L 84.808905 244.307229 
L 87.162012 240.435223 
L 91.345314 233.016951 
L 94.744247 227.194162 
L 96.966626 223.817083 
L 98.796821 221.425989 
L 100.365559 219.719616 
L 101.803569 218.47032 
L 103.110851 217.617814 
L 104.287404 217.093568 
L 105.463958 216.807211 
L 106.640512 216.763026 
L 107.817065 216.962213 
L 108.993619 217.402872 
L 110.170173 218.080026 
L 111.477455 219.099976 
L 112.915465 220.529454 
L 114.484203 222.426347 
L 116.183669 224.831616 
L 118.27532 228.201775 
L 121.020612 233.100203 
L 128.079934 245.940765 
L 130.171585 249.193669 
L 132.00178 251.639423 
L 133.570518 253.379894 
L 135.008528 254.652417 
L 136.31581 255.521264 
L 137.492364 256.057818 
L 138.668917 256.35558 
L 139.845471 256.411617 
L 141.022025 256.226093 
L 142.198578 255.802266 
L 143.375132 255.146443 
L 144.682414 254.157044 
L 146.120424 252.771441 
L 147.689162 250.937051 
L 149.519357 248.428677 
L 151.741736 244.962386 
L 154.879212 239.589174 
L 159.846883 231.072885 
L 162.069263 227.710771 
L 163.899457 225.317612 
L 165.468195 223.600491 
L 166.906205 222.335191 
L 168.213487 221.463959 
L 169.390041 220.920195 
L 170.566595 220.612476 
L 171.743148 220.545762 
L 172.919702 220.721936 
L 174.096256 221.139781 
L 175.272809 221.794998 
L 176.580091 222.7924 
L 178.018101 224.200292 
L 179.58684 226.078701 
L 181.286306 228.471328 
L 183.247229 231.61649 
L 185.861792 236.271691 
L 193.96694 251.087234 
L 196.058591 254.265318 
L 197.758057 256.467067 
L 199.326796 258.144352 
L 200.764806 259.350912 
L 202.072087 260.154581 
L 203.248641 260.629375 
L 204.425195 260.863488 
L 205.601748 260.855016 
L 206.778302 260.605153 
L 207.954856 260.118179 
L 209.13141 259.401401 
L 210.438691 258.348015 
L 211.876701 256.898018 
L 213.44544 255.002281 
L 215.275634 252.436354 
L 217.498013 248.923618 
L 220.896946 243.0755 
L 225.210976 235.735427 
L 227.433356 232.383815 
L 229.26355 229.997704 
L 230.832288 228.285471 
L 232.270298 227.023717 
L 233.57758 226.15493 
L 234.754134 225.612733 
L 235.930688 225.305982 
L 237.107241 225.239634 
L 238.283795 225.415575 
L 239.460349 225.832586 
L 240.636902 226.486369 
L 241.944184 227.481473 
L 243.382194 228.885983 
L 244.950932 230.759682 
L 246.650399 233.146005 
L 248.74205 236.503633 
L 251.356614 241.164648 
L 259.200305 255.463573 
L 261.291956 258.649813 
L 262.991422 260.862083 
L 264.56016 262.55148 
L 265.99817 263.770576 
L 267.305452 264.586339 
L 268.482006 265.072205 
L 269.65856 265.31722 
L 270.835113 265.319136 
L 272.011667 265.078807 
L 273.188221 264.600173 
L 274.364774 263.890211 
L 275.672056 262.842225 
L 277.110066 261.39505 
L 278.678804 259.498096 
L 280.508999 256.924337 
L 282.731378 253.391793 
L 285.999583 247.721408 
L 290.575069 239.825761 
L 292.797448 236.424032 
L 294.627643 233.995261 
L 296.196381 232.245478 
L 297.634391 230.948511 
L 298.941673 230.047062 
L 300.118227 229.474944 
L 301.294781 229.137777 
L 302.471334 229.040524 
L 303.647888 229.185072 
L 304.824442 229.57021 
L 306.000995 230.19164 
L 307.308277 231.150243 
L 308.746287 232.513931 
L 310.315025 234.342307 
L 312.014492 236.67861 
L 313.975415 239.756063 
L 316.589978 244.316492 
L 324.695126 258.806231 
L 326.656049 261.71391 
L 328.355515 263.867686 
L 329.924253 265.502375 
L 331.362263 266.670732 
L 332.669545 267.439888 
L 333.846099 267.883423 
L 335.022652 268.085746 
L 336.199206 268.044617 
L 337.37576 267.760894 
L 338.552313 267.238522 
L 339.859595 266.386808 
L 341.166877 265.262998 
L 342.604887 263.734273 
L 344.304354 261.572378 
L 346.265276 258.673086 
L 348.618384 254.762979 
L 352.670958 247.494733 
L 356.200619 241.349408 
L 358.422998 237.907471 
L 360.253192 235.458134 
L 361.821931 233.698381 
L 363.259941 232.397362 
L 364.567222 231.495525 
L 365.743776 230.925007 
L 366.92033 230.590609 
L 368.096883 230.49662 
L 369.273437 230.644246 
L 370.449991 231.031594 
L 371.626544 231.653694 
L 372.933826 232.610437 
L 374.371836 233.967924 
L 375.940575 235.783353 
L 377.640041 238.096942 
L 379.731692 241.349408 
L 382.476984 246.085304 
L 389.405578 258.258854 
L 391.497229 261.39164 
L 393.327423 263.734273 
L 394.896162 265.387139 
L 396.334172 266.579424 
L 397.641453 267.374918 
L 398.818007 267.844754 
L 399.994561 268.0748 
L 401.171114 268.061794 
L 402.347668 267.805566 
L 403.524222 267.309043 
L 404.700775 266.578211 
L 406.008057 265.502375 
L 407.446067 264.017465 
L 409.014806 262.069124 
L 410.845 259.419661 
L 413.067379 255.76924 
L 416.074128 250.352575 
L 421.564711 240.411994 
L 423.787091 236.872024 
L 425.617285 234.342307 
L 427.186023 232.513931 
L 428.624033 231.150243 
L 429.931315 230.19164 
L 431.238597 229.515643 
L 432.415151 229.157082 
L 433.19952 229.051744 
L 433.19952 229.051744 
" clip-path="url(#p934095f0bf)" style="fill: none; stroke: #0271ae; stroke-opacity: 0.75; stroke-width: 2; stroke-linecap: round"/>
   </g>
   <g id="line2d_64">
    <path d="M 41.145691 215.305425 
L 43.760254 215.305425 
L 43.760254 215.904339 
L 46.374818 215.904339 
L 46.374818 217.663598 
L 48.989382 217.663598 
L 48.989382 220.47311 
L 51.603946 220.47311 
L 51.603946 224.157087 
L 54.218509 224.157087 
L 54.218509 228.485095 
L 56.833073 228.485095 
L 56.833073 233.186529 
L 59.447637 233.186529 
L 59.447637 237.967617 
L 62.0622 237.967617 
L 62.0622 242.529876 
L 64.676764 242.529876 
L 64.676764 246.588868 
L 67.291328 246.588868 
L 67.291328 249.892068 
L 69.905892 249.892068 
L 69.905892 252.234731 
L 72.520455 252.234731 
L 72.520455 253.472758 
L 77.749583 253.531741 
L 77.749583 252.411644 
L 80.364146 252.411644 
L 80.364146 250.186798 
L 82.97871 250.186798 
L 82.97871 247.00123 
L 85.593274 247.00123 
L 85.593274 243.05961 
L 88.207838 243.05961 
L 88.207838 238.614387 
L 90.822401 238.614387 
L 90.822401 233.949928 
L 93.436965 233.949928 
L 93.436965 229.36464 
L 96.051529 229.36464 
L 96.051529 225.152222 
L 98.666092 225.152222 
L 98.666092 221.583207 
L 101.280656 221.583207 
L 101.280656 218.887956 
L 103.89522 218.887956 
L 103.89522 217.242184 
L 106.509784 217.242184 
L 106.509784 216.755912 
L 109.124347 216.755912 
L 109.124347 217.466553 
L 111.738911 217.466553 
L 111.738911 219.336552 
L 114.353475 219.336552 
L 114.353475 222.255746 
L 116.968038 222.255746 
L 116.968038 226.04828 
L 119.582602 226.04828 
L 119.582602 230.48365 
L 122.197166 230.48365 
L 122.197166 235.291184 
L 124.81173 235.291184 
L 124.81173 240.177043 
L 127.426293 240.177043 
L 127.426293 244.842677 
L 130.040857 244.842677 
L 130.040857 249.003583 
L 132.655421 249.003583 
L 132.655421 252.407172 
L 135.269985 252.407172 
L 135.269985 254.848636 
L 137.884548 254.848636 
L 137.884548 256.183813 
L 140.499112 256.183813 
L 140.499112 256.338233 
L 143.113676 256.338233 
L 143.113676 255.311801 
L 145.728239 255.311801 
L 145.728239 253.178788 
L 148.342803 253.178788 
L 148.342803 250.083162 
L 150.957367 250.083162 
L 150.957367 246.229538 
L 153.571931 246.229538 
L 153.571931 241.87031 
L 156.186494 241.87031 
L 156.186494 237.289788 
L 158.801058 237.289788 
L 158.801058 232.786328 
L 161.415622 232.786328 
L 161.415622 228.653577 
L 164.030185 228.653577 
L 164.030185 225.162017 
L 166.644749 225.162017 
L 166.644749 222.541962 
L 169.259313 222.541962 
L 169.259313 220.969077 
L 171.873877 220.969077 
L 171.873877 220.553338 
L 174.48844 220.553338 
L 174.48844 221.332113 
L 177.103004 221.332113 
L 177.103004 223.267804 
L 179.717568 223.267804 
L 179.717568 226.250208 
L 182.332131 226.250208 
L 182.332131 230.103429 
L 184.946695 230.103429 
L 184.946695 234.596925 
L 187.561259 234.596925 
L 187.561259 239.459987 
L 190.175823 239.459987 
L 190.175823 244.39874 
L 192.790386 244.39874 
L 192.790386 249.114602 
L 195.40495 249.114602 
L 195.40495 253.323037 
L 198.019514 253.323037 
L 198.019514 256.771428 
L 200.634077 256.771428 
L 200.634077 259.254937 
L 203.248641 259.254937 
L 203.248641 260.629375 
L 205.863205 260.629375 
L 205.863205 260.820249 
L 208.477769 260.820249 
L 208.477769 259.82744 
L 211.092332 259.82744 
L 211.092332 257.725197 
L 213.706896 257.725197 
L 213.706896 254.657471 
L 216.32146 254.657471 
L 216.32146 250.828857 
L 218.936023 250.828857 
L 218.936023 246.491733 
L 221.550587 246.491733 
L 221.550587 241.930397 
L 224.165151 241.930397 
L 224.165151 237.443192 
L 226.779715 237.443192 
L 226.779715 233.323754 
L 229.394278 233.323754 
L 229.394278 229.842558 
L 232.008842 229.842558 
L 232.008842 227.229909 
L 234.623406 227.229909 
L 234.623406 225.66147 
L 237.237969 225.66147 
L 237.237969 225.247214 
L 239.852533 225.247214 
L 239.852533 226.024506 
L 242.467097 226.024506 
L 242.467097 227.955752 
L 245.081661 227.955752 
L 245.081661 230.930749 
L 247.696224 230.930749 
L 247.696224 234.773606 
L 250.310788 234.773606 
L 250.310788 239.253789 
L 252.925352 239.253789 
L 252.925352 244.100596 
L 255.539915 244.100596 
L 255.539915 249.020163 
L 258.154479 249.020163 
L 258.154479 253.71392 
L 260.769043 253.71392 
L 260.769043 257.897346 
L 263.383607 257.897346 
L 263.383607 261.317837 
L 265.99817 261.317837 
L 265.99817 263.770576 
L 268.612734 263.770576 
L 268.612734 265.11139 
L 271.227298 265.11139 
L 271.227298 265.265811 
L 273.841861 265.265811 
L 273.841861 264.23374 
L 276.456425 264.23374 
L 276.456425 262.089453 
L 279.070989 262.089453 
L 279.070989 258.976925 
L 281.685553 258.976925 
L 281.685553 255.100781 
L 284.300116 255.100781 
L 284.300116 250.71343 
L 286.91468 250.71343 
L 286.91468 246.099199 
L 289.529244 246.099199 
L 289.529244 241.556466 
L 292.143807 241.556466 
L 292.143807 237.378904 
L 294.758371 237.378904 
L 294.758371 233.83702 
L 297.372935 233.83702 
L 297.372935 231.161162 
L 299.987499 231.161162 
L 299.987499 229.52703 
L 302.602062 229.52703 
L 302.602062 229.044639 
L 305.216626 229.044639 
L 305.216626 229.751399 
L 307.83119 229.751399 
L 307.83119 231.609757 
L 310.445754 231.609757 
L 310.445754 234.509559 
L 313.060317 234.509559 
L 313.060317 238.274961 
L 315.674881 238.274961 
L 315.674881 242.675477 
L 318.289445 242.675477 
L 318.289445 247.440456 
L 320.904008 247.440456 
L 320.904008 252.276085 
L 323.518572 252.276085 
L 323.518572 256.883848 
L 326.133136 256.883848 
L 326.133136 260.979278 
L 328.7477 260.979278 
L 328.7477 264.309826 
L 331.362263 264.309826 
L 331.362263 266.670732 
L 333.976827 266.670732 
L 333.976827 267.917882 
L 339.205954 267.976866 
L 339.205954 266.847645 
L 341.820518 266.847645 
L 341.820518 264.604557 
L 344.435082 264.604557 
L 344.435082 261.39164 
L 347.049646 261.39164 
L 347.049646 257.413582 
L 349.664209 257.413582 
L 349.664209 252.922856 
L 352.278773 252.922856 
L 352.278773 248.203855 
L 354.893337 248.203855 
L 354.893337 243.555022 
L 357.5079 243.555022 
L 357.5079 239.270096 
L 360.122464 239.270096 
L 360.122464 235.619656 
L 362.737028 235.619656 
L 362.737028 232.834115 
L 365.351592 232.834115 
L 365.351592 231.089244 
L 367.966155 231.089244 
L 367.966155 230.495127 
L 370.580719 230.495127 
L 370.580719 231.089244 
L 373.195283 231.089244 
L 373.195283 232.834115 
L 375.809846 232.834115 
L 375.809846 235.619656 
L 378.42441 235.619656 
L 378.42441 239.270096 
L 381.038974 239.270096 
L 381.038974 243.555022 
L 383.653538 243.555022 
L 383.653538 248.203855 
L 386.268101 248.203855 
L 386.268101 252.922856 
L 388.882665 252.922856 
L 388.882665 257.413582 
L 391.497229 257.413582 
L 391.497229 261.39164 
L 394.111792 261.39164 
L 394.111792 264.604557 
L 396.726356 264.604557 
L 396.726356 266.847645 
L 399.34092 266.847645 
L 399.34092 267.976866 
L 404.570047 267.917882 
L 404.570047 266.670732 
L 407.184611 266.670732 
L 407.184611 264.309826 
L 409.799175 264.309826 
L 409.799175 260.979278 
L 412.413738 260.979278 
L 412.413738 256.883848 
L 415.028302 256.883848 
L 415.028302 252.276085 
L 417.642866 252.276085 
L 417.642866 247.440456 
L 420.25743 247.440456 
L 420.25743 242.675477 
L 422.871993 242.675477 
L 422.871993 238.274961 
L 425.486557 238.274961 
L 425.486557 234.509559 
L 428.101121 234.509559 
L 428.101121 231.609757 
L 430.715684 231.609757 
L 430.715684 229.751399 
L 430.715684 229.751399 
" clip-path="url(#p934095f0bf)" style="fill: none; stroke: #dc2830; stroke-width: 2; stroke-linecap: round"/>
   </g>
   <g id="legend_3">
    <g id="patch_7">
     <path d="M 291.326878 272.861659 
L 423.39952 272.861659 
Q 426.19952 272.861659 426.19952 270.061659 
L 426.19952 249.928177 
Q 426.19952 247.128177 423.39952 247.128177 
L 291.326878 247.128177 
Q 288.526878 247.128177 288.526878 249.928177 
L 288.526878 270.061659 
Q 288.526878 272.861659 291.326878 272.861659 
z
" style="fill: #ffffff; opacity: 0.95; stroke: #cccccc; stroke-width: 0.5; stroke-linejoin: miter"/>
    </g>
    <g id="line2d_65">
     <path d="M 294.126878 258.428486 
L 301.126878 258.428486 
L 308.126878 258.428486 
" style="fill: none; stroke: #0271ae; stroke-opacity: 0.75; stroke-width: 2; stroke-linecap: round"/>
    </g>
    <g id="text_21">
     <!-- $x(t)$ -->
     <g transform="translate(319.326878 263.328486)scale(0.14 -0.14)">
      <use xlink:href="#URWPalladioL-Ital-78" transform="scale(0.996264)"/>
      <use xlink:href="#CMR10-28" transform="translate(53.299136 0)scale(1.038107)"/>
      <use xlink:href="#URWPalladioL-Ital-74" transform="translate(96.038841 0)scale(0.996264)"/>
      <use xlink:href="#CMR10-29" transform="translate(131.704123 0)scale(1.038107)"/>
     </g>
    </g>
    <g id="line2d_66">
     <path d="M 371.417371 258.428486 
L 378.417371 258.428486 
L 378.417371 258.428486 
L 385.417371 258.428486 
L 385.417371 258.428486 
" style="fill: none; stroke: #dc2830; stroke-width: 2; stroke-linecap: round"/>
    </g>
    <g id="text_22">
     <!-- $x[n]$ -->
     <g transform="translate(396.617371 263.328486)scale(0.14 -0.14)">
      <use xlink:href="#URWPalladioL-Ital-78" transform="scale(0.996264)"/>
      <use xlink:href="#CMR10-5b" transform="translate(53.299136 0)scale(1.038107)"/>
      <use xlink:href="#URWPalladioL-Ital-6e" transform="translate(84.581835 0)scale(0.996264)"/>
      <use xlink:href="#CMR10-5d" transform="translate(142.464796 0)scale(1.038107)"/>
     </g>
    </g>
   </g>
  </g>
 </g>
 <defs>
  <clipPath id="p7a83abddff">
   <rect x="41.145691" y="12.189765" width="392.053829" height="75.94851"/>
  </clipPath>
  <clipPath id="pd0e596fe8f">
   <rect x="41.145691" y="108.051456" width="392.053829" height="75.94851"/>
  </clipPath>
  <clipPath id="p934095f0bf">
   <rect x="41.145691" y="203.913148" width="392.053829" height="75.94851"/>
  </clipPath>
 </defs>
</svg>