<svg width="4116" height="1819" xmlns="http://www.w3.org/2000/svg" xmlns:xlink="http://www.w3.org/1999/xlink" xml:space="preserve" overflow="hidden"><g transform="translate(-178 -527)"><g><path d="M2019 1603 1232 1603 1232 1909 1625.5 1909 2019 1909 2019 1603Z" fill="#E7F6FF" fill-rule="evenodd" fill-opacity="1"/><text fill="#000000" fill-opacity="1" font-family="Arial,Arial_MSFontService,sans-serif" font-style="normal" font-variant="normal" font-weight="400" font-stretch="normal" font-size="100" text-anchor="start" direction="ltr" writing-mode="lr-tb" unicode-bidi="normal" text-decoration="none" transform="matrix(1 0 0 1 1477.92 1754)">LNM</text><path d="M3375 1034 2107 1034 2107 1340 2741 1340 3375 1340 3375 1034Z" fill="#E7F6FF" fill-rule="evenodd" fill-opacity="1"/><text fill="#000000" fill-opacity="1" font-family="Arial,Arial_MSFontService,sans-serif" font-style="normal" font-variant="normal" font-weight="400" font-stretch="normal" font-size="100" text-anchor="start" direction="ltr" writing-mode="lr-tb" unicode-bidi="normal" text-decoration="none" transform="matrix(1 0 0 1 2410.73 1186)">HNM</text><path d="M2107 1340 2019 1340 2019 1603 2063 1603 2107 1603 2107 1340Z" fill="#FFCCCC" fill-rule="evenodd" fill-opacity="1"/><path d="M1232.5 2040.5 1232.5 905.5" stroke="#000000" stroke-width="1.14583" stroke-linecap="butt" stroke-linejoin="round" stroke-miterlimit="10" stroke-opacity="1" fill="none" fill-rule="evenodd"/><path d="M1232 831 1206 909 1258 909 1232 831Z" fill="#000000" fill-rule="evenodd" fill-opacity="1"/><path d="M1232.5 2040.5 3344.5 2041.5" stroke="#000000" stroke-width="1.14583" stroke-linecap="butt" stroke-linejoin="round" stroke-miterlimit="10" stroke-opacity="1" fill="none" fill-rule="evenodd"/><path d="M3341 2015 3341 2067 3418 2041 3341 2015Z" fill="#000000" fill-rule="evenodd" fill-opacity="1"/><text fill="#000000" fill-opacity="1" font-family="Arial,Arial_MSFontService,sans-serif" font-style="italic" font-variant="normal" font-weight="400" font-stretch="normal" font-size="133" text-anchor="start" direction="ltr" writing-mode="lr-tb" unicode-bidi="normal" text-decoration="none" transform="matrix(1 0 0 1 3372.09 2171)">t</text><text fill="#000000" fill-opacity="1" font-family="Arial,Arial_MSFontService,sans-serif" font-style="italic" font-variant="normal" font-weight="400" font-stretch="normal" font-size="133" text-anchor="start" direction="ltr" writing-mode="lr-tb" unicode-bidi="normal" text-decoration="none" transform="matrix(1 0 0 1 1158.99 817)">v</text><path d="M1232.5 1034.5 3368.5 1034.5" stroke="#0000CC" stroke-width="6.6148" stroke-linecap="butt" stroke-linejoin="round" stroke-miterlimit="10" stroke-dasharray="26.4592 19.8444" stroke-opacity="1" fill="none" fill-rule="evenodd"/><text fill="#0000CC" fill-opacity="1" font-family="Arial,Arial_MSFontService,sans-serif" font-style="italic" font-variant="normal" font-weight="400" font-stretch="normal" font-size="133" text-anchor="start" direction="ltr" writing-mode="lr-tb" unicode-bidi="normal" text-decoration="none" transform="matrix(1 0 0 1 888.837 1006)">V</text><text fill="#0000CC" fill-opacity="1" font-family="Arial,Arial_MSFontService,sans-serif" font-style="italic" font-variant="normal" font-weight="400" font-stretch="normal" font-size="77" text-anchor="start" direction="ltr" writing-mode="lr-tb" unicode-bidi="normal" text-decoration="none" transform="matrix(1 0 0 1 1018.19 1116)">O</text><text fill="#0000CC" fill-opacity="1" font-family="Arial,Arial_MSFontService,sans-serif" font-style="italic" font-variant="normal" font-weight="400" font-stretch="normal" font-size="77" text-anchor="start" direction="ltr" writing-mode="lr-tb" unicode-bidi="normal" text-decoration="none" transform="matrix(1 0 0 1 1077.55 1116)">H</text><text fill="#0000CC" fill-opacity="1" font-family="Arial,Arial_MSFontService,sans-serif" font-style="italic" font-variant="normal" font-weight="400" font-stretch="normal" font-size="133" text-anchor="start" direction="ltr" writing-mode="lr-tb" unicode-bidi="normal" text-decoration="none" transform="matrix(1 0 0 1 907.056 1882)">V</text><text fill="#0000CC" fill-opacity="1" font-family="Arial,Arial_MSFontService,sans-serif" font-style="italic" font-variant="normal" font-weight="400" font-stretch="normal" font-size="77" text-anchor="start" direction="ltr" writing-mode="lr-tb" unicode-bidi="normal" text-decoration="none" transform="matrix(1 0 0 1 1036.41 1991)">O</text><text fill="#0000CC" fill-opacity="1" font-family="Arial,Arial_MSFontService,sans-serif" font-style="italic" font-variant="normal" font-weight="400" font-stretch="normal" font-size="77" text-anchor="start" direction="ltr" writing-mode="lr-tb" unicode-bidi="normal" text-decoration="none" transform="matrix(1 0 0 1 1095.77 1991)">L</text><text fill="#009900" fill-opacity="1" font-family="Arial,Arial_MSFontService,sans-serif" font-style="italic" font-variant="normal" font-weight="400" font-stretch="normal" font-size="133" text-anchor="start" direction="ltr" writing-mode="lr-tb" unicode-bidi="normal" text-decoration="none" transform="matrix(1 0 0 1 967.179 1583)">V</text><text fill="#009900" fill-opacity="1" font-family="Arial,Arial_MSFontService,sans-serif" font-style="italic" font-variant="normal" font-weight="400" font-stretch="normal" font-size="77" text-anchor="start" direction="ltr" writing-mode="lr-tb" unicode-bidi="normal" text-decoration="none" transform="matrix(1 0 0 1 1097.14 1693)">I</text><text fill="#009900" fill-opacity="1" font-family="Arial,Arial_MSFontService,sans-serif" font-style="italic" font-variant="normal" font-weight="400" font-stretch="normal" font-size="77" text-anchor="start" direction="ltr" writing-mode="lr-tb" unicode-bidi="normal" text-decoration="none" transform="matrix(1 0 0 1 1117.93 1693)">L</text><text fill="#009900" fill-opacity="1" font-family="Arial,Arial_MSFontService,sans-serif" font-style="italic" font-variant="normal" font-weight="400" font-stretch="normal" font-size="133" text-anchor="start" direction="ltr" writing-mode="lr-tb" unicode-bidi="normal" text-decoration="none" transform="matrix(1 0 0 1 948.96 1321)">V</text><text fill="#009900" fill-opacity="1" font-family="Arial,Arial_MSFontService,sans-serif" font-style="italic" font-variant="normal" font-weight="400" font-stretch="normal" font-size="77" text-anchor="start" direction="ltr" writing-mode="lr-tb" unicode-bidi="normal" text-decoration="none" transform="matrix(1 0 0 1 1078.92 1430)">I</text><text fill="#009900" fill-opacity="1" font-family="Arial,Arial_MSFontService,sans-serif" font-style="italic" font-variant="normal" font-weight="400" font-stretch="normal" font-size="77" text-anchor="start" direction="ltr" writing-mode="lr-tb" unicode-bidi="normal" text-decoration="none" transform="matrix(1 0 0 1 1099.71 1430)">H</text><path d="M1239.5 1909.5 3375.5 1909.5" stroke="#0000CC" stroke-width="6.6148" stroke-linecap="butt" stroke-linejoin="round" stroke-miterlimit="10" stroke-dasharray="26.4592 19.8444" stroke-opacity="1" fill="none" fill-rule="evenodd"/><path d="M1239.5 1603.5 3375.5 1603.5" stroke="#009900" stroke-width="6.6148" stroke-linecap="butt" stroke-linejoin="round" stroke-miterlimit="10" stroke-dasharray="26.4592 19.8444" stroke-opacity="1" fill="none" fill-rule="evenodd"/><path d="M1239.5 1340.5 3375.5 1340.5" stroke="#009900" stroke-width="6.6148" stroke-linecap="butt" stroke-linejoin="round" stroke-miterlimit="10" stroke-dasharray="26.4592 19.8444" stroke-opacity="1" fill="none" fill-rule="evenodd"/><path d="M1232.5 1920.98 1237.15 1911.93 1241.22 1907.42 1244.77 1906.79 1247.86 1909.39 1254.98 1929.92 1258.54 1947.68 1260.15 1955.81 1261.72 1962.56 1263.32 1967.28 1265.01 1969.31 1266.84 1967.99 1273.82 1937.39 1276.84 1916.12 1279.93 1891.73 1282.74 1866.81 1285.57 1841.86 1288.77 1817.36 1292.63 1793.81 1297.49 1771.69 1303.38 1752.34 1313.07 1741.12 1317.15 1746.33 1320.9 1756.81 1324.47 1771.11 1327.99 1787.76 1331.59 1805.31 1335.41 1822.3 1339.59 1837.27 1344.27 1848.76 1357.87 1867.46 1370.61 1870 1384.16 1860.71 1400.15 1843.91 1412.03 1838.64 1435.66 1861.17 1446.49 1882.55 1456.03 1906.41 1467.1 1938.97 1473.74 1957 1480.79 1973.01 1488.01 1984.65 1495.15 1989.53 1501.99 1985.28 1508.27 1969.52 1511.83 1956.31 1516.26 1941.73 1521.32 1927.54 1526.75 1915.53 1532.31 1907.46 1537.74 1905.11 1542.8 1910.25 1547.23 1924.66 1550.79 1950.1 1554.17 1974.49 1558.27 1988.75 1562.97 1994.39 1568.12 1992.93 1573.62 1985.89 1579.33 1974.78 1585.13 1961.12 1590.89 1946.42 1596.48 1932.21 1601.79 1919.98 1606.67 1911.27 1619.6 1901.65 1631.51 1906.02 1642.54 1919.57 1652.84 1937.48 1662.56 1954.96 1672.74 1965.39 1683.1 1966.44 1693.96 1965.18 1705.63 1968.71 1718.44 1984.09 1728.06 1992.7 1738.26 1988.9 1757.95 1955.41 1766.18 1931.42 1772.5 1906.41 1777.69 1880.16 1782.65 1852.79 1787.84 1825.78 1793.74 1800.64 1800.82 1778.88 1809.55 1761.98 1817.7 1755.03 1824.86 1758.26 1836.36 1786.79 1840.76 1807.87 1844.32 1830.68 1847.07 1853.11 1849.04 1873.04 1852.84 1898.39 1858.61 1910.07 1865.74 1912.16 1873.59 1908.75 1881.53 1903.94 1888.95 1901.79 1895.2 1906.41 1901.62 1921.14 1907.56 1940.29 1913.36 1960.61 1919.36 1978.88 1925.9 1991.85 1933.33 1996.28 1941.97 1988.94 1951.94 1970.68 1960.78 1949.23 1968.78 1925.45 1976.21 1900.21 1983.38 1874.36 1990.57 1848.76 1995.87 1826.68 2000.35 1803.2 2004.24 1778.75 2007.71 1753.74 2010.98 1728.59 2014.26 1703.73 2018.09 1678.78 2022.24 1654.26 2026.63 1630.07 2031.18 1606.14 2035.78 1582.37 2040.38 1558.69 2045.04 1533.62 2049.51 1508.01 2054.12 1482.53 2059.18 1457.87 2065.03 1434.68 2071.96 1413.66 2079.07 1391.79 2084.47 1367.99 2088.9 1343.04 2093.07 1317.73 2097.71 1292.87 2103.55 1269.23 2110.26 1245.06 2116.55 1220.12 2122.61 1194.74 2128.61 1169.26 2134.75 1144.01 2141.21 1119.34 2147.43 1094.14 2153.52 1068.23 2159.74 1042.42 2166.36 1017.53 2173.66 994.349 2181.91 973.7 2191.65 952.637 2200.92 930.816 2209.85 908.388 2218.58 885.506 2227.24 862.319 2235.97 838.981 2244.67 822.119 2252.93 816.5 2260.67 819.94 2274.19 845.269 2279.79 862.79 2284.49 880.639 2293.58 923.009 2298.96 949.876 2304.68 976.203 2311.06 1000.96 2318.42 1023.13 2327.08 1041.67 2337.09 1062.07 2347.1 1084.16 2357.7 1102.79 2369.46 1112.8 2382.97 1109.02 2398.27 1099.44 2413.87 1089.68 2427.98 1072.76 2438.85 1041.67 2445.46 1013.01 2453.13 985.574 2462.16 960.878 2472.88 940.435 2485.62 925.759 2500.67 920.08 2514.47 925.38 2527.82 935.573 2541.5 944.571 2555.45 952.697 2569.22 962.246 2583.1 971.452 2597.39 978.554 2610.84 977.044 2622.48 964.145 2632.99 944.78 2643.03 923.871 2653.27 906.34 2662.51 898.53 2669.68 901.201 2675.38 911.866 2680.22 928.035 2684.81 947.219 2689.74 966.93 2695.63 984.677 2717.45 1012.57 2745.28 1032.19 2758.96 1041.67 2766.51 1043.58 2774.36 1040.4 2782.18 1035.07 2789.64 1030.59 2806.61 1051.9 2809.38 1080.5 2810.73 1104.91 2812.38 1131.12 2814.62 1157.33 2817.76 1181.7 2822.09 1202.41 2835.5 1225.54 2843.83 1222.95 2849.5 1209.36 2853.17 1187.75 2855.54 1161.09 2857.29 1132.34 2859.09 1104.49 2861.62 1080.5 2865.8 1055.73 2870.75 1031.98 2876.04 1008.67 2881.24 985.207 2885.89 961.004 2889.56 935.469 2893.11 910.731 2896.75 894.628 2900.43 886.098 2904.14 884.082 2907.84 887.518 2915.12 906.505 2922.04 934.574 2925.29 949.362 2928.38 963.239 2933.9 984.016 2946.9 1008.82 2960.93 1022.25 2989.78 1036.81 3016.82 1045.53 3030.79 1042.36 3053.67 1020.02 3063.67 983.252 3066.91 962.748 3069.82 943.723 3073.02 928.344 3077.14 918.779 3082.8 917.194 3090.62 925.759 3098.2 942.487 3103.73 964.305 3107.78 989.629 3110.91 1016.88 3113.71 1044.46 3116.74 1070.79 3118.86 1095.36 3119.77 1121.48 3120.38 1147.86 3121.6 1173.24 3124.33 1196.32 3129.49 1215.83 3131.95 1224.35 3134.05 1236.27 3135.84 1250.45 3137.4 1265.73 3138.8 1280.97 3140.1 1295.02 3141.36 1306.74 3142.66 1314.97 3144.06 1318.57 3145.62 1316.4 3149.51 1290.15 3151.97 1263.77 3153.62 1239.37 3154.67 1214.46 3155.61 1189.51 3156.96 1165.01 3159.22 1141.46 3162.9 1119.34 3166.13 1099.95 3168.44 1077.35 3170.42 1053.64 3172.62 1030.97 3175.62 1011.46 3186.29 990.403 3195.09 993.118 3210.39 1002.79 3224.55 1005.41 3237.8 999.604 3250.37 984.016 3257.25 972.291 3264.75 960.291 3272.67 950.785 3280.8 946.544 3288.93 950.339 3296.88 964.94 3304.43 993.118 3314.53 1016.57 3329.18 1024.14 3345.43 1018.63 3360.31 1002.83 3375.5 993.118" stroke="#000000" stroke-width="13.23" stroke-linecap="butt" stroke-linejoin="round" stroke-miterlimit="10" stroke-opacity="1" fill="none" fill-rule="evenodd"/><path d="M2291.5 1471.5 2181.5 1471.5" stroke="#999999" stroke-width="1.14583" stroke-linecap="butt" stroke-linejoin="round" stroke-miterlimit="10" stroke-opacity="1" fill="none" fill-rule="evenodd"/><path d="M2184 1445 2107 1471.5 2184 1498 2184 1445Z" fill="#999999" fill-rule="evenodd" fill-opacity="1"/><text fill="#000000" fill-opacity="1" font-family="Arial,Arial_MSFontService,sans-serif" font-style="normal" font-variant="normal" font-weight="400" font-stretch="normal" font-size="92" text-anchor="start" direction="ltr" writing-mode="lr-tb" unicode-bidi="normal" text-decoration="none" transform="matrix(1 0 0 1 2295.95 1461)">n</text><text fill="#000000" fill-opacity="1" font-family="Arial,Arial_MSFontService,sans-serif" font-style="normal" font-variant="normal" font-weight="400" font-stretch="normal" font-size="92" text-anchor="start" direction="ltr" writing-mode="lr-tb" unicode-bidi="normal" text-decoration="none" transform="matrix(1 0 0 1 2346.71 1461)">ot valid</text><text fill="#000000" fill-opacity="1" font-family="Arial,Arial_MSFontService,sans-serif" font-style="italic" font-variant="normal" font-weight="400" font-stretch="normal" font-size="92" text-anchor="start" direction="ltr" writing-mode="lr-tb" unicode-bidi="normal" text-decoration="none" transform="matrix(1 0 0 1 1490.5 2182)">low</text><text fill="#000000" fill-opacity="1" font-family="Arial,Arial_MSFontService,sans-serif" font-style="italic" font-variant="normal" font-weight="400" font-stretch="normal" font-size="92" text-anchor="start" direction="ltr" writing-mode="lr-tb" unicode-bidi="normal" text-decoration="none" transform="matrix(1 0 0 1 2574.86 648)">high</text><path d="M716.5 1297.5 2176.5 838.5" stroke="#999999" stroke-width="1.14583" stroke-linecap="butt" stroke-linejoin="round" stroke-miterlimit="10" stroke-opacity="1" fill="none" fill-rule="evenodd"/><path d="M2165 814 2180.79 864 2247 815.234 2165 814Z" fill="#999999" fill-rule="evenodd" fill-opacity="1"/><path d="M716.5 1603.5 1437.5 1963.5" stroke="#999999" stroke-width="1.14583" stroke-linecap="butt" stroke-linejoin="round" stroke-miterlimit="10" stroke-opacity="1" fill="none" fill-rule="evenodd"/><path d="M1446.14 1938 1423 1984.4 1504 1996 1446.14 1938Z" fill="#999999" fill-rule="evenodd" fill-opacity="1"/><path d="M3550.5 1603.5 1918.5 1770.5" stroke="#999999" stroke-width="1.14583" stroke-linecap="butt" stroke-linejoin="round" stroke-miterlimit="10" stroke-opacity="1" fill="none" fill-rule="evenodd"/><path d="M1918.5 1744 1844 1777.39 1924 1795 1918.5 1744Z" fill="#999999" fill-rule="evenodd" fill-opacity="1"/><path d="M3550.5 1471.5 3223.5 1327.5" stroke="#999999" stroke-width="1.14583" stroke-linecap="butt" stroke-linejoin="round" stroke-miterlimit="10" stroke-opacity="1" fill="none" fill-rule="evenodd"/><path d="M3156 1297 3215.84 1352 3237 1304.86 3156 1297Z" fill="#999999" fill-rule="evenodd" fill-opacity="1"/><text fill="#999999" fill-opacity="1" font-family="Arial,Arial_MSFontService,sans-serif" font-style="normal" font-variant="normal" font-weight="400" font-stretch="normal" font-size="83" text-anchor="start" direction="ltr" writing-mode="lr-tb" unicode-bidi="normal" text-decoration="none" transform="matrix(1 0 0 1 288.865 1154)">deviations </text><text fill="#999999" fill-opacity="1" font-family="Arial,Arial_MSFontService,sans-serif" font-style="normal" font-variant="normal" font-weight="400" font-stretch="normal" font-size="83" text-anchor="start" direction="ltr" writing-mode="lr-tb" unicode-bidi="normal" text-decoration="none" transform="matrix(1 0 0 1 246.583 1248)">that</text><text fill="#000000" fill-opacity="1" font-family="Arial,Arial_MSFontService,sans-serif" font-style="normal" font-variant="normal" font-weight="700" font-stretch="normal" font-size="83" text-anchor="start" direction="ltr" writing-mode="lr-tb" unicode-bidi="normal" text-decoration="none" transform="matrix(1 0 0 1 407.458 1248)">do not</text><text fill="#000000" fill-opacity="1" font-family="Arial,Arial_MSFontService,sans-serif" font-style="normal" font-variant="normal" font-weight="400" font-stretch="normal" font-size="83" text-anchor="start" direction="ltr" writing-mode="lr-tb" unicode-bidi="normal" text-decoration="none" transform="matrix(1 0 0 1 440.115 1342)">risk to </text><text fill="#000000" fill-opacity="1" font-family="Arial,Arial_MSFontService,sans-serif" font-style="normal" font-variant="normal" font-weight="400" font-stretch="normal" font-size="83" text-anchor="start" direction="ltr" writing-mode="lr-tb" unicode-bidi="normal" text-decoration="none" transform="matrix(1 0 0 1 249.333 1435)">change the </text><text fill="#000000" fill-opacity="1" font-family="Arial,Arial_MSFontService,sans-serif" font-style="normal" font-variant="normal" font-weight="400" font-stretch="normal" font-size="83" text-anchor="start" direction="ltr" writing-mode="lr-tb" unicode-bidi="normal" text-decoration="none" transform="matrix(1 0 0 1 287.146 1529)">logic state</text><text fill="#999999" fill-opacity="1" font-family="Arial,Arial_MSFontService,sans-serif" font-style="normal" font-variant="normal" font-weight="400" font-stretch="normal" font-size="83" text-anchor="start" direction="ltr" writing-mode="lr-tb" unicode-bidi="normal" text-decoration="none" transform="matrix(1 0 0 1 3606.34 1524)">deviations that</text><text fill="#000000" fill-opacity="1" font-family="Arial,Arial_MSFontService,sans-serif" font-style="normal" font-variant="normal" font-weight="700" font-stretch="normal" font-size="83" text-anchor="start" direction="ltr" writing-mode="lr-tb" unicode-bidi="normal" text-decoration="none" transform="matrix(1 0 0 1 3606.34 1618)">risk</text><text fill="#000000" fill-opacity="1" font-family="Arial,Arial_MSFontService,sans-serif" font-style="normal" font-variant="normal" font-weight="400" font-stretch="normal" font-size="83" text-anchor="start" direction="ltr" writing-mode="lr-tb" unicode-bidi="normal" text-decoration="none" transform="matrix(1 0 0 1 3776.49 1618)">to change </text><text fill="#000000" fill-opacity="1" font-family="Arial,Arial_MSFontService,sans-serif" font-style="normal" font-variant="normal" font-weight="400" font-stretch="normal" font-size="83" text-anchor="start" direction="ltr" writing-mode="lr-tb" unicode-bidi="normal" text-decoration="none" transform="matrix(1 0 0 1 3606.34 1712)">the logic state</text><text fill="#999999" fill-opacity="1" font-family="Arial,Arial_MSFontService,sans-serif" font-style="normal" font-variant="normal" font-weight="400" font-stretch="normal" font-size="83" text-anchor="start" direction="ltr" writing-mode="lr-tb" unicode-bidi="normal" text-decoration="none" transform="matrix(1 0 0 1 4142.82 1712)">if </text><text fill="#999999" fill-opacity="1" font-family="Arial,Arial_MSFontService,sans-serif" font-style="normal" font-variant="normal" font-weight="400" font-stretch="normal" font-size="83" text-anchor="start" direction="ltr" writing-mode="lr-tb" unicode-bidi="normal" text-decoration="none" transform="matrix(1 0 0 1 3606.34 1805)">they underpass </text><text fill="#999999" fill-opacity="1" font-family="Arial,Arial_MSFontService,sans-serif" font-style="normal" font-variant="normal" font-weight="400" font-stretch="normal" font-size="83" text-anchor="start" direction="ltr" writing-mode="lr-tb" unicode-bidi="normal" text-decoration="none" transform="matrix(1 0 0 1 3606.34 1899)">(for high) or </text><text fill="#999999" fill-opacity="1" font-family="Arial,Arial_MSFontService,sans-serif" font-style="normal" font-variant="normal" font-weight="400" font-stretch="normal" font-size="83" text-anchor="start" direction="ltr" writing-mode="lr-tb" unicode-bidi="normal" text-decoration="none" transform="matrix(1 0 0 1 3606.34 1993)">overpass (for </text><text fill="#999999" fill-opacity="1" font-family="Arial,Arial_MSFontService,sans-serif" font-style="normal" font-variant="normal" font-weight="400" font-stretch="normal" font-size="83" text-anchor="start" direction="ltr" writing-mode="lr-tb" unicode-bidi="normal" text-decoration="none" transform="matrix(1 0 0 1 3606.34 2087)">low) the </text><text fill="#999999" fill-opacity="1" font-family="Arial,Arial_MSFontService,sans-serif" font-style="normal" font-variant="normal" font-weight="400" font-stretch="normal" font-size="83" text-anchor="start" direction="ltr" writing-mode="lr-tb" unicode-bidi="normal" text-decoration="none" transform="matrix(1 0 0 1 3606.34 2181)">acceptable </text><text fill="#999999" fill-opacity="1" font-family="Arial,Arial_MSFontService,sans-serif" font-style="normal" font-variant="normal" font-weight="400" font-stretch="normal" font-size="83" text-anchor="start" direction="ltr" writing-mode="lr-tb" unicode-bidi="normal" text-decoration="none" transform="matrix(1 0 0 1 3606.34 2275)">noise margin</text></g></g></svg>