<svg xmlns="http://www.w3.org/2000/svg" width="800" height="84" viewBox="0 0 800 84" class="WaveDrom"><g transform="translate(0.5,0.5)" text-anchor="middle" font-size="14" font-family="sans-serif" font-weight="normal"><g transform="translate(4,21)"><g stroke="black" stroke-width="1" stroke-linecap="round"><line x2="791"/><line y2="31"/><line x2="791" y1="31" y2="31"/><line x1="791" x2="791" y2="31"/><line x1="774" x2="774" y2="3"/><line x1="774" x2="774" y1="31" y2="28"/><line x1="757" x2="757" y2="3"/><line x1="757" x2="757" y1="31" y2="28"/><line x1="741" x2="741" y2="31"/><line x1="724" x2="724" y2="3"/><line x1="724" x2="724" y1="31" y2="28"/><line x1="707" x2="707" y2="3"/><line x1="707" x2="707" y1="31" y2="28"/><line x1="690" x2="690" y2="3"/><line x1="690" x2="690" y1="31" y2="28"/><line x1="673" x2="673" y2="3"/><line x1="673" x2="673" y1="31" y2="28"/><line x1="656" x2="656" y2="3"/><line x1="656" x2="656" y1="31" y2="28"/><line x1="640" x2="640" y2="3"/><line x1="640" x2="640" y1="31" y2="28"/><line x1="623" x2="623" y2="3"/><line x1="623" x2="623" y1="31" y2="28"/><line x1="606" x2="606" y2="3"/><line x1="606" x2="606" y1="31" y2="28"/><line x1="589" x2="589" y2="3"/><line x1="589" x2="589" y1="31" y2="28"/><line x1="572" x2="572" y2="3"/><line x1="572" x2="572" y1="31" y2="28"/><line x1="555" x2="555" y2="3"/><line x1="555" x2="555" y1="31" y2="28"/><line x1="539" x2="539" y2="3"/><line x1="539" x2="539" y1="31" y2="28"/><line x1="522" x2="522" y2="3"/><line x1="522" x2="522" y1="31" y2="28"/><line x1="505" x2="505" y2="3"/><line x1="505" x2="505" y1="31" y2="28"/><line x1="488" x2="488" y2="3"/><line x1="488" x2="488" y1="31" y2="28"/><line x1="471" x2="471" y2="31"/><line x1="454" x2="454" y2="3"/><line x1="454" x2="454" y1="31" y2="28"/><line x1="438" x2="438" y2="3"/><line x1="438" x2="438" y1="31" y2="28"/><line x1="421" x2="421" y2="3"/><line x1="421" x2="421" y1="31" y2="28"/><line x1="404" x2="404" y2="31"/><line x1="387" x2="387" y2="3"/><line x1="387" x2="387" y1="31" y2="28"/><line x1="370" x2="370" y2="3"/><line x1="370" x2="370" y1="31" y2="28"/><line x1="353" x2="353" y2="3"/><line x1="353" x2="353" y1="31" y2="28"/><line x1="337" x2="337" y2="3"/><line x1="337" x2="337" y1="31" y2="28"/><line x1="320" x2="320" y2="3"/><line x1="320" x2="320" y1="31" y2="28"/><line x1="303" x2="303" y2="3"/><line x1="303" x2="303" y1="31" y2="28"/><line x1="286" x2="286" y2="3"/><line x1="286" x2="286" y1="31" y2="28"/><line x1="269" x2="269" y2="31"/><line x1="252" x2="252" y2="3"/><line x1="252" x2="252" y1="31" y2="28"/><line x1="236" x2="236" y2="3"/><line x1="236" x2="236" y1="31" y2="28"/><line x1="219" x2="219" y2="3"/><line x1="219" x2="219" y1="31" y2="28"/><line x1="202" x2="202" y2="31"/><line x1="185" x2="185" y2="3"/><line x1="185" x2="185" y1="31" y2="28"/><line x1="168" x2="168" y2="3"/><line x1="168" x2="168" y1="31" y2="28"/><line x1="151" x2="151" y2="3"/><line x1="151" x2="151" y1="31" y2="28"/><line x1="135" x2="135" y2="31"/><line x1="118" x2="118" y2="3"/><line x1="118" x2="118" y1="31" y2="28"/><line x1="101" x2="101" y2="3"/><line x1="101" x2="101" y1="31" y2="28"/><line x1="84" x2="84" y2="3"/><line x1="84" x2="84" y1="31" y2="28"/><line x1="67" x2="67" y2="3"/><line x1="67" x2="67" y1="31" y2="28"/><line x1="50" x2="50" y2="3"/><line x1="50" x2="50" y1="31" y2="28"/><line x1="34" x2="34" y2="3"/><line x1="34" x2="34" y1="31" y2="28"/><line x1="17" x2="17" y2="3"/><line x1="17" x2="17" y1="31" y2="28"/></g><g><g><rect x="741" width="50" height="31" field="00J" style="fill-opacity:0.1"/><rect x="471" width="269" height="31" field="CRC" style="fill-opacity:0.1;fill:#006aff"/><rect x="404" width="67" height="31" field="ENDP" style="fill-opacity:0.1;fill:#00ff19"/><rect x="269" width="135" height="31" field="0 - 1024 bytes" style="fill-opacity:0.1;fill:#ffbf00"/><rect x="202" width="67" height="31" field="PID" style="fill-opacity:0.1;fill:#aaff00"/><rect x="135" width="67" height="31" field="!PID" style="fill-opacity:0.1;fill:#aaff00"/><rect width="135" height="31" field="1" style="fill-opacity:0.1"/></g><g transform="translate(8,-11)"><g transform="translate(774)"><text y="6">0</text></g><g transform="translate(741)"><text y="6">2</text></g><g transform="translate(724)"><text y="6">3</text></g><g transform="translate(471)"><text y="6">18</text></g><g transform="translate(454)"><text y="6">19</text></g><g transform="translate(404)"><text y="6">22</text></g><g transform="translate(387)"><text y="6">23</text></g><g transform="translate(269)"><text y="6">30</text></g><g transform="translate(252)"><text y="6">31</text></g><g transform="translate(202)"><text y="6">34</text></g><g transform="translate(185)"><text y="6">35</text></g><g transform="translate(135)"><text y="6">38</text></g><g transform="translate(118)"><text y="6">39</text></g><g transform="translate(0)"><text y="6">46</text></g></g><g transform="translate(8,15)"><g transform="translate(757)"><text y="6"><tspan>00J</tspan></text></g><g transform="translate(597)"><text y="6"><tspan>CRC</tspan></text></g><g transform="translate(429)"><text y="6"><tspan>ENDP</tspan></text></g><g transform="translate(328)"><text y="6"><tspan>0 - 1024 bytes</tspan></text></g><g transform="translate(227)"><text y="6"><tspan>PID</tspan></text></g><g transform="translate(160)"><text y="6"><tspan>!PID</tspan></text></g><g><g transform="translate(118)"><text y="6">1</text></g><g transform="translate(101)"><text y="6">0</text></g><g transform="translate(84)"><text y="6">0</text></g><g transform="translate(67)"><text y="6">0</text></g><g transform="translate(50)"><text y="6">0</text></g><g transform="translate(34)"><text y="6">0</text></g><g transform="translate(17)"><text y="6">0</text></g><g transform="translate(0)"><text y="6">0</text></g></g></g><g transform="translate(8,39)"><g><g transform="translate(757)"><text y="6"><tspan>EOP</tspan></text></g></g><g><g transform="translate(597)"><text y="6"><tspan>Endpoint</tspan></text></g></g><g><g transform="translate(429)"><text y="6"><tspan>Endpoint</tspan></text></g></g><g><g transform="translate(328)"><text y="6"><tspan>Data</tspan></text></g></g><g><g transform="translate(227)"><text y="6"><tspan>Packet ID</tspan></text></g></g><g><g transform="translate(160)"><text y="6"><tspan>Inverted</tspan></text></g><g transform="translate(160,14)"><text y="6"><tspan>Packet ID</tspan></text></g></g><g><g transform="translate(59)"><text y="6"><tspan>SYNC</tspan></text></g></g></g></g></g></g></svg>