<?xml version="1.0" encoding="utf-8"?>
<!-- Generator: Adobe Illustrator 16.0.0, SVG Export Plug-In . SVG Version: 6.00 Build 0)  -->
<!DOCTYPE svg PUBLIC "-//W3C//DTD SVG 1.1//EN" "http://www.w3.org/Graphics/SVG/1.1/DTD/svg11.dtd">
<svg version="1.1"
	 id="svg107" xmlns:inkscape="http://www.inkscape.org/namespaces/inkscape" xmlns:svg="http://www.w3.org/2000/svg" xmlns:sodipodi="http://sodipodi.sourceforge.net/DTD/sodipodi-0.dtd" sodipodi:docname="pi-pico-w.svg" inkscape:version="1.3 (0e150ed, 2023-07-21)"
	 xmlns="http://www.w3.org/2000/svg" xmlns:xlink="http://www.w3.org/1999/xlink" x="0px" y="0px" width="210.75px" height="111px"
	 viewBox="0 0 210.75 111" enable-background="new 0 0 210.75 111" xml:space="preserve">
<filter  width="1.923077" x="-0.46153848" height="1.923077" y="-0.46153848" id="ledFilter">
	<feGaussianBlur  stdDeviation="0.5" id="feGaussianBlur1"></feGaussianBlur>
</filter>
<sodipodi:namedview  inkscape:zoom="1.5946081" inkscape:cx="140.78694" inkscape:cy="73.999372" bordercolor="#666666" id="namedview107" pagecolor="#ffffff" borderopacity="1.0" inkscape:window-x="0" inkscape:document-units="mm" inkscape:deskcolor="#d1d1d1" inkscape:window-height="431" inkscape:current-layer="svg107" inkscape:pagecheckerboard="0" inkscape:pageopacity="0.0" inkscape:showpageshadow="2" inkscape:window-width="1312" inkscape:window-maximized="0" inkscape:window-y="25">
	</sodipodi:namedview>
<g id="g107" transform="translate(-4.2667 -65.609)">
	<g id="g106" transform="matrix(0 -1.1799 1.1799 0 -69.116 115.1)">
		<g id="g2">
			<path id="path1" fill="none" d="M-21.239,90.37c1.389,0,2.519-1.13,2.519-2.52c0-1.39-1.13-2.519-2.519-2.519
				c-1.39,0-2.519,1.13-2.519,2.519C-23.758,89.239-22.629,90.37-21.239,90.37z M11.047,223.318c1.389,0,2.519-1.13,2.519-2.52
				c0-1.39-1.13-2.519-2.519-2.519c-1.39,0-2.52,1.13-2.52,2.519C8.527,222.188,9.657,223.318,11.047,223.318z M11.047,90.37
				c1.389,0,2.519-1.13,2.519-2.52c0-1.39-1.13-2.519-2.519-2.519c-1.39,0-2.52,1.13-2.52,2.519
				C8.527,89.239,9.657,90.37,11.047,90.37z"/>
			<circle id="circle1" fill="none" cx="-21.239" cy="220.809" r="2.519"/>
			<path id="path2" fill="#004E29" d="M24.668,91.91v-4.782c-0.197,0-0.376-0.059-0.541-0.143v5.067
				C24.292,91.968,24.471,91.91,24.668,91.91L24.668,91.91z M24.668,99.11v-4.782c-0.197,0-0.376-0.059-0.541-0.143v5.067
				C24.292,99.168,24.471,99.11,24.668,99.11L24.668,99.11z M24.668,106.31v-4.781c-0.197,0-0.376-0.059-0.541-0.143v5.066
				C24.292,106.368,24.471,106.31,24.668,106.31L24.668,106.31z M24.668,113.508v-4.78c-0.197,0-0.376-0.059-0.541-0.143v5.065
				C24.292,113.566,24.471,113.508,24.668,113.508L24.668,113.508z M24.668,120.708v-4.781c-0.197,0-0.376-0.059-0.541-0.143v5.066
				C24.292,120.767,24.471,120.709,24.668,120.708L24.668,120.708z M24.668,127.909v-4.781c-0.197,0-0.376-0.059-0.541-0.143v5.066
				C24.292,127.967,24.471,127.909,24.668,127.909L24.668,127.909z M24.668,135.108v-4.781c-0.197,0-0.376-0.059-0.541-0.143v5.066
				C24.292,135.167,24.471,135.109,24.668,135.108L24.668,135.108z M24.668,142.308v-4.781c-0.197,0-0.376-0.059-0.541-0.143v5.066
				C24.292,142.367,24.471,142.309,24.668,142.308L24.668,142.308z M24.668,149.509v-4.781c-0.197,0-0.376-0.059-0.541-0.143v5.066
				C24.292,149.567,24.471,149.509,24.668,149.509L24.668,149.509z M24.668,156.708v-4.781c-0.197,0-0.376-0.059-0.541-0.143v5.066
				C24.292,156.766,24.471,156.708,24.668,156.708L24.668,156.708z M24.668,163.908v-4.781c-0.197,0-0.376-0.059-0.541-0.143v5.066
				C24.292,163.967,24.471,163.909,24.668,163.908L24.668,163.908z M24.668,171.108v-4.781c-0.197,0-0.376-0.059-0.541-0.142v5.065
				C24.292,171.167,24.471,171.108,24.668,171.108L24.668,171.108z M24.668,178.309v-4.781c-0.197,0-0.376-0.059-0.541-0.143v5.066
				C24.292,178.367,24.471,178.309,24.668,178.309z M24.668,185.508v-4.781c-0.197,0-0.376-0.059-0.541-0.142v5.065
				C24.292,185.566,24.471,185.508,24.668,185.508z M24.668,192.709v-4.781c-0.197,0-0.376-0.06-0.541-0.144v5.067
				C24.292,192.766,24.471,192.709,24.668,192.709z M24.668,199.908v-4.781c-0.197,0-0.376-0.058-0.541-0.142v5.065
				C24.292,199.967,24.471,199.908,24.668,199.908z M24.668,207.108v-4.781c-0.197,0-0.376-0.06-0.541-0.143v5.066
				C24.292,207.166,24.471,207.108,24.668,207.108z M24.668,214.309v-4.781c-0.197,0-0.376-0.059-0.541-0.143v5.067
				C24.292,214.367,24.471,214.309,24.668,214.309L24.668,214.309z M24.668,221.507v-4.78c-0.197,0-0.376-0.06-0.541-0.143v5.065
				C24.292,221.566,24.471,221.507,24.668,221.507L24.668,221.507z M24.668,223.926c-0.197,0-0.376-0.06-0.541-0.142v1.577
				c0,0.391-0.317,0.709-0.709,0.709c-3.025-0.02-20.546-1.136-20.103,0.54h20.22c0.626,0,1.134-0.508,1.134-1.134v-1.55H24.668z
				 M24.336,82.373l-0.417,0.416c0.133,0.132,0.208,0.313,0.208,0.501v1.558c0.165-0.084,0.344-0.143,0.541-0.143v-1.53
				C24.668,82.874,24.549,82.585,24.336,82.373z M-33.61,226.067c-0.188,0-0.368-0.074-0.501-0.209l-0.417,0.416
				c0.213,0.213,0.501,0.332,0.802,0.332H6.115C5.385,224.87-30.33,226.067-33.61,226.067L-33.61,226.067z"/>
		</g>
		<path id="path3" fill="#005A00" d="M-33.61,82.584c-0.392,0-0.709,0.318-0.709,0.709v1.559c0.392,0.2,0.67,0.596,0.67,1.066
			c0,0.47-0.277,0.868-0.67,1.068v5.069c0.392,0.2,0.67,0.597,0.67,1.066c0,0.47-0.277,0.867-0.67,1.066v5.067
			c0.392,0.2,0.67,0.598,0.67,1.068c0,0.47-0.277,0.867-0.67,1.066v5.067c0.392,0.2,0.67,0.596,0.67,1.066
			c0,0.47-0.277,0.867-0.67,1.066v5.066c0.392,0.2,0.67,0.598,0.67,1.068c0,0.47-0.277,0.867-0.67,1.066v5.066
			c0.392,0.2,0.67,0.598,0.67,1.068c0,0.47-0.277,0.867-0.67,1.066v5.067c0.392,0.2,0.67,0.596,0.67,1.066
			c0,0.47-0.277,0.866-0.67,1.066v5.067c0.392,0.2,0.67,0.597,0.67,1.066c0,0.47-0.277,0.868-0.67,1.068v5.065
			c0.392,0.2,0.67,0.597,0.67,1.066c0,0.47-0.277,0.868-0.67,1.068v5.065c0.392,0.2,0.67,0.598,0.67,1.068
			c0,0.47-0.277,0.866-0.67,1.066v5.066c0.392,0.2,0.67,0.598,0.67,1.068c0,0.47-0.277,0.866-0.67,1.066v5.065
			c0.392,0.2,0.67,0.598,0.67,1.069c0,0.47-0.277,0.867-0.67,1.067v5.067c0.392,0.2,0.67,0.596,0.67,1.066
			c0,0.47-0.277,0.867-0.67,1.068v5.066c0.392,0.199,0.67,0.597,0.67,1.067c0,0.469-0.277,0.867-0.67,1.068v5.065
			c0.392,0.2,0.67,0.598,0.67,1.068s-0.277,0.867-0.67,1.066v5.066c0.392,0.199,0.67,0.598,0.67,1.068s-0.277,0.867-0.67,1.067
			v5.065c0.392,0.2,0.67,0.598,0.67,1.068s-0.277,0.867-0.67,1.066v5.068c0.392,0.199,0.67,0.597,0.67,1.067
			c0,0.469-0.277,0.867-0.67,1.068v5.065c0.392,0.2,0.67,0.596,0.67,1.066c0,0.47-0.277,0.868-0.67,1.068v5.064
			c0.392,0.199,0.67,0.598,0.67,1.069c0,0.469-0.277,0.866-0.67,1.066v1.578c0,0.391,0.317,0.708,0.709,0.708
			c20.987,0.012,35.94,0.051,57.03,0c0.391,0,0.709-0.316,0.709-0.708v-1.578c-0.392-0.2-0.67-0.597-0.67-1.066
			c0-0.47,0.277-0.868,0.67-1.069v-5.064c-0.392-0.199-0.67-0.598-0.67-1.068c0-0.47,0.277-0.866,0.67-1.066v-5.067
			c-0.392-0.2-0.67-0.597-0.67-1.067c0-0.47,0.277-0.867,0.67-1.067v-5.067c-0.392-0.2-0.67-0.596-0.67-1.066
			s0.277-0.868,0.67-1.068v-5.066c-0.392-0.199-0.67-0.597-0.67-1.067c0-0.469,0.277-0.867,0.67-1.068v-5.065
			c-0.392-0.2-0.67-0.596-0.67-1.066s0.277-0.868,0.67-1.068v-5.066c-0.392-0.199-0.67-0.598-0.67-1.068
			c0-0.47,0.277-0.867,0.67-1.067v-5.065c-0.392-0.2-0.67-0.598-0.67-1.068c0-0.47,0.277-0.867,0.67-1.066v-5.068
			c-0.392-0.199-0.67-0.597-0.67-1.067c0-0.47,0.277-0.867,0.67-1.068v-5.065c-0.392-0.2-0.67-0.596-0.67-1.066
			c0-0.47,0.277-0.868,0.67-1.068v-5.066c-0.392-0.2-0.67-0.596-0.67-1.066s0.277-0.868,0.67-1.068v-5.066
			c-0.392-0.2-0.67-0.598-0.67-1.068c0-0.47,0.277-0.867,0.67-1.066v-5.066c-0.392-0.2-0.67-0.598-0.67-1.068
			c0-0.47,0.277-0.867,0.67-1.066v-5.067c-0.392-0.2-0.67-0.596-0.67-1.066s0.277-0.867,0.67-1.066v-5.067
			c-0.392-0.2-0.67-0.596-0.67-1.066c0-0.47,0.277-0.868,0.67-1.068v-5.066c-0.392-0.2-0.67-0.596-0.67-1.066
			c0-0.47,0.277-0.868,0.67-1.068v-5.066c-0.392-0.2-0.67-0.596-0.67-1.066c0-0.47,0.277-0.866,0.67-1.066v-5.067
			c-0.392-0.2-0.67-0.596-0.67-1.066c0-0.47,0.277-0.868,0.67-1.068v-5.067c-0.392-0.2-0.67-0.596-0.67-1.066
			c0-0.47,0.277-0.867,0.67-1.066v-5.069c-0.392-0.2-0.67-0.597-0.67-1.066c0-0.47,0.277-0.867,0.67-1.066v-1.56
			c0-0.391-0.317-0.709-0.709-0.709L-33.61,82.584L-33.61,82.584z M-30.295,84.721c0.66,0,1.197,0.537,1.197,1.197
			s-0.536,1.198-1.197,1.198c-0.66,0-1.197-0.538-1.197-1.198S-30.955,84.721-30.295,84.721z M20.105,84.721
			c0.66,0,1.197,0.537,1.197,1.197s-0.537,1.198-1.197,1.198c-0.66,0-1.197-0.538-1.197-1.198S19.445,84.721,20.105,84.721z
			 M-21.238,85.333c1.39,0,2.519,1.131,2.519,2.52c0,1.389-1.129,2.52-2.519,2.52c-1.389,0-2.519-1.13-2.519-2.52
			S-22.627,85.333-21.238,85.333z M11.049,85.333c1.389,0,2.519,1.131,2.519,2.52c0,1.389-1.13,2.52-2.519,2.52
			c-1.39,0-2.52-1.13-2.52-2.52S9.659,85.333,11.049,85.333z M-30.295,91.922c0.66,0,1.197,0.538,1.197,1.197
			c0,0.66-0.536,1.197-1.197,1.197c-0.66,0-1.197-0.537-1.197-1.197C-31.492,92.459-30.955,91.922-30.295,91.922z M20.105,91.922
			c0.66,0,1.197,0.537,1.197,1.197s-0.537,1.197-1.197,1.197c-0.66,0-1.197-0.537-1.197-1.197
			C18.909,92.459,19.445,91.922,20.105,91.922z M-30.295,99.124c0.66,0,1.197,0.537,1.197,1.197c0,0.66-0.536,1.197-1.197,1.197
			c-0.66,0-1.197-0.537-1.197-1.197C-31.492,99.661-30.955,99.124-30.295,99.124z M20.105,99.124c0.66,0,1.197,0.537,1.197,1.197
			c0,0.66-0.537,1.197-1.197,1.197c-0.66,0-1.197-0.537-1.197-1.197C18.909,99.661,19.445,99.124,20.105,99.124z M-30.295,106.324
			c0.66,0,1.197,0.537,1.197,1.197s-0.536,1.197-1.197,1.197c-0.66,0-1.197-0.537-1.197-1.197S-30.955,106.324-30.295,106.324z
			 M20.105,106.324c0.66,0,1.197,0.537,1.197,1.197s-0.537,1.197-1.197,1.197c-0.66,0-1.197-0.537-1.197-1.197
			S19.445,106.324,20.105,106.324z M-30.295,113.522c0.66,0,1.197,0.538,1.197,1.197c0,0.66-0.536,1.197-1.197,1.197
			c-0.66,0-1.197-0.537-1.197-1.197C-31.492,114.059-30.955,113.522-30.295,113.522z M20.105,113.522
			c0.66,0,1.197,0.537,1.197,1.197c0,0.66-0.537,1.197-1.197,1.197c-0.66,0-1.197-0.537-1.197-1.197
			C18.909,114.059,19.445,113.522,20.105,113.522z M-30.295,120.722c0.66,0,1.197,0.537,1.197,1.197s-0.536,1.198-1.197,1.198
			c-0.66,0-1.197-0.538-1.197-1.198S-30.955,120.722-30.295,120.722z M20.105,120.722c0.66,0,1.197,0.537,1.197,1.197
			s-0.537,1.198-1.197,1.198c-0.66,0-1.197-0.538-1.197-1.198S19.445,120.722,20.105,120.722z M-30.295,127.922
			c0.66,0,1.197,0.538,1.197,1.198c0,0.66-0.536,1.197-1.197,1.197c-0.66,0-1.197-0.537-1.197-1.197
			C-31.492,128.461-30.955,127.922-30.295,127.922z M20.105,127.922c0.66,0,1.197,0.538,1.197,1.198c0,0.66-0.537,1.197-1.197,1.197
			c-0.66,0-1.197-0.537-1.197-1.197C18.909,128.461,19.445,127.922,20.105,127.922z M-30.295,135.124
			c0.66,0,1.197,0.537,1.197,1.197s-0.536,1.197-1.197,1.197c-0.66,0-1.197-0.537-1.197-1.197S-30.955,135.124-30.295,135.124z
			 M20.105,135.124c0.66,0,1.197,0.537,1.197,1.197s-0.537,1.197-1.197,1.197c-0.66,0-1.197-0.537-1.197-1.197
			S19.445,135.124,20.105,135.124z M-30.295,142.324c0.66,0,1.197,0.538,1.197,1.197c0,0.66-0.536,1.197-1.197,1.197
			c-0.66,0-1.197-0.537-1.197-1.197S-30.955,142.324-30.295,142.324z M20.105,142.324c0.66,0,1.197,0.537,1.197,1.197
			s-0.537,1.197-1.197,1.197c-0.66,0-1.197-0.537-1.197-1.197S19.445,142.324,20.105,142.324z M-30.295,149.524
			c0.66,0,1.197,0.538,1.197,1.197c0,0.66-0.536,1.197-1.197,1.197c-0.66,0-1.197-0.537-1.197-1.197
			C-31.492,150.061-30.955,149.524-30.295,149.524z M20.105,149.524c0.66,0,1.197,0.537,1.197,1.197c0,0.66-0.537,1.197-1.197,1.197
			c-0.66,0-1.197-0.537-1.197-1.197C18.909,150.061,19.445,149.524,20.105,149.524z M-30.295,156.723
			c0.66,0,1.197,0.537,1.197,1.197c0,0.66-0.536,1.198-1.197,1.198c-0.66,0-1.197-0.538-1.197-1.198
			C-31.492,157.26-30.955,156.723-30.295,156.723z M20.105,156.723c0.66,0,1.197,0.537,1.197,1.197c0,0.66-0.537,1.198-1.197,1.198
			c-0.66,0-1.197-0.538-1.197-1.198C18.909,157.26,19.445,156.723,20.105,156.723z M-30.295,163.924c0.66,0,1.197,0.538,1.197,1.198
			c0,0.66-0.536,1.197-1.197,1.197c-0.66,0-1.197-0.537-1.197-1.197C-31.492,164.462-30.955,163.924-30.295,163.924z
			 M20.105,163.924c0.66,0,1.197,0.538,1.197,1.198c0,0.66-0.537,1.197-1.197,1.197c-0.66,0-1.197-0.537-1.197-1.197
			C18.909,164.462,19.445,163.924,20.105,163.924z M3.318,167.678c0.783,0,1.417,0.634,1.418,1.417c0,0,0,0,0,0.001
			c0,0.783-0.635,1.417-1.418,1.416c-0.782,0-1.416-0.634-1.417-1.416C1.901,168.314,2.535,167.678,3.318,167.678z M-4.142,167.726
			c0.783,0.001,1.417,0.636,1.417,1.419c0,0.782-0.634,1.417-1.417,1.418c-0.783,0-1.417-0.634-1.417-1.417c0-0.001,0-0.001,0-0.001
			C-5.56,168.362-4.926,167.726-4.142,167.726L-4.142,167.726z M10.32,167.783c0.783,0,1.417,0.635,1.417,1.418
			c0,0.782-0.634,1.416-1.417,1.416c-0.783,0-1.417-0.634-1.418-1.416c0-0.783,0.634-1.418,1.417-1.418
			C10.319,167.783,10.319,167.783,10.32,167.783z M-30.295,171.125c0.66,0,1.197,0.537,1.197,1.197c0,0.66-0.537,1.197-1.197,1.197
			c-0.66,0-1.197-0.536-1.197-1.197C-31.492,171.662-30.955,171.125-30.295,171.125z M20.105,171.125
			c0.66,0,1.197,0.537,1.197,1.197c0,0.66-0.537,1.197-1.197,1.197c-0.66,0-1.197-0.536-1.197-1.197
			C18.908,171.662,19.445,171.125,20.105,171.125z M-30.295,178.325c0.66,0,1.197,0.538,1.197,1.197c0,0.66-0.537,1.197-1.197,1.197
			c-0.66,0-1.197-0.537-1.197-1.197C-31.492,178.862-30.955,178.325-30.295,178.325z M20.105,178.325
			c0.66,0,1.197,0.536,1.197,1.197c0,0.66-0.537,1.197-1.197,1.197c-0.66,0-1.197-0.537-1.197-1.197
			C18.908,178.862,19.445,178.325,20.105,178.325z M-30.295,185.525c0.66,0,1.197,0.537,1.197,1.197c0,0.66-0.537,1.197-1.197,1.197
			c-0.66,0-1.197-0.537-1.197-1.197C-31.492,186.062-30.955,185.525-30.295,185.525z M20.105,185.525
			c0.66,0,1.197,0.537,1.197,1.197c0,0.66-0.537,1.197-1.197,1.197c-0.66,0-1.197-0.537-1.197-1.197
			C18.908,186.062,19.445,185.525,20.105,185.525z M-30.295,192.725c0.66,0,1.197,0.536,1.197,1.197c0,0.66-0.537,1.197-1.197,1.197
			c-0.66,0-1.197-0.536-1.197-1.197C-31.492,193.261-30.955,192.725-30.295,192.725z M20.105,192.725
			c0.66,0,1.197,0.536,1.197,1.197c0,0.66-0.537,1.197-1.197,1.197c-0.66,0-1.197-0.536-1.197-1.197
			C18.908,193.261,19.445,192.725,20.105,192.725z M-30.295,199.925c0.66,0,1.197,0.539,1.197,1.198s-0.537,1.197-1.197,1.197
			c-0.66,0-1.197-0.537-1.197-1.197S-30.955,199.925-30.295,199.925z M20.105,199.925c0.66,0,1.197,0.539,1.197,1.198
			s-0.537,1.197-1.197,1.197c-0.66,0-1.197-0.537-1.197-1.197S19.445,199.925,20.105,199.925z M-30.295,207.126
			c0.66,0,1.197,0.536,1.197,1.197c0,0.66-0.537,1.197-1.197,1.197c-0.66,0-1.197-0.536-1.197-1.197
			C-31.492,207.663-30.955,207.126-30.295,207.126z M20.105,207.126c0.66,0,1.197,0.536,1.197,1.197c0,0.66-0.537,1.197-1.197,1.197
			c-0.66,0-1.197-0.536-1.197-1.197C18.908,207.663,19.445,207.126,20.105,207.126z M-30.295,214.326
			c0.66,0,1.197,0.537,1.197,1.197c0,0.66-0.537,1.197-1.197,1.197c-0.66,0-1.197-0.537-1.197-1.197
			C-31.492,214.863-30.955,214.326-30.295,214.326z M20.105,214.326c0.66,0,1.197,0.537,1.197,1.197c0,0.66-0.537,1.197-1.197,1.197
			c-0.66,0-1.197-0.537-1.197-1.197C18.908,214.863,19.445,214.326,20.105,214.326z M-21.238,218.288c1.389,0,2.518,1.13,2.518,2.52
			c0,1.39-1.129,2.519-2.518,2.519s-2.519-1.13-2.519-2.519C-23.758,219.417-22.627,218.288-21.238,218.288z M11.048,218.288
			c1.389,0,2.52,1.13,2.52,2.52c0,1.39-1.131,2.519-2.52,2.519c-1.39,0-2.519-1.13-2.519-2.519
			C8.528,219.417,9.658,218.288,11.048,218.288z M-30.295,221.525c0.66,0,1.197,0.537,1.197,1.197c0,0.66-0.537,1.198-1.197,1.198
			c-0.66,0-1.197-0.538-1.197-1.198C-31.492,222.062-30.955,221.525-30.295,221.525z M20.105,221.525
			c0.66,0,1.197,0.537,1.197,1.197c0,0.66-0.537,1.198-1.197,1.198c-0.66,0-1.197-0.538-1.197-1.198
			C18.908,222.062,19.445,221.525,20.105,221.525z"/>
		<path id="path4" fill="#33865F" d="M23.534,82.042h-57.26c-0.626,0-1.134,0.508-1.134,1.134v1.532
			c0.197,0,0.376,0.059,0.541,0.143v-1.559c0-0.391,0.317-0.709,0.708-0.709h57.028c0.188,0,0.369,0.074,0.501,0.208l0.417-0.416
			C24.129,82.169,23.846,82.042,23.534,82.042L23.534,82.042z M-34.86,94.328v4.782c0.197,0,0.376,0.059,0.541,0.143v-5.067
			C-34.484,94.269-34.663,94.328-34.86,94.328L-34.86,94.328z M-34.86,101.528v4.781c0.197,0,0.376,0.059,0.541,0.143v-5.066
			C-34.484,101.47-34.663,101.528-34.86,101.528L-34.86,101.528z M-34.86,108.728v4.78c0.197,0,0.376,0.059,0.541,0.143v-5.065
			C-34.484,108.669-34.663,108.728-34.86,108.728L-34.86,108.728z M-34.86,115.927v4.781c0.197,0,0.376,0.059,0.541,0.143v-5.066
			C-34.484,115.868-34.663,115.927-34.86,115.927L-34.86,115.927z M-34.86,123.127v4.781c0.197,0,0.376,0.059,0.541,0.143v-5.066
			C-34.484,123.068-34.663,123.127-34.86,123.127L-34.86,123.127z M-34.86,130.327v4.781c0.197,0,0.376,0.059,0.541,0.143v-5.066
			C-34.484,130.268-34.663,130.327-34.86,130.327L-34.86,130.327z M-34.86,137.527v4.781c0.197,0,0.376,0.059,0.541,0.143v-5.066
			C-34.484,137.468-34.663,137.527-34.86,137.527L-34.86,137.527z M-34.86,144.727v4.781c0.197,0,0.376,0.059,0.541,0.143v-5.066
			C-34.484,144.668-34.663,144.727-34.86,144.727L-34.86,144.727z M-34.86,151.927v4.781c0.197,0,0.376,0.058,0.541,0.142v-5.066
			C-34.484,151.868-34.663,151.927-34.86,151.927z M-34.86,159.127v4.781c0.197,0,0.376,0.06,0.541,0.144v-5.067
			C-34.484,159.068-34.663,159.127-34.86,159.127L-34.86,159.127z M-34.86,166.328v4.781c0.197,0,0.376,0.059,0.541,0.142v-5.065
			C-34.484,166.268-34.663,166.327-34.86,166.328L-34.86,166.328z M-34.86,173.527v4.781c0.197,0,0.376,0.059,0.541,0.143v-5.066
			C-34.484,173.468-34.663,173.527-34.86,173.527z M-34.86,180.727v4.781c0.197,0,0.376,0.06,0.541,0.142v-5.065
			C-34.484,180.668-34.663,180.727-34.86,180.727L-34.86,180.727z M-34.86,187.927v4.781c0.197,0,0.376,0.059,0.541,0.143v-5.066
			C-34.484,187.868-34.663,187.927-34.86,187.927z M-34.86,195.127v4.781c0.197,0,0.376,0.06,0.541,0.144v-5.067
			C-34.484,195.067-34.663,195.127-34.86,195.127z M-34.86,202.327v4.781c0.197,0,0.376,0.059,0.541,0.142v-5.065
			C-34.484,202.268-34.663,202.327-34.86,202.327z M-34.86,209.527v4.781c0.197,0,0.376,0.06,0.541,0.144v-5.067
			C-34.484,209.468-34.663,209.527-34.86,209.527z M-34.86,216.727v4.78c0.197,0,0.376,0.059,0.541,0.143v-5.065
			C-34.484,216.668-34.663,216.727-34.86,216.727L-34.86,216.727z M-34.86,87.127v4.782c0.197,0,0.376,0.059,0.541,0.143v-5.068
			C-34.484,87.068-34.663,87.127-34.86,87.127L-34.86,87.127z M-34.527,226.277l0.417-0.415c-0.134-0.133-0.209-0.314-0.209-0.502
			v-1.576c-0.166,0.084-0.344,0.142-0.541,0.142v1.551C-34.86,225.788-34.733,226.072-34.527,226.277L-34.527,226.277z"/>
		<g id="g7" transform="matrix(.0254 0 0 .0254 14.85 67.196)">
			<circle id="circle4" fill="none" cx="-1420.808" cy="6047.316" r="138.553"/>
			<circle id="circle5" fill="none" cx="-149.738" cy="6047.316" r="138.553"/>
			<circle id="circle6" fill="none" cx="-1420.808" cy="813.188" r="138.544"/>
			<circle id="circle7" fill="none" cx="-149.738" cy="813.188" r="138.544"/>
		</g>
		<g id="g15">
			<path id="path7" fill="#30312E" d="M-14.056,137.173H5.918v19.974h-19.974V137.173z"/>
			<path id="path8" fill="#363A44" d="M4.258,93.384h-18.709c-0.314,0-0.567-0.254-0.567-0.567V78.881
				c0-0.313,0.253-0.567,0.567-0.567H4.258c0.313,0,0.567,0.254,0.567,0.567v13.936C4.825,93.13,4.571,93.383,4.258,93.384z"/>
			<path id="path9" fill="#CCCCCC" d="M-13.598,76.373c-0.25,0-0.47,0.164-0.543,0.403l-0.311,1.03l-0.566,0.567v14.442
				c0,0.313,0.253,0.567,0.566,0.567h3.46c0.156,0,0.283-0.126,0.283-0.282c0,0,0,0,0,0v-0.828c0-0.207-0.113-0.398-0.295-0.497
				l-1.925-1.052c-0.182-0.099-0.295-0.29-0.295-0.497v-0.827h1.258v-0.955h1.944v0.953h1.144v1.971
				c0,0.313,0.254,0.567,0.567,0.567h0.92v-1.022h4.59v1.022h0.92c0.313,0,0.567-0.254,0.567-0.567v-1.971h1.144v-0.953h1.944v0.953
				h1.258v0.827c0,0.207-0.113,0.398-0.295,0.497L0.81,91.773c-0.182,0.099-0.295,0.29-0.295,0.497v0.828
				c0,0.157,0.127,0.283,0.283,0.283h3.46c0.313,0,0.567-0.254,0.567-0.567V78.373l-0.567-0.567l-0.311-1.03
				c-0.073-0.239-0.293-0.402-0.543-0.403L-13.598,76.373z"/>
			<path id="path10" fill="#CCCCCC" d="M-14.397,79.256c-0.248-0.332-0.502-0.667-0.728-1.05c-0.232-0.379-0.401-0.831-0.482-1.254
				l-0.002-0.013c-0.036-0.184,0.084-0.361,0.267-0.397c0.001,0,0.001,0,0.002,0c0.171-0.033,0.337,0.07,0.388,0.232
				c0.223,0.723,0.738,1.24,1.312,1.827c0.195,0.196,0.195,0.514-0.002,0.709c-0.195,0.195-0.513,0.194-0.708,0
				c-0.015-0.015-0.033-0.036-0.046-0.052V79.256z M3.446,78.601c0.575-0.587,1.088-1.104,1.312-1.827
				c0.055-0.179,0.246-0.279,0.425-0.223h0c0.164,0.052,0.264,0.218,0.233,0.387l-0.003,0.014c-0.082,0.422-0.249,0.875-0.481,1.254
				c-0.227,0.383-0.48,0.718-0.729,1.05c-0.166,0.221-0.48,0.266-0.702,0.1c-0.221-0.166-0.266-0.48-0.1-0.702
				C3.413,78.637,3.431,78.616,3.446,78.601L3.446,78.601z M-8.08,182.351h-7.37c-0.314,0-0.567-0.253-0.567-0.566v-4.536
				c0-0.313,0.253-0.566,0.567-0.566h7.37c0.313,0,0.566,0.253,0.566,0.566v4.536C-7.514,182.098-7.767,182.351-8.08,182.351z"/>
			<path id="path11" fill="#2A2D2E" d="M-18.66,139.177C-29.461,97.31-24.06,118.243-18.66,139.177z M6.464,108.226v7.087h-7.087
				v-7.087H6.464z M13.856,95.964v7.087H9.604v-7.087H13.856z"/>
			<path id="path12" fill="#CCCCCC" d="M-18.767,109.21h7.37c0.313,0,0.567,0.254,0.567,0.567v10.205
				c0,0.313-0.254,0.567-0.567,0.567h-7.37c-0.314,0-0.568-0.254-0.568-0.567v-10.205C-19.335,109.463-19.081,109.21-18.767,109.21z
				"/>
			<path id="path13" fill="#FFFFFF" d="M-15.082,109.918c1.957,0,3.542,1.586,3.542,3.543v2.835c0,1.957-1.586,3.543-3.542,3.543
				c-1.957,0-3.543-1.586-3.543-3.543v-2.835C-18.626,111.504-17.039,109.918-15.082,109.918z M-19.335,109.776v1.065
				c0,0.505,0.611,0.758,0.968,0.401l1.064-1.065c0.358-0.357,0.104-0.968-0.401-0.968h-1.064
				C-19.081,109.209-19.335,109.463-19.335,109.776z M-11.398,109.209h-1.064c-0.505,0-0.758,0.611-0.401,0.968l1.065,1.065
				c0.357,0.357,0.968,0.104,0.968-0.401v-1.065C-10.83,109.463-11.085,109.209-11.398,109.209L-11.398,109.209z"/>
			<path id="path14" fill="#FFFFFF" d="M-10.831,119.95v-1.065c0-0.505-0.612-0.758-0.968-0.401l-1.066,1.065
				c-0.356,0.357-0.103,0.968,0.401,0.968h1.065C-11.085,120.517-10.831,120.263-10.831,119.95L-10.831,119.95z M-18.767,120.517
				h1.064c0.505,0,0.758-0.611,0.401-0.968l-1.064-1.065c-0.358-0.357-0.968-0.104-0.968,0.401v1.065
				C-19.335,120.263-19.081,120.517-18.767,120.517L-18.767,120.517z"/>
			<path id="path15" fill="#2A2D2E" d="M8.896,114.745v-5.953c0-0.313,0.254-0.567,0.567-0.567h4.535
				c0.313,0,0.567,0.254,0.567,0.567v5.953c0,0.313-0.254,0.567-0.567,0.567H9.462C9.15,115.312,8.896,115.059,8.896,114.745
				L8.896,114.745z"/>
		</g>
		<g id="g16" transform="matrix(.508 0 0 .508 18.914 73.495)">
			
				<rect id="rect15" x="-81.194" y="38.83" transform="matrix(-2.547107e-006 -1 1 -2.547107e-006 -122.0074 -36.9778)" fill="#C6C6C6" width="3.402" height="7.369"/>
			
				<rect id="rect16" x="-81.547" y="40.601" transform="matrix(-2.547107e-006 -1 1 -2.547107e-006 -122.077 -37.0483)" fill="#EEEEEE" width="3.968" height="3.827"/>
			<g id="circle16" filter="url(#ledFilter)">
				<circle opacity="0" fill="#90FF00" cx="-79.492" cy="42.372" r="2.209"/>
			</g>
		</g>
		<path id="path16" fill="none" d="M-34.86,215.906h59.528v3.374H-34.86V215.906z"/>
		<text transform="matrix(0 -0.8475 0.8475 0 -21.3246 123.7177)" fill="#FFFFFF" font-family="'ArialMT'" font-size="3.3037">B</text>
		<text transform="matrix(0 -0.8475 0.8475 0 -21.3246 121.1949)" fill="#FFFFFF" font-family="'ArialMT'" font-size="3.3037">O</text>
		<text transform="matrix(0 -0.8475 0.8475 0 -21.3246 118.2451)" fill="#FFFFFF" font-family="'ArialMT'" font-size="3.3037">O</text>
		<text transform="matrix(0 -0.8475 0.8475 0 -21.3246 115.4013)" fill="#FFFFFF" font-family="'ArialMT'" font-size="3.3037">T</text>
		<text transform="matrix(0 -0.8475 0.8475 0 -21.3246 113.2692)" fill="#FFFFFF" font-family="'ArialMT'" font-size="3.3037">S</text>
		<text transform="matrix(0 -0.8475 0.8475 0 -21.3246 111.104)" fill="#FFFFFF" font-family="'ArialMT'" font-size="3.3037">E</text>
		<text transform="matrix(0 -0.8475 0.8475 0 -21.3246 108.9058)" fill="#FFFFFF" font-family="'ArialMT'" font-size="3.3037">L</text>
		<text transform="matrix(0.8475 0 0 0.8475 -24.766 99.5068)" fill="#FFFFFF" font-family="'ArialMT'" font-size="3.3037">L</text>
		<text transform="matrix(0.8475 0 0 0.8475 -22.6968 99.5068)" fill="#FFFFFF" font-family="'ArialMT'" font-size="3.3037">E</text>
		<text transform="matrix(0.8475 0 0 0.8475 -20.4986 99.5068)" fill="#FFFFFF" font-family="'ArialMT'" font-size="3.3037">D</text>
		<text transform="matrix(0.8475 0 0 0.8475 -27.9078 87.115)" fill="#FFFFFF" font-family="'ArialMT'" font-size="3.3037">1</text>
		<text transform="matrix(0.8475 0 0 0.8475 -27.9078 94.3157)" fill="#FFFFFF" font-family="'ArialMT'" font-size="3.3037">2</text>
		<text transform="matrix(0.8475 0 0 0.8475 13.5714 94.3157)" fill="#FFFFFF" font-family="'ArialMT'" font-size="3.3037">3</text>
		<text transform="matrix(0.8475 0 0 0.8475 15.8492 94.3157)" fill="#FFFFFF" font-family="'ArialMT'" font-size="3.3037">9</text>
		<text transform="matrix(0.8475 0 0 0.8475 -8.8384 99.5068)" fill="#FFFFFF" font-family="'ArialMT'" font-size="3.3037">U</text>
		<text transform="matrix(0.8475 0 0 0.8475 -6.0442 99.5068)" fill="#FFFFFF" font-family="'ArialMT'" font-size="3.3037">S</text>
		<text transform="matrix(0.8475 0 0 0.8475 -3.8757 99.5068)" fill="#FFFFFF" font-family="'ArialMT'" font-size="3.3037">B</text>
		<path id="path32" fill="none" d="M-26.532,124.794h6.27v89.49h-6.27V124.794z"/>
		<text transform="matrix(0.8475 0 0 0.8475 -12.4007 153.2306)" fill="#3D3F38" font-family="'ArialMT'" font-size="2.0767">R</text>
		<text transform="matrix(0.8475 0 0 0.8475 -11.0168 153.2306)" fill="#3D3F38" font-family="'ArialMT'" font-size="2.0767">P</text>
		<text transform="matrix(0.8475 0 0 0.8475 -9.5767 153.2306)" fill="#3D3F38" font-family="'ArialMT'" font-size="2.0767">2</text>
		<text transform="matrix(0.8475 0 0 0.8475 -8.269 153.2306)" fill="#3D3F38" font-family="'ArialMT'" font-size="2.0767">-</text>
		<text transform="matrix(0.8475 0 0 0.8475 -7.5042 153.2306)" fill="#3D3F38" font-family="'ArialMT'" font-size="2.0767">8</text>
		<text transform="matrix(0.8475 0 0 0.8475 -6.1965 153.2306)" fill="#3D3F38" font-family="'ArialMT'" font-size="2.0767">0</text>
		<text transform="matrix(0.8475 0 0 0.8475 -1.9986 153.2306)" fill="#3D3F38" font-family="'ArialMT'" font-size="2.0767">2</text>
		<text transform="matrix(0.8475 0 0 0.8475 -0.6909 153.2306)" fill="#3D3F38" font-family="'ArialMT'" font-size="2.0767">0</text>
		<text transform="matrix(0.8475 0 0 0.8475 0.6168 153.2306)" fill="#3D3F38" font-family="'ArialMT'" font-size="2.0767">/</text>
		<text transform="matrix(0.8475 0 0 0.8475 1.6497 153.2306)" fill="#3D3F38" font-family="'ArialMT'" font-size="2.0767">2</text>
		<text transform="matrix(0.8475 0 0 0.8475 2.9542 153.2306)" fill="#3D3F38" font-family="'ArialMT'" font-size="2.0767">1</text>
		<text transform="matrix(0.8475 0 0 0.8475 -12.4338 155.6788)" fill="#3D3F38" font-family="'ArialMT'" font-size="2.0767">P</text>
		<text transform="matrix(0.8475 0 0 0.8475 -10.9937 155.6788)" fill="#3D3F38" font-family="'ArialMT'" font-size="2.0767">6</text>
		<text transform="matrix(0.8475 0 0 0.8475 -9.6859 155.6788)" fill="#3D3F38" font-family="'ArialMT'" font-size="2.0767">4</text>
		<text transform="matrix(0.8475 0 0 0.8475 -8.3816 155.6788)" fill="#3D3F38" font-family="'ArialMT'" font-size="2.0767">M</text>
		<text transform="matrix(0.8475 0 0 0.8475 -6.5011 155.6788)" fill="#3D3F38" font-family="'ArialMT'" font-size="2.0767">1</text>
		<text transform="matrix(0.8475 0 0 0.8475 -5.1934 155.6788)" fill="#3D3F38" font-family="'ArialMT'" font-size="2.0767">5</text>
		<text transform="matrix(0.8475 0 0 0.8475 -3.8857 155.6788)" fill="#3D3F38" font-family="'ArialMT'" font-size="2.0767">.</text>
		<text transform="matrix(0.8475 0 0 0.8475 -3.0878 155.6788)" fill="#3D3F38" font-family="'ArialMT'" font-size="2.0767">0</text>
		<text transform="matrix(0.8475 0 0 0.8475 -1.7834 155.6788)" fill="#3D3F38" font-family="'ArialMT'" font-size="2.0767">0</text>
		<text transform="matrix(0.8475 0 0 0.8475 0.2063 155.6788)" fill="#3D3F38" font-family="'ArialMT'" font-size="2.0767">T</text>
		<text transform="matrix(0.8475 0 0 0.8475 1.5869 155.6788)" fill="#3D3F38" font-family="'ArialMT'" font-size="2.0767">T</text>
		<text transform="matrix(0.8475 0 0 0.8475 2.9674 155.6788)" fill="#3D3F38" font-family="'ArialMT'" font-size="2.0767">T</text>
		<path id="path55" fill="#3D3F38" d="M-0.566,145.042l-0.084-0.125c0-0.961-0.439-1.337-0.961-1.63
			c0.146-0.042,0.313-0.084,0.355-0.272c0.272-0.063,0.313-0.188,0.355-0.313c0.063-0.042,0.313-0.188,0.272-0.397
			c0.125-0.084,0.209-0.209,0.167-0.376c0.146-0.146,0.188-0.272,0.125-0.397c0.167-0.209,0.104-0.313,0.021-0.439
			c0.125-0.23,0.021-0.481-0.334-0.439c-0.146-0.209-0.439-0.167-0.501-0.167c-0.063-0.063-0.125-0.125-0.334-0.104
			c-0.146-0.125-0.292-0.104-0.46-0.042c-0.188-0.146-0.313-0.021-0.46,0.021c-0.23-0.084-0.292,0.021-0.397,0.063
			c-0.251-0.063-0.334,0.063-0.46,0.188h-0.146c-0.376,0.23-0.564,0.669-0.648,0.898c-0.063-0.23-0.251-0.689-0.648-0.898H-4.85
			c-0.125-0.125-0.188-0.23-0.46-0.188c-0.104-0.042-0.167-0.146-0.397-0.063c-0.103-0.021-0.188-0.084-0.292-0.084
			c-0.063,0-0.104,0.021-0.188,0.063c-0.167-0.063-0.314-0.084-0.46,0.042c-0.209-0.021-0.292,0.021-0.334,0.104
			c-0.042,0-0.356-0.042-0.502,0.167c-0.354-0.042-0.46,0.209-0.334,0.439c-0.063,0.104-0.146,0.209,0.022,0.439
			c-0.063,0.125-0.022,0.251,0.125,0.397c-0.042,0.167,0.042,0.272,0.167,0.376c-0.021,0.23,0.209,0.355,0.272,0.397
			c0.021,0.125,0.084,0.251,0.354,0.313c0.042,0.188,0.209,0.23,0.356,0.272c-0.523,0.292-0.962,0.689-0.962,1.63l-0.084,0.125
			c-0.585,0.355-1.128,1.483-0.292,2.423c0.063,0.292,0.146,0.501,0.23,0.731c0.125,0.919,0.919,1.358,1.127,1.421
			c0.314,0.23,0.627,0.439,1.066,0.606c0.418,0.418,0.857,0.585,1.316,0.585h0.021c0.46,0,0.898-0.167,1.316-0.585
			c0.439-0.146,0.773-0.376,1.065-0.606c0.209-0.042,1.003-0.481,1.128-1.421c0.084-0.23,0.167-0.439,0.23-0.731
			C0.561,146.525,0.04,145.397-0.566,145.042L-0.566,145.042z M-1.004,144.875c-0.021,0.376-2.027-1.337-1.692-1.4
			C-1.757,143.329-0.984,143.872-1.004,144.875z M-1.903,146.776c-0.501,0.334-1.233,0.125-1.609-0.46
			c-0.397-0.585-0.292-1.316,0.209-1.65c0.501-0.334,1.233-0.125,1.609,0.46C-1.297,145.732-1.401,146.463-1.903,146.776z
			 M-3.282,140.864c0.021,0.084,0.042,0.146,0.063,0.146c0.104-0.125,0.209-0.251,0.334-0.355c0,0.063-0.042,0.146,0.042,0.188
			c0.084-0.104,0.188-0.188,0.313-0.272c-0.063,0.104-0.021,0.146,0.021,0.188c0.104-0.084,0.209-0.188,0.397-0.251
			c-0.063,0.063-0.125,0.125-0.042,0.209c0.104-0.063,0.209-0.125,0.481-0.188c-0.063,0.063-0.188,0.125-0.104,0.188
			c0.146-0.042,0.292-0.084,0.46-0.104c-0.084,0.063-0.146,0.125-0.084,0.188c0.146-0.042,0.355-0.104,0.543-0.063l-0.125,0.125
			c-0.021,0.021,0.292,0.021,0.481,0.021c-0.063,0.104-0.146,0.209-0.188,0.376c0.021,0.021,0.125,0,0.209,0
			c-0.104,0.209-0.272,0.251-0.292,0.334c0.063,0.042,0.146,0.042,0.23,0c-0.063,0.146-0.209,0.23-0.334,0.355
			c0.021,0.021,0.084,0.042,0.209,0.021c-0.104,0.104-0.23,0.209-0.376,0.313c0.021,0.021,0.125,0.021,0.209,0.042
			c-0.146,0.125-0.313,0.209-0.481,0.292c0.084,0.063,0.146,0.042,0.209,0.042c-0.125,0.104-0.313,0.146-0.501,0.209
			c0.042,0.063,0.063,0.063,0.146,0.084c-0.188,0.104-0.481,0.063-0.564,0.104c0.021,0.063,0.063,0.084,0.146,0.125
			c-0.313,0.021-1.17-0.021-1.337-0.669c0.313-0.355,0.919-0.773,1.922-1.274c-0.794,0.272-1.504,0.606-2.089,1.107
			C-4.117,142.013-3.637,141.198-3.282,140.864L-3.282,140.864z M-3.992,143.225c0.501,0,1.107,0.355,1.107,0.71
			c0,0.313-0.439,0.564-1.107,0.543c-0.669,0-1.107-0.313-1.107-0.606C-5.099,143.621-4.556,143.204-3.992,143.225L-3.992,143.225z
			 M-6.521,142.953c0.084-0.021,0.104-0.021,0.147-0.084c-0.188-0.063-0.376-0.104-0.501-0.209c0.063,0,0.125,0.021,0.209-0.042
			c-0.167-0.084-0.334-0.167-0.48-0.292c0.083,0,0.187,0,0.209-0.042c-0.146-0.084-0.272-0.188-0.376-0.313
			c0.124,0.021,0.167,0,0.209-0.021c-0.104-0.125-0.252-0.209-0.334-0.355c0.084,0.021,0.167,0.042,0.23,0
			c-0.041-0.084-0.209-0.146-0.291-0.334c0.084,0,0.187,0.021,0.209,0c-0.041-0.167-0.125-0.272-0.188-0.376
			c0.209,0,0.501,0,0.481-0.021l-0.125-0.125c0.188-0.042,0.396,0,0.543,0.063c0.063-0.042,0-0.104-0.084-0.188
			c0.167,0.021,0.313,0.063,0.46,0.104c0.063-0.063-0.043-0.125-0.104-0.188c0.251,0.042,0.376,0.125,0.48,0.188
			c0.084-0.084,0-0.146-0.041-0.209c0.189,0.063,0.292,0.167,0.397,0.251c0.042-0.042,0.084-0.084,0.021-0.188
			c0.146,0.084,0.251,0.167,0.313,0.272c0.084-0.063,0.042-0.125,0.042-0.188c0.146,0.104,0.23,0.23,0.334,0.355
			c0.021-0.021,0.042-0.063,0.063-0.146c0.334,0.334,0.815,1.149,0.125,1.462c-0.585-0.481-1.295-0.836-2.089-1.107
			c1.003,0.522,1.609,0.919,1.923,1.274c-0.167,0.648-1.024,0.689-1.337,0.669c0.063-0.021,0.124-0.063,0.146-0.125
			C-6.039,143.016-6.312,143.057-6.521,142.953L-6.521,142.953z M-5.287,143.454c0.355,0.063-1.65,1.776-1.692,1.4
			C-7,143.851-6.228,143.308-5.287,143.454L-5.287,143.454z M-7.397,147.278c-0.481-0.376-0.648-1.504,0.251-2.027
			C-6.604,145.126-6.96,147.486-7.397,147.278z M-5.538,149.304c-0.273,0.167-0.94,0.104-1.422-0.564
			c-0.313-0.564-0.271-1.128-0.063-1.295c0.334-0.209,0.857,0.063,1.255,0.522C-5.413,148.364-5.245,149.095-5.538,149.304z
			 M-6.081,146.839c-0.501-0.334-0.585-1.065-0.209-1.65c0.397-0.585,1.107-0.794,1.609-0.46c0.502,0.334,0.585,1.065,0.209,1.65
			C-4.849,146.964-5.581,147.173-6.081,146.839L-6.081,146.839z M-3.992,150.453c-0.606,0.021-1.191-0.481-1.191-0.669
			c0-0.251,0.731-0.46,1.212-0.46c0.481-0.021,1.149,0.146,1.149,0.397C-2.801,149.952-3.407,150.453-3.992,150.453L-3.992,150.453z
			 M-2.78,147.883c0,0.606-0.543,1.107-1.212,1.107c-0.669,0-1.212-0.481-1.212-1.107v-0.021c0-0.606,0.543-1.107,1.212-1.107
			C-3.323,146.776-2.78,147.257-2.78,147.883L-2.78,147.883z M-1.088,148.761c-0.522,0.71-1.212,0.731-1.483,0.543
			c-0.272-0.251-0.063-1.045,0.313-1.483c0.439-0.481,0.898-0.794,1.212-0.543C-0.837,147.486-0.712,148.28-1.088,148.761
			L-1.088,148.761z M-0.628,147.257c-0.439,0.188-0.794-2.152-0.251-2.027C0.019,145.752-0.127,146.881-0.628,147.257
			L-0.628,147.257z"/>
		<path id="path56" fill="#958863" d="M-28.32,93.117c0-1.089-0.886-1.975-1.975-1.975h-4.565v0.766c0.667,0,1.21,0.542,1.21,1.209
			c0,0.667-0.543,1.21-1.21,1.21v0.766h4.565C-29.206,95.092-28.32,94.206-28.32,93.117L-28.32,93.117z M-30.295,94.314
			c-0.66,0-1.198-0.537-1.198-1.197s0.537-1.197,1.198-1.197c0.66,0,1.197,0.537,1.197,1.197S-29.635,94.314-30.295,94.314
			L-30.295,94.314z M-28.32,98.343h-6.539v0.766c0.667,0,1.21,0.542,1.21,1.209c0,0.667-0.543,1.209-1.21,1.209v0.766h6.539V98.343z
			 M-30.295,101.515c-0.66,0-1.198-0.537-1.198-1.197s0.537-1.197,1.198-1.197c0.66,0,1.197,0.537,1.197,1.197
			S-29.635,101.515-30.295,101.515L-30.295,101.515z M-28.32,107.517c0-1.089-0.886-1.975-1.975-1.975h-4.565v0.766
			c0.667,0,1.21,0.542,1.21,1.209c0,0.667-0.543,1.21-1.21,1.21v0.766h4.565C-29.206,109.492-28.32,108.606-28.32,107.517
			L-28.32,107.517z M-30.295,108.714c-0.66,0-1.198-0.537-1.198-1.197s0.537-1.197,1.198-1.197c0.66,0,1.197,0.537,1.197,1.197
			S-29.635,108.714-30.295,108.714L-30.295,108.714z M-28.32,114.716c0-1.089-0.886-1.975-1.975-1.975h-4.565v0.766
			c0.667,0,1.21,0.542,1.21,1.209c0,0.667-0.543,1.21-1.21,1.21v0.766h4.565C-29.206,116.691-28.32,115.805-28.32,114.716
			L-28.32,114.716z M-30.295,115.913c-0.66,0-1.198-0.537-1.198-1.197s0.537-1.197,1.198-1.197c0.66,0,1.197,0.537,1.197,1.197
			S-29.635,115.913-30.295,115.913L-30.295,115.913z M-28.32,121.916c0-1.089-0.886-1.975-1.975-1.975h-4.565v0.766
			c0.667,0,1.21,0.542,1.21,1.209s-0.543,1.21-1.21,1.21v0.766h4.565C-29.206,123.891-28.32,123.005-28.32,121.916L-28.32,121.916z
			 M-30.295,123.113c-0.66,0-1.198-0.537-1.198-1.197s0.537-1.197,1.198-1.197c0.66,0,1.197,0.537,1.197,1.197
			S-29.635,123.113-30.295,123.113L-30.295,123.113z M-28.32,129.117c0-1.089-0.886-1.975-1.975-1.975h-4.565v0.766
			c0.667,0,1.21,0.542,1.21,1.209c0,0.667-0.543,1.21-1.21,1.21v0.766h4.565C-29.206,131.091-28.32,130.205-28.32,129.117
			L-28.32,129.117z M-30.295,130.313c-0.66,0-1.198-0.537-1.198-1.197c0-0.66,0.537-1.197,1.198-1.197
			c0.66,0,1.197,0.537,1.197,1.197C-29.098,129.776-29.635,130.313-30.295,130.313L-30.295,130.313z M-28.32,134.342h-6.539v0.766
			c0.667,0,1.21,0.542,1.21,1.209s-0.543,1.21-1.21,1.21v0.766h6.539V134.342z M-30.295,137.513c-0.66,0-1.198-0.537-1.198-1.197
			s0.537-1.197,1.198-1.197c0.66,0,1.197,0.537,1.197,1.197S-29.635,137.513-30.295,137.513L-30.295,137.513z M-28.32,143.516
			c0-1.089-0.886-1.975-1.975-1.975h-4.565v0.766c0.667,0,1.21,0.542,1.21,1.209c0,0.667-0.543,1.21-1.21,1.21v0.766h4.565
			C-29.206,145.491-28.32,144.605-28.32,143.516L-28.32,143.516z M-30.295,144.713c-0.66,0-1.198-0.537-1.198-1.197
			s0.537-1.197,1.198-1.197c0.66,0,1.197,0.537,1.197,1.197S-29.635,144.713-30.295,144.713L-30.295,144.713z M-28.32,150.717
			c0-1.089-0.886-1.975-1.975-1.975h-4.565v0.766c0.667,0,1.21,0.542,1.21,1.209c0,0.667-0.543,1.21-1.21,1.21v0.766h4.565
			C-29.206,152.691-28.32,151.805-28.32,150.717L-28.32,150.717z M-30.295,151.913c-0.66,0-1.198-0.537-1.198-1.197
			s0.537-1.197,1.198-1.197c0.66,0,1.197,0.537,1.197,1.197S-29.635,151.913-30.295,151.913L-30.295,151.913z M-28.32,157.917
			c0-1.089-0.886-1.975-1.975-1.975h-4.565v0.765c0.667,0,1.21,0.543,1.21,1.21c0,0.667-0.543,1.21-1.21,1.21v0.766h4.565
			C-29.206,159.892-28.32,159.005-28.32,157.917z M-30.295,159.114c-0.66,0-1.198-0.537-1.198-1.197c0-0.66,0.537-1.198,1.198-1.198
			c0.66,0,1.197,0.537,1.197,1.198C-29.098,158.576-29.635,159.114-30.295,159.114L-30.295,159.114z M-28.32,165.116
			c0-1.088-0.886-1.975-1.975-1.975h-4.565v0.766c0.667,0,1.21,0.541,1.21,1.208c0,0.667-0.543,1.21-1.21,1.21v0.766h4.565
			C-29.206,167.091-28.32,166.205-28.32,165.116L-28.32,165.116z M-30.295,166.313c-0.66,0-1.198-0.537-1.198-1.198
			c0-0.66,0.537-1.197,1.198-1.197c0.66,0,1.197,0.537,1.197,1.197C-29.098,165.776-29.635,166.313-30.295,166.313L-30.295,166.313z
			 M-28.32,170.342h-6.539v0.766c0.667,0,1.21,0.542,1.21,1.209c0,0.667-0.543,1.21-1.21,1.21v0.766h6.539V170.342z
			 M-30.295,173.513c-0.66,0-1.198-0.537-1.198-1.197c0-0.66,0.537-1.197,1.198-1.197c0.66,0,1.197,0.536,1.197,1.197
			C-29.098,172.976-29.635,173.513-30.295,173.513L-30.295,173.513z M-28.32,179.516c0-1.089-0.886-1.976-1.975-1.976h-4.565v0.766
			c0.667,0,1.21,0.542,1.21,1.209c0,0.666-0.543,1.209-1.21,1.209v0.766h4.565C-29.206,181.491-28.32,180.605-28.32,179.516
			L-28.32,179.516z M-30.295,180.713c-0.66,0-1.198-0.537-1.198-1.197c0-0.66,0.537-1.198,1.198-1.198
			c0.66,0,1.197,0.538,1.197,1.198C-29.098,180.176-29.635,180.713-30.295,180.713L-30.295,180.713z M-28.32,186.716
			c0-1.089-0.886-1.975-1.975-1.975h-4.565v0.766c0.667,0,1.21,0.542,1.21,1.209c0,0.667-0.543,1.208-1.21,1.208v0.766h4.565
			C-29.206,188.691-28.32,187.805-28.32,186.716L-28.32,186.716z M-30.295,187.913c-0.66,0-1.198-0.536-1.198-1.197
			c0-0.66,0.537-1.197,1.198-1.197c0.66,0,1.197,0.536,1.197,1.197C-29.098,187.377-29.635,187.913-30.295,187.913L-30.295,187.913z
			 M-28.32,193.916c0-1.088-0.886-1.975-1.975-1.975h-4.565v0.766c0.667,0,1.21,0.542,1.21,1.209c0,0.667-0.543,1.209-1.21,1.209
			v0.766h4.565C-29.206,195.892-28.32,195.005-28.32,193.916L-28.32,193.916z M-30.295,195.113c-0.66,0-1.198-0.537-1.198-1.197
			s0.537-1.197,1.198-1.197c0.66,0,1.197,0.537,1.197,1.197S-29.635,195.113-30.295,195.113L-30.295,195.113z M-28.32,201.116
			c0-1.089-0.886-1.975-1.975-1.975h-4.565v0.766c0.667,0,1.21,0.541,1.21,1.208c0,0.667-0.543,1.209-1.21,1.209v0.766h4.565
			C-29.206,203.091-28.32,202.205-28.32,201.116L-28.32,201.116z M-30.295,202.313c-0.66,0-1.198-0.536-1.198-1.197
			c0-0.66,0.537-1.197,1.198-1.197c0.66,0,1.197,0.536,1.197,1.197C-29.098,201.776-29.635,202.313-30.295,202.313L-30.295,202.313z
			 M-28.32,206.341h-6.539v0.766c0.667,0,1.21,0.543,1.21,1.209c0,0.667-0.543,1.209-1.21,1.209v0.766h6.539V206.341z
			 M-30.295,209.513c-0.66,0-1.198-0.538-1.198-1.198s0.537-1.197,1.198-1.197c0.66,0,1.197,0.537,1.197,1.197
			S-29.635,209.513-30.295,209.513L-30.295,209.513z M-28.32,215.516c0-1.089-0.886-1.975-1.975-1.975h-4.565v0.766
			c0.667,0,1.21,0.541,1.21,1.208c0,0.667-0.543,1.209-1.21,1.209v0.766h4.565C-29.206,217.491-28.32,216.605-28.32,215.516
			L-28.32,215.516z M-30.295,216.712c-0.66,0-1.198-0.536-1.198-1.197c0-0.66,0.537-1.197,1.198-1.197
			c0.66,0,1.197,0.537,1.197,1.197C-29.098,216.176-29.635,216.712-30.295,216.712L-30.295,216.712z M-28.32,222.715
			c0-1.089-0.886-1.975-1.975-1.975h-4.565v0.766c0.667,0,1.21,0.541,1.21,1.208c0,0.667-0.543,1.209-1.21,1.209v0.766h4.565
			C-29.206,224.69-28.32,223.804-28.32,222.715L-28.32,222.715z M-30.295,223.912c-0.66,0-1.198-0.536-1.198-1.197
			c0-0.66,0.537-1.197,1.198-1.197c0.66,0,1.197,0.537,1.197,1.197C-29.098,223.375-29.635,223.912-30.295,223.912L-30.295,223.912z
			 M20.105,95.089h4.564v-0.766c-0.667,0-1.21-0.542-1.21-1.209c0-0.667,0.543-1.209,1.21-1.209v-0.766h-4.564
			c-1.089,0-1.975,0.886-1.975,1.975C18.13,94.203,19.016,95.089,20.105,95.089L20.105,95.089z M18.908,93.114
			c0-0.66,0.537-1.197,1.197-1.197s1.197,0.537,1.197,1.197c0,0.66-0.537,1.197-1.197,1.197S18.908,93.774,18.908,93.114z
			 M18.13,102.289h6.539v-0.766c-0.667,0-1.21-0.542-1.21-1.209s0.543-1.209,1.21-1.209v-0.766H18.13V102.289z M18.908,100.315
			c0-0.66,0.537-1.197,1.197-1.197s1.197,0.537,1.197,1.197s-0.537,1.197-1.197,1.197S18.908,100.975,18.908,100.315L18.908,100.315
			z M20.105,109.489h4.564v-0.766c-0.667,0-1.21-0.542-1.21-1.209c0-0.667,0.543-1.209,1.21-1.209v-0.766h-4.564
			c-1.089,0-1.975,0.886-1.975,1.975C18.13,108.603,19.016,109.489,20.105,109.489L20.105,109.489z M18.908,107.514
			c0-0.66,0.537-1.197,1.197-1.197s1.197,0.537,1.197,1.197s-0.537,1.197-1.197,1.197S18.908,108.174,18.908,107.514z
			 M20.105,116.688h4.564v-0.766c-0.667,0-1.21-0.542-1.21-1.209c0-0.667,0.543-1.209,1.21-1.209v-0.766h-4.564
			c-1.089,0-1.975,0.886-1.975,1.975C18.13,115.802,19.016,116.688,20.105,116.688L20.105,116.688z M18.908,114.713
			c0-0.66,0.537-1.197,1.197-1.197s1.197,0.537,1.197,1.197s-0.537,1.197-1.197,1.197S18.908,115.374,18.908,114.713z
			 M20.105,123.888h4.564v-0.766c-0.667,0-1.21-0.542-1.21-1.209s0.543-1.209,1.21-1.209v-0.766h-4.564
			c-1.089,0-1.975,0.886-1.975,1.975C18.13,123.002,19.016,123.888,20.105,123.888L20.105,123.888z M18.908,121.913
			c0-0.66,0.537-1.197,1.197-1.197s1.197,0.537,1.197,1.197s-0.537,1.197-1.197,1.197S18.908,122.573,18.908,121.913z
			 M20.105,131.088h4.564v-0.766c-0.667,0-1.21-0.542-1.21-1.209c0-0.667,0.543-1.209,1.21-1.209v-0.766h-4.564
			c-1.089,0-1.975,0.886-1.975,1.975C18.13,130.202,19.016,131.088,20.105,131.088L20.105,131.088z M18.908,129.113
			c0-0.66,0.537-1.197,1.197-1.197s1.197,0.537,1.197,1.197s-0.537,1.197-1.197,1.197S18.908,129.773,18.908,129.113z
			 M18.13,138.288h6.539v-0.766c-0.667,0-1.21-0.542-1.21-1.209c0-0.667,0.543-1.209,1.21-1.209v-0.766H18.13V138.288z
			 M18.908,136.313c0-0.66,0.537-1.197,1.197-1.197s1.197,0.537,1.197,1.197c0,0.66-0.537,1.197-1.197,1.197
			S18.908,136.973,18.908,136.313z M20.105,145.488h4.564v-0.766c-0.667,0-1.21-0.542-1.21-1.209c0-0.667,0.543-1.209,1.21-1.209
			v-0.766h-4.564c-1.089,0-1.975,0.886-1.975,1.975C18.13,144.602,19.016,145.488,20.105,145.488L20.105,145.488z M18.908,143.513
			c0-0.66,0.537-1.197,1.197-1.197s1.197,0.537,1.197,1.197s-0.537,1.197-1.197,1.197S18.908,144.173,18.908,143.513z
			 M20.105,152.688h4.564v-0.766c-0.667,0-1.21-0.542-1.21-1.209c0-0.667,0.543-1.209,1.21-1.209v-0.766h-4.564
			c-1.089,0-1.975,0.886-1.975,1.975C18.13,151.802,19.016,152.688,20.105,152.688L20.105,152.688z M18.908,150.713
			c0-0.66,0.537-1.197,1.197-1.197s1.197,0.537,1.197,1.197s-0.537,1.197-1.197,1.197S18.908,151.373,18.908,150.713z
			 M20.105,159.888h4.564v-0.766c-0.667,0-1.21-0.541-1.21-1.208c0-0.667,0.543-1.209,1.21-1.209v-0.766h-4.564
			c-1.089,0-1.975,0.886-1.975,1.975S19.016,159.888,20.105,159.888L20.105,159.888z M18.908,157.913
			c0-0.66,0.537-1.197,1.197-1.197s1.197,0.536,1.197,1.197c0,0.66-0.537,1.197-1.197,1.197S18.908,158.573,18.908,157.913z
			 M20.105,167.088h4.564v-0.766c-0.667,0-1.21-0.543-1.21-1.21c0-0.666,0.543-1.208,1.21-1.208v-0.766h-4.564
			c-1.089,0-1.975,0.886-1.975,1.975C18.13,166.202,19.016,167.088,20.105,167.088L20.105,167.088z M18.908,165.113
			c0-0.659,0.537-1.197,1.197-1.197s1.197,0.537,1.197,1.197c0,0.66-0.537,1.198-1.197,1.198S18.908,165.773,18.908,165.113z
			 M18.13,174.288h6.539v-0.766c-0.667,0-1.21-0.541-1.21-1.208c0-0.667,0.543-1.209,1.21-1.209v-0.766H18.13V174.288z
			 M18.908,172.313c0-0.66,0.537-1.197,1.197-1.197s1.197,0.536,1.197,1.197c0,0.66-0.537,1.197-1.197,1.197
			S18.908,172.974,18.908,172.313z M20.105,181.488h4.564v-0.766c-0.667,0-1.21-0.542-1.21-1.209c0-0.667,0.543-1.209,1.21-1.209
			v-0.766h-4.564c-1.089,0-1.975,0.886-1.975,1.976C18.13,180.601,19.016,181.488,20.105,181.488L20.105,181.488z M18.908,179.513
			c0-0.66,0.537-1.198,1.197-1.198s1.197,0.538,1.197,1.198c0,0.66-0.537,1.197-1.197,1.197S18.908,180.173,18.908,179.513z
			 M20.105,188.688h4.564v-0.766c-0.667,0-1.21-0.541-1.21-1.208c0-0.667,0.543-1.209,1.21-1.209v-0.766h-4.564
			c-1.089,0-1.975,0.886-1.975,1.975C18.13,187.802,19.016,188.688,20.105,188.688L20.105,188.688z M18.908,186.713
			c0-0.66,0.537-1.197,1.197-1.197s1.197,0.536,1.197,1.197c0,0.66-0.537,1.197-1.197,1.197S18.908,187.373,18.908,186.713z
			 M20.105,195.888h4.564v-0.766c-0.667,0-1.21-0.542-1.21-1.209c0-0.667,0.543-1.209,1.21-1.209v-0.766h-4.564
			c-1.089,0-1.975,0.886-1.975,1.975C18.13,195.002,19.016,195.888,20.105,195.888L20.105,195.888z M18.908,193.913
			c0-0.66,0.537-1.198,1.197-1.198s1.197,0.538,1.197,1.198c0,0.66-0.537,1.197-1.197,1.197S18.908,194.572,18.908,193.913
			L18.908,193.913z M20.105,203.087h4.564v-0.766c-0.667,0-1.21-0.541-1.21-1.208c0-0.667,0.543-1.208,1.21-1.208v-0.766h-4.564
			c-1.089,0-1.975,0.886-1.975,1.975C18.13,202.202,19.016,203.087,20.105,203.087L20.105,203.087z M18.908,201.113
			c0-0.66,0.537-1.197,1.197-1.197s1.197,0.536,1.197,1.197c0,0.66-0.537,1.197-1.197,1.197S18.908,201.773,18.908,201.113
			L18.908,201.113z M18.13,210.288h6.539v-0.766c-0.667,0-1.21-0.542-1.21-1.208c0-0.667,0.543-1.21,1.21-1.21v-0.766H18.13V210.288
			z M18.908,208.313c0-0.66,0.537-1.198,1.197-1.198s1.197,0.537,1.197,1.197c0,0.66-0.537,1.198-1.197,1.198
			S18.908,208.972,18.908,208.313L18.908,208.313z M20.105,217.487h4.564v-0.766c-0.667,0-1.21-0.542-1.21-1.209
			c0-0.667,0.543-1.208,1.21-1.208v-0.766h-4.564c-1.089,0-1.975,0.886-1.975,1.975C18.13,216.602,19.016,217.487,20.105,217.487
			L20.105,217.487z M18.908,215.512c0-0.66,0.537-1.197,1.197-1.197s1.197,0.537,1.197,1.197c0,0.66-0.537,1.197-1.197,1.197
			S18.908,216.173,18.908,215.512L18.908,215.512z M20.105,224.687h4.564v-0.766c-0.667,0-1.21-0.543-1.21-1.209
			c0-0.667,0.543-1.209,1.21-1.209v-0.766h-4.564c-1.089,0-1.975,0.886-1.975,1.975C18.13,223.801,19.016,224.687,20.105,224.687
			L20.105,224.687z M18.908,222.712c0-0.66,0.537-1.198,1.197-1.198s1.197,0.538,1.197,1.197c0,0.66-0.537,1.198-1.197,1.198
			S18.908,223.372,18.908,222.712L18.908,222.712z M20.105,87.885h4.564v-0.766c-0.667,0-1.21-0.542-1.21-1.209
			s0.543-1.209,1.21-1.209v-0.766h-4.564c-1.089,0-1.975,0.886-1.975,1.975C18.13,86.999,19.016,87.885,20.105,87.885L20.105,87.885
			z M18.908,85.91c0-0.66,0.537-1.197,1.197-1.197s1.197,0.537,1.197,1.197s-0.537,1.197-1.197,1.197S18.908,86.57,18.908,85.91z
			 M-28.32,85.91c0-1.089-0.886-1.975-1.975-1.975h-4.565v0.766c0.667,0,1.21,0.542,1.21,1.209s-0.543,1.21-1.21,1.21v0.766h4.565
			C-29.206,87.885-28.32,86.999-28.32,85.91L-28.32,85.91z M-30.295,87.107c-0.66,0-1.198-0.537-1.198-1.197
			s0.537-1.197,1.198-1.197c0.66,0,1.197,0.537,1.197,1.197S-29.635,87.107-30.295,87.107L-30.295,87.107z"/>
		<g id="g98" transform="matrix(.0254 0 0 .0254 14.85 67.196)">
			<circle id="circle56" fill="none" cx="-1777.258" cy="737.052" r="45.351"/>
			<circle id="circle57" fill="none" cx="-1777.258" cy="1020.691" r="45.351"/>
			<circle id="circle58" fill="none" cx="-1777.258" cy="1304.15" r="45.351"/>
			<circle id="circle59" fill="none" cx="-1777.258" cy="1587.617" r="45.359"/>
			<circle id="circle60" fill="none" cx="-1777.258" cy="1871.084" r="45.351"/>
			<circle id="circle61" fill="none" cx="-1777.258" cy="2154.543" r="45.351"/>
			<circle id="circle62" fill="none" cx="-1777.258" cy="2438.01" r="45.359"/>
			<circle id="circle63" fill="none" cx="-1777.258" cy="2721.478" r="45.351"/>
			<circle id="circle64" fill="none" cx="-1778.496" cy="3004.937" r="45.351"/>
			<circle id="circle65" fill="none" cx="-1778.496" cy="3288.347" r="45.351"/>
			<circle id="circle66" fill="none" cx="-1778.496" cy="3571.815" r="45.359"/>
			<circle id="circle67" fill="none" cx="-1778.496" cy="3855.29" r="45.342"/>
			<circle id="circle68" fill="none" cx="-1778.496" cy="4138.733" r="45.359"/>
			<circle id="circle69" fill="none" cx="-1778.496" cy="4422.224" r="45.359"/>
			<circle id="circle70" fill="none" cx="-1778.496" cy="4705.667" r="45.342"/>
			<circle id="circle71" fill="none" cx="-1778.496" cy="4989.143" r="45.359"/>
			<circle id="circle72" fill="none" cx="-1778.496" cy="5272.602" r="45.359"/>
			<circle id="circle73" fill="none" cx="-1778.496" cy="5556.061" r="45.359"/>
			<circle id="circle74" fill="none" cx="-1778.496" cy="5839.537" r="45.342"/>
			<circle id="circle75" fill="none" cx="-1778.496" cy="6122.979" r="45.359"/>
			<circle id="circle76" fill="none" cx="205.75" cy="6122.979" r="45.359"/>
			<circle id="circle77" fill="none" cx="205.75" cy="5839.537" r="45.342"/>
			<circle id="circle78" fill="none" cx="205.75" cy="5556.061" r="45.359"/>
			<circle id="circle79" fill="none" cx="205.75" cy="5272.602" r="45.359"/>
			<circle id="circle80" fill="none" cx="205.75" cy="4989.143" r="45.359"/>
			<circle id="circle81" fill="none" cx="205.75" cy="4705.667" r="45.342"/>
			<circle id="circle82" fill="none" cx="205.75" cy="4422.224" r="45.359"/>
			<circle id="circle83" fill="none" cx="284.672" cy="4040.097" r="45.359"/>
			<circle id="circle84" fill="none" cx="310.724" cy="4026.77" r="45.359"/>
			<circle id="circle85" fill="none" cx="205.75" cy="3571.815" r="45.359"/>
			<circle id="circle86" fill="none" cx="205.75" cy="3288.347" r="45.351"/>
			<circle id="circle87" fill="none" cx="205.75" cy="3004.937" r="45.351"/>
			<circle id="circle88" fill="none" cx="205.75" cy="2721.478" r="45.351"/>
			<circle id="circle89" fill="none" cx="205.75" cy="2438.01" r="45.359"/>
			<circle id="circle90" fill="none" cx="205.75" cy="2154.543" r="45.351"/>
			<circle id="circle91" fill="none" cx="205.75" cy="1871.084" r="45.351"/>
			<circle id="circle92" fill="none" cx="205.75" cy="1587.617" r="45.359"/>
			<circle id="circle93" fill="none" cx="205.75" cy="1304.15" r="45.351"/>
			<circle id="circle94" fill="none" cx="205.75" cy="1020.691" r="45.351"/>
			<circle id="circle95" fill="none" cx="205.75" cy="737.224" r="45.359"/>
			<circle id="circle96" fill="none" cx="-1069.832" cy="6122.979" r="45.359"/>
			<circle id="circle97" fill="none" cx="-786.373" cy="6122.979" r="45.359"/>
			<circle id="circle98" fill="none" cx="-502.914" cy="6122.979" r="45.359"/>
		</g>
		<path id="rect98" fill="#B3B3B3" d="M-18.774,174.775h30.11c0.313,0,0.567,0.254,0.567,0.567v27.312
			c0,0.313-0.254,0.566-0.567,0.566h-30.11c-0.313,0-0.566-0.253-0.566-0.566v-27.312C-19.34,175.029-19.087,174.775-18.774,174.775
			z"/>
		
			<rect id="rect99" x="-0.317" y="158.456" transform="matrix(-2.547107e-006 -1 1 -2.547107e-006 -166.3443 172.0328)" fill="none" width="6.323" height="21.465"/>
		<g id="g101" transform="matrix(.0254 0 0 .0254 14.85 67.196)">
			<path id="path99" fill="#BE8936" d="M-825.313,3941.917v145.591h156.458v-145.591H-825.313z M-747.678,3957.82
				c30.809,0.032,55.77,25.025,55.753,55.851c0.017,30.826-24.944,55.786-55.753,55.818c-30.826,0.033-55.835-24.96-55.835-55.753
				c0-0.032,0-0.065,0-0.065c0-30.825,24.96-55.818,55.786-55.851C-747.711,3957.82-747.711,3957.82-747.678,3957.82z"/>
			<path id="path100" fill="#BE8936" d="M-455.552,3934.228c-43.126,0.032-78.074,34.996-78.09,78.106
				c-0.017,43.143,34.947,78.107,78.09,78.14c43.144,0.032,78.124-34.964,78.14-78.106c0,0,0,0,0-0.033
				C-377.428,3969.192-412.408,3934.228-455.552,3934.228z M-454.004,3955.929c30.826,0,55.819,24.961,55.835,55.786
				c0,0,0,0,0,0.033c-0.016,30.825-25.009,55.785-55.835,55.753c-30.793,0-55.753-24.96-55.77-55.753
				C-509.789,3980.955-484.813,3955.929-454.004,3955.929z"/>
			<path id="path101" fill="#BE8936" d="M-177.811,3938.399c-43.144,0-78.107,34.996-78.091,78.14
				c0.017,43.109,34.964,78.074,78.091,78.074c43.143,0,78.123-34.932,78.139-78.074c0.017-43.144-34.947-78.14-78.09-78.14
				C-177.778,3938.399-177.795,3938.399-177.811,3938.399z M-178.332,3960.1c30.81,0.033,55.786,25.025,55.77,55.852
				c-0.017,30.793-24.977,55.753-55.77,55.786c-30.81,0-55.803-24.961-55.835-55.786c0-30.826,24.96-55.818,55.786-55.852
				C-178.365,3960.1-178.349,3960.1-178.332,3960.1z"/>
		</g>
		<g id="g105" transform="matrix(.0254 0 0 .0254 14.85 67.196)">
			<path id="rect101" fill="#F2F2F2" d="M-1310.475,3879.093h279.549c12.317,0,22.321,9.972,22.321,22.321v197.304
				c0,12.317-10.004,22.288-22.321,22.288h-279.549c-12.317,0-22.354-9.971-22.354-22.288v-197.304
				C-1332.828,3889.065-1322.792,3879.093-1310.475,3879.093z"/>
			<g id="g104">
				
					<text transform="matrix(0.2522 -33.3663 33.3663 0.2522 -1463.7881 5677.9302)" fill="#FFFFFF" font-family="'ArialMT'" font-size="5.1729">Raspberry Pi Pico W 2022</text>
				<text transform="matrix(33.3673 0 0 33.3673 -683.208 3809.6548)" fill="#FFFFFF" font-family="'ArialMT'" font-size="4.2679">DEBUG</text>
				
					<text transform="matrix(33.3673 0 0 33.3673 -1193.8516 4942.8716)" fill="#4D4D4D" font-family="'ArialMT'" font-size="10.6837">Wi-Fi</text>
			</g>
		</g>
	</g>
</g>
</svg>
